<svg width="349" height="312" viewBox="0 0 349 312" fill="none" xmlns="http://www.w3.org/2000/svg">
<path d="M-27.4033 80.6992V244.716L107.756 204.187L-27.4033 80.6992ZM0.792566 149.059L46.784 191.079L0.792566 204.872V149.059Z" fill="#FAF7F2"/>
<path d="M-27.403 245.287C-27.5544 245.287 -27.6995 245.227 -27.8065 245.12C-27.9135 245.013 -27.9736 244.867 -27.9736 244.716V80.6991C-27.9736 80.5881 -27.9413 80.4794 -27.8805 80.3865C-27.8197 80.2936 -27.7331 80.2205 -27.6313 80.1761C-27.5295 80.1317 -27.417 80.1179 -27.3075 80.1365C-27.1981 80.155 -27.0964 80.2051 -27.015 80.2806L108.137 203.769C108.211 203.837 108.265 203.923 108.295 204.02C108.325 204.116 108.329 204.218 108.307 204.316C108.284 204.414 108.236 204.505 108.168 204.578C108.099 204.652 108.012 204.706 107.916 204.735L-27.2432 245.264C-27.2952 245.279 -27.349 245.286 -27.403 245.287ZM-26.8324 81.9925V243.948L106.63 203.929L-26.8324 81.9925ZM0.792868 205.443C0.641531 205.443 0.496401 205.383 0.389391 205.276C0.282381 205.169 0.222254 205.023 0.222254 204.872V149.059C0.22224 148.948 0.254622 148.839 0.31543 148.746C0.376236 148.653 0.462835 148.58 0.564596 148.536C0.666359 148.491 0.778872 148.477 0.88834 148.496C0.99781 148.514 1.09948 148.565 1.18089 148.64L47.1723 190.66C47.2464 190.728 47.3012 190.815 47.3311 190.911C47.3609 191.007 47.3649 191.109 47.3425 191.207C47.3201 191.305 47.2721 191.396 47.2035 191.469C47.1349 191.543 47.048 191.597 46.9517 191.626L0.952644 205.42C0.900675 205.435 0.846914 205.442 0.792868 205.443ZM1.36348 150.352V204.104L45.6583 190.82L1.36348 150.352Z" fill="#292929"/>
<path d="M274.358 92.1523L291.735 114.3C291.735 114.3 299.724 109.202 313.799 113.257L316.645 104.706C316.645 104.706 304.662 101.214 305.035 92.1447L274.358 92.1523Z" fill="#97DE40"/>
<path d="M291.735 114.863C291.648 114.862 291.563 114.842 291.485 114.804C291.407 114.766 291.339 114.71 291.286 114.642L273.909 92.4946C273.844 92.4104 273.803 92.3095 273.792 92.2034C273.781 92.0974 273.8 91.9903 273.847 91.8945C273.893 91.7987 273.966 91.7178 274.056 91.6612C274.147 91.6045 274.251 91.5743 274.358 91.574H305.004C305.08 91.5739 305.157 91.5894 305.227 91.6195C305.298 91.6496 305.362 91.6937 305.415 91.7491C305.469 91.8045 305.51 91.8701 305.537 91.942C305.565 92.0139 305.577 92.0906 305.574 92.1674C305.224 100.689 316.659 104.12 316.773 104.158C316.851 104.179 316.923 104.216 316.985 104.267C317.047 104.318 317.098 104.381 317.134 104.453C317.17 104.525 317.19 104.604 317.193 104.684C317.197 104.764 317.183 104.844 317.154 104.919L314.362 113.432C314.316 113.573 314.218 113.691 314.087 113.76C313.956 113.83 313.804 113.846 313.662 113.805C300.043 109.879 292.146 114.733 292.07 114.787C291.969 114.846 291.852 114.872 291.735 114.863ZM275.56 92.7228L291.91 113.554C293.782 112.55 301.306 109.21 313.456 112.55L315.929 105.071C313.54 104.249 304.578 100.658 304.463 92.7152L275.56 92.7228Z" fill="#292929"/>
<path d="M336.319 124.974L312.079 115.882L316.423 102.028L341.53 108.426C342.673 108.717 343.745 109.239 344.68 109.958C345.615 110.677 346.394 111.58 346.968 112.61C347.543 113.64 347.901 114.777 348.022 115.95C348.143 117.124 348.023 118.309 347.67 119.435C347.318 120.564 346.739 121.61 345.969 122.507C345.198 123.404 344.252 124.135 343.189 124.653C342.126 125.172 340.969 125.468 339.787 125.523C338.606 125.578 337.425 125.391 336.319 124.974Z" fill="#292929"/>
<path d="M339.377 126.107C338.265 126.107 337.162 125.906 336.121 125.514L311.851 116.422C311.714 116.371 311.602 116.268 311.538 116.137C311.475 116.005 311.464 115.854 311.508 115.715L315.883 101.86C315.927 101.721 316.023 101.605 316.15 101.534C316.277 101.463 316.427 101.444 316.568 101.48L341.675 107.886C343.888 108.419 345.826 109.749 347.121 111.621C348.415 113.494 348.974 115.777 348.692 118.035C348.41 120.294 347.305 122.369 345.59 123.865C343.875 125.361 341.668 126.173 339.392 126.145L339.377 126.107ZM336.524 124.411C337.557 124.8 338.659 124.975 339.761 124.924C340.864 124.873 341.945 124.598 342.937 124.115C343.93 123.632 344.813 122.951 345.533 122.114C346.254 121.278 346.796 120.303 347.126 119.25C347.456 118.196 347.568 117.087 347.455 115.989C347.341 114.891 347.005 113.827 346.466 112.864C345.927 111.9 345.197 111.057 344.321 110.386C343.445 109.714 342.441 109.228 341.371 108.959L316.781 102.689L312.756 115.509L336.524 124.411Z" fill="#292929"/>
<path d="M255.742 176.676L32.6328 243.575V67.4685L255.742 0.569824V176.676Z" fill="#FAF7F2"/>
<path d="M32.6321 244.146C32.4808 244.146 32.3357 244.085 32.2287 243.978C32.1216 243.871 32.0615 243.726 32.0615 243.575V67.4685C32.061 67.346 32.1 67.2266 32.1726 67.128C32.2452 67.0293 32.3477 66.9566 32.4648 66.9207L255.574 0.0296433C255.66 0.00542648 255.749 0.00106811 255.836 0.0168965C255.923 0.0327248 256.005 0.0683197 256.077 0.120943C256.147 0.174094 256.205 0.243013 256.245 0.322246C256.284 0.401479 256.305 0.488848 256.305 0.577433V176.676C256.305 176.799 256.266 176.918 256.194 177.017C256.121 177.115 256.019 177.188 255.902 177.224L32.7995 244.115C32.7455 244.133 32.6891 244.143 32.6321 244.146ZM33.2028 67.9022V242.814L255.171 176.258V1.33825L33.2028 67.9022Z" fill="#292929"/>
<path d="M229.637 140.244C229.486 140.244 229.341 140.184 229.234 140.077C229.127 139.97 229.066 139.825 229.066 139.673V38.9943C229.066 38.8718 229.105 38.7524 229.177 38.6537C229.25 38.5551 229.353 38.4824 229.47 38.4465L300.986 16.9914C301.058 16.9699 301.134 16.9628 301.209 16.9705C301.283 16.9782 301.356 17.0005 301.422 17.0362C301.488 17.0719 301.546 17.1202 301.594 17.1785C301.641 17.2367 301.676 17.3037 301.698 17.3756C301.719 17.4476 301.726 17.523 301.719 17.5977C301.711 17.6724 301.689 17.7448 301.653 17.8109C301.617 17.877 301.569 17.9353 301.511 17.9827C301.453 18.0301 301.386 18.0655 301.314 18.087L230.17 39.3899V138.905L300.979 117.67C301.124 117.627 301.281 117.643 301.414 117.715C301.548 117.787 301.647 117.909 301.69 118.055C301.734 118.2 301.717 118.356 301.645 118.49C301.573 118.623 301.451 118.723 301.306 118.766L229.789 140.221C229.74 140.235 229.689 140.243 229.637 140.244Z" fill="#292929"/>
<path d="M177.637 151.79C177.485 151.79 177.34 151.73 177.233 151.623C177.126 151.516 177.066 151.371 177.066 151.219V148.397C177.066 148.245 177.126 148.1 177.233 147.993C177.34 147.886 177.485 147.826 177.637 147.826C177.788 147.826 177.933 147.886 178.04 147.993C178.147 148.1 178.207 148.245 178.207 148.397V150.451L178.413 150.39C178.485 150.369 178.56 150.361 178.635 150.369C178.709 150.377 178.782 150.399 178.848 150.435C178.914 150.47 178.972 150.519 179.02 150.577C179.067 150.635 179.103 150.702 179.124 150.774C179.145 150.846 179.153 150.922 179.145 150.996C179.137 151.071 179.115 151.143 179.079 151.209C179.044 151.276 178.995 151.334 178.937 151.381C178.879 151.429 178.812 151.464 178.74 151.486L177.804 151.767C177.75 151.783 177.693 151.79 177.637 151.79ZM182.202 150.413C182.063 150.415 181.929 150.367 181.824 150.277C181.719 150.188 181.65 150.063 181.629 149.927C181.609 149.79 181.639 149.651 181.713 149.535C181.788 149.418 181.902 149.333 182.034 149.294L185.678 148.199C185.75 148.177 185.826 148.17 185.901 148.178C185.975 148.186 186.048 148.208 186.114 148.244C186.18 148.279 186.238 148.328 186.286 148.386C186.333 148.444 186.368 148.511 186.39 148.583C186.411 148.655 186.418 148.73 186.411 148.805C186.403 148.88 186.381 148.952 186.345 149.018C186.309 149.084 186.261 149.143 186.203 149.19C186.145 149.238 186.078 149.273 186.006 149.294L182.361 150.39C182.316 150.417 182.267 150.437 182.217 150.451L182.202 150.413ZM189.49 148.229C189.352 148.231 189.218 148.183 189.113 148.094C189.008 148.004 188.938 147.88 188.918 147.743C188.898 147.607 188.927 147.467 189.002 147.351C189.076 147.235 189.19 147.15 189.323 147.111L192.967 146.015C193.039 145.994 193.114 145.987 193.189 145.994C193.264 146.002 193.336 146.024 193.402 146.06C193.468 146.096 193.527 146.144 193.574 146.202C193.622 146.261 193.657 146.328 193.678 146.4C193.7 146.471 193.707 146.547 193.699 146.622C193.692 146.696 193.669 146.769 193.634 146.835C193.598 146.901 193.55 146.959 193.491 147.007C193.433 147.054 193.366 147.089 193.294 147.111L189.635 148.237C189.593 148.249 189.549 148.257 189.505 148.26L189.49 148.229ZM196.779 146.046C196.641 146.048 196.507 145.999 196.402 145.91C196.296 145.821 196.227 145.696 196.207 145.56C196.186 145.423 196.216 145.284 196.29 145.168C196.365 145.051 196.479 144.966 196.611 144.927L200.256 143.832C200.328 143.81 200.403 143.803 200.478 143.811C200.552 143.819 200.625 143.841 200.691 143.877C200.757 143.912 200.815 143.961 200.863 144.019C200.91 144.077 200.946 144.144 200.967 144.216C200.989 144.288 200.996 144.363 200.988 144.438C200.98 144.513 200.958 144.585 200.922 144.651C200.887 144.717 200.838 144.776 200.78 144.823C200.722 144.87 200.655 144.906 200.583 144.927L196.939 146.023C196.893 146.047 196.844 146.065 196.794 146.076L196.779 146.046ZM177.621 145.163C177.47 145.163 177.325 145.103 177.218 144.996C177.111 144.889 177.051 144.744 177.051 144.593V140.789C177.051 140.637 177.111 140.492 177.218 140.385C177.325 140.278 177.47 140.218 177.621 140.218C177.773 140.218 177.918 140.278 178.025 140.385C178.132 140.492 178.192 140.637 178.192 140.789V144.593C178.196 144.669 178.185 144.745 178.159 144.817C178.133 144.889 178.093 144.954 178.041 145.01C177.99 145.067 177.927 145.112 177.858 145.143C177.788 145.175 177.713 145.192 177.637 145.194L177.621 145.163ZM204.09 143.893C203.952 143.895 203.818 143.846 203.713 143.757C203.608 143.668 203.539 143.543 203.518 143.407C203.498 143.27 203.527 143.131 203.602 143.014C203.676 142.898 203.79 142.813 203.923 142.774L207.567 141.679C207.712 141.635 207.869 141.651 208.002 141.723C208.136 141.796 208.235 141.918 208.279 142.063C208.322 142.208 208.306 142.365 208.234 142.498C208.162 142.632 208.04 142.731 207.894 142.774L204.25 143.87C204.198 143.885 204.144 143.893 204.09 143.893ZM211.379 141.709C211.241 141.711 211.107 141.663 211.002 141.573C210.896 141.484 210.827 141.36 210.807 141.223C210.786 141.086 210.816 140.947 210.89 140.831C210.965 140.715 211.079 140.629 211.211 140.591L214.856 139.495C214.928 139.474 215.003 139.467 215.078 139.474C215.153 139.482 215.225 139.504 215.291 139.54C215.357 139.576 215.415 139.624 215.463 139.682C215.51 139.74 215.546 139.807 215.567 139.879C215.589 139.951 215.596 140.027 215.588 140.101C215.58 140.176 215.558 140.249 215.522 140.315C215.487 140.381 215.438 140.439 215.38 140.486C215.322 140.534 215.255 140.569 215.183 140.591L211.539 141.686C211.484 141.702 211.428 141.71 211.371 141.709H211.379ZM218.667 139.526C218.529 139.527 218.395 139.479 218.29 139.39C218.185 139.3 218.116 139.176 218.095 139.039C218.075 138.903 218.105 138.764 218.179 138.647C218.254 138.531 218.368 138.446 218.5 138.407L222.144 137.312C222.29 137.268 222.446 137.284 222.58 137.356C222.713 137.428 222.812 137.551 222.856 137.696C222.899 137.841 222.883 137.998 222.811 138.131C222.739 138.264 222.617 138.364 222.472 138.407L218.827 139.503C218.77 139.517 218.711 139.522 218.652 139.518L218.667 139.526ZM177.644 137.593C177.493 137.593 177.348 137.533 177.241 137.426C177.134 137.319 177.074 137.174 177.074 137.022V133.218C177.074 133.067 177.134 132.922 177.241 132.815C177.348 132.708 177.493 132.648 177.644 132.648C177.796 132.648 177.941 132.708 178.048 132.815C178.155 132.922 178.215 133.067 178.215 133.218V137.022C178.214 137.097 178.198 137.171 178.169 137.24C178.139 137.309 178.096 137.371 178.042 137.424C177.989 137.476 177.925 137.517 177.856 137.545C177.786 137.573 177.712 137.586 177.637 137.585L177.644 137.593ZM224.473 136.239C224.321 136.239 224.176 136.179 224.069 136.072C223.962 135.965 223.902 135.82 223.902 135.668V131.864C223.902 131.713 223.962 131.568 224.069 131.461C224.176 131.354 224.321 131.294 224.473 131.294C224.624 131.294 224.769 131.354 224.876 131.461C224.983 131.568 225.043 131.713 225.043 131.864V135.668C225.042 135.743 225.026 135.817 224.997 135.886C224.967 135.955 224.924 136.017 224.871 136.069C224.817 136.122 224.753 136.163 224.684 136.191C224.614 136.218 224.54 136.232 224.465 136.231L224.473 136.239ZM177.644 129.985C177.493 129.985 177.348 129.925 177.241 129.818C177.134 129.711 177.074 129.566 177.074 129.414V125.61C177.074 125.459 177.134 125.314 177.241 125.207C177.348 125.1 177.493 125.04 177.644 125.04C177.796 125.04 177.941 125.1 178.048 125.207C178.155 125.314 178.215 125.459 178.215 125.61V129.414C178.214 129.489 178.198 129.563 178.169 129.632C178.139 129.701 178.096 129.763 178.042 129.816C177.989 129.868 177.925 129.909 177.856 129.937C177.786 129.965 177.712 129.978 177.637 129.977L177.644 129.985ZM224.473 128.631C224.321 128.631 224.176 128.571 224.069 128.464C223.962 128.357 223.902 128.211 223.902 128.06V124.256C223.902 124.105 223.962 123.959 224.069 123.852C224.176 123.745 224.321 123.685 224.473 123.685C224.624 123.685 224.769 123.745 224.876 123.852C224.983 123.959 225.043 124.105 225.043 124.256V128.06C225.042 128.135 225.026 128.209 224.997 128.278C224.967 128.347 224.924 128.409 224.871 128.461C224.817 128.514 224.753 128.555 224.684 128.583C224.614 128.61 224.54 128.624 224.465 128.623L224.473 128.631ZM177.644 122.377C177.493 122.377 177.348 122.317 177.241 122.21C177.134 122.103 177.074 121.957 177.074 121.806V118.002C177.074 117.851 177.134 117.706 177.241 117.599C177.348 117.492 177.493 117.431 177.644 117.431C177.796 117.431 177.941 117.492 178.048 117.599C178.155 117.706 178.215 117.851 178.215 118.002V121.806C178.214 121.881 178.198 121.955 178.169 122.024C178.139 122.093 178.096 122.155 178.042 122.207C177.989 122.26 177.925 122.301 177.856 122.329C177.786 122.356 177.712 122.37 177.637 122.369L177.644 122.377ZM224.473 121.022C224.321 121.022 224.176 120.962 224.069 120.855C223.962 120.748 223.902 120.603 223.902 120.452V116.648C223.902 116.496 223.962 116.351 224.069 116.244C224.176 116.137 224.321 116.077 224.473 116.077C224.624 116.077 224.769 116.137 224.876 116.244C224.983 116.351 225.043 116.496 225.043 116.648V120.452C225.042 120.527 225.026 120.601 224.997 120.67C224.967 120.739 224.924 120.801 224.871 120.853C224.817 120.905 224.753 120.947 224.684 120.974C224.614 121.002 224.54 121.016 224.465 121.015L224.473 121.022ZM177.644 114.769C177.493 114.769 177.348 114.708 177.241 114.601C177.134 114.494 177.074 114.349 177.074 114.198V110.394C177.074 110.243 177.134 110.097 177.241 109.99C177.348 109.883 177.493 109.823 177.644 109.823C177.796 109.823 177.941 109.883 178.048 109.99C178.155 110.097 178.215 110.243 178.215 110.394V114.198C178.214 114.273 178.198 114.347 178.169 114.416C178.139 114.485 178.096 114.547 178.042 114.599C177.989 114.651 177.925 114.693 177.856 114.72C177.786 114.748 177.712 114.762 177.637 114.761L177.644 114.769ZM224.473 113.414C224.321 113.414 224.176 113.354 224.069 113.247C223.962 113.14 223.902 112.995 223.902 112.844V109.04C223.902 108.888 223.962 108.743 224.069 108.636C224.176 108.529 224.321 108.469 224.473 108.469C224.624 108.469 224.769 108.529 224.876 108.636C224.983 108.743 225.043 108.888 225.043 109.04V112.844C225.042 112.919 225.026 112.993 224.997 113.061C224.967 113.13 224.924 113.193 224.871 113.245C224.817 113.297 224.753 113.338 224.684 113.366C224.614 113.394 224.54 113.408 224.465 113.407L224.473 113.414ZM177.644 107.16C177.493 107.16 177.348 107.1 177.241 106.993C177.134 106.886 177.074 106.741 177.074 106.59V102.786C177.074 102.634 177.134 102.489 177.241 102.382C177.348 102.275 177.493 102.215 177.644 102.215C177.796 102.215 177.941 102.275 178.048 102.382C178.155 102.489 178.215 102.634 178.215 102.786V106.59C178.214 106.665 178.198 106.739 178.169 106.808C178.139 106.876 178.096 106.939 178.042 106.991C177.989 107.043 177.925 107.085 177.856 107.112C177.786 107.14 177.712 107.154 177.637 107.153L177.644 107.16ZM224.473 105.806C224.321 105.806 224.176 105.746 224.069 105.639C223.962 105.532 223.902 105.387 223.902 105.236V101.431C223.902 101.28 223.962 101.135 224.069 101.028C224.176 100.921 224.321 100.861 224.473 100.861C224.624 100.861 224.769 100.921 224.876 101.028C224.983 101.135 225.043 101.28 225.043 101.431V105.236C225.042 105.31 225.026 105.384 224.997 105.453C224.967 105.522 224.924 105.585 224.871 105.637C224.817 105.689 224.753 105.73 224.684 105.758C224.614 105.786 224.54 105.8 224.465 105.799L224.473 105.806ZM178.869 100.48C178.731 100.482 178.597 100.434 178.492 100.345C178.387 100.255 178.317 100.131 178.297 99.9943C178.277 99.8578 178.306 99.7185 178.381 99.6022C178.455 99.486 178.569 99.4006 178.702 99.362L182.346 98.2664C182.491 98.223 182.648 98.2392 182.781 98.3112C182.915 98.3833 183.014 98.5054 183.057 98.6506C183.101 98.7959 183.085 98.9525 183.013 99.0859C182.941 99.2193 182.819 99.3186 182.673 99.362L179.029 100.458C178.973 100.466 178.917 100.466 178.862 100.458L178.869 100.48ZM186.158 98.2969C186.02 98.2988 185.886 98.2505 185.781 98.1612C185.675 98.0718 185.606 97.9473 185.586 97.8108C185.565 97.6742 185.595 97.5349 185.669 97.4187C185.744 97.3024 185.858 97.2171 185.99 97.1785L189.635 96.0829C189.78 96.0395 189.937 96.0556 190.07 96.1277C190.203 96.1997 190.303 96.3218 190.346 96.4671C190.389 96.6124 190.373 96.7689 190.301 96.9024C190.229 97.0358 190.107 97.1351 189.962 97.1785L186.318 98.274C186.262 98.2823 186.206 98.2823 186.15 98.274L186.158 98.2969ZM224.473 98.2208C224.321 98.2208 224.176 98.1607 224.069 98.0537C223.962 97.9466 223.902 97.8015 223.902 97.6502V93.8461C223.902 93.6947 223.962 93.5496 224.069 93.4426C224.176 93.3356 224.321 93.2755 224.473 93.2755C224.624 93.2755 224.769 93.3356 224.876 93.4426C224.983 93.5496 225.043 93.6947 225.043 93.8461V97.6502C225.035 97.7975 224.971 97.936 224.863 98.0368C224.755 98.1375 224.612 98.1925 224.465 98.1904L224.473 98.2208ZM193.439 96.0829C193.301 96.0848 193.167 96.0366 193.062 95.9472C192.956 95.8578 192.887 95.7333 192.867 95.5968C192.846 95.4603 192.876 95.321 192.95 95.2047C193.025 95.0884 193.139 95.0031 193.271 94.9645L196.916 93.8689C196.988 93.8474 197.063 93.8403 197.138 93.848C197.212 93.8557 197.285 93.878 197.351 93.9137C197.417 93.9494 197.475 93.9977 197.523 94.0559C197.57 94.1142 197.606 94.1812 197.627 94.2531C197.649 94.3251 197.656 94.4005 197.648 94.4752C197.64 94.5499 197.618 94.6223 197.582 94.6884C197.547 94.7544 197.498 94.8128 197.44 94.8602C197.382 94.9076 197.315 94.943 197.243 94.9645L193.599 96.0601C193.547 96.0752 193.493 96.0829 193.439 96.0829ZM200.727 93.8993C200.589 93.9012 200.455 93.853 200.35 93.7636C200.245 93.6743 200.176 93.5498 200.155 93.4132C200.135 93.2767 200.165 93.1374 200.239 93.0212C200.313 92.9049 200.427 92.8196 200.56 92.7809L204.204 91.6854C204.35 91.642 204.506 91.6581 204.64 91.7301C204.773 91.8022 204.872 91.9243 204.916 92.0696C204.959 92.2149 204.943 92.3714 204.871 92.5048C204.799 92.6382 204.677 92.7376 204.531 92.7809L200.887 93.8765C200.833 93.8924 200.776 93.9001 200.72 93.8993H200.727ZM208.016 91.7158C207.878 91.7177 207.744 91.6695 207.639 91.5801C207.534 91.4907 207.464 91.3662 207.444 91.2297C207.424 91.0932 207.453 90.9539 207.528 90.8376C207.602 90.7213 207.716 90.636 207.849 90.5974L211.493 89.5018C211.565 89.4803 211.64 89.4732 211.715 89.4809C211.79 89.4886 211.862 89.5109 211.928 89.5466C211.994 89.5823 212.053 89.6306 212.1 89.6889C212.147 89.7471 212.183 89.8141 212.204 89.886C212.226 89.958 212.233 90.0334 212.225 90.1081C212.218 90.1828 212.195 90.2552 212.16 90.3213C212.124 90.3873 212.076 90.4457 212.017 90.4931C211.959 90.5405 211.892 90.5759 211.82 90.5974L208.176 91.6854C208.12 91.6936 208.064 91.6936 208.008 91.6854L208.016 91.7158ZM224.473 90.5822C224.321 90.5822 224.176 90.5221 224.069 90.4151C223.962 90.308 223.902 90.1629 223.902 90.0116V86.9683L222.761 87.3107C222.615 87.354 222.459 87.3379 222.325 87.2659C222.192 87.1938 222.093 87.0717 222.049 86.9264C222.006 86.7812 222.022 86.6246 222.094 86.4912C222.166 86.3578 222.288 86.2585 222.434 86.2151L224.313 85.6521C224.398 85.6279 224.487 85.6235 224.574 85.6393C224.661 85.6552 224.744 85.6908 224.815 85.7434C224.886 85.7965 224.943 85.8655 224.983 85.9447C225.023 86.0239 225.043 86.1113 225.043 86.1999V90.004C225.044 90.0802 225.03 90.1558 225.001 90.2264C224.973 90.2971 224.93 90.3612 224.876 90.4151C224.822 90.469 224.758 90.5116 224.687 90.5402C224.617 90.5689 224.541 90.5832 224.465 90.5822H224.473ZM215.343 89.5246C215.205 89.5265 215.071 89.4783 214.965 89.3889C214.86 89.2996 214.791 89.1751 214.771 89.0385C214.75 88.902 214.78 88.7627 214.854 88.6465C214.929 88.5302 215.043 88.4449 215.175 88.4062L218.82 87.3107C218.965 87.2673 219.122 87.2834 219.255 87.3554C219.388 87.4275 219.488 87.5496 219.531 87.6949C219.574 87.8402 219.558 87.9967 219.486 88.1301C219.414 88.2635 219.292 88.3629 219.147 88.4062L215.502 89.5018C215.436 89.5244 215.367 89.5348 215.297 89.5322L215.343 89.5246Z" fill="#292929"/>
<path d="M84.1556 118.945C84.0042 118.945 83.8591 118.885 83.7521 118.778C83.6451 118.671 83.585 118.526 83.585 118.375V92.2255C83.5845 92.103 83.6234 91.9836 83.696 91.885C83.7687 91.7863 83.8711 91.7136 83.9882 91.6777L211.349 53.4923C211.434 53.4681 211.524 53.4637 211.611 53.4795C211.698 53.4954 211.78 53.531 211.851 53.5836C211.922 53.6367 211.98 53.7057 212.019 53.7849C212.059 53.8641 212.079 53.9515 212.079 54.0401V80.1894C212.08 80.3119 212.041 80.4313 211.968 80.5299C211.896 80.6286 211.793 80.7012 211.676 80.7372L84.3154 118.923C84.2634 118.937 84.2096 118.945 84.1556 118.945ZM84.7262 92.6516V117.606L210.938 79.7633V54.8085L84.7262 92.6516Z" fill="#292929"/>
<path d="M338.039 34.6731V60.8224L308.504 69.6783V43.529L338.039 34.6731Z" fill="#FAF7F2"/>
<path d="M308.503 70.2489C308.352 70.2489 308.207 70.1888 308.1 70.0818C307.993 69.9748 307.933 69.8297 307.933 69.6783V43.529C307.932 43.4066 307.971 43.2872 308.044 43.1885C308.116 43.0899 308.219 43.0172 308.336 42.9813L337.871 34.1253C337.956 34.1011 338.045 34.0968 338.132 34.1126C338.22 34.1284 338.302 34.164 338.373 34.2166C338.444 34.2698 338.501 34.3387 338.541 34.4179C338.581 34.4972 338.601 34.5846 338.601 34.6731V60.8224C338.602 60.9449 338.563 61.0643 338.49 61.163C338.417 61.2616 338.315 61.3343 338.198 61.3702L308.663 70.2261C308.611 70.241 308.557 70.2486 308.503 70.2489ZM309.074 43.9551V68.9099L337.468 60.3964V35.4416L309.074 43.9551Z" fill="#292929"/>
<path d="M80.4495 145.445C80.3115 145.447 80.1774 145.398 80.0723 145.309C79.9671 145.22 79.8978 145.095 79.8774 144.959C79.8569 144.822 79.8867 144.683 79.9611 144.566C80.0355 144.45 80.1496 144.365 80.2821 144.326L161.347 120.018C161.493 119.975 161.649 119.991 161.782 120.063C161.916 120.135 162.015 120.257 162.059 120.402C162.102 120.548 162.086 120.704 162.014 120.838C161.942 120.971 161.82 121.07 161.674 121.114L80.6093 145.422C80.5574 145.437 80.5036 145.445 80.4495 145.445Z" fill="#292929"/>
<path d="M80.4495 160.988C80.3115 160.99 80.1774 160.942 80.0723 160.853C79.9671 160.763 79.8978 160.639 79.8774 160.502C79.8569 160.366 79.8867 160.226 79.9611 160.11C80.0355 159.994 80.1496 159.908 80.2821 159.87L161.347 135.562C161.419 135.54 161.495 135.533 161.569 135.541C161.644 135.549 161.716 135.571 161.782 135.607C161.849 135.642 161.907 135.691 161.954 135.749C162.002 135.807 162.037 135.874 162.059 135.946C162.08 136.018 162.087 136.093 162.079 136.168C162.072 136.243 162.049 136.315 162.014 136.381C161.978 136.447 161.93 136.506 161.872 136.553C161.813 136.6 161.746 136.636 161.674 136.657L80.6093 160.965C80.5574 160.981 80.5036 160.988 80.4495 160.988Z" fill="#292929"/>
<path d="M80.4495 176.532C80.3115 176.534 80.1774 176.485 80.0723 176.396C79.9671 176.307 79.8978 176.182 79.8774 176.046C79.8569 175.909 79.8867 175.77 79.9611 175.654C80.0355 175.537 80.1496 175.452 80.2821 175.413L161.347 151.105C161.419 151.084 161.495 151.077 161.569 151.084C161.644 151.092 161.716 151.114 161.782 151.15C161.849 151.186 161.907 151.234 161.954 151.292C162.002 151.35 162.037 151.417 162.059 151.489C162.08 151.561 162.087 151.637 162.079 151.711C162.072 151.786 162.049 151.859 162.014 151.925C161.978 151.991 161.93 152.049 161.872 152.096C161.813 152.144 161.746 152.179 161.674 152.201L80.6093 176.509C80.5574 176.524 80.5036 176.532 80.4495 176.532Z" fill="#292929"/>
<path d="M96.055 216.87C95.9037 216.87 95.7585 216.81 95.6515 216.703C95.5445 216.596 95.4844 216.451 95.4844 216.3V186.985C95.4839 186.863 95.5228 186.743 95.5955 186.645C95.6681 186.546 95.7705 186.473 95.8876 186.437L125.346 177.604C125.432 177.58 125.521 177.576 125.608 177.592C125.695 177.607 125.777 177.643 125.849 177.696C125.919 177.749 125.977 177.818 126.017 177.897C126.056 177.976 126.077 178.064 126.077 178.152V207.466C126.077 207.589 126.038 207.708 125.966 207.807C125.893 207.906 125.791 207.978 125.674 208.014L96.2148 216.847C96.1628 216.862 96.109 216.87 96.055 216.87ZM96.6256 187.411V215.562L124.966 207.048V178.898L96.6256 187.411Z" fill="#292929"/>
<path d="M137.139 204.56C136.988 204.56 136.842 204.5 136.735 204.393C136.628 204.286 136.568 204.141 136.568 203.99V174.675C136.568 174.553 136.607 174.433 136.679 174.335C136.752 174.236 136.854 174.163 136.972 174.127L166.438 165.294C166.523 165.27 166.613 165.266 166.7 165.282C166.787 165.297 166.869 165.333 166.94 165.386C167.011 165.439 167.069 165.508 167.108 165.587C167.148 165.666 167.168 165.754 167.168 165.842V195.156C167.169 195.279 167.13 195.398 167.057 195.497C166.985 195.596 166.882 195.668 166.765 195.704L137.299 204.537C137.247 204.552 137.193 204.56 137.139 204.56ZM137.71 175.101V203.252L166.035 194.761V166.611L137.71 175.101Z" fill="#292929"/>
<path d="M178.169 192.25C178.018 192.25 177.873 192.19 177.766 192.083C177.659 191.976 177.599 191.831 177.599 191.68V162.365C177.598 162.243 177.637 162.123 177.71 162.025C177.782 161.926 177.885 161.853 178.002 161.818L207.461 152.984C207.546 152.96 207.635 152.956 207.722 152.972C207.809 152.988 207.892 153.023 207.963 153.076C208.034 153.129 208.091 153.198 208.131 153.277C208.17 153.356 208.191 153.444 208.191 153.532V182.847C208.192 182.969 208.153 183.088 208.08 183.187C208.007 183.286 207.905 183.358 207.788 183.394L178.329 192.227C178.277 192.242 178.223 192.25 178.169 192.25ZM178.74 162.791V190.942L207.057 182.451V154.301L178.74 162.791Z" fill="#292929"/>
<path d="M255.742 0.569824V15.5579L32.6328 82.4566V67.4685L255.742 0.569824Z" fill="#97DE40"/>
<path d="M32.6321 83.0272C32.4808 83.0272 32.3357 82.9671 32.2287 82.8601C32.1216 82.7531 32.0615 82.608 32.0615 82.4566V67.4685C32.061 67.346 32.1 67.2266 32.1726 67.128C32.2452 67.0293 32.3477 66.9567 32.4648 66.9207L255.574 0.0220749C255.66 -0.00214188 255.749 -0.00650025 255.836 0.00932809C255.923 0.0251564 256.005 0.0607513 256.077 0.113375C256.147 0.166526 256.205 0.235445 256.245 0.314678C256.284 0.393911 256.305 0.481279 256.305 0.569864V15.558C256.305 15.6805 256.266 15.7999 256.194 15.8985C256.121 15.9972 256.019 16.0698 255.902 16.1058L32.7919 83.0044C32.7399 83.0193 32.6862 83.0269 32.6321 83.0272ZM33.2028 67.8946V81.6882L255.171 15.1319V1.33829L33.2028 67.8946Z" fill="#292929"/>
<path d="M125.513 208.037C125.397 208.038 125.282 208.004 125.186 207.938L95.7272 187.457C95.6031 187.37 95.5185 187.238 95.4921 187.089C95.4657 186.94 95.4997 186.786 95.5864 186.662C95.6732 186.538 95.8057 186.453 95.9548 186.427C96.1039 186.401 96.2574 186.434 96.3815 186.521L125.84 207.002C125.942 207.071 126.018 207.171 126.058 207.287C126.099 207.403 126.1 207.528 126.064 207.645C126.027 207.762 125.954 207.864 125.855 207.936C125.755 208.008 125.636 208.046 125.513 208.045V208.037Z" fill="#292929"/>
<path d="M96.0542 216.87C95.9475 216.87 95.8431 216.84 95.7528 216.783C95.6624 216.726 95.5898 216.646 95.5431 216.55C95.4963 216.454 95.4774 216.347 95.4884 216.241C95.4994 216.135 95.5399 216.034 95.6053 215.95L125.064 177.802C125.157 177.682 125.294 177.604 125.444 177.585C125.595 177.565 125.747 177.607 125.867 177.7C125.987 177.792 126.065 177.929 126.084 178.08C126.104 178.23 126.062 178.382 125.969 178.502L96.5106 216.65C96.4567 216.719 96.3874 216.775 96.3083 216.813C96.2291 216.852 96.1421 216.871 96.0542 216.87Z" fill="#292929"/>
<path d="M80.4502 215.493C80.3336 215.495 80.2194 215.46 80.1231 215.394L70.5444 208.737C70.4811 208.693 70.4273 208.637 70.3863 208.572C70.3453 208.507 70.318 208.434 70.3059 208.358C70.2938 208.282 70.2973 208.204 70.316 208.129C70.3348 208.055 70.3684 207.984 70.415 207.923L79.9937 195.514C80.0397 195.455 80.0969 195.405 80.1621 195.368C80.2273 195.33 80.2992 195.306 80.3738 195.297C80.4483 195.287 80.524 195.292 80.5965 195.312C80.669 195.332 80.7369 195.366 80.7964 195.412C80.8558 195.457 80.9057 195.515 80.943 195.58C80.9803 195.645 81.0044 195.717 81.014 195.792C81.0235 195.866 81.0183 195.942 80.9986 196.014C80.9789 196.087 80.945 196.155 80.8991 196.214L71.7084 208.136L80.8002 214.451C80.9015 214.52 80.9779 214.62 81.0181 214.735C81.0584 214.851 81.0603 214.977 81.0236 215.094C80.9869 215.21 80.9135 215.312 80.8144 215.384C80.7152 215.456 80.5955 215.495 80.473 215.493H80.4502Z" fill="#292929"/>
<path d="M166.575 195.727C166.458 195.729 166.344 195.694 166.247 195.628L136.781 175.147C136.657 175.06 136.572 174.928 136.546 174.779C136.519 174.63 136.553 174.476 136.64 174.352C136.727 174.228 136.859 174.143 137.009 174.117C137.158 174.091 137.311 174.124 137.435 174.211L166.902 194.692C167.003 194.761 167.079 194.861 167.12 194.977C167.16 195.092 167.162 195.218 167.125 195.335C167.088 195.452 167.015 195.554 166.916 195.626C166.817 195.698 166.697 195.736 166.575 195.735V195.727Z" fill="#292929"/>
<path d="M137.139 204.56C137.012 204.56 136.888 204.517 136.789 204.439C136.669 204.347 136.59 204.211 136.57 204.061C136.55 203.911 136.591 203.76 136.682 203.64L166.118 165.485C166.164 165.425 166.222 165.375 166.287 165.338C166.352 165.301 166.424 165.277 166.498 165.267C166.573 165.258 166.649 165.263 166.721 165.282C166.794 165.302 166.862 165.336 166.921 165.382C166.98 165.428 167.03 165.485 167.068 165.55C167.105 165.616 167.129 165.687 167.139 165.762C167.148 165.837 167.143 165.912 167.123 165.985C167.103 166.057 167.07 166.125 167.024 166.185L137.557 204.332C137.508 204.398 137.445 204.453 137.373 204.492C137.301 204.531 137.221 204.555 137.139 204.56Z" fill="#292929"/>
<path d="M207.628 183.417C207.512 183.418 207.398 183.384 207.301 183.318L177.842 162.837C177.718 162.75 177.634 162.618 177.607 162.469C177.581 162.319 177.615 162.166 177.702 162.042C177.788 161.918 177.921 161.833 178.07 161.807C178.219 161.78 178.373 161.814 178.497 161.901L207.956 182.382C208.057 182.451 208.133 182.551 208.174 182.667C208.214 182.782 208.216 182.908 208.179 183.025C208.142 183.142 208.069 183.244 207.97 183.316C207.871 183.388 207.751 183.426 207.628 183.425V183.417Z" fill="#292929"/>
<path d="M178.169 192.25C178.063 192.25 177.958 192.22 177.868 192.163C177.778 192.106 177.705 192.025 177.658 191.93C177.612 191.834 177.593 191.727 177.604 191.621C177.615 191.515 177.655 191.414 177.721 191.33L207.179 153.182C207.272 153.062 207.409 152.984 207.559 152.965C207.71 152.945 207.862 152.987 207.982 153.079C208.102 153.172 208.18 153.309 208.2 153.46C208.219 153.61 208.178 153.762 208.085 153.882L178.626 192.03C178.572 192.099 178.503 192.155 178.423 192.193C178.344 192.232 178.257 192.251 178.169 192.25Z" fill="#292929"/>
<path d="M219.199 177.548C219.092 177.548 218.988 177.517 218.897 177.461C218.807 177.404 218.734 177.323 218.688 177.227C218.641 177.131 218.622 177.024 218.633 176.918C218.644 176.812 218.684 176.711 218.75 176.627L228.823 163.587L218.879 156.671C218.755 156.584 218.671 156.452 218.644 156.303C218.618 156.154 218.652 156 218.738 155.876C218.825 155.752 218.958 155.667 219.107 155.641C219.256 155.615 219.409 155.648 219.533 155.735L229.972 162.993C230.035 163.037 230.089 163.094 230.13 163.159C230.171 163.224 230.198 163.297 230.21 163.373C230.222 163.449 230.219 163.527 230.2 163.601C230.181 163.676 230.148 163.746 230.101 163.807L219.663 177.32C219.609 177.392 219.539 177.45 219.458 177.489C219.377 177.529 219.289 177.549 219.199 177.548Z" fill="#292929"/>
<path d="M197.822 120.437C197.684 120.439 197.549 120.39 197.444 120.301C197.339 120.212 197.27 120.087 197.249 119.951C197.229 119.814 197.259 119.675 197.333 119.558C197.408 119.442 197.522 119.357 197.654 119.318L204.114 117.378C204.185 117.357 204.261 117.35 204.336 117.357C204.41 117.365 204.483 117.387 204.549 117.423C204.615 117.459 204.673 117.507 204.721 117.565C204.768 117.623 204.803 117.69 204.825 117.762C204.846 117.834 204.853 117.91 204.846 117.984C204.838 118.059 204.816 118.132 204.78 118.198C204.744 118.264 204.696 118.322 204.638 118.369C204.58 118.417 204.513 118.452 204.441 118.474L198.004 120.406C197.945 120.426 197.884 120.436 197.822 120.437Z" fill="#292929"/>
<path d="M201.047 122.985C200.896 122.985 200.751 122.925 200.644 122.818C200.537 122.711 200.477 122.566 200.477 122.415V115.217C200.477 115.066 200.537 114.921 200.644 114.814C200.751 114.707 200.896 114.647 201.047 114.647C201.199 114.647 201.344 114.707 201.451 114.814C201.558 114.921 201.618 115.066 201.618 115.217V122.415C201.618 122.566 201.558 122.711 201.451 122.818C201.344 122.925 201.199 122.985 201.047 122.985Z" fill="#292929"/>
<path d="M43.4586 73.555C43.4597 74.0841 43.29 74.5995 42.9747 75.0244C42.6594 75.4494 42.2154 75.7612 41.7087 75.9135H41.6631C41.2956 76.024 40.9075 76.0469 40.5296 75.9804C40.1518 75.9139 39.7947 75.7599 39.4871 75.5307C39.1794 75.3014 38.9298 75.0033 38.758 74.6603C38.5863 74.3172 38.4972 73.9387 38.4981 73.555C38.4969 73.0259 38.6666 72.5105 38.9819 72.0856C39.2972 71.6606 39.7412 71.3488 40.2479 71.1965H40.2936C40.661 71.086 41.0492 71.0631 41.427 71.1296C41.8049 71.1961 42.1619 71.3501 42.4695 71.5794C42.7772 71.8086 43.0269 72.1067 43.1986 72.4498C43.3703 72.7928 43.4594 73.1713 43.4586 73.555Z" fill="#FAF7F2"/>
<path d="M40.9408 76.5984C40.1337 76.5984 39.3596 76.2777 38.7889 75.707C38.2181 75.1363 37.8975 74.3622 37.8975 73.5551C37.8944 72.9913 38.048 72.4376 38.3412 71.956C38.6344 71.4744 39.0556 71.0836 39.5579 70.8274C40.0602 70.5712 40.6238 70.4596 41.1858 70.505C41.7478 70.5504 42.2862 70.7511 42.7408 71.0846C43.1955 71.4181 43.5485 71.8714 43.7606 72.3938C43.9726 72.9163 44.0354 73.4874 43.9418 74.0434C43.8482 74.5994 43.602 75.1186 43.2306 75.5428C42.8593 75.9671 42.3773 76.2799 41.8385 76.4462C41.548 76.5391 41.2457 76.5903 40.9408 76.5984ZM41.0017 71.6683C40.816 71.6695 40.6314 71.6977 40.4539 71.752C40.0006 71.892 39.6171 72.1982 39.3803 72.6092C39.1434 73.0201 39.0708 73.5055 39.1769 73.9678C39.283 74.4302 39.56 74.8353 39.9523 75.1019C40.3447 75.3684 40.8234 75.4768 41.2923 75.4051C41.7612 75.3335 42.1857 75.0872 42.4805 74.7156C42.7754 74.344 42.9188 73.8747 42.882 73.4018C42.8452 72.9288 42.631 72.4873 42.2822 72.1658C41.9335 71.8443 41.476 71.6666 41.0017 71.6683Z" fill="#292929"/>
<path d="M51.7445 71.0671C51.7451 71.5972 51.5743 72.1133 51.2576 72.5383C50.9408 72.9634 50.4952 73.2746 49.987 73.4256H49.9414C49.574 73.5361 49.1858 73.559 48.8079 73.4925C48.4301 73.426 48.073 73.272 47.7654 73.0427C47.4578 72.8135 47.2081 72.5154 47.0363 72.1723C46.8646 71.8293 46.7756 71.4507 46.7764 71.0671C46.7758 70.537 46.9465 70.0209 47.2633 69.5959C47.58 69.1708 48.0257 68.8596 48.5339 68.7086H48.5795C48.9469 68.5981 49.3351 68.5752 49.7129 68.6417C50.0908 68.7082 50.4478 68.8622 50.7555 69.0914C51.0631 69.3207 51.3128 69.6188 51.4845 69.9619C51.6563 70.3049 51.7453 70.6834 51.7445 71.0671Z" fill="#FAF7F2"/>
<path d="M49.2259 74.1104C48.4188 74.1104 47.6448 73.7898 47.074 73.2191C46.5033 72.6484 46.1827 71.8743 46.1827 71.0672C46.1791 70.4988 46.3348 69.9407 46.6321 69.4562C46.9294 68.9718 47.3565 68.5803 47.8649 68.3261C48.3733 68.0718 48.9427 67.9651 49.5087 68.0179C50.0747 68.0708 50.6145 68.281 51.0671 68.625C51.444 68.9077 51.7502 69.274 51.9614 69.6952C52.1727 70.1163 52.2832 70.5808 52.2844 71.052C52.2815 71.7026 52.07 72.3353 51.6812 72.857C51.2923 73.3787 50.7464 73.762 50.1237 73.9507C49.8335 74.046 49.5312 74.0998 49.2259 74.1104ZM49.2868 69.1803C48.7807 69.1842 48.296 69.3848 47.9352 69.7399C47.5745 70.0949 47.3662 70.5764 47.3543 71.0824C47.3539 71.3766 47.4222 71.6668 47.5539 71.9299C47.6856 72.193 47.877 72.4217 48.1129 72.5976C48.3487 72.7735 48.6224 72.8919 48.9121 72.9432C49.2018 72.9945 49.4994 72.9774 49.7813 72.8931C50.1782 72.7802 50.528 72.5423 50.7788 72.2147C51.0296 71.8871 51.1681 71.4873 51.1736 71.0748C51.1716 70.575 50.9722 70.0962 50.6188 69.7428C50.2654 69.3894 49.7866 69.19 49.2868 69.188V69.1803Z" fill="#292929"/>
<path d="M60.0299 68.587C60.031 69.1161 59.8613 69.6315 59.546 70.0564C59.2307 70.4813 58.7867 70.7932 58.28 70.9455H58.2343C57.8669 71.056 57.4787 71.0789 57.1009 71.0124C56.723 70.9459 56.366 70.7919 56.0584 70.5626C55.7507 70.3334 55.5011 70.0353 55.3293 69.6922C55.1576 69.3492 55.0685 68.9706 55.0693 68.587C55.0682 68.0579 55.2379 67.5425 55.5532 67.1176C55.8685 66.6926 56.3125 66.3808 56.8192 66.2285H56.8649C57.2323 66.118 57.6205 66.0951 57.9983 66.1616C58.3762 66.2281 58.7332 66.3821 59.0408 66.6113C59.3485 66.8406 59.5981 67.1387 59.7699 67.4818C59.9416 67.8248 60.0307 68.2033 60.0299 68.587Z" fill="#FAF7F2"/>
<path d="M57.5111 71.6301C56.704 71.6301 55.9299 71.3095 55.3592 70.7388C54.7884 70.168 54.4678 69.394 54.4678 68.5868C54.4647 68.023 54.6183 67.4694 54.9115 66.9877C55.2047 66.5061 55.6259 66.1154 56.1282 65.8592C56.6305 65.603 57.1941 65.4913 57.7561 65.5367C58.3181 65.5821 58.8565 65.7828 59.3111 66.1163C59.7658 66.4498 60.1188 66.9031 60.3309 67.4256C60.5429 67.948 60.6057 68.5191 60.5121 69.0752C60.4186 69.6312 60.1723 70.1503 59.8009 70.5746C59.4296 70.9988 58.9476 71.3116 58.4088 71.4779C58.1183 71.5709 57.816 71.6221 57.5111 71.6301ZM57.572 66.7C57.0659 66.7038 56.5811 66.9045 56.2204 67.2595C55.8597 67.6146 55.6513 68.0961 55.6395 68.6021C55.6387 68.8971 55.7071 69.1883 55.8392 69.4521C55.9713 69.716 56.1635 69.9451 56.4003 70.1212C56.637 70.2973 56.9118 70.4154 57.2025 70.4661C57.4932 70.5167 57.7917 70.4985 58.0741 70.4128C58.4714 70.3018 58.8216 70.0642 59.0715 69.736C59.3215 69.4078 59.4574 69.007 59.4588 68.5944C59.4568 68.0946 59.2573 67.6159 58.9039 67.2625C58.5505 66.909 58.0718 66.7096 57.572 66.7076V66.7Z" fill="#292929"/>
<path d="M318.698 48.8242L313.578 54.8119L318.698 58.129" fill="#FAF7F2"/>
<path d="M318.699 58.6998C318.588 58.7002 318.48 58.6685 318.387 58.6085L313.266 55.2989C313.198 55.2546 313.14 55.1961 313.096 55.1274C313.052 55.0587 313.023 54.9814 313.012 54.9006C313 54.8198 313.006 54.7375 313.029 54.6593C313.052 54.581 313.091 54.5085 313.145 54.4468L318.265 48.4516C318.366 48.3366 318.508 48.2663 318.661 48.2564C318.814 48.2464 318.964 48.2974 319.079 48.3983C319.194 48.4992 319.264 48.6417 319.274 48.7943C319.284 48.947 319.233 49.0974 319.132 49.2124L314.438 54.7131L319.003 57.6727C319.107 57.7396 319.186 57.8384 319.229 57.9541C319.271 58.0698 319.276 58.1963 319.24 58.3145C319.205 58.4328 319.133 58.5365 319.034 58.61C318.935 58.6836 318.814 58.7231 318.691 58.7226L318.699 58.6998Z" fill="#292929"/>
<path d="M328.582 55.5348L333.702 49.5395L328.582 46.23" fill="#FAF7F2"/>
<path d="M328.581 56.1054C328.472 56.1057 328.364 56.0746 328.272 56.0156C328.18 55.9567 328.107 55.8725 328.061 55.7731C328.015 55.6737 327.999 55.5632 328.014 55.4548C328.03 55.3465 328.076 55.2448 328.147 55.162L332.842 49.6613L328.277 46.7017C328.158 46.6163 328.077 46.4887 328.05 46.3451C328.022 46.2016 328.051 46.053 328.13 45.9301C328.209 45.8072 328.332 45.7193 328.474 45.6845C328.616 45.6497 328.766 45.6707 328.893 45.7431L334.013 49.0526C334.082 49.0969 334.14 49.1554 334.184 49.2241C334.228 49.2929 334.257 49.3702 334.268 49.451C334.28 49.5317 334.274 49.614 334.251 49.6923C334.228 49.7706 334.188 49.843 334.135 49.9047L329.015 55.938C328.958 55.9948 328.89 56.039 328.816 56.0679C328.741 56.0967 328.661 56.1095 328.581 56.1054Z" fill="#292929"/>
<path d="M320.356 60.967C320.284 60.9682 320.211 60.9553 320.143 60.929C320.071 60.9014 320.006 60.8596 319.95 60.8059C319.895 60.7523 319.851 60.688 319.821 60.6169C319.791 60.5458 319.776 60.4693 319.776 60.3922C319.777 60.3151 319.793 60.2389 319.824 60.1681L326.39 43.7345C326.415 43.6618 326.455 43.5951 326.507 43.5384C326.56 43.4817 326.623 43.4361 326.693 43.4044C326.763 43.3726 326.839 43.3555 326.916 43.3539C326.993 43.3523 327.07 43.3663 327.141 43.3951C327.212 43.4239 327.277 43.4668 327.332 43.5214C327.386 43.5759 327.429 43.6409 327.458 43.7124C327.486 43.784 327.5 43.8605 327.498 43.9375C327.496 44.0146 327.479 44.0904 327.447 44.1605L320.881 60.5942C320.842 60.702 320.77 60.7952 320.676 60.8617C320.583 60.9282 320.471 60.9649 320.356 60.967Z" fill="#292929"/>
<path d="M284.393 58.2205C284.393 64.094 280.475 70.1349 275.644 71.725C270.813 73.3151 266.895 69.8381 266.895 63.9646C266.895 58.0911 270.813 52.0502 275.644 50.4601C280.475 48.87 284.393 52.3774 284.393 58.2205Z" fill="#97DE40"/>
<path d="M273.353 72.6761C271.989 72.6943 270.655 72.2728 269.549 71.474C267.48 69.9523 266.285 67.2362 266.285 63.9647C266.285 57.8782 270.386 51.5786 275.415 49.92C276.439 49.5338 277.541 49.4012 278.628 49.5337C279.714 49.6662 280.752 50.0598 281.654 50.6808C283.723 52.2025 284.91 54.9186 284.91 58.1901C284.91 64.2767 280.809 70.5838 275.78 72.2348C274.999 72.5079 274.18 72.6568 273.353 72.6761ZM277.918 50.6504C277.204 50.6552 276.495 50.7734 275.818 51.0004C271.208 52.522 267.449 58.3271 267.449 63.9343C267.449 66.833 268.469 69.26 270.241 70.523C270.995 71.0413 271.862 71.3694 272.77 71.4794C273.677 71.5894 274.598 71.4779 275.453 71.1544C280.064 69.6328 283.822 63.8278 283.822 58.2205C283.822 55.3218 282.803 52.8948 281.03 51.6319C280.121 50.9896 279.031 50.6538 277.918 50.6732V50.6504Z" fill="#292929"/>
<path d="M324.335 100.753L313.461 97.3414L306.954 118.081L317.828 121.493L324.335 100.753Z" fill="#292929"/>
<path d="M317.839 122.052C317.783 122.06 317.727 122.06 317.671 122.052L306.799 118.644C306.655 118.598 306.535 118.498 306.465 118.363C306.395 118.229 306.381 118.073 306.427 117.929L312.932 97.1888C312.977 97.0446 313.078 96.9243 313.212 96.8544C313.346 96.7845 313.502 96.7707 313.647 96.816L324.519 100.224C324.663 100.27 324.783 100.371 324.853 100.505C324.923 100.639 324.937 100.795 324.892 100.94L318.387 121.68C318.351 121.797 318.278 121.899 318.179 121.972C318.081 122.044 317.961 122.083 317.839 122.083V122.052ZM307.682 117.693L317.466 120.736L323.629 101.084L313.845 98.0409L307.682 117.693Z" fill="#292929"/>
<path d="M229.637 41.5281C231.158 41.5281 232.391 40.295 232.391 38.7739C232.391 37.2529 231.158 36.0198 229.637 36.0198C228.116 36.0198 226.883 37.2529 226.883 38.7739C226.883 40.295 228.116 41.5281 229.637 41.5281Z" fill="#292929"/>
<path d="M229.637 42.0988C228.98 42.0988 228.337 41.9038 227.79 41.5384C227.243 41.1731 226.817 40.6538 226.566 40.0463C226.314 39.4388 226.248 38.7703 226.376 38.1254C226.505 37.4804 226.821 36.888 227.286 36.423C227.751 35.9581 228.344 35.6414 228.989 35.5131C229.634 35.3848 230.302 35.4507 230.91 35.7023C231.517 35.954 232.036 36.3801 232.402 36.9269C232.767 37.4736 232.962 38.1164 232.962 38.774C232.962 39.2106 232.876 39.6429 232.709 40.0463C232.542 40.4497 232.297 40.8162 231.988 41.125C231.679 41.4337 231.313 41.6786 230.91 41.8457C230.506 42.0128 230.074 42.0988 229.637 42.0988ZM229.637 36.5905C229.205 36.5905 228.783 36.7185 228.424 36.9584C228.065 37.1984 227.785 37.5394 227.62 37.9384C227.455 38.3374 227.411 38.7764 227.496 39.2C227.58 39.6235 227.788 40.0126 228.093 40.318C228.399 40.6234 228.788 40.8313 229.211 40.9156C229.635 40.9998 230.074 40.9566 230.473 40.7913C230.872 40.6261 231.213 40.3462 231.453 39.9871C231.693 39.628 231.821 39.2059 231.821 38.774C231.821 38.1949 231.591 37.6395 231.181 37.23C230.772 36.8205 230.216 36.5905 229.637 36.5905Z" fill="#292929"/>
<path d="M301.184 20.2933C302.705 20.2933 303.938 19.0603 303.938 17.5392C303.938 16.0181 302.705 14.785 301.184 14.785C299.663 14.785 298.43 16.0181 298.43 17.5392C298.43 19.0603 299.663 20.2933 301.184 20.2933Z" fill="#292929"/>
<path d="M301.184 20.8639C300.527 20.8639 299.884 20.6689 299.337 20.3036C298.79 19.9382 298.364 19.419 298.112 18.8115C297.861 18.2039 297.795 17.5354 297.923 16.8905C298.052 16.2456 298.368 15.6531 298.833 15.1882C299.298 14.7232 299.891 14.4065 300.536 14.2782C301.18 14.15 301.849 14.2158 302.456 14.4674C303.064 14.7191 303.583 15.1452 303.949 15.692C304.314 16.2387 304.509 16.8816 304.509 17.5391C304.509 18.4209 304.159 19.2666 303.535 19.8901C302.912 20.5136 302.066 20.8639 301.184 20.8639ZM301.184 15.3556C300.752 15.3556 300.33 15.4836 299.971 15.7236C299.612 15.9635 299.332 16.3045 299.167 16.7035C299.002 17.1025 298.958 17.5416 299.043 17.9651C299.127 18.3887 299.335 18.7778 299.64 19.0831C299.945 19.3885 300.335 19.5965 300.758 19.6807C301.182 19.765 301.621 19.7217 302.02 19.5565C302.419 19.3912 302.76 19.1113 303 18.7522C303.24 18.3932 303.368 17.971 303.368 17.5391C303.368 16.96 303.138 16.4046 302.728 15.9951C302.319 15.5856 301.763 15.3556 301.184 15.3556Z" fill="#292929"/>
<path d="M229.637 142.124C231.158 142.124 232.391 140.891 232.391 139.37C232.391 137.849 231.158 136.616 229.637 136.616C228.116 136.616 226.883 137.849 226.883 139.37C226.883 140.891 228.116 142.124 229.637 142.124Z" fill="#292929"/>
<path d="M229.637 142.672C228.98 142.672 228.337 142.477 227.79 142.112C227.243 141.746 226.817 141.227 226.566 140.619C226.314 140.012 226.248 139.343 226.376 138.698C226.505 138.054 226.821 137.461 227.286 136.996C227.751 136.531 228.344 136.215 228.989 136.086C229.634 135.958 230.302 136.024 230.91 136.275C231.517 136.527 232.036 136.953 232.402 137.5C232.767 138.047 232.962 138.69 232.962 139.347C232.962 139.784 232.876 140.216 232.709 140.619C232.542 141.023 232.297 141.389 231.988 141.698C231.679 142.007 231.313 142.252 230.91 142.419C230.506 142.586 230.074 142.672 229.637 142.672ZM229.637 137.164C229.205 137.164 228.783 137.292 228.424 137.532C228.065 137.771 227.785 138.113 227.62 138.512C227.455 138.911 227.411 139.35 227.496 139.773C227.58 140.197 227.788 140.586 228.093 140.891C228.399 141.196 228.788 141.404 229.211 141.489C229.635 141.573 230.074 141.53 230.473 141.364C230.872 141.199 231.213 140.919 231.453 140.56C231.693 140.201 231.821 139.779 231.821 139.347C231.815 138.772 231.582 138.222 231.173 137.818C230.764 137.413 230.212 137.186 229.637 137.186V137.164Z" fill="#292929"/>
<path d="M230.14 112.162C231.383 112.162 232.392 111.153 232.392 109.91C232.392 108.666 231.383 107.658 230.14 107.658C228.896 107.658 227.888 108.666 227.888 109.91C227.888 111.153 228.896 112.162 230.14 112.162Z" fill="#292929"/>
<path d="M230.139 112.732C229.581 112.732 229.035 112.567 228.571 112.256C228.107 111.946 227.745 111.505 227.531 110.99C227.318 110.474 227.262 109.906 227.371 109.359C227.48 108.811 227.748 108.308 228.143 107.914C228.538 107.519 229.041 107.25 229.588 107.141C230.136 107.032 230.703 107.088 231.219 107.302C231.735 107.515 232.176 107.877 232.486 108.341C232.796 108.806 232.962 109.351 232.962 109.91C232.962 110.658 232.664 111.376 232.135 111.905C231.606 112.435 230.888 112.732 230.139 112.732ZM230.139 108.228C229.806 108.228 229.481 108.327 229.205 108.512C228.928 108.696 228.713 108.959 228.586 109.266C228.458 109.573 228.425 109.911 228.49 110.238C228.555 110.564 228.715 110.863 228.95 111.098C229.185 111.334 229.485 111.494 229.811 111.559C230.137 111.624 230.475 111.59 230.782 111.463C231.09 111.336 231.352 111.12 231.537 110.844C231.722 110.567 231.82 110.242 231.82 109.91C231.82 109.464 231.643 109.036 231.328 108.721C231.013 108.405 230.585 108.228 230.139 108.228Z" fill="#292929"/>
<path d="M301.184 120.888C302.705 120.888 303.938 119.655 303.938 118.134C303.938 116.613 302.705 115.38 301.184 115.38C299.663 115.38 298.43 116.613 298.43 118.134C298.43 119.655 299.663 120.888 301.184 120.888Z" fill="#292929"/>
<path d="M301.184 121.459C300.527 121.459 299.884 121.264 299.337 120.898C298.79 120.533 298.364 120.014 298.112 119.406C297.861 118.799 297.795 118.13 297.923 117.485C298.052 116.84 298.368 116.248 298.833 115.783C299.298 115.318 299.891 115.001 300.536 114.873C301.18 114.745 301.849 114.811 302.456 115.062C303.064 115.314 303.583 115.74 303.949 116.287C304.314 116.834 304.509 117.476 304.509 118.134C304.509 119.016 304.159 119.861 303.535 120.485C302.912 121.108 302.066 121.459 301.184 121.459ZM301.184 115.95C300.752 115.95 300.33 116.078 299.971 116.318C299.612 116.558 299.332 116.899 299.167 117.298C299.002 117.697 298.958 118.136 299.043 118.56C299.127 118.984 299.335 119.373 299.64 119.678C299.945 119.983 300.335 120.191 300.758 120.276C301.182 120.36 301.621 120.317 302.02 120.151C302.419 119.986 302.76 119.706 303 119.347C303.24 118.988 303.368 118.566 303.368 118.134C303.368 117.555 303.138 116.999 302.728 116.59C302.319 116.18 301.763 115.95 301.184 115.95Z" fill="#292929"/>
<path d="M211.469 55.9304C212.507 55.9304 213.348 55.0891 213.348 54.0512C213.348 53.0134 212.507 52.172 211.469 52.172C210.431 52.172 209.59 53.0134 209.59 54.0512C209.59 55.0891 210.431 55.9304 211.469 55.9304Z" fill="#292929"/>
<path d="M211.468 56.501C210.984 56.501 210.51 56.3573 210.107 56.0881C209.704 55.8189 209.39 55.4363 209.205 54.9887C209.02 54.541 208.971 54.0484 209.066 53.5732C209.16 53.098 209.393 52.6615 209.736 52.3189C210.079 51.9762 210.515 51.7429 210.99 51.6484C211.466 51.5539 211.958 51.6024 212.406 51.7878C212.854 51.9732 213.236 52.2872 213.505 52.6901C213.775 53.093 213.918 53.5666 213.918 54.0512C213.918 54.7009 213.66 55.324 213.201 55.7834C212.741 56.2429 212.118 56.501 211.468 56.501ZM211.468 52.7425C211.21 52.7425 210.957 52.8193 210.741 52.9631C210.526 53.1069 210.358 53.3113 210.259 53.5504C210.16 53.7895 210.134 54.0526 210.185 54.3064C210.235 54.5603 210.36 54.7935 210.543 54.9765C210.726 55.1595 210.959 55.2841 211.213 55.3346C211.467 55.3851 211.73 55.3592 211.969 55.2601C212.208 55.1611 212.413 54.9934 212.556 54.7782C212.7 54.563 212.777 54.31 212.777 54.0512C212.777 53.7041 212.639 53.3712 212.394 53.1258C212.148 52.8804 211.815 52.7425 211.468 52.7425Z" fill="#292929"/>
<path d="M211.469 82.0636C212.507 82.0636 213.348 81.2223 213.348 80.1844C213.348 79.1465 212.507 78.3052 211.469 78.3052C210.431 78.3052 209.59 79.1465 209.59 80.1844C209.59 81.2223 210.431 82.0636 211.469 82.0636Z" fill="#292929"/>
<path d="M211.468 82.6343C210.984 82.6343 210.51 82.4906 210.107 82.2214C209.704 81.9522 209.39 81.5696 209.205 81.122C209.02 80.6743 208.971 80.1817 209.066 79.7065C209.16 79.2313 209.393 78.7948 209.736 78.4522C210.079 78.1095 210.515 77.8762 210.99 77.7817C211.466 77.6872 211.958 77.7357 212.406 77.9211C212.854 78.1065 213.236 78.4205 213.505 78.8234C213.775 79.2263 213.918 79.6999 213.918 80.1844C213.918 80.8342 213.66 81.4573 213.201 81.9167C212.741 82.3762 212.118 82.6343 211.468 82.6343ZM211.468 78.8758C211.21 78.8758 210.957 78.9526 210.741 79.0964C210.526 79.2402 210.358 79.4446 210.259 79.6837C210.16 79.9228 210.134 80.1859 210.185 80.4397C210.235 80.6936 210.36 80.9268 210.543 81.1098C210.726 81.2928 210.959 81.4174 211.213 81.4679C211.467 81.5184 211.73 81.4925 211.969 81.3934C212.208 81.2944 212.413 81.1267 212.556 80.9115C212.7 80.6963 212.777 80.4433 212.777 80.1844C212.777 79.8374 212.639 79.5045 212.394 79.2591C212.148 79.0137 211.815 78.8758 211.468 78.8758Z" fill="#292929"/>
<path d="M84.1546 120.17C85.1925 120.17 86.0338 119.329 86.0338 118.291C86.0338 117.253 85.1925 116.412 84.1546 116.412C83.1167 116.412 82.2754 117.253 82.2754 118.291C82.2754 119.329 83.1167 120.17 84.1546 120.17Z" fill="#292929"/>
<path d="M84.1549 120.741C83.6704 120.741 83.1967 120.597 82.7939 120.328C82.391 120.059 82.077 119.676 81.8916 119.229C81.7061 118.781 81.6576 118.288 81.7522 117.813C81.8467 117.338 82.08 116.901 82.4226 116.559C82.7652 116.216 83.2018 115.983 83.677 115.888C84.1522 115.794 84.6448 115.842 85.0924 116.028C85.5401 116.213 85.9227 116.527 86.1919 116.93C86.4611 117.333 86.6047 117.807 86.6047 118.291C86.6047 118.613 86.5414 118.931 86.4183 119.229C86.2952 119.526 86.1147 119.796 85.8872 120.023C85.6597 120.251 85.3897 120.431 85.0924 120.554C84.7952 120.678 84.4766 120.741 84.1549 120.741ZM84.1549 116.983C83.8961 116.983 83.6431 117.059 83.4279 117.203C83.2127 117.347 83.045 117.551 82.9459 117.79C82.8469 118.029 82.8209 118.293 82.8714 118.546C82.9219 118.8 83.0466 119.033 83.2296 119.216C83.4126 119.399 83.6458 119.524 83.8996 119.575C84.1535 119.625 84.4166 119.599 84.6557 119.5C84.8948 119.401 85.0992 119.233 85.243 119.018C85.3868 118.803 85.4635 118.55 85.4635 118.291C85.4615 117.945 85.3227 117.615 85.0775 117.371C84.8324 117.127 84.5006 116.99 84.1549 116.99V116.983Z" fill="#292929"/>
<path d="M84.1546 94.0438C85.1925 94.0438 86.0338 93.2025 86.0338 92.1646C86.0338 91.1268 85.1925 90.2854 84.1546 90.2854C83.1167 90.2854 82.2754 91.1268 82.2754 92.1646C82.2754 93.2025 83.1167 94.0438 84.1546 94.0438Z" fill="#292929"/>
<path d="M84.1549 94.6145C83.6704 94.6145 83.1967 94.4708 82.7939 94.2016C82.391 93.9324 82.077 93.5498 81.8916 93.1022C81.7061 92.6545 81.6576 92.162 81.7522 91.6867C81.8467 91.2115 82.08 90.775 82.4226 90.4324C82.7652 90.0898 83.2018 89.8564 83.677 89.7619C84.1522 89.6674 84.6448 89.7159 85.0924 89.9013C85.5401 90.0867 85.9227 90.4007 86.1919 90.8036C86.4611 91.2065 86.6047 91.6801 86.6047 92.1647C86.6047 92.4864 86.5414 92.805 86.4183 93.1022C86.2952 93.3994 86.1147 93.6695 85.8872 93.897C85.6597 94.1245 85.3897 94.3049 85.0924 94.428C84.7952 94.5511 84.4766 94.6145 84.1549 94.6145ZM84.1549 90.8561C83.8961 90.8561 83.6431 90.9328 83.4279 91.0766C83.2127 91.2204 83.045 91.4248 82.9459 91.6639C82.8469 91.903 82.8209 92.1661 82.8714 92.42C82.9219 92.6738 83.0466 92.907 83.2296 93.09C83.4126 93.273 83.6458 93.3976 83.8996 93.4481C84.1535 93.4986 84.4166 93.4727 84.6557 93.3737C84.8948 93.2746 85.0992 93.1069 85.243 92.8917C85.3868 92.6765 85.4635 92.4235 85.4635 92.1647C85.4635 91.9928 85.4297 91.8227 85.3639 91.6639C85.2981 91.5051 85.2018 91.3609 85.0802 91.2393C84.9587 91.1178 84.8145 91.0214 84.6557 90.9557C84.4969 90.8899 84.3267 90.8561 84.1549 90.8561Z" fill="#292929"/>
<path d="M230.208 110.29H230.124C229.975 110.268 229.841 110.187 229.751 110.066C229.661 109.944 229.623 109.793 229.645 109.643C232.817 87.671 243.187 74.2958 251.792 72.4471C254.835 71.7928 257.445 72.7514 258.929 75.0871C260.048 77.0168 260.965 79.0563 261.667 81.1736C263.638 86.4993 265.472 91.4979 272.235 90.9349C272.313 90.9222 272.392 90.9256 272.468 90.9449C272.544 90.9642 272.616 90.9991 272.678 91.0473C272.74 91.0955 272.791 91.156 272.829 91.225C272.867 91.294 272.89 91.3701 272.896 91.4484C272.903 91.5266 272.894 91.6055 272.869 91.68C272.844 91.7545 272.803 91.823 272.751 91.8812C272.698 91.9394 272.634 91.9861 272.562 92.0184C272.49 92.0506 272.413 92.0677 272.334 92.0685C264.726 92.7076 262.626 87.0395 260.602 81.5616C259.927 79.5143 259.045 77.5412 257.97 75.6729C256.737 73.7404 254.63 72.9796 252.036 73.535C245.386 74.9654 234.24 85.7994 230.778 109.78C230.763 109.921 230.697 110.051 230.591 110.145C230.486 110.239 230.349 110.291 230.208 110.29Z" fill="#292929"/>
<path d="M263.585 105.626C263.483 105.626 263.383 105.598 263.296 105.546C263.209 105.494 263.137 105.419 263.088 105.33C263.039 105.241 263.015 105.14 263.018 105.038C263.021 104.936 263.051 104.837 263.106 104.751L278.946 79.8954C279.027 79.7673 279.157 79.6768 279.305 79.644C279.454 79.6112 279.609 79.6387 279.737 79.7204C279.865 79.8021 279.956 79.9314 279.988 80.0798C280.021 80.2282 279.994 80.3835 279.912 80.5116L264.072 105.39C264.016 105.467 263.943 105.529 263.858 105.57C263.773 105.611 263.679 105.63 263.585 105.626Z" fill="#292929"/>
<path d="M296.452 102.598C296.371 102.598 296.29 102.58 296.216 102.545L274.153 92.6544C274.018 92.5908 273.913 92.4769 273.861 92.337C273.809 92.1971 273.814 92.0424 273.875 91.906C273.935 91.7697 274.047 91.6625 274.186 91.6076C274.324 91.5526 274.479 91.5542 274.617 91.6121L296.681 101.503C296.798 101.557 296.893 101.65 296.951 101.766C297.009 101.882 297.025 102.014 296.998 102.141C296.97 102.268 296.9 102.381 296.8 102.463C296.699 102.544 296.574 102.59 296.445 102.591L296.452 102.598Z" fill="#292929"/>
<path d="M87.7539 266.323C85.0147 264.488 81.9651 263.166 78.7535 262.42L77.6275 258.654L67.6151 258.061L66.1695 261.667C62.9306 262.033 59.7867 262.993 56.8952 264.497L51.1662 263.067L46.0383 268.248L50.4434 271.033C49.6267 272.978 49.5376 275.152 50.1924 277.157L45.5742 279.44L50.238 285.199L56.0659 284.438C58.8038 286.276 61.8538 287.598 65.0664 288.341L66.2 292.145L76.2123 292.739L77.6655 289.117C80.901 288.756 84.0424 287.802 86.9323 286.302L92.6764 287.74L97.8043 282.559L93.4144 279.775C93.8179 278.808 94.0471 277.778 94.0916 276.731C94.1365 275.679 93.9896 274.627 93.6579 273.627L98.2684 271.345L93.6122 265.57L87.7539 266.323ZM82.9912 276.039C82.8314 279.843 77.7264 282.696 71.5789 282.339C65.4315 281.981 60.6308 278.534 60.7906 274.73C60.9503 270.926 66.0478 268.066 72.2028 268.431C78.3578 268.796 83.1738 272.189 82.9988 276.039H82.9912Z" fill="#292929" stroke="#292929" stroke-width="1.14123" stroke-linecap="round" stroke-linejoin="round"/>
<path d="M59.0178 296.345C57.7192 295.057 56.1638 294.056 54.4529 293.408L54.5138 291.126L48.7012 290.015L47.1795 291.978C45.1294 291.948 43.0884 292.257 41.1386 292.891L38.0193 291.62L33.9793 294.207L36.0488 296.147C35.6294 296.656 35.2954 297.229 35.0597 297.844C34.8321 298.421 34.7134 299.035 34.7097 299.655L31.5371 300.598L33.1805 304.273H36.7715C38.0692 305.563 39.6248 306.563 41.3364 307.21L41.2756 309.492L47.0882 310.603L48.6479 308.632C50.6951 308.664 52.7335 308.358 54.6812 307.727L57.8005 308.998L61.8405 306.411L59.7862 304.471C60.2031 303.961 60.5369 303.388 60.7753 302.774C61.0008 302.194 61.1168 301.578 61.1177 300.956L64.2827 300.02L62.6241 296.345H59.0178ZM54.316 301.572C53.4715 303.771 49.9109 304.996 46.3502 304.319C42.7896 303.641 40.5984 301.275 41.443 299.107C42.2875 296.939 45.8405 295.66 49.4087 296.345C52.9769 297.03 55.1681 299.388 54.316 301.557V301.572Z" fill="#97DE40" stroke="#292929" stroke-width="1.14123" stroke-linecap="round" stroke-linejoin="round"/>
<path d="M328.538 208.95L136.911 266.483L114.748 239.999L306.375 182.458L328.538 208.95Z" fill="#FAF7F2"/>
<path d="M136.918 267.054C136.833 267.054 136.75 267.036 136.674 267C136.598 266.965 136.53 266.913 136.476 266.848L114.314 240.364C114.253 240.292 114.211 240.205 114.192 240.113C114.173 240.02 114.178 239.925 114.205 239.834C114.232 239.744 114.281 239.661 114.348 239.594C114.415 239.528 114.497 239.478 114.588 239.451L306.207 181.911C306.314 181.88 306.428 181.881 306.535 181.913C306.641 181.946 306.736 182.008 306.808 182.093L328.971 208.577C329.031 208.65 329.073 208.736 329.092 208.829C329.111 208.921 329.107 209.017 329.08 209.108C329.053 209.198 329.003 209.281 328.937 209.347C328.87 209.414 328.787 209.463 328.697 209.49L137.077 267.031C137.025 267.046 136.972 267.053 136.918 267.054ZM115.752 240.296L137.138 265.829L327.571 208.646L306.207 183.113L115.752 240.296Z" fill="#292929"/>
<path d="M132.14 241.566C132.057 241.567 131.976 241.549 131.901 241.515C131.826 241.481 131.76 241.431 131.706 241.369L127.461 236.438C127.411 236.382 127.372 236.315 127.348 236.244C127.324 236.172 127.314 236.096 127.319 236.02C127.324 235.945 127.343 235.871 127.377 235.803C127.41 235.735 127.457 235.674 127.514 235.624C127.571 235.574 127.637 235.536 127.709 235.512C127.781 235.487 127.856 235.477 127.932 235.482C128.008 235.487 128.081 235.507 128.149 235.541C128.217 235.574 128.278 235.621 128.328 235.678L132.573 240.608C132.645 240.691 132.691 240.792 132.706 240.901C132.722 241.009 132.705 241.119 132.66 241.219C132.614 241.318 132.541 241.403 132.448 241.461C132.356 241.52 132.249 241.552 132.14 241.551V241.566Z" fill="#292929"/>
<path d="M140.067 239.177C139.985 239.178 139.904 239.16 139.829 239.126C139.754 239.092 139.687 239.042 139.634 238.98L135.388 234.05C135.338 233.993 135.3 233.926 135.276 233.855C135.251 233.783 135.241 233.707 135.246 233.631C135.251 233.556 135.271 233.482 135.305 233.414C135.338 233.346 135.385 233.285 135.442 233.235C135.499 233.186 135.565 233.147 135.636 233.123C135.708 233.099 135.784 233.089 135.86 233.094C135.935 233.098 136.009 233.118 136.077 233.152C136.145 233.185 136.206 233.232 136.256 233.289L140.501 238.219C140.573 238.302 140.619 238.403 140.634 238.512C140.649 238.62 140.633 238.731 140.587 238.83C140.542 238.929 140.468 239.014 140.376 239.073C140.284 239.131 140.177 239.163 140.067 239.162V239.177Z" fill="#292929"/>
<path d="M147.98 236.796C147.898 236.796 147.817 236.779 147.742 236.744C147.667 236.71 147.601 236.66 147.547 236.598L143.301 231.676C143.251 231.619 143.213 231.552 143.189 231.481C143.164 231.409 143.154 231.333 143.159 231.258C143.164 231.182 143.184 231.108 143.218 231.04C143.251 230.972 143.298 230.912 143.355 230.862C143.412 230.812 143.478 230.773 143.55 230.749C143.621 230.725 143.697 230.715 143.773 230.72C143.848 230.725 143.922 230.744 143.99 230.778C144.058 230.811 144.119 230.858 144.169 230.915L148.414 235.845C148.486 235.928 148.532 236.029 148.547 236.138C148.562 236.246 148.546 236.357 148.501 236.456C148.455 236.555 148.382 236.64 148.289 236.699C148.197 236.758 148.09 236.789 147.98 236.788V236.796Z" fill="#292929"/>
<path d="M163.812 232.041C163.73 232.041 163.649 232.024 163.574 231.989C163.499 231.955 163.433 231.905 163.379 231.843L159.133 226.913C159.083 226.856 159.045 226.79 159.021 226.718C158.997 226.646 158.987 226.57 158.991 226.495C158.996 226.419 159.016 226.345 159.05 226.277C159.083 226.21 159.13 226.149 159.187 226.099C159.244 226.049 159.31 226.011 159.382 225.986C159.453 225.962 159.529 225.952 159.605 225.957C159.68 225.962 159.754 225.982 159.822 226.015C159.89 226.049 159.951 226.095 160.001 226.152L164.246 231.082C164.318 231.165 164.364 231.267 164.379 231.375C164.394 231.483 164.378 231.594 164.333 231.693C164.287 231.793 164.214 231.877 164.121 231.936C164.029 231.995 163.922 232.026 163.812 232.026V232.041Z" fill="#292929"/>
<path d="M171.726 229.667C171.643 229.667 171.562 229.65 171.487 229.616C171.412 229.582 171.346 229.532 171.292 229.469L167.047 224.539C166.997 224.482 166.958 224.416 166.934 224.344C166.91 224.273 166.9 224.197 166.905 224.121C166.909 224.046 166.929 223.972 166.963 223.904C166.996 223.836 167.043 223.775 167.1 223.725C167.157 223.675 167.223 223.637 167.295 223.613C167.366 223.588 167.442 223.578 167.518 223.583C167.593 223.588 167.667 223.608 167.735 223.641C167.803 223.675 167.864 223.722 167.914 223.778L172.159 228.709C172.231 228.791 172.277 228.893 172.292 229.001C172.308 229.11 172.291 229.22 172.246 229.32C172.2 229.419 172.127 229.503 172.034 229.562C171.942 229.621 171.835 229.652 171.726 229.652V229.667Z" fill="#292929"/>
<path d="M179.645 227.286C179.563 227.286 179.482 227.268 179.407 227.234C179.332 227.2 179.266 227.15 179.212 227.088L174.966 222.158C174.916 222.101 174.878 222.035 174.854 221.963C174.83 221.891 174.82 221.815 174.824 221.74C174.829 221.664 174.849 221.59 174.883 221.522C174.916 221.454 174.963 221.394 175.02 221.344C175.077 221.294 175.143 221.256 175.215 221.231C175.286 221.207 175.362 221.197 175.438 221.202C175.513 221.207 175.587 221.227 175.655 221.26C175.723 221.294 175.784 221.34 175.834 221.397L180.079 226.327C180.151 226.41 180.197 226.512 180.212 226.62C180.227 226.728 180.211 226.839 180.166 226.938C180.12 227.038 180.047 227.122 179.954 227.181C179.862 227.24 179.755 227.271 179.645 227.271V227.286Z" fill="#292929"/>
<path d="M187.558 224.912C187.475 224.912 187.394 224.895 187.319 224.861C187.244 224.826 187.178 224.777 187.124 224.714L182.879 219.784C182.829 219.727 182.79 219.661 182.766 219.589C182.742 219.518 182.732 219.442 182.737 219.366C182.742 219.291 182.761 219.217 182.795 219.149C182.828 219.081 182.875 219.02 182.932 218.97C182.989 218.92 183.055 218.882 183.127 218.858C183.198 218.833 183.274 218.823 183.35 218.828C183.425 218.833 183.499 218.853 183.567 218.886C183.635 218.92 183.696 218.966 183.746 219.023L187.991 223.953C188.063 224.036 188.109 224.138 188.124 224.246C188.14 224.355 188.123 224.465 188.078 224.565C188.032 224.664 187.959 224.748 187.866 224.807C187.774 224.866 187.667 224.897 187.558 224.897V224.912Z" fill="#292929"/>
<path d="M195.478 222.546C195.395 222.546 195.314 222.529 195.239 222.494C195.164 222.46 195.098 222.41 195.044 222.348L190.798 217.418C190.698 217.303 190.647 217.153 190.657 217C190.666 216.847 190.737 216.705 190.852 216.604C190.967 216.503 191.117 216.452 191.27 216.462C191.422 216.472 191.565 216.542 191.666 216.657L195.911 221.587C195.983 221.67 196.029 221.772 196.044 221.88C196.06 221.988 196.043 222.099 195.998 222.198C195.952 222.298 195.879 222.382 195.786 222.441C195.694 222.5 195.587 222.531 195.478 222.531V222.546Z" fill="#292929"/>
<path d="M211.256 217.795C211.174 217.795 211.092 217.778 211.017 217.743C210.942 217.709 210.876 217.659 210.822 217.597L206.577 212.667C206.527 212.61 206.489 212.544 206.464 212.472C206.44 212.4 206.43 212.325 206.435 212.249C206.44 212.173 206.46 212.099 206.493 212.032C206.527 211.964 206.573 211.903 206.63 211.853C206.687 211.803 206.753 211.765 206.825 211.74C206.897 211.716 206.973 211.706 207.048 211.711C207.124 211.716 207.198 211.736 207.266 211.769C207.333 211.803 207.394 211.849 207.444 211.906L211.651 216.851C211.723 216.934 211.769 217.036 211.784 217.144C211.8 217.253 211.784 217.363 211.738 217.463C211.692 217.562 211.619 217.646 211.527 217.705C211.434 217.764 211.327 217.795 211.218 217.795H211.256Z" fill="#292929"/>
<path d="M219.176 215.414C219.093 215.414 219.012 215.396 218.937 215.362C218.862 215.328 218.796 215.278 218.742 215.216L214.497 210.286C214.396 210.171 214.345 210.02 214.355 209.868C214.365 209.715 214.435 209.573 214.55 209.472C214.665 209.371 214.815 209.32 214.968 209.33C215.121 209.34 215.263 209.41 215.364 209.525L219.609 214.455C219.681 214.538 219.727 214.64 219.742 214.748C219.758 214.856 219.742 214.967 219.696 215.066C219.65 215.166 219.577 215.25 219.485 215.309C219.392 215.368 219.285 215.399 219.176 215.398V215.414Z" fill="#292929"/>
<path d="M227.081 213.047C226.999 213.048 226.917 213.03 226.843 212.996C226.768 212.962 226.701 212.912 226.647 212.85L222.402 207.912C222.301 207.797 222.25 207.646 222.26 207.494C222.27 207.341 222.34 207.199 222.455 207.098C222.57 206.997 222.721 206.946 222.873 206.956C223.026 206.966 223.168 207.036 223.269 207.151L227.515 212.089C227.586 212.172 227.632 212.273 227.648 212.382C227.663 212.49 227.647 212.6 227.601 212.7C227.555 212.799 227.482 212.883 227.39 212.942C227.298 213.001 227.19 213.032 227.081 213.032V213.047Z" fill="#292929"/>
<path d="M235.009 210.666C234.926 210.666 234.845 210.649 234.77 210.615C234.695 210.581 234.629 210.531 234.575 210.468L230.33 205.538C230.229 205.423 230.178 205.273 230.188 205.12C230.198 204.968 230.268 204.825 230.383 204.724C230.498 204.623 230.648 204.572 230.801 204.582C230.954 204.592 231.096 204.663 231.197 204.778L235.442 209.708C235.514 209.79 235.56 209.892 235.575 210C235.591 210.109 235.575 210.219 235.529 210.319C235.483 210.418 235.41 210.502 235.318 210.561C235.225 210.62 235.118 210.651 235.009 210.651V210.666Z" fill="#292929"/>
<path d="M242.906 208.292C242.824 208.292 242.743 208.275 242.668 208.241C242.593 208.207 242.526 208.157 242.473 208.094L238.227 203.157C238.177 203.1 238.139 203.034 238.115 202.962C238.09 202.89 238.08 202.814 238.085 202.739C238.09 202.663 238.11 202.589 238.143 202.521C238.177 202.453 238.223 202.393 238.28 202.343C238.337 202.293 238.404 202.254 238.475 202.23C238.547 202.206 238.623 202.196 238.699 202.201C238.774 202.206 238.848 202.225 238.916 202.259C238.984 202.292 239.045 202.339 239.095 202.396L243.34 207.334C243.411 207.416 243.458 207.518 243.473 207.626C243.488 207.735 243.472 207.845 243.426 207.945C243.381 208.044 243.307 208.128 243.215 208.187C243.123 208.246 243.016 208.277 242.906 208.277V208.292Z" fill="#292929"/>
<path d="M258.738 203.537C258.656 203.537 258.575 203.52 258.5 203.486C258.425 203.452 258.359 203.402 258.305 203.339L254.067 198.402C254.017 198.345 253.979 198.279 253.954 198.207C253.93 198.135 253.92 198.059 253.925 197.984C253.93 197.908 253.95 197.834 253.983 197.766C254.017 197.698 254.063 197.638 254.12 197.588C254.177 197.538 254.243 197.499 254.315 197.475C254.387 197.451 254.463 197.441 254.538 197.446C254.614 197.451 254.688 197.47 254.756 197.504C254.824 197.537 254.884 197.584 254.934 197.641L259.172 202.579C259.244 202.661 259.29 202.763 259.305 202.871C259.32 202.98 259.304 203.09 259.259 203.19C259.213 203.289 259.14 203.373 259.047 203.432C258.955 203.491 258.848 203.522 258.738 203.522V203.537Z" fill="#292929"/>
<path d="M266.651 201.164C266.568 201.164 266.487 201.146 266.412 201.112C266.337 201.078 266.271 201.028 266.217 200.966L261.979 196.028C261.929 195.971 261.891 195.905 261.867 195.833C261.842 195.761 261.832 195.686 261.837 195.61C261.842 195.534 261.862 195.461 261.895 195.393C261.929 195.325 261.975 195.264 262.032 195.214C262.089 195.164 262.156 195.126 262.227 195.101C262.299 195.077 262.375 195.067 262.45 195.072C262.526 195.077 262.6 195.097 262.668 195.13C262.736 195.164 262.797 195.21 262.846 195.267L267.084 200.205C267.156 200.288 267.202 200.389 267.217 200.498C267.233 200.606 267.216 200.717 267.171 200.816C267.125 200.916 267.052 201 266.959 201.059C266.867 201.118 266.76 201.149 266.651 201.148V201.164Z" fill="#292929"/>
<path d="M274.571 198.782C274.489 198.782 274.408 198.765 274.333 198.731C274.258 198.697 274.191 198.647 274.138 198.584L269.892 193.647C269.791 193.532 269.74 193.381 269.75 193.229C269.76 193.076 269.83 192.933 269.945 192.833C270.06 192.732 270.211 192.681 270.364 192.691C270.516 192.701 270.659 192.771 270.76 192.886L275.005 197.816C275.076 197.899 275.123 198 275.138 198.109C275.153 198.217 275.137 198.328 275.091 198.427C275.046 198.526 274.972 198.611 274.88 198.67C274.788 198.728 274.681 198.76 274.571 198.759V198.782Z" fill="#292929"/>
<path d="M282.483 196.408C282.401 196.409 282.32 196.391 282.245 196.357C282.17 196.323 282.103 196.273 282.05 196.211L277.842 191.273C277.792 191.216 277.754 191.15 277.73 191.078C277.705 191.006 277.696 190.93 277.7 190.855C277.705 190.779 277.725 190.705 277.759 190.637C277.792 190.57 277.839 190.509 277.896 190.459C277.953 190.409 278.019 190.371 278.091 190.346C278.162 190.322 278.238 190.312 278.314 190.317C278.389 190.322 278.463 190.342 278.531 190.375C278.599 190.409 278.66 190.455 278.71 190.512L282.955 195.45C283.027 195.533 283.073 195.634 283.088 195.743C283.103 195.851 283.087 195.962 283.042 196.061C282.996 196.16 282.923 196.245 282.83 196.304C282.738 196.362 282.631 196.394 282.521 196.393L282.483 196.408Z" fill="#292929"/>
<path d="M290.403 194.035C290.321 194.035 290.24 194.017 290.165 193.983C290.09 193.949 290.023 193.899 289.97 193.837L285.724 188.907C285.674 188.85 285.636 188.784 285.612 188.712C285.587 188.64 285.577 188.564 285.582 188.489C285.587 188.413 285.607 188.339 285.641 188.271C285.674 188.203 285.721 188.143 285.778 188.093C285.834 188.043 285.901 188.004 285.972 187.98C286.044 187.956 286.12 187.946 286.196 187.951C286.271 187.956 286.345 187.975 286.413 188.009C286.481 188.042 286.542 188.089 286.592 188.146L290.837 193.076C290.908 193.159 290.955 193.261 290.97 193.369C290.985 193.477 290.969 193.588 290.923 193.687C290.878 193.787 290.804 193.871 290.712 193.93C290.62 193.989 290.513 194.02 290.403 194.019V194.035Z" fill="#292929"/>
<path d="M159.963 239.162C159.881 239.162 159.799 239.145 159.724 239.111C159.65 239.077 159.583 239.027 159.529 238.964L151.214 229.294C151.164 229.237 151.125 229.171 151.101 229.1C151.077 229.028 151.067 228.952 151.072 228.876C151.076 228.801 151.096 228.727 151.13 228.659C151.163 228.591 151.21 228.53 151.267 228.48C151.324 228.43 151.39 228.392 151.462 228.368C151.533 228.343 151.609 228.333 151.685 228.338C151.76 228.343 151.834 228.363 151.902 228.397C151.97 228.43 152.031 228.477 152.081 228.534L160.412 238.204C160.483 238.286 160.529 238.388 160.545 238.496C160.56 238.605 160.544 238.715 160.498 238.815C160.453 238.914 160.379 238.998 160.287 239.057C160.195 239.116 160.088 239.147 159.978 239.147L159.963 239.162Z" fill="#292929"/>
<path d="M207.476 224.897C207.394 224.897 207.313 224.88 207.238 224.845C207.163 224.811 207.096 224.761 207.043 224.699L198.712 215.029C198.611 214.914 198.56 214.764 198.57 214.611C198.58 214.458 198.65 214.316 198.765 214.215C198.88 214.114 199.03 214.063 199.183 214.073C199.336 214.083 199.478 214.153 199.579 214.268L207.895 223.953C207.966 224.036 208.012 224.138 208.028 224.246C208.043 224.355 208.027 224.465 207.981 224.565C207.935 224.664 207.862 224.748 207.77 224.807C207.678 224.866 207.57 224.897 207.461 224.897H207.476Z" fill="#292929"/>
<path d="M254.904 210.659C254.822 210.659 254.741 210.641 254.666 210.607C254.591 210.573 254.524 210.523 254.47 210.461L246.147 200.783C246.046 200.668 245.995 200.518 246.005 200.365C246.015 200.212 246.085 200.07 246.2 199.969C246.315 199.868 246.466 199.817 246.618 199.827C246.771 199.837 246.914 199.907 247.014 200.022L255.338 209.7C255.409 209.783 255.455 209.884 255.471 209.993C255.486 210.101 255.47 210.212 255.424 210.311C255.379 210.411 255.305 210.495 255.213 210.554C255.121 210.613 255.014 210.644 254.904 210.643V210.659Z" fill="#292929"/>
<path d="M302.402 196.393C302.32 196.393 302.238 196.376 302.163 196.342C302.089 196.308 302.022 196.258 301.968 196.195L293.637 186.525C293.587 186.468 293.549 186.402 293.525 186.33C293.5 186.259 293.49 186.183 293.495 186.107C293.5 186.032 293.52 185.958 293.554 185.89C293.587 185.822 293.634 185.761 293.691 185.711C293.748 185.661 293.814 185.623 293.885 185.599C293.957 185.574 294.033 185.564 294.109 185.569C294.184 185.574 294.258 185.594 294.326 185.628C294.394 185.661 294.455 185.708 294.505 185.765L302.836 195.435C302.907 195.517 302.953 195.619 302.969 195.727C302.984 195.836 302.968 195.946 302.922 196.046C302.876 196.145 302.803 196.229 302.711 196.288C302.619 196.347 302.511 196.378 302.402 196.378V196.393Z" fill="#292929"/>
<path d="M296.452 104.995C298.09 104.995 299.419 103.666 299.419 102.027C299.419 100.389 298.09 99.0603 296.452 99.0603C294.813 99.0603 293.484 100.389 293.484 102.027C293.484 103.666 294.813 104.995 296.452 104.995Z" fill="#FAF7F2"/>
<path d="M296.452 105.573C295.752 105.573 295.068 105.365 294.486 104.977C293.905 104.588 293.451 104.035 293.183 103.389C292.916 102.743 292.846 102.031 292.982 101.345C293.119 100.659 293.455 100.028 293.95 99.5335C294.445 99.0387 295.075 98.7018 295.762 98.5653C296.448 98.4288 297.159 98.4989 297.806 98.7666C298.452 99.0344 299.005 99.4878 299.393 100.07C299.782 100.651 299.99 101.335 299.99 102.035C299.988 102.973 299.614 103.871 298.951 104.534C298.288 105.198 297.39 105.571 296.452 105.573ZM296.452 99.6385C295.978 99.6385 295.515 99.7791 295.12 100.042C294.726 100.306 294.419 100.68 294.238 101.118C294.056 101.556 294.009 102.038 294.101 102.503C294.194 102.968 294.422 103.395 294.757 103.73C295.092 104.065 295.519 104.293 295.984 104.386C296.449 104.478 296.931 104.431 297.369 104.249C297.807 104.068 298.181 103.761 298.445 103.367C298.708 102.972 298.848 102.509 298.848 102.035C298.849 101.72 298.788 101.407 298.668 101.116C298.548 100.824 298.372 100.559 298.149 100.336C297.927 100.112 297.662 99.935 297.371 99.8141C297.08 99.6932 296.767 99.6309 296.452 99.6309V99.6385Z" fill="#292929"/>
<path d="M257.947 77.3085C259.191 77.3085 260.199 76.3002 260.199 75.0565C260.199 73.8127 259.191 72.8044 257.947 72.8044C256.704 72.8044 255.695 73.8127 255.695 75.0565C255.695 76.3002 256.704 77.3085 257.947 77.3085Z" fill="#292929"/>
<path d="M257.947 77.8791C257.388 77.8791 256.843 77.7136 256.378 77.4035C255.914 77.0933 255.553 76.6525 255.339 76.1367C255.125 75.6209 255.069 75.0534 255.178 74.5059C255.287 73.9583 255.556 73.4554 255.951 73.0606C256.345 72.6659 256.848 72.397 257.396 72.2881C257.944 72.1792 258.511 72.2351 259.027 72.4487C259.543 72.6624 259.983 73.0242 260.294 73.4883C260.604 73.9525 260.769 74.4983 260.769 75.0565C260.769 75.4272 260.696 75.7942 260.554 76.1367C260.413 76.4792 260.205 76.7903 259.943 77.0524C259.68 77.3145 259.369 77.5224 259.027 77.6643C258.684 77.8061 258.317 77.8791 257.947 77.8791ZM257.947 73.3751C257.614 73.3751 257.289 73.4737 257.013 73.6585C256.736 73.8432 256.52 74.1058 256.393 74.4131C256.266 74.7203 256.233 75.0584 256.298 75.3846C256.362 75.7107 256.523 76.0103 256.758 76.2455C256.993 76.4806 257.292 76.6407 257.619 76.7056C257.945 76.7705 258.283 76.7372 258.59 76.6099C258.897 76.4827 259.16 76.2672 259.345 75.9907C259.529 75.7141 259.628 75.3891 259.628 75.0565C259.628 74.8357 259.585 74.6171 259.5 74.4131C259.416 74.2091 259.292 74.0237 259.136 73.8676C258.979 73.7115 258.794 73.5876 258.59 73.5031C258.386 73.4186 258.167 73.3751 257.947 73.3751Z" fill="#292929"/>
<path d="M272.288 93.514C273.532 93.514 274.54 92.5058 274.54 91.262C274.54 90.0183 273.532 89.01 272.288 89.01C271.044 89.01 270.036 90.0183 270.036 91.262C270.036 92.5058 271.044 93.514 272.288 93.514Z" fill="#292929"/>
<path d="M272.288 94.0846C271.73 94.0846 271.184 93.9191 270.72 93.6089C270.256 93.2987 269.894 92.8579 269.681 92.3421C269.467 91.8264 269.411 91.2588 269.52 90.7113C269.629 90.1638 269.898 89.6608 270.293 89.2661C270.687 88.8713 271.19 88.6025 271.738 88.4936C272.285 88.3847 272.853 88.4406 273.369 88.6542C273.884 88.8678 274.325 89.2296 274.635 89.6938C274.946 90.158 275.111 90.7037 275.111 91.262C275.111 92.0106 274.814 92.7285 274.284 93.2579C273.755 93.7872 273.037 94.0846 272.288 94.0846ZM272.288 89.5806C271.956 89.5806 271.631 89.6792 271.354 89.8639C271.078 90.0487 270.862 90.3113 270.735 90.6185C270.608 90.9258 270.574 91.2638 270.639 91.59C270.704 91.9161 270.864 92.2157 271.1 92.4509C271.335 92.686 271.634 92.8462 271.96 92.9111C272.287 92.9759 272.625 92.9426 272.932 92.8154C273.239 92.6881 273.502 92.4726 273.686 92.1961C273.871 91.9196 273.97 91.5945 273.97 91.262C273.97 90.816 273.793 90.3884 273.477 90.073C273.162 89.7577 272.734 89.5806 272.288 89.5806Z" fill="#292929"/>
<path d="M279.425 81.6681C280.236 81.6681 280.894 81.0107 280.894 80.1997C280.894 79.3887 280.236 78.7313 279.425 78.7313C278.614 78.7313 277.957 79.3887 277.957 80.1997C277.957 81.0107 278.614 81.6681 279.425 81.6681Z" fill="#292929"/>
<path d="M279.425 82.2386C279.021 82.2386 278.627 82.119 278.292 81.895C277.957 81.6709 277.695 81.3525 277.541 80.9799C277.387 80.6073 277.346 80.1974 277.425 79.8019C277.504 79.4063 277.698 79.043 277.983 78.7579C278.268 78.4727 278.631 78.2785 279.027 78.1998C279.422 78.1211 279.832 78.1615 280.205 78.3159C280.578 78.4702 280.896 78.7315 281.12 79.0668C281.344 79.4022 281.464 79.7964 281.464 80.1996C281.464 80.7404 281.249 81.259 280.867 81.6414C280.484 82.0238 279.966 82.2386 279.425 82.2386ZM279.425 79.3019C279.247 79.3019 279.074 79.3545 278.926 79.4532C278.778 79.5518 278.663 79.692 278.595 79.8561C278.527 80.0201 278.51 80.2006 278.544 80.3748C278.579 80.5489 278.664 80.7089 278.79 80.8345C278.915 80.96 279.075 81.0455 279.25 81.0802C279.424 81.1148 279.604 81.097 279.768 81.0291C279.932 80.9611 280.073 80.8461 280.171 80.6984C280.27 80.5508 280.323 80.3772 280.323 80.1996C280.323 79.9615 280.228 79.7332 280.06 79.5648C279.891 79.3965 279.663 79.3019 279.425 79.3019Z" fill="#292929"/>
<path d="M263.585 106.524C264.396 106.524 265.053 105.866 265.053 105.056C265.053 104.245 264.396 103.587 263.585 103.587C262.774 103.587 262.116 104.245 262.116 105.056C262.116 105.866 262.774 106.524 263.585 106.524Z" fill="#292929"/>
<path d="M263.585 107.095C263.182 107.095 262.787 106.975 262.452 106.751C262.117 106.527 261.855 106.208 261.701 105.836C261.547 105.463 261.506 105.053 261.585 104.658C261.664 104.262 261.858 103.899 262.143 103.614C262.428 103.329 262.792 103.134 263.187 103.056C263.583 102.977 263.993 103.017 264.365 103.172C264.738 103.326 265.056 103.587 265.28 103.923C265.504 104.258 265.624 104.652 265.624 105.056C265.624 105.596 265.409 106.115 265.027 106.497C264.644 106.88 264.126 107.095 263.585 107.095ZM263.585 104.158C263.407 104.158 263.234 104.21 263.086 104.309C262.939 104.408 262.823 104.548 262.755 104.712C262.688 104.876 262.67 105.057 262.704 105.231C262.739 105.405 262.825 105.565 262.95 105.69C263.076 105.816 263.236 105.901 263.41 105.936C263.584 105.971 263.764 105.953 263.928 105.885C264.092 105.817 264.233 105.702 264.331 105.554C264.43 105.407 264.483 105.233 264.483 105.056C264.483 104.817 264.388 104.589 264.22 104.421C264.051 104.252 263.823 104.158 263.585 104.158Z" fill="#292929"/>
<path d="M98.2147 250.664C98.6079 247.919 96.7011 245.375 93.9559 244.982C91.2107 244.589 88.6665 246.495 88.2734 249.241C87.8802 251.986 89.787 254.53 92.5322 254.923C95.2774 255.316 97.8216 253.41 98.2147 250.664Z" fill="#97DE40"/>
<path d="M332.676 83.7486C333.608 82.0218 332.964 79.8664 331.237 78.9343C329.511 78.0022 327.355 78.6464 326.423 80.3731C325.491 82.0999 326.135 84.2554 327.862 85.1875C329.589 86.1196 331.744 85.4753 332.676 83.7486Z" fill="#97DE40"/>
<path d="M275.547 174.738L274.635 169.475L269.372 170.387L270.284 175.649L275.547 174.738Z" fill="#97DE40"/>
<path d="M11.7178 242.601L16.1914 253.732L23.5941 244.29L11.7178 242.601Z" fill="#292929"/>
<path d="M299.948 147.163C301.21 144.693 300.23 141.669 297.76 140.408C295.29 139.146 292.265 140.126 291.004 142.596C289.743 145.066 290.723 148.091 293.193 149.352C295.663 150.613 298.687 149.633 299.948 147.163Z" fill="#97DE40"/>
<path d="M316.143 181.618L318.798 189.219L324.055 183.125L316.143 181.618Z" fill="#292929"/>
<path d="M9.95215 96.3643L17.6973 104.421L20.8014 93.6863L9.95215 96.3643Z" fill="#97DE40"/>
</svg>
