<svg width="393" height="321" viewBox="0 0 393 321" fill="none" xmlns="http://www.w3.org/2000/svg">
<path d="M307.955 65.8107H73.167V252.325H307.955V65.8107Z" fill="#FAF7F2"/>
<path d="M307.956 252.896H73.1673C73.016 252.896 72.8708 252.836 72.7638 252.729C72.6568 252.622 72.5967 252.476 72.5967 252.325V65.8107C72.5967 65.6593 72.6568 65.5142 72.7638 65.4072C72.8708 65.3002 73.016 65.2401 73.1673 65.2401H307.956C308.107 65.2401 308.252 65.3002 308.359 65.4072C308.466 65.5142 308.526 65.6593 308.526 65.8107V252.325C308.526 252.476 308.466 252.622 308.359 252.729C308.252 252.836 308.107 252.896 307.956 252.896ZM73.7379 251.754H307.385V66.3813H73.7379V251.754Z" fill="#292929"/>
<path d="M83.834 200.179H63.9082V214.223H83.834V200.179Z" fill="#FAF7F2"/>
<path d="M175.855 233.122H90.9935C90.8421 233.122 90.697 233.062 90.59 232.955C90.483 232.848 90.4229 232.703 90.4229 232.551V116.953C90.4229 116.801 90.483 116.656 90.59 116.549C90.697 116.442 90.8421 116.382 90.9935 116.382H175.855C176.006 116.382 176.151 116.442 176.258 116.549C176.366 116.656 176.426 116.801 176.426 116.953V232.551C176.426 232.703 176.366 232.848 176.258 232.955C176.151 233.062 176.006 233.122 175.855 233.122ZM91.5641 231.981H175.315V117.523H91.6249L91.5641 231.981Z" fill="#292929"/>
<path d="M101.325 183.768H43.5941C43.4427 183.768 43.2976 183.708 43.1906 183.601C43.0836 183.494 43.0234 183.348 43.0234 183.197V125.847C43.0234 125.695 43.0836 125.55 43.1906 125.443C43.2976 125.336 43.4427 125.276 43.5941 125.276C43.7454 125.276 43.8905 125.336 43.9975 125.443C44.1045 125.55 44.1647 125.695 44.1647 125.847V182.619H101.325C101.476 182.619 101.621 182.679 101.728 182.786C101.835 182.893 101.895 183.038 101.895 183.19C101.895 183.341 101.835 183.486 101.728 183.593C101.621 183.7 101.476 183.76 101.325 183.76V183.768Z" fill="#292929"/>
<path d="M262.542 316.736C281.698 316.736 297.228 301.206 297.228 282.05C297.228 262.894 281.698 247.364 262.542 247.364C243.386 247.364 227.856 262.894 227.856 282.05C227.856 301.206 243.386 316.736 262.542 316.736Z" fill="#292929"/>
<path d="M262.543 317.306C255.57 317.305 248.754 315.236 242.957 311.361C237.16 307.486 232.643 301.979 229.975 295.537C227.308 289.094 226.611 282.006 227.972 275.167C229.334 268.329 232.692 262.047 237.623 257.117C242.554 252.188 248.836 248.83 255.675 247.471C262.514 246.111 269.602 246.81 276.044 249.478C282.486 252.147 287.992 256.666 291.865 262.464C295.739 268.261 297.807 275.077 297.807 282.05C297.796 291.399 294.078 300.362 287.466 306.972C280.855 313.582 271.891 317.298 262.543 317.306ZM262.543 247.935C255.795 247.935 249.199 249.936 243.589 253.684C237.979 257.433 233.607 262.761 231.024 268.995C228.442 275.229 227.767 282.088 229.083 288.706C230.399 295.323 233.649 301.402 238.42 306.173C243.191 310.944 249.269 314.193 255.887 315.51C262.505 316.826 269.364 316.15 275.598 313.568C281.832 310.986 287.16 306.614 290.908 301.003C294.657 295.393 296.658 288.797 296.658 282.05C296.658 272.999 293.065 264.318 286.668 257.914C280.271 251.51 271.594 247.907 262.543 247.897V247.935Z" fill="#292929"/>
<path d="M251.29 107.466C255.676 107.466 259.233 103.909 259.233 99.5226C259.233 95.1358 255.676 91.5797 251.29 91.5797C246.903 91.5797 243.347 95.1358 243.347 99.5226C243.347 103.909 246.903 107.466 251.29 107.466Z" fill="#FAF7F2"/>
<path d="M251.29 108.028C249.603 108.036 247.953 107.542 246.547 106.611C245.142 105.679 244.045 104.35 243.395 102.794C242.746 101.238 242.573 99.5236 242.899 97.869C243.225 96.2144 244.035 94.6939 245.226 93.5004C246.418 92.3068 247.937 91.494 249.591 91.165C251.245 90.836 252.959 91.0056 254.517 91.6524C256.074 92.2991 257.405 93.3938 258.339 94.7977C259.273 96.2015 259.77 97.8513 259.765 99.5377C259.757 101.784 258.862 103.937 257.275 105.527C255.688 107.117 253.537 108.016 251.29 108.028ZM251.29 92.1502C249.832 92.1502 248.406 92.5825 247.194 93.3926C245.982 94.2027 245.037 95.3541 244.479 96.7012C243.921 98.0483 243.775 99.5307 244.059 100.961C244.344 102.391 245.046 103.704 246.077 104.735C247.108 105.767 248.421 106.469 249.852 106.753C251.282 107.038 252.764 106.892 254.111 106.334C255.458 105.776 256.61 104.831 257.42 103.618C258.23 102.406 258.662 100.981 258.662 99.5225C258.66 97.5678 257.883 95.6938 256.501 94.3117C255.118 92.9295 253.244 92.1522 251.29 92.1502Z" fill="#292929"/>
<path d="M230.535 107.466C234.921 107.466 238.478 103.909 238.478 99.5226C238.478 95.1358 234.921 91.5797 230.535 91.5797C226.148 91.5797 222.592 95.1358 222.592 99.5226C222.592 103.909 226.148 107.466 230.535 107.466Z" fill="#FAF7F2"/>
<path d="M230.535 108.029C228.85 108.028 227.203 107.529 225.803 106.592C224.402 105.656 223.311 104.325 222.667 102.768C222.024 101.211 221.856 99.4977 222.187 97.8456C222.517 96.1935 223.33 94.6766 224.523 93.4869C225.716 92.2972 227.235 91.4881 228.888 91.1622C230.541 90.8363 232.254 91.0082 233.809 91.656C235.364 92.3039 236.692 93.3987 237.625 94.8017C238.558 96.2047 239.053 97.853 239.049 99.5378C239.04 101.791 238.14 103.95 236.545 105.541C234.949 107.132 232.788 108.027 230.535 108.029ZM230.535 92.1502C229.077 92.1502 227.652 92.5826 226.439 93.3927C225.227 94.2028 224.282 95.3542 223.724 96.7013C223.166 98.0484 223.02 99.5307 223.304 100.961C223.589 102.391 224.291 103.705 225.322 104.736C226.353 105.767 227.667 106.469 229.097 106.753C230.527 107.038 232.009 106.892 233.356 106.334C234.703 105.776 235.855 104.831 236.665 103.618C237.475 102.406 237.907 100.981 237.907 99.5226C237.905 97.5679 237.128 95.6939 235.746 94.3118C234.364 92.9296 232.49 92.1523 230.535 92.1502Z" fill="#292929"/>
<path d="M344.383 101.417H272.106C271.954 101.417 271.809 101.357 271.702 101.25C271.595 101.143 271.535 100.998 271.535 100.846C271.535 100.695 271.595 100.55 271.702 100.443C271.809 100.336 271.954 100.276 272.106 100.276H343.79V40.095C343.79 39.9437 343.85 39.7986 343.957 39.6916C344.064 39.5845 344.209 39.5244 344.361 39.5244C344.512 39.5244 344.657 39.5845 344.764 39.6916C344.871 39.7986 344.931 39.9437 344.931 40.095V100.846C344.931 100.994 344.874 101.136 344.772 101.242C344.67 101.348 344.531 101.411 344.383 101.417Z" fill="#292929"/>
<path d="M307.955 65.8107H73.167V83.8877H307.955V65.8107Z" fill="#FAF7F2"/>
<path d="M307.956 84.4583H73.1673C73.016 84.4583 72.8708 84.3982 72.7638 84.2912C72.6568 84.1842 72.5967 84.039 72.5967 83.8877V65.8107C72.5967 65.6593 72.6568 65.5142 72.7638 65.4072C72.8708 65.3002 73.016 65.2401 73.1673 65.2401H307.956C308.107 65.2401 308.252 65.3002 308.359 65.4072C308.466 65.5142 308.526 65.6593 308.526 65.8107V83.8877C308.526 84.039 308.466 84.1842 308.359 84.2912C308.252 84.3982 308.107 84.4583 307.956 84.4583ZM73.7379 83.3171H307.385V66.3813H73.7379V83.3171Z" fill="#292929"/>
<path d="M45.6181 135.091C66.0225 135.091 82.5634 118.55 82.5634 98.1454C82.5634 77.741 66.0225 61.2001 45.6181 61.2001C25.2138 61.2001 8.67285 77.741 8.67285 98.1454C8.67285 118.55 25.2138 135.091 45.6181 135.091Z" fill="#97DE40"/>
<path d="M45.6185 135.661C38.1985 135.661 30.9452 133.461 24.7757 129.339C18.6063 125.216 13.7978 119.357 10.9583 112.502C8.11879 105.647 7.37586 98.1038 8.82341 90.8264C10.271 83.549 13.844 76.8643 19.0907 71.6176C24.3374 66.3709 31.0221 62.7979 38.2995 61.3503C45.5768 59.9028 53.12 60.6457 59.9752 63.4852C66.8303 66.3247 72.6895 71.1332 76.8118 77.3027C80.9341 83.4721 83.1344 90.7254 83.1344 98.1454C83.1223 108.092 79.1658 117.627 72.1329 124.66C65.0999 131.693 55.5646 135.649 45.6185 135.661ZM45.6185 61.7707C38.4242 61.7707 31.3916 63.904 25.4098 67.9009C19.428 71.8978 14.7657 77.5788 12.0126 84.2254C9.25952 90.872 8.53919 98.1857 9.94271 105.242C11.3462 112.298 14.8106 118.779 19.8977 123.866C24.9848 128.953 31.4661 132.418 38.5221 133.821C45.5781 135.225 52.8918 134.504 59.5384 131.751C66.185 128.998 71.866 124.336 75.8629 118.354C79.8598 112.372 81.9931 105.34 81.9931 98.1454C81.9831 88.5013 78.1475 79.2551 71.3281 72.4357C64.5087 65.6163 55.2625 61.7808 45.6185 61.7707Z" fill="#292929"/>
<path d="M45.6185 98.9443C45.4671 98.9443 45.322 98.8842 45.215 98.7771C45.108 98.6701 45.0479 98.525 45.0479 98.3737V81.415C45.0479 81.2637 45.108 81.1186 45.215 81.0116C45.322 80.9045 45.4671 80.8444 45.6185 80.8444C45.7698 80.8444 45.9149 80.9045 46.022 81.0116C46.129 81.1186 46.1891 81.2637 46.1891 81.415V98.3737C46.1891 98.525 46.129 98.6701 46.022 98.7771C45.9149 98.8842 45.7698 98.9443 45.6185 98.9443Z" fill="#292929"/>
<path d="M49.9848 99.9104C49.8782 99.9101 49.7738 99.8799 49.6835 99.8233C49.5931 99.7666 49.5205 99.6858 49.4737 99.5899C49.427 99.4941 49.4081 99.3871 49.4191 99.281C49.4301 99.1749 49.4705 99.0741 49.5359 98.9899L59.9287 85.5919C59.9724 85.5268 60.029 85.4715 60.095 85.4293C60.161 85.3871 60.2349 85.359 60.3123 85.3466C60.3896 85.3343 60.4687 85.338 60.5445 85.3575C60.6204 85.377 60.6914 85.4119 60.7532 85.4601C60.815 85.5082 60.8662 85.5686 60.9036 85.6374C60.941 85.7062 60.9639 85.782 60.9708 85.86C60.9776 85.938 60.9684 86.0166 60.9435 86.0909C60.9187 86.1652 60.8789 86.2336 60.8265 86.2918L50.4337 99.6898C50.3806 99.7583 50.3125 99.8137 50.2347 99.8519C50.157 99.8902 50.0715 99.9102 49.9848 99.9104Z" fill="#292929"/>
<path d="M41.243 99.9104C41.1563 99.9102 41.0709 99.8902 40.9931 99.8519C40.9153 99.8137 40.8473 99.7583 40.7941 99.6898L30.4014 86.2918C30.349 86.2336 30.3091 86.1652 30.2843 86.0909C30.2595 86.0166 30.2502 85.938 30.2571 85.86C30.264 85.782 30.2868 85.7062 30.3242 85.6374C30.3617 85.5686 30.4129 85.5082 30.4746 85.4601C30.5364 85.4119 30.6074 85.377 30.6833 85.3575C30.7591 85.338 30.8382 85.3343 30.9156 85.3466C30.9929 85.359 31.0669 85.3871 31.1329 85.4293C31.1988 85.4715 31.2555 85.5268 31.2991 85.5919L41.6919 98.9899C41.7573 99.0741 41.7978 99.1749 41.8088 99.281C41.8198 99.3871 41.8008 99.4941 41.7541 99.5899C41.7074 99.6858 41.6347 99.7666 41.5444 99.8233C41.454 99.8799 41.3496 99.9101 41.243 99.9104Z" fill="#292929"/>
<path d="M62.6606 99.6595C60.8422 94.0979 53.896 89.959 45.6183 89.959C37.3406 89.959 30.4019 94.0979 28.5684 99.6595C30.3867 105.221 37.333 109.36 45.6107 109.36C53.8884 109.36 60.827 105.221 62.6606 99.6595Z" fill="#FAF7F2"/>
<path d="M45.61 109.93C37.1953 109.93 29.9676 105.784 28.0275 99.842C27.9908 99.7283 27.9908 99.6058 28.0275 99.4921C29.9676 93.5501 37.2029 89.4036 45.6176 89.4036C54.0322 89.4036 61.26 93.5501 63.2001 99.4921C63.2367 99.6058 63.2367 99.7283 63.2001 99.842C61.26 105.776 54.0246 109.93 45.61 109.93ZM29.1687 99.6595C31.0251 104.985 37.8953 108.789 45.61 108.789C53.454 108.789 60.1796 105.046 62.0588 99.6595C60.2025 94.3337 53.3323 90.5296 45.6176 90.5296C37.7736 90.5296 31.0479 94.2729 29.1687 99.6595Z" fill="#292929"/>
<path d="M357.713 150.307H301.261V212.245H357.713V150.307Z" fill="#FAF7F2"/>
<path d="M357.713 212.816H301.26C301.109 212.816 300.964 212.756 300.857 212.649C300.75 212.542 300.689 212.397 300.689 212.245V150.307C300.689 150.156 300.75 150.011 300.857 149.904C300.964 149.797 301.109 149.736 301.26 149.736H357.713C357.864 149.736 358.009 149.797 358.116 149.904C358.223 150.011 358.283 150.156 358.283 150.307V212.245C358.283 212.397 358.223 212.542 358.116 212.649C358.009 212.756 357.864 212.816 357.713 212.816ZM301.831 211.675H357.15V150.878H301.838L301.831 211.675Z" fill="#292929"/>
<path d="M357.713 150.307H301.261V159.711H357.713V150.307Z" fill="#FAF7F2"/>
<path d="M357.713 160.281H301.26C301.109 160.281 300.964 160.221 300.857 160.114C300.75 160.007 300.689 159.862 300.689 159.711V150.307C300.689 150.156 300.75 150.011 300.857 149.904C300.964 149.797 301.109 149.736 301.26 149.736H357.713C357.864 149.736 358.009 149.797 358.116 149.904C358.223 150.011 358.283 150.156 358.283 150.307V159.711C358.283 159.862 358.223 160.007 358.116 160.114C358.009 160.221 357.864 160.281 357.713 160.281ZM301.831 159.14H357.15V150.878H301.838L301.831 159.14Z" fill="#292929"/>
<path d="M69.8885 136.316C75.2333 136.316 79.5661 131.983 79.5661 126.638C79.5661 121.293 75.2333 116.96 69.8885 116.96C64.5437 116.96 60.2109 121.293 60.2109 126.638C60.2109 131.983 64.5437 136.316 69.8885 136.316Z" fill="#97DE40"/>
<path d="M69.8879 136.886C67.861 136.886 65.8796 136.285 64.1943 135.159C62.509 134.033 61.1954 132.432 60.4197 130.56C59.6441 128.687 59.4411 126.627 59.8366 124.639C60.232 122.651 61.208 120.825 62.6413 119.391C64.0745 117.958 65.9006 116.982 67.8885 116.587C69.8765 116.191 71.9371 116.394 73.8097 117.17C75.6823 117.946 77.2829 119.259 78.4089 120.944C79.535 122.63 80.1361 124.611 80.1361 126.638C80.132 129.355 79.051 131.959 77.13 133.88C75.209 135.801 72.6046 136.882 69.8879 136.886ZM69.8879 117.531C68.0822 117.531 66.317 118.067 64.8156 119.07C63.3142 120.073 62.144 121.499 61.453 123.167C60.762 124.835 60.5812 126.671 60.9335 128.442C61.2858 130.213 62.1553 131.84 63.4321 133.117C64.7089 134.393 66.3357 135.263 68.1067 135.615C69.8777 135.968 71.7134 135.787 73.3817 135.096C75.0499 134.405 76.4758 133.234 77.479 131.733C78.4822 130.232 79.0177 128.467 79.0177 126.661C79.0187 125.461 78.7833 124.273 78.3249 123.165C77.8665 122.056 77.1942 121.049 76.3463 120.2C75.4984 119.352 74.4916 118.678 73.3834 118.219C72.2753 117.76 71.0874 117.523 69.8879 117.523V117.531Z" fill="#292929"/>
<path d="M343.843 202.172C343.692 202.172 343.547 202.112 343.44 202.005C343.333 201.898 343.272 201.753 343.272 201.601V169.647C343.272 169.496 343.333 169.351 343.44 169.244C343.547 169.137 343.692 169.076 343.843 169.076C343.994 169.076 344.14 169.137 344.247 169.244C344.354 169.351 344.414 169.496 344.414 169.647V201.601C344.414 201.753 344.354 201.898 344.247 202.005C344.14 202.112 343.994 202.172 343.843 202.172Z" fill="#292929"/>
<path d="M329.487 202.172C329.335 202.172 329.19 202.112 329.083 202.005C328.976 201.898 328.916 201.753 328.916 201.601V169.647C328.916 169.496 328.976 169.351 329.083 169.244C329.19 169.137 329.335 169.076 329.487 169.076C329.638 169.076 329.783 169.137 329.89 169.244C329.997 169.351 330.057 169.496 330.057 169.647V201.601C330.057 201.753 329.997 201.898 329.89 202.005C329.783 202.112 329.638 202.172 329.487 202.172Z" fill="#292929"/>
<path d="M315.13 202.172C314.979 202.172 314.834 202.112 314.727 202.005C314.62 201.898 314.56 201.753 314.56 201.601V169.647C314.56 169.496 314.62 169.351 314.727 169.244C314.834 169.137 314.979 169.076 315.13 169.076C315.282 169.076 315.427 169.137 315.534 169.244C315.641 169.351 315.701 169.496 315.701 169.647V201.601C315.701 201.753 315.641 201.898 315.534 202.005C315.427 202.112 315.282 202.172 315.13 202.172Z" fill="#292929"/>
<path d="M343.843 190.501C345.99 190.501 347.731 188.76 347.731 186.613C347.731 184.466 345.99 182.725 343.843 182.725C341.696 182.725 339.955 184.466 339.955 186.613C339.955 188.76 341.696 190.501 343.843 190.501Z" fill="#292929"/>
<path d="M343.843 191.072C342.961 191.072 342.099 190.81 341.366 190.32C340.633 189.83 340.062 189.134 339.724 188.319C339.387 187.505 339.298 186.608 339.47 185.743C339.642 184.879 340.067 184.084 340.691 183.461C341.314 182.837 342.109 182.412 342.973 182.24C343.838 182.068 344.735 182.157 345.549 182.494C346.364 182.832 347.06 183.403 347.55 184.136C348.04 184.869 348.302 185.731 348.302 186.613C348.3 187.795 347.829 188.928 346.993 189.764C346.158 190.599 345.025 191.07 343.843 191.072ZM343.843 183.296C343.187 183.296 342.546 183.491 342 183.855C341.455 184.22 341.03 184.738 340.779 185.344C340.527 185.95 340.462 186.617 340.59 187.26C340.718 187.904 341.034 188.495 341.498 188.959C341.961 189.423 342.553 189.739 343.196 189.867C343.84 189.995 344.506 189.929 345.113 189.678C345.719 189.427 346.237 189.002 346.601 188.456C346.966 187.911 347.16 187.269 347.16 186.613C347.158 185.734 346.808 184.891 346.187 184.27C345.565 183.648 344.722 183.298 343.843 183.296Z" fill="#292929"/>
<path d="M329.486 195.363C331.634 195.363 333.374 193.622 333.374 191.475C333.374 189.328 331.634 187.587 329.486 187.587C327.339 187.587 325.599 189.328 325.599 191.475C325.599 193.622 327.339 195.363 329.486 195.363Z" fill="#292929"/>
<path d="M329.487 195.933C328.605 195.933 327.743 195.672 327.01 195.182C326.277 194.692 325.705 193.996 325.368 193.181C325.03 192.366 324.942 191.47 325.114 190.605C325.286 189.74 325.711 188.946 326.334 188.322C326.958 187.699 327.752 187.274 328.617 187.102C329.482 186.93 330.378 187.019 331.193 187.356C332.008 187.693 332.704 188.265 333.194 188.998C333.684 189.731 333.945 190.593 333.945 191.475C333.943 192.657 333.473 193.79 332.637 194.625C331.801 195.461 330.669 195.931 329.487 195.933ZM329.487 188.158C328.831 188.158 328.189 188.352 327.644 188.717C327.098 189.081 326.673 189.599 326.422 190.206C326.171 190.812 326.105 191.479 326.233 192.122C326.361 192.766 326.677 193.357 327.141 193.821C327.605 194.284 328.196 194.6 328.84 194.728C329.483 194.856 330.15 194.791 330.756 194.54C331.362 194.289 331.88 193.863 332.245 193.318C332.609 192.772 332.804 192.131 332.804 191.475C332.802 190.596 332.452 189.753 331.83 189.132C331.208 188.51 330.366 188.16 329.487 188.158Z" fill="#292929"/>
<path d="M315.13 180.656C317.277 180.656 319.018 178.915 319.018 176.768C319.018 174.621 317.277 172.88 315.13 172.88C312.983 172.88 311.242 174.621 311.242 176.768C311.242 178.915 312.983 180.656 315.13 180.656Z" fill="#292929"/>
<path d="M315.13 181.227C314.249 181.227 313.386 180.965 312.653 180.475C311.92 179.985 311.349 179.289 311.011 178.474C310.674 177.66 310.586 176.763 310.758 175.898C310.93 175.034 311.354 174.239 311.978 173.616C312.601 172.992 313.396 172.568 314.26 172.396C315.125 172.224 316.022 172.312 316.836 172.649C317.651 172.987 318.347 173.558 318.837 174.291C319.327 175.024 319.589 175.886 319.589 176.768C319.587 177.95 319.116 179.083 318.281 179.919C317.445 180.754 316.312 181.225 315.13 181.227ZM315.13 173.451C314.474 173.451 313.833 173.646 313.287 174.01C312.742 174.375 312.317 174.893 312.066 175.499C311.815 176.105 311.749 176.772 311.877 177.415C312.005 178.059 312.321 178.65 312.785 179.114C313.249 179.578 313.84 179.894 314.483 180.022C315.127 180.15 315.794 180.084 316.4 179.833C317.006 179.582 317.524 179.157 317.888 178.611C318.253 178.066 318.447 177.424 318.447 176.768C318.445 175.889 318.095 175.047 317.474 174.425C316.852 173.803 316.009 173.453 315.13 173.451Z" fill="#292929"/>
<path d="M45.618 106.682C49.4964 106.682 52.6404 103.538 52.6404 99.6594C52.6404 95.7811 49.4964 92.6371 45.618 92.6371C41.7397 92.6371 38.5957 95.7811 38.5957 99.6594C38.5957 103.538 41.7397 106.682 45.618 106.682Z" fill="#292929"/>
<path d="M45.6179 107.245C44.1132 107.245 42.6422 106.799 41.3911 105.963C40.1399 105.127 39.1647 103.938 38.5889 102.548C38.0131 101.158 37.8624 99.6282 38.156 98.1523C38.4495 96.6765 39.1741 95.3209 40.2382 94.2568C41.3022 93.1928 42.6578 92.4682 44.1337 92.1746C45.6095 91.8811 47.1392 92.0317 48.5295 92.6076C49.9197 93.1834 51.1079 94.1586 51.9439 95.4097C52.7799 96.6609 53.2261 98.1319 53.2261 99.6366C53.2261 101.654 52.4245 103.59 50.9977 105.016C49.5709 106.443 47.6358 107.245 45.6179 107.245ZM45.6179 93.2077C44.3416 93.2077 43.0939 93.5863 42.0328 94.2956C40.9716 95.0048 40.1447 96.0129 39.6566 97.1922C39.1685 98.3716 39.0412 99.6692 39.2907 100.921C39.5403 102.173 40.1555 103.322 41.0586 104.224C41.9616 105.126 43.1119 105.74 44.3639 105.988C45.616 106.236 46.9134 106.107 48.0922 105.618C49.271 105.128 50.278 104.3 50.9861 103.238C51.6941 102.176 52.0712 100.928 52.0697 99.6518C52.0676 97.942 51.387 96.303 50.1773 95.0947C48.9676 93.8864 47.3277 93.2077 45.6179 93.2077Z" fill="#292929"/>
<path d="M73.1673 114.389C73.016 114.389 72.8708 114.329 72.7638 114.222C72.6568 114.115 72.5967 113.97 72.5967 113.818V79.3456C72.5967 79.1943 72.6568 79.0492 72.7638 78.9421C72.8708 78.8351 73.016 78.775 73.1673 78.775C73.3186 78.775 73.4638 78.8351 73.5708 78.9421C73.6778 79.0492 73.7379 79.1943 73.7379 79.3456V113.818C73.7379 113.97 73.6778 114.115 73.5708 114.222C73.4638 114.329 73.3186 114.389 73.1673 114.389Z" fill="#292929"/>
<path d="M272.128 118.132C282.406 118.132 290.738 109.8 290.738 99.5225C290.738 89.2448 282.406 80.913 272.128 80.913C261.85 80.913 253.519 89.2448 253.519 99.5225C253.519 109.8 261.85 118.132 272.128 118.132Z" fill="#FAF7F2"/>
<path d="M272.128 118.703C268.334 118.703 264.625 117.577 261.471 115.469C258.316 113.361 255.858 110.365 254.407 106.859C252.956 103.353 252.577 99.4961 253.318 95.7751C254.059 92.0541 255.887 88.6365 258.571 85.9547C261.255 83.2729 264.674 81.4474 268.396 80.709C272.118 79.9707 275.974 80.3527 279.479 81.8067C282.983 83.2608 285.978 85.7215 288.084 88.8777C290.189 92.0339 291.312 95.7436 291.309 99.5378C291.299 104.62 289.274 109.491 285.679 113.084C282.084 116.676 277.211 118.697 272.128 118.703ZM272.128 81.4912C268.562 81.4972 265.078 82.5601 262.116 84.5456C259.153 86.531 256.846 89.35 255.485 92.6463C254.124 95.9425 253.771 99.5682 254.47 103.065C255.169 106.562 256.888 109.774 259.411 112.294C261.935 114.814 265.148 116.529 268.646 117.224C272.144 117.918 275.769 117.56 279.064 116.195C282.358 114.83 285.174 112.519 287.156 109.554C289.138 106.59 290.196 103.104 290.198 99.5378C290.198 97.1656 289.73 94.8166 288.822 92.6252C287.914 90.4338 286.583 88.4428 284.905 86.7662C283.226 85.0895 281.234 83.7599 279.042 82.8535C276.85 81.9471 274.501 81.4816 272.128 81.4836V81.4912Z" fill="#292929"/>
<path d="M272.129 107.724C273.553 107.724 274.708 106.569 274.708 105.145C274.708 103.721 273.553 102.566 272.129 102.566C270.705 102.566 269.55 103.721 269.55 105.145C269.55 106.569 270.705 107.724 272.129 107.724Z" fill="#97DE40"/>
<path d="M272.128 108.287C271.505 108.287 270.896 108.102 270.378 107.756C269.86 107.41 269.457 106.918 269.218 106.343C268.98 105.767 268.918 105.134 269.039 104.523C269.161 103.912 269.461 103.351 269.901 102.91C270.342 102.47 270.903 102.17 271.514 102.048C272.125 101.927 272.758 101.989 273.334 102.227C273.909 102.466 274.401 102.869 274.747 103.387C275.093 103.905 275.278 104.514 275.278 105.137C275.278 105.973 274.946 106.774 274.356 107.365C273.765 107.955 272.964 108.287 272.128 108.287ZM272.128 103.136C271.731 103.136 271.343 103.254 271.012 103.475C270.682 103.696 270.425 104.009 270.273 104.376C270.121 104.743 270.081 105.147 270.158 105.537C270.236 105.926 270.427 106.284 270.708 106.565C270.989 106.846 271.347 107.037 271.736 107.115C272.126 107.192 272.53 107.153 272.897 107.001C273.264 106.849 273.578 106.591 273.798 106.261C274.019 105.931 274.137 105.542 274.137 105.145C274.137 104.612 273.925 104.101 273.549 103.725C273.172 103.348 272.661 103.136 272.128 103.136Z" fill="#292929"/>
<path d="M279.196 103.928L277.53 102.17V96.7228C277.557 95.9969 277.438 95.2729 277.179 94.5942C276.92 93.9155 276.527 93.296 276.023 92.7728C275.519 92.2496 274.915 91.8334 274.246 91.5491C273.578 91.2648 272.859 91.1183 272.132 91.1183C271.406 91.1183 270.687 91.2648 270.018 91.5491C269.35 91.8334 268.746 92.2496 268.242 92.7728C267.738 93.296 267.344 93.9155 267.085 94.5942C266.826 95.2729 266.707 95.9969 266.734 96.7228V102.17L265.091 103.928C265.004 104.018 264.946 104.132 264.924 104.256C264.902 104.379 264.917 104.506 264.966 104.621C265.015 104.736 265.098 104.834 265.202 104.903C265.307 104.972 265.43 105.008 265.555 105.008H278.755C278.878 105.004 278.998 104.964 279.099 104.894C279.201 104.824 279.279 104.725 279.326 104.611C279.373 104.497 279.385 104.371 279.362 104.25C279.339 104.129 279.282 104.017 279.196 103.928Z" fill="#97DE40"/>
<path d="M278.732 105.586H265.524C265.287 105.588 265.054 105.52 264.854 105.39C264.655 105.26 264.499 105.074 264.405 104.856C264.31 104.637 264.283 104.396 264.325 104.162C264.367 103.928 264.477 103.711 264.642 103.54L266.164 101.95V96.7228C266.135 95.921 266.268 95.1218 266.555 94.3726C266.842 93.6235 267.277 92.9399 267.834 92.3625C268.391 91.7852 269.059 91.3261 269.797 91.0125C270.536 90.6989 271.33 90.5372 272.132 90.5372C272.934 90.5372 273.728 90.6989 274.467 91.0125C275.205 91.3261 275.873 91.7852 276.43 92.3625C276.987 92.9399 277.422 93.6235 277.709 94.3726C277.996 95.1218 278.129 95.921 278.101 96.7228V101.942L279.622 103.54C279.787 103.711 279.897 103.928 279.939 104.162C279.982 104.396 279.954 104.637 279.86 104.856C279.766 105.074 279.609 105.26 279.41 105.39C279.211 105.52 278.978 105.588 278.74 105.586H278.732ZM272.128 91.8916C270.847 91.8916 269.618 92.4006 268.712 93.3066C267.806 94.2126 267.297 95.4415 267.297 96.7228V102.17C267.297 102.318 267.24 102.46 267.137 102.566L265.471 104.323C265.459 104.333 265.45 104.346 265.447 104.361C265.443 104.375 265.444 104.391 265.45 104.405C265.456 104.419 265.467 104.431 265.48 104.438C265.494 104.445 265.509 104.448 265.524 104.445H278.725C278.74 104.447 278.755 104.444 278.768 104.436C278.78 104.427 278.789 104.414 278.793 104.399C278.802 104.389 278.806 104.375 278.806 104.361C278.806 104.348 278.802 104.334 278.793 104.323L277.112 102.581C277.009 102.475 276.952 102.333 276.952 102.185V96.7228C276.942 95.4494 276.43 94.2315 275.526 93.3339C274.623 92.4363 273.402 91.9316 272.128 91.9296V91.8916Z" fill="#292929"/>
<path d="M264.886 158.433H202.111C201.959 158.433 201.814 158.373 201.707 158.266C201.6 158.159 201.54 158.013 201.54 157.862V120.491C201.54 120.339 201.6 120.194 201.707 120.087C201.814 119.98 201.959 119.92 202.111 119.92H264.886C265.037 119.92 265.182 119.98 265.289 120.087C265.396 120.194 265.456 120.339 265.456 120.491V157.862C265.456 158.013 265.396 158.159 265.289 158.266C265.182 158.373 265.037 158.433 264.886 158.433ZM202.704 157.291H264.33V121.061H202.704V157.291Z" fill="#292929"/>
<path d="M254.706 130.442H212.283C212.131 130.442 211.986 130.382 211.879 130.275C211.772 130.168 211.712 130.023 211.712 129.871C211.712 129.72 211.772 129.575 211.879 129.468C211.986 129.361 212.131 129.301 212.283 129.301H254.706C254.857 129.301 255.002 129.361 255.109 129.468C255.216 129.575 255.276 129.72 255.276 129.871C255.276 130.023 255.216 130.168 255.109 130.275C255.002 130.382 254.857 130.442 254.706 130.442Z" fill="#292929"/>
<path d="M254.706 139.747H212.283C212.131 139.747 211.986 139.687 211.879 139.58C211.772 139.473 211.712 139.328 211.712 139.176C211.712 139.025 211.772 138.88 211.879 138.773C211.986 138.666 212.131 138.606 212.283 138.606H254.706C254.857 138.606 255.002 138.666 255.109 138.773C255.216 138.88 255.276 139.025 255.276 139.176C255.276 139.328 255.216 139.473 255.109 139.58C255.002 139.687 254.857 139.747 254.706 139.747Z" fill="#292929"/>
<path d="M229.523 149.052H212.283C212.131 149.052 211.986 148.992 211.879 148.885C211.772 148.777 211.712 148.632 211.712 148.481C211.712 148.33 211.772 148.185 211.879 148.078C211.986 147.971 212.131 147.91 212.283 147.91H229.523C229.674 147.91 229.819 147.971 229.926 148.078C230.033 148.185 230.093 148.33 230.093 148.481C230.093 148.632 230.033 148.777 229.926 148.885C229.819 148.992 229.674 149.052 229.523 149.052Z" fill="#292929"/>
<path d="M264.886 197.531H202.111C201.959 197.531 201.814 197.471 201.707 197.364C201.6 197.257 201.54 197.112 201.54 196.96V166.817C201.54 166.665 201.6 166.52 201.707 166.413C201.814 166.306 201.959 166.246 202.111 166.246H264.886C265.037 166.246 265.182 166.306 265.289 166.413C265.396 166.52 265.456 166.665 265.456 166.817V196.96C265.456 197.112 265.396 197.257 265.289 197.364C265.182 197.471 265.037 197.531 264.886 197.531ZM202.704 196.39H264.33V167.387H202.704V196.39Z" fill="#292929"/>
<path d="M254.706 177.811H212.283C212.131 177.811 211.986 177.75 211.879 177.643C211.772 177.536 211.712 177.391 211.712 177.24C211.712 177.089 211.772 176.943 211.879 176.836C211.986 176.729 212.131 176.669 212.283 176.669H254.706C254.857 176.669 255.002 176.729 255.109 176.836C255.216 176.943 255.276 177.089 255.276 177.24C255.276 177.391 255.216 177.536 255.109 177.643C255.002 177.75 254.857 177.811 254.706 177.811Z" fill="#292929"/>
<path d="M254.706 187.115H212.283C212.131 187.115 211.986 187.055 211.879 186.948C211.772 186.841 211.712 186.696 211.712 186.545C211.712 186.393 211.772 186.248 211.879 186.141C211.986 186.034 212.131 185.974 212.283 185.974H254.706C254.857 185.974 255.002 186.034 255.109 186.141C255.216 186.248 255.276 186.393 255.276 186.545C255.276 186.696 255.216 186.841 255.109 186.948C255.002 187.055 254.857 187.115 254.706 187.115Z" fill="#292929"/>
<path d="M283.419 233.122H202.111C201.959 233.122 201.814 233.062 201.707 232.955C201.6 232.848 201.54 232.703 201.54 232.551V205.923C201.54 205.771 201.6 205.626 201.707 205.519C201.814 205.412 201.959 205.352 202.111 205.352H283.419C283.571 205.352 283.716 205.412 283.823 205.519C283.93 205.626 283.99 205.771 283.99 205.923V232.551C283.99 232.703 283.93 232.848 283.823 232.955C283.716 233.062 283.571 233.122 283.419 233.122ZM202.704 231.981H282.849V206.493H202.704V231.981Z" fill="#292929"/>
<path d="M280.429 261.531C285.773 261.531 290.106 257.198 290.106 251.853C290.106 246.509 285.773 242.176 280.429 242.176C275.084 242.176 270.751 246.509 270.751 251.853C270.751 257.198 275.084 261.531 280.429 261.531Z" fill="#97DE40"/>
<path d="M280.429 262.102C278.402 262.102 276.421 261.501 274.735 260.375C273.05 259.248 271.736 257.648 270.961 255.775C270.185 253.903 269.982 251.842 270.378 249.854C270.773 247.866 271.749 246.04 273.182 244.607C274.616 243.174 276.442 242.198 278.43 241.802C280.418 241.407 282.478 241.61 284.351 242.385C286.223 243.161 287.824 244.475 288.95 246.16C290.076 247.845 290.677 249.827 290.677 251.853C290.673 254.57 289.592 257.175 287.671 259.096C285.75 261.017 283.146 262.098 280.429 262.102ZM280.429 242.746C278.623 242.746 276.858 243.282 275.357 244.285C273.855 245.288 272.685 246.714 271.994 248.382C271.303 250.051 271.122 251.886 271.474 253.657C271.827 255.428 272.696 257.055 273.973 258.332C275.25 259.609 276.877 260.478 278.648 260.831C280.419 261.183 282.254 261.002 283.923 260.311C285.591 259.62 287.017 258.45 288.02 256.949C289.023 255.447 289.559 253.682 289.559 251.876C289.559 249.455 288.597 247.133 286.885 245.421C285.172 243.708 282.85 242.746 280.429 242.746Z" fill="#292929"/>
<path d="M284.492 256.137C284.31 256.137 284.135 256.072 283.997 255.954L275.864 248.909C275.719 248.775 275.631 248.59 275.62 248.392C275.609 248.195 275.676 248.001 275.805 247.851C275.935 247.702 276.117 247.609 276.314 247.592C276.511 247.575 276.707 247.635 276.861 247.76L284.994 254.805C285.112 254.907 285.197 255.043 285.236 255.194C285.275 255.345 285.267 255.505 285.212 255.651C285.157 255.797 285.058 255.923 284.929 256.011C284.801 256.1 284.648 256.146 284.492 256.144V256.137Z" fill="#292929"/>
<path d="M276.358 256.137C276.202 256.138 276.049 256.092 275.92 256.004C275.792 255.915 275.693 255.789 275.638 255.643C275.583 255.497 275.575 255.337 275.614 255.186C275.653 255.035 275.738 254.899 275.856 254.798L283.989 247.753C284.143 247.628 284.339 247.567 284.535 247.584C284.732 247.601 284.915 247.694 285.045 247.844C285.174 247.993 285.241 248.187 285.23 248.384C285.219 248.582 285.131 248.767 284.986 248.901L276.853 255.947C276.716 256.067 276.541 256.135 276.358 256.137Z" fill="#292929"/>
<path d="M267.723 279.456C268.332 274.967 262.983 273.864 261.104 276.527V262.832C261.104 261.781 260.686 260.772 259.943 260.029C259.2 259.286 258.191 258.868 257.14 258.868C256.089 258.868 255.08 259.286 254.337 260.029C253.594 260.772 253.176 261.781 253.176 262.832V285.907L249.174 280.536C248.555 279.704 247.64 279.141 246.618 278.964C245.595 278.787 244.544 279.009 243.681 279.585C242.805 280.165 242.188 281.064 241.963 282.091C241.737 283.117 241.919 284.191 242.471 285.086C245.598 290.168 251.411 299.488 253.321 301.725C255.984 304.837 260.99 305.651 267.662 305.651C274.334 305.651 277.766 303.49 279.972 296.719C281.189 292.991 280.916 288.22 280.55 284.333C280.117 279.714 276.967 278.162 274.289 281.069C274.981 277.204 269.229 275.073 267.723 279.456Z" fill="#FAF7F2"/>
<path d="M267.663 306.191C262.101 306.191 256 305.704 252.888 302.067C250.971 299.785 245.234 290.655 241.985 285.329C241.414 284.321 241.243 283.135 241.506 282.006C241.769 280.877 242.447 279.889 243.404 279.237C244.362 278.584 245.53 278.316 246.677 278.485C247.823 278.654 248.864 279.247 249.594 280.148L252.568 284.142V262.817C252.499 262.18 252.565 261.535 252.762 260.925C252.958 260.315 253.281 259.753 253.709 259.276C254.137 258.799 254.661 258.417 255.246 258.156C255.832 257.895 256.466 257.76 257.107 257.76C257.748 257.76 258.381 257.895 258.967 258.156C259.552 258.417 260.076 258.799 260.504 259.276C260.932 259.753 261.255 260.315 261.452 260.925C261.648 261.535 261.714 262.18 261.645 262.817V275.21C262.247 274.834 262.93 274.606 263.637 274.544C264.345 274.481 265.057 274.587 265.715 274.853C266.309 275.082 266.841 275.448 267.267 275.921C267.692 276.394 268 276.962 268.165 277.577C268.625 277.102 269.203 276.759 269.84 276.584C270.477 276.409 271.149 276.407 271.787 276.58C272.546 276.772 273.235 277.175 273.774 277.744C274.313 278.312 274.679 279.022 274.83 279.791C275.279 279.435 275.808 279.194 276.371 279.086C276.934 278.979 277.514 279.009 278.063 279.174C279.714 279.73 280.848 281.632 281.107 284.264C281.495 288.411 281.723 293.143 280.506 296.879C278.292 303.665 274.807 306.191 267.663 306.191ZM245.919 279.456C245.297 279.456 244.687 279.622 244.151 279.937C243.615 280.252 243.174 280.704 242.872 281.248C242.57 281.791 242.419 282.405 242.434 283.027C242.449 283.648 242.631 284.254 242.959 284.782C246.193 290.031 251.891 299.161 253.763 301.345C255.992 303.954 260.154 305.065 267.671 305.065C274.297 305.065 277.379 302.828 279.44 296.529C280.597 292.991 280.369 288.395 279.996 284.356C279.79 282.187 278.953 280.65 277.713 280.24C276.77 279.92 275.697 280.338 274.67 281.426C274.587 281.516 274.477 281.577 274.356 281.599C274.236 281.621 274.112 281.605 274.001 281.551C273.891 281.497 273.802 281.409 273.745 281.301C273.689 281.192 273.669 281.068 273.689 280.947C273.811 280.224 273.652 279.481 273.243 278.872C272.833 278.263 272.206 277.835 271.49 277.676C270.341 277.379 268.873 277.744 268.226 279.638C268.179 279.771 268.084 279.882 267.96 279.949C267.836 280.016 267.692 280.035 267.555 280.002C267.418 279.968 267.298 279.886 267.218 279.77C267.138 279.653 267.104 279.512 267.123 279.372C267.288 278.67 267.194 277.931 266.857 277.293C266.52 276.656 265.963 276.161 265.289 275.903C264.645 275.632 263.93 275.577 263.253 275.747C262.575 275.917 261.97 276.303 261.531 276.846C261.461 276.944 261.361 277.017 261.247 277.056C261.133 277.094 261.009 277.095 260.895 277.058C260.78 277.022 260.679 276.95 260.608 276.853C260.536 276.757 260.497 276.64 260.496 276.519V262.824C260.496 261.923 260.138 261.059 259.501 260.422C258.864 259.785 258 259.427 257.099 259.427C256.198 259.427 255.334 259.785 254.697 260.422C254.06 261.059 253.702 261.923 253.702 262.824V285.9C253.702 286.02 253.664 286.136 253.594 286.234C253.524 286.331 253.425 286.403 253.312 286.441C253.198 286.479 253.075 286.48 252.961 286.445C252.847 286.409 252.747 286.338 252.675 286.242L248.673 280.871C248.354 280.437 247.938 280.084 247.459 279.838C246.979 279.593 246.45 279.462 245.911 279.456H245.919Z" fill="#292929"/>
<path d="M146.008 96.2358H90.9932V105.738H146.008V96.2358Z" fill="#FAF7F2"/>
<path d="M146.008 106.309H90.9935C90.8421 106.309 90.697 106.249 90.59 106.142C90.483 106.035 90.4229 105.89 90.4229 105.738V96.2358C90.4229 96.0844 90.483 95.9393 90.59 95.8323C90.697 95.7253 90.8421 95.6652 90.9935 95.6652H146.008C146.159 95.6652 146.305 95.7253 146.412 95.8323C146.519 95.9393 146.579 96.0844 146.579 96.2358V105.738C146.579 105.89 146.519 106.035 146.412 106.142C146.305 106.249 146.159 106.309 146.008 106.309ZM91.5641 105.168H145.438V96.7988H91.5641V105.168Z" fill="#292929"/>
<path d="M143.436 174.76L130.038 165.44V184.072L143.436 174.76Z" fill="#292929"/>
<path d="M130.038 184.643C129.887 184.643 129.742 184.583 129.635 184.476C129.528 184.369 129.468 184.224 129.468 184.072V165.432C129.467 165.327 129.495 165.225 129.549 165.135C129.603 165.045 129.68 164.972 129.773 164.923C129.866 164.874 129.97 164.852 130.075 164.859C130.179 164.865 130.28 164.9 130.366 164.96L143.764 174.28C143.839 174.333 143.9 174.403 143.943 174.485C143.985 174.566 144.008 174.657 144.008 174.748C144.008 174.84 143.985 174.931 143.943 175.012C143.9 175.094 143.839 175.164 143.764 175.216L130.366 184.536C130.27 184.605 130.156 184.642 130.038 184.643ZM130.609 166.528V182.984L142.44 174.76L130.609 166.528Z" fill="#292929"/>
<path d="M69.4163 130.594C69.2517 130.594 69.0915 130.541 68.9599 130.442L64.7145 127.262C64.5531 127.141 64.4463 126.961 64.4178 126.761C64.3893 126.561 64.4412 126.358 64.5623 126.197C64.6834 126.035 64.8636 125.929 65.0634 125.9C65.2631 125.871 65.466 125.923 65.6275 126.045L69.2946 128.783L74.0345 122.956C74.165 122.81 74.3464 122.721 74.541 122.706C74.7356 122.691 74.9287 122.751 75.0802 122.874C75.2317 122.997 75.33 123.174 75.3549 123.367C75.3797 123.561 75.3292 123.757 75.2138 123.914L70.0098 130.305C69.9389 130.395 69.8488 130.467 69.746 130.517C69.6433 130.567 69.5306 130.594 69.4163 130.594Z" fill="#292929"/>
<path d="M101.325 186.339C103.06 186.339 104.467 184.932 104.467 183.197C104.467 181.462 103.06 180.055 101.325 180.055C99.5894 180.055 98.1826 181.462 98.1826 183.197C98.1826 184.932 99.5894 186.339 101.325 186.339Z" fill="#292929"/>
<path d="M101.325 186.91C100.591 186.91 99.8729 186.692 99.2624 186.284C98.6518 185.876 98.1759 185.296 97.8949 184.618C97.6139 183.939 97.5404 183.193 97.6837 182.473C97.8269 181.753 98.1805 181.091 98.6998 180.572C99.219 180.053 99.8806 179.699 100.601 179.556C101.321 179.412 102.067 179.486 102.746 179.767C103.424 180.048 104.004 180.524 104.412 181.134C104.82 181.745 105.038 182.463 105.038 183.197C105.036 184.181 104.644 185.124 103.948 185.82C103.252 186.516 102.309 186.908 101.325 186.91ZM101.325 180.618C100.816 180.618 100.319 180.769 99.8964 181.051C99.4735 181.334 99.1439 181.736 98.9493 182.205C98.7546 182.675 98.7037 183.192 98.8029 183.691C98.9022 184.19 99.1471 184.648 99.5067 185.008C99.8664 185.368 100.325 185.612 100.823 185.712C101.322 185.811 101.839 185.76 102.309 185.565C102.779 185.371 103.181 185.041 103.463 184.618C103.746 184.195 103.897 183.698 103.897 183.19C103.895 182.508 103.623 181.855 103.141 181.373C102.659 180.892 102.006 180.62 101.325 180.618Z" fill="#292929"/>
<path d="M344.757 65.8944C362.795 65.8944 377.418 51.2712 377.418 33.2325C377.418 15.1938 362.795 0.570618 344.757 0.570618C326.718 0.570618 312.095 15.1938 312.095 33.2325C312.095 51.2712 326.718 65.8944 344.757 65.8944Z" fill="#FAF7F2"/>
<path d="M344.756 66.465C338.183 66.465 331.758 64.516 326.293 60.8643C320.828 57.2127 316.568 52.0225 314.053 45.95C311.538 39.8776 310.88 33.1956 312.162 26.7492C313.444 20.3027 316.609 14.3812 321.257 9.73359C325.905 5.08594 331.826 1.92085 338.273 0.638568C344.719 -0.643715 351.401 0.0143982 357.473 2.52969C363.546 5.04498 368.736 9.30447 372.388 14.7695C376.039 20.2346 377.988 26.6597 377.988 33.2325C377.978 42.0432 374.474 50.4902 368.244 56.7203C362.014 62.9504 353.567 66.4549 344.756 66.465ZM344.756 1.14124C338.409 1.14124 332.204 3.02336 326.927 6.54959C321.65 10.0758 317.536 15.0878 315.107 20.9517C312.679 26.8156 312.043 33.2681 313.281 39.4932C314.52 45.7183 317.576 51.4364 322.064 55.9245C326.552 60.4125 332.27 63.4689 338.495 64.7072C344.72 65.9454 351.173 65.3099 357.037 62.881C362.901 60.4521 367.913 56.3388 371.439 51.0615C374.965 45.7841 376.847 39.5796 376.847 33.2325C376.837 24.7245 373.453 16.5678 367.437 10.5517C361.421 4.53557 353.264 1.15131 344.756 1.14124Z" fill="#292929"/>
<path d="M366.964 69.5159C371.494 69.5159 375.166 65.8439 375.166 61.3143C375.166 56.7847 371.494 53.1127 366.964 53.1127C362.435 53.1127 358.763 56.7847 358.763 61.3143C358.763 65.8439 362.435 69.5159 366.964 69.5159Z" fill="#292929"/>
<path d="M366.965 70.0865C365.23 70.0865 363.534 69.572 362.091 68.6081C360.648 67.6442 359.524 66.2742 358.86 64.6713C358.196 63.0683 358.022 61.3045 358.361 59.6029C358.699 57.9013 359.535 56.3382 360.762 55.1114C361.989 53.8846 363.552 53.0491 365.253 52.7106C366.955 52.3721 368.719 52.5458 370.322 53.2098C371.924 53.8737 373.295 54.9981 374.258 56.4407C375.222 57.8833 375.737 59.5793 375.737 61.3143C375.735 63.6402 374.81 65.8703 373.165 67.515C371.521 69.1596 369.291 70.0845 366.965 70.0865ZM366.965 53.6833C365.46 53.6833 363.989 54.1295 362.738 54.9655C361.487 55.8015 360.511 56.9897 359.936 58.3799C359.36 59.7701 359.209 61.2999 359.503 62.7757C359.796 64.2516 360.521 65.6072 361.585 66.6712C362.649 67.7353 364.004 68.4599 365.48 68.7534C366.956 69.047 368.486 68.8963 369.876 68.3205C371.266 67.7446 372.455 66.7695 373.291 65.5183C374.127 64.2672 374.573 62.7962 374.573 61.2914C374.573 59.2736 373.771 57.3385 372.344 55.9117C370.918 54.4849 368.982 53.6833 366.965 53.6833Z" fill="#292929"/>
<path d="M370.274 64.9434C370.093 64.9434 369.918 64.8786 369.78 64.7608L363.161 59.0318C363.016 58.8977 362.928 58.7123 362.917 58.5149C362.906 58.3175 362.973 58.1236 363.102 57.9742C363.232 57.8249 363.414 57.7318 363.611 57.7148C363.808 57.6978 364.004 57.7581 364.157 57.883L370.777 63.612C370.895 63.7135 370.98 63.849 371.019 64.0003C371.058 64.1515 371.049 64.3111 370.995 64.4574C370.94 64.6036 370.841 64.7294 370.712 64.8177C370.583 64.9061 370.431 64.9526 370.274 64.951V64.9434Z" fill="#292929"/>
<path d="M363.655 64.9434C363.499 64.945 363.346 64.8984 363.217 64.8101C363.089 64.7218 362.99 64.596 362.935 64.4497C362.88 64.3035 362.872 64.1439 362.911 63.9927C362.95 63.8414 363.034 63.7058 363.153 63.6043L369.772 57.8754C369.926 57.7505 370.121 57.6901 370.318 57.7072C370.515 57.7242 370.698 57.8173 370.828 57.9666C370.957 58.116 371.023 58.3099 371.013 58.5073C371.002 58.7047 370.914 58.8901 370.769 59.0242L364.15 64.7532C364.013 64.8738 363.838 64.9413 363.655 64.9434Z" fill="#292929"/>
<path d="M356.61 40.5135C355.991 40.5198 355.381 40.3595 354.845 40.0494C354.192 39.6148 353.67 39.0105 353.335 38.3013C353 37.5922 352.864 36.8051 352.943 36.0247C352.987 35.0687 353.27 34.1391 353.768 33.3215C354.265 32.5038 354.96 31.8244 355.788 31.3456C354.936 30.0827 352.388 26.8492 348.751 27.0927C346.887 27.222 346.05 28.9567 345.708 29.9838C344.825 32.7075 345.365 36.892 347.769 38.8929C347.885 38.9938 347.957 39.1367 347.967 39.2901C347.978 39.4434 347.927 39.5948 347.826 39.7108C347.726 39.8269 347.583 39.898 347.429 39.9087C347.276 39.9194 347.125 39.8688 347.009 39.7679C344.201 37.4322 343.577 32.776 344.589 29.6262C345.304 27.4198 346.773 26.0808 348.621 25.9514C353.833 25.5786 356.914 31.0489 357.044 31.2772C357.11 31.4125 357.119 31.5683 357.071 31.7108C357.023 31.8533 356.92 31.9709 356.785 32.038C356.008 32.3984 355.345 32.9676 354.873 33.6823C354.4 34.397 354.135 35.229 354.107 36.0855C354.041 36.6572 354.131 37.236 354.366 37.7609C354.602 38.2859 354.975 38.7374 355.446 39.0679C356.367 39.6081 357.637 39.4255 359.029 38.5582C359.157 38.4917 359.305 38.4759 359.444 38.5138C359.582 38.5518 359.702 38.6407 359.778 38.7628C359.854 38.885 359.881 39.0313 359.853 39.1725C359.826 39.3137 359.747 39.4394 359.631 39.5244C358.738 40.1346 357.69 40.4778 356.61 40.5135Z" fill="#292929"/>
<path d="M354.693 51.8801C352.931 51.8394 351.236 51.2009 349.885 50.0694C348.624 48.9559 347.521 47.6762 346.606 46.2653C346.096 45.4765 345.51 44.74 344.856 44.0665C342.906 42.3163 341.348 40.174 340.283 37.78C339.219 35.3859 338.672 32.7941 338.678 30.174C338.678 24.1636 341.462 19.2335 345.769 17.6129C350.075 15.9924 355.264 17.9401 359.737 23.0452C359.838 23.1592 359.89 23.3086 359.88 23.4605C359.871 23.6125 359.802 23.7545 359.688 23.8554C359.574 23.9563 359.424 24.0078 359.272 23.9985C359.12 23.9892 358.978 23.92 358.878 23.806C354.739 19.0737 350.105 17.2097 346.172 18.6857C342.238 20.1617 339.819 24.6429 339.819 30.174C339.799 32.6372 340.307 35.0762 341.308 37.3268C342.31 39.5774 343.781 41.5875 345.624 43.222C346.341 43.9506 346.981 44.7512 347.534 45.611C348.382 46.9464 349.405 48.1619 350.577 49.2249C352.266 50.6096 354.579 51.1421 356.192 50.5031C356.678 50.3189 357.102 50.0012 357.416 49.5867C357.729 49.1722 357.92 48.6776 357.965 48.1597C357.985 48.0094 358.064 47.8733 358.184 47.7812C358.305 47.6892 358.457 47.6488 358.607 47.669C358.758 47.6892 358.894 47.7683 358.986 47.8888C359.078 48.0094 359.118 48.1616 359.098 48.3119C359.027 49.0322 358.756 49.7185 358.317 50.2936C357.878 50.8688 357.287 51.3102 356.61 51.5682C355.996 51.7888 355.346 51.8946 354.693 51.8801Z" fill="#292929"/>
<path d="M334.873 40.1939C334.791 40.1942 334.71 40.1766 334.635 40.1425C334.56 40.1083 334.493 40.0584 334.44 39.9961C332.964 38.2995 332.081 35.4997 332.081 32.5173C332.081 29.5349 332.964 26.7351 334.44 25.0385C334.49 24.982 334.55 24.9359 334.618 24.9029C334.686 24.8699 334.759 24.8505 334.835 24.8459C334.91 24.8413 334.985 24.8516 335.056 24.8761C335.128 24.9007 335.193 24.939 335.25 24.989C335.306 25.039 335.352 25.0995 335.385 25.1673C335.418 25.2351 335.438 25.3086 335.442 25.3839C335.447 25.4591 335.437 25.5345 335.412 25.6058C335.388 25.6771 335.349 25.7428 335.299 25.7993C333.998 27.3209 333.222 29.8088 333.222 32.5249C333.222 35.241 333.983 37.7593 335.299 39.2505C335.37 39.3329 335.416 39.4338 335.432 39.5415C335.448 39.6492 335.432 39.7591 335.387 39.8582C335.343 39.9574 335.27 40.0416 335.179 40.1011C335.088 40.1606 334.982 40.1928 334.873 40.1939Z" fill="#292929"/>
<path d="M327.623 37.0898C327.5 37.0903 327.381 37.0514 327.282 36.9787C327.183 36.9061 327.111 36.8037 327.075 36.6866C326.256 33.9569 326.256 31.0472 327.075 28.3176C327.095 28.2438 327.13 28.1749 327.178 28.115C327.226 28.0551 327.285 28.0054 327.352 27.9688C327.42 27.9323 327.494 27.9097 327.57 27.9023C327.646 27.8949 327.723 27.903 327.796 27.926C327.869 27.949 327.937 27.9864 327.995 28.0361C328.053 28.0858 328.101 28.1467 328.135 28.2152C328.169 28.2836 328.189 28.3583 328.194 28.4347C328.199 28.5112 328.188 28.5877 328.163 28.66C327.413 31.1691 327.413 33.8427 328.163 36.3518C328.194 36.4387 328.203 36.5317 328.19 36.6229C328.177 36.7141 328.142 36.8008 328.088 36.8755C328.034 36.9503 327.963 37.0109 327.881 37.0522C327.798 37.0935 327.707 37.1142 327.615 37.1126L327.623 37.0898Z" fill="#292929"/>
<path d="M256.836 93.8469C257.594 94.5855 258.197 95.4686 258.609 96.4441C259.021 97.4196 259.233 98.4676 259.233 99.5264C259.233 100.585 259.021 101.633 258.609 102.609C258.197 103.584 257.594 104.467 256.836 105.206" fill="#FAF7F2"/>
<path d="M256.836 105.769C256.722 105.769 256.611 105.735 256.517 105.671C256.423 105.607 256.35 105.517 256.307 105.412C256.265 105.306 256.255 105.19 256.278 105.079C256.302 104.968 256.359 104.866 256.44 104.787C257.144 104.102 257.703 103.283 258.084 102.378C258.466 101.473 258.663 100.501 258.663 99.5188C258.663 98.5367 258.466 97.5646 258.084 96.6597C257.703 95.7548 257.144 94.9355 256.44 94.2501C256.367 94.2066 256.304 94.1472 256.257 94.0763C256.209 94.0053 256.178 93.9246 256.166 93.84C256.154 93.7555 256.161 93.6693 256.186 93.5878C256.212 93.5063 256.256 93.4316 256.314 93.3692C256.372 93.3068 256.444 93.2583 256.523 93.2273C256.603 93.1962 256.688 93.1834 256.774 93.1898C256.859 93.1963 256.941 93.2217 257.015 93.2643C257.089 93.3069 257.153 93.3656 257.201 93.436C258.014 94.2278 258.66 95.1743 259.101 96.2196C259.542 97.265 259.769 98.388 259.769 99.5226C259.769 100.657 259.542 101.78 259.101 102.825C258.66 103.871 258.014 104.817 257.201 105.609C257.103 105.705 256.973 105.761 256.836 105.769Z" fill="#292929"/>
<path d="M115.606 212.496H30.8506V320.236H115.606V212.496Z" fill="#97DE40"/>
<path d="M115.606 320.806H30.8509C30.6996 320.806 30.5544 320.746 30.4474 320.639C30.3404 320.532 30.2803 320.387 30.2803 320.236V212.496C30.2803 212.345 30.3404 212.2 30.4474 212.093C30.5544 211.986 30.6996 211.926 30.8509 211.926H115.606C115.757 211.926 115.902 211.986 116.009 212.093C116.116 212.2 116.177 212.345 116.177 212.496V320.236C116.177 320.387 116.116 320.532 116.009 320.639C115.902 320.746 115.757 320.806 115.606 320.806ZM31.4215 319.665H115.035V213.067H31.4215V319.665Z" fill="#292929"/>
<path d="M106.924 215.737V298.895L90.8864 314.925H39.5312V215.737H106.924Z" fill="#FAF7F2"/>
<path d="M90.8639 315.488H39.5316C39.3802 315.488 39.2351 315.428 39.1281 315.321C39.0211 315.214 38.9609 315.069 38.9609 314.917V215.737C38.9609 215.586 39.0211 215.441 39.1281 215.334C39.2351 215.227 39.3802 215.167 39.5316 215.167H106.925C107.076 215.167 107.221 215.227 107.328 215.334C107.435 215.441 107.495 215.586 107.495 215.737V298.872C107.495 299.023 107.435 299.168 107.328 299.275L91.29 315.306C91.2357 315.364 91.1697 315.411 91.0963 315.442C91.0229 315.473 90.9437 315.489 90.8639 315.488ZM40.0717 314.347H90.628L106.331 298.651V216.308H40.1022L40.0717 314.347Z" fill="#292929"/>
<path d="M87.5389 208.829H58.917V218.18H87.5389V208.829Z" fill="#292929"/>
<path d="M87.539 218.75H58.9095C58.7581 218.75 58.613 218.69 58.506 218.583C58.399 218.476 58.3389 218.331 58.3389 218.18V208.829C58.3389 208.678 58.399 208.533 58.506 208.426C58.613 208.319 58.7581 208.259 58.9095 208.259H87.5314C87.6828 208.259 87.8279 208.319 87.9349 208.426C88.0419 208.533 88.102 208.678 88.102 208.829V218.18C88.1021 218.33 88.043 218.474 87.9376 218.58C87.8322 218.687 87.6891 218.748 87.539 218.75ZM59.4877 217.609H86.9684V209.4H59.4877V217.609Z" fill="#292929"/>
<path d="M106.925 298.895L90.8867 314.925V298.895H106.925Z" fill="#FAF7F2"/>
<path d="M90.8636 315.488C90.7122 315.488 90.5671 315.428 90.4601 315.321C90.3531 315.214 90.293 315.069 90.293 314.918V298.872C90.293 298.721 90.3531 298.575 90.4601 298.468C90.5671 298.361 90.7122 298.301 90.8636 298.301H106.902C107.014 298.301 107.125 298.335 107.218 298.398C107.312 298.46 107.385 298.549 107.428 298.654C107.471 298.758 107.483 298.872 107.461 298.983C107.439 299.094 107.385 299.195 107.305 299.275L91.2668 315.306C91.2152 315.361 91.1529 315.406 91.0836 315.438C91.0144 315.469 90.9396 315.486 90.8636 315.488ZM91.4342 299.458V313.54L105.525 299.458H91.4342Z" fill="#292929"/>
<path d="M56.1327 235.534C56.3784 235.791 56.6736 235.995 57.0005 236.135C57.3274 236.274 57.6792 236.346 58.0347 236.346C58.3902 236.346 58.742 236.274 59.0689 236.135C59.3958 235.995 59.691 235.791 59.9368 235.534C60.4372 234.899 60.6888 234.104 60.6443 233.297V227.606H62.379V233.365C62.4202 233.988 62.3335 234.612 62.1241 235.2C61.9147 235.787 61.5872 236.326 61.1617 236.782C60.3016 237.554 59.1866 237.981 58.0309 237.981C56.8752 237.981 55.7602 237.554 54.9001 236.782C54.4746 236.326 54.1471 235.787 53.9377 235.2C53.7283 234.612 53.6416 233.988 53.6828 233.365V227.606H55.4175V233.297C55.3759 234.105 55.6301 234.9 56.1327 235.534Z" fill="#292929"/>
<path d="M58.0423 238.273C57.4294 238.295 56.8185 238.193 56.246 237.973C55.6734 237.753 55.151 237.421 54.7099 236.995C54.257 236.512 53.9074 235.941 53.6824 235.319C53.4574 234.696 53.3617 234.034 53.4013 233.373V227.614C53.4033 227.538 53.4346 227.467 53.4886 227.414C53.5426 227.362 53.615 227.332 53.6904 227.332H55.425C55.5017 227.332 55.5753 227.363 55.6295 227.417C55.6837 227.471 55.7142 227.545 55.7142 227.621V233.312C55.6719 234.049 55.899 234.777 56.3532 235.359C56.572 235.587 56.8348 235.769 57.1257 235.894C57.4166 236.018 57.7297 236.082 58.0461 236.082C58.3624 236.082 58.6755 236.018 58.9664 235.894C59.2574 235.769 59.5201 235.587 59.7389 235.359C60.1931 234.777 60.4203 234.049 60.378 233.312V227.621C60.3799 227.546 60.4113 227.474 60.4653 227.422C60.5193 227.369 60.5917 227.34 60.6671 227.34H62.4017C62.4784 227.34 62.552 227.37 62.6062 227.425C62.6604 227.479 62.6909 227.552 62.6909 227.629V233.388C62.7304 234.049 62.6348 234.711 62.4098 235.334C62.1848 235.957 61.8351 236.527 61.3823 237.01C60.939 237.434 60.4147 237.764 59.8409 237.981C59.267 238.198 58.6553 238.298 58.0423 238.273ZM53.9795 227.895V233.373C53.9412 233.957 54.0219 234.543 54.2168 235.095C54.4116 235.647 54.7166 236.153 55.1131 236.584C55.5017 236.957 55.9612 237.248 56.4643 237.44C56.9674 237.632 57.504 237.721 58.0423 237.702C58.5808 237.724 59.1183 237.637 59.6219 237.444C60.1255 237.252 60.5846 236.959 60.9714 236.584C61.3679 236.153 61.6729 235.647 61.8678 235.095C62.0626 234.543 62.1433 233.957 62.105 233.373V227.895H60.941V233.297C60.9887 234.169 60.7183 235.029 60.1802 235.716C59.9076 236.007 59.5783 236.239 59.2125 236.398C58.8467 236.556 58.4523 236.638 58.0537 236.638C57.655 236.638 57.2606 236.556 56.8949 236.398C56.5291 236.239 56.1997 236.007 55.9272 235.716C55.389 235.029 55.1187 234.169 55.1664 233.297V227.895H53.9795Z" fill="#292929"/>
<path d="M71.1968 237.885L68.6709 234.02H68.5948L66.0689 237.885H63.9082L67.4384 232.605L64.1593 227.606H66.3048L68.5872 231.075H68.6633L70.9458 227.606H73.0913L69.8121 232.605L73.3423 237.885H71.1968Z" fill="#292929"/>
<path d="M73.3646 238.166H71.2039C71.1569 238.166 71.1107 238.154 71.0695 238.132C71.0283 238.109 70.9935 238.076 70.9681 238.037L68.64 234.484L66.3043 238.006C66.2789 238.046 66.244 238.079 66.2028 238.101C66.1616 238.124 66.1154 238.136 66.0684 238.136H63.9077C63.856 238.137 63.8051 238.123 63.7606 238.097C63.7161 238.071 63.6797 238.033 63.6553 237.987C63.631 237.941 63.6196 237.89 63.6225 237.838C63.6254 237.787 63.6425 237.737 63.6718 237.695L67.0955 232.574L63.9229 227.735C63.8962 227.692 63.8813 227.643 63.8797 227.592C63.878 227.542 63.8898 227.492 63.9136 227.447C63.9375 227.402 63.9727 227.365 64.0158 227.338C64.0588 227.311 64.1081 227.296 64.1587 227.294H66.3043C66.3511 227.295 66.3971 227.307 66.4381 227.33C66.4792 227.352 66.5142 227.384 66.5401 227.424L68.6324 230.589L70.7246 227.424C70.7505 227.384 70.7855 227.352 70.8266 227.33C70.8677 227.307 70.9136 227.295 70.9605 227.294H73.106C73.1566 227.296 73.2059 227.311 73.2489 227.338C73.292 227.365 73.3272 227.402 73.3511 227.447C73.375 227.492 73.3867 227.542 73.385 227.592C73.3834 227.643 73.3685 227.692 73.3418 227.735L70.1692 232.574L73.5929 237.695C73.6222 237.737 73.6393 237.787 73.6422 237.838C73.6451 237.89 73.6338 237.941 73.6094 237.987C73.585 238.033 73.5486 238.071 73.5041 238.097C73.4596 238.123 73.4087 238.137 73.357 238.136L73.3646 238.166ZM71.3561 237.596H72.8321L69.5606 232.764C69.5298 232.718 69.5134 232.664 69.5134 232.608C69.5134 232.553 69.5298 232.499 69.5606 232.453L72.5506 227.888H71.0822L68.8758 231.228C68.8499 231.267 68.8149 231.299 68.7738 231.321C68.7328 231.344 68.6868 231.356 68.64 231.357H68.5639C68.517 231.356 68.4711 231.344 68.43 231.321C68.3889 231.299 68.3539 231.267 68.328 231.228L66.1217 227.888H64.6533L67.6433 232.453C67.674 232.499 67.6904 232.553 67.6904 232.608C67.6904 232.664 67.674 232.718 67.6433 232.764L64.4098 237.596H65.8858L68.328 233.86C68.3534 233.82 68.3883 233.788 68.4295 233.765C68.4707 233.743 68.5169 233.731 68.5639 233.731H68.64C68.6869 233.731 68.7331 233.743 68.7743 233.765C68.8155 233.788 68.8504 233.82 68.8758 233.86L71.3561 237.596Z" fill="#292929"/>
<path d="M73.2281 215.372C70.2305 215.372 67.7959 212.603 67.7959 209.194C67.7959 205.786 70.2305 203.017 73.2281 203.017C76.2258 203.017 78.6604 205.786 78.6604 209.194C78.6604 212.603 76.2258 215.372 73.2281 215.372ZM73.2281 204.158C70.862 204.158 68.9371 206.44 68.9371 209.194C68.9371 211.949 70.862 214.231 73.2281 214.231C75.5943 214.231 77.5192 211.949 77.5192 209.194C77.5192 206.44 75.5943 204.158 73.2281 204.158Z" fill="#292929"/>
<path d="M53.455 251.534C53.3764 251.534 53.2987 251.518 53.2267 251.486C53.1547 251.455 53.0899 251.409 53.0365 251.351L49.8791 247.973C49.8169 247.921 49.7665 247.856 49.7315 247.782C49.6964 247.709 49.6775 247.629 49.6759 247.547C49.6743 247.466 49.6902 247.385 49.7224 247.311C49.7546 247.236 49.8024 247.169 49.8626 247.114C49.9228 247.059 49.994 247.018 50.0714 246.993C50.1489 246.968 50.2307 246.96 50.3116 246.97C50.3924 246.979 50.4703 247.005 50.54 247.047C50.6098 247.089 50.6698 247.145 50.716 247.212L53.318 249.997L56.5439 243.743C56.5762 243.673 56.6223 243.61 56.6796 243.558C56.7369 243.507 56.8041 243.467 56.8771 243.442C56.9501 243.417 57.0275 243.407 57.1045 243.413C57.1814 243.418 57.2565 243.44 57.325 243.475C57.3935 243.511 57.4541 243.56 57.5031 243.619C57.5521 243.679 57.5885 243.748 57.6101 243.822C57.6317 243.896 57.638 243.974 57.6286 244.051C57.6193 244.127 57.5945 244.201 57.5558 244.268L53.9571 251.245C53.9155 251.326 53.8552 251.396 53.781 251.449C53.7069 251.502 53.6212 251.536 53.531 251.549L53.455 251.534Z" fill="#292929"/>
<path d="M53.455 263.326C53.3764 263.326 53.2987 263.31 53.2267 263.279C53.1547 263.247 53.0899 263.201 53.0365 263.144L49.8791 259.766C49.8169 259.713 49.7665 259.648 49.7315 259.575C49.6964 259.501 49.6775 259.421 49.6759 259.34C49.6743 259.259 49.6902 259.178 49.7224 259.103C49.7546 259.029 49.8024 258.962 49.8626 258.907C49.9228 258.852 49.994 258.811 50.0714 258.786C50.1489 258.761 50.2307 258.753 50.3116 258.762C50.3924 258.771 50.4703 258.798 50.54 258.84C50.6098 258.882 50.6698 258.938 50.716 259.005L53.318 261.79L56.5439 255.536C56.5762 255.465 56.6223 255.403 56.6796 255.351C56.7369 255.299 56.8041 255.26 56.8771 255.234C56.9501 255.209 57.0275 255.199 57.1045 255.205C57.1814 255.211 57.2565 255.232 57.325 255.268C57.3935 255.303 57.4541 255.352 57.5031 255.412C57.5521 255.472 57.5885 255.541 57.6101 255.615C57.6317 255.689 57.638 255.767 57.6286 255.843C57.6193 255.92 57.5945 255.994 57.5558 256.061L53.9571 263.037C53.9155 263.118 53.8552 263.188 53.781 263.241C53.7069 263.294 53.6212 263.329 53.531 263.342L53.455 263.326Z" fill="#292929"/>
<path d="M57.0529 280.939H50.2969V287.696H57.0529V280.939Z" fill="#FAF7F2"/>
<path d="M57.0454 288.266H50.2894C50.138 288.266 49.9929 288.206 49.8859 288.099C49.7789 287.992 49.7188 287.847 49.7188 287.695V280.939C49.7187 280.788 49.7789 280.643 49.8859 280.536C49.9929 280.429 50.138 280.369 50.2894 280.369H57.0454C57.1968 280.369 57.3419 280.429 57.4489 280.536C57.5559 280.643 57.616 280.788 57.616 280.939V287.695C57.616 287.847 57.5559 287.992 57.4489 288.099C57.3419 288.206 57.1968 288.266 57.0454 288.266ZM50.86 287.125H56.4748V281.51H50.86V287.125Z" fill="#292929"/>
<path d="M57.0529 292.732H50.2969V299.488H57.0529V292.732Z" fill="#FAF7F2"/>
<path d="M57.0454 300.059H50.2894C50.138 300.059 49.9929 299.999 49.8859 299.892C49.7789 299.785 49.7188 299.639 49.7188 299.488V292.732C49.7187 292.581 49.7789 292.436 49.8859 292.329C49.9929 292.221 50.138 292.161 50.2894 292.161H57.0454C57.1968 292.161 57.3419 292.221 57.4489 292.329C57.5559 292.436 57.616 292.581 57.616 292.732V299.488C57.616 299.639 57.5559 299.785 57.4489 299.892C57.3419 299.999 57.1968 300.059 57.0454 300.059ZM50.86 298.917H56.4748V293.303H50.86V298.917Z" fill="#292929"/>
<path d="M93.3901 250.94H65.7191C65.4414 250.957 65.1631 250.917 64.9015 250.823C64.6398 250.728 64.4003 250.581 64.1976 250.39C63.9949 250.2 63.8334 249.97 63.723 249.714C63.6126 249.459 63.5557 249.183 63.5557 248.905C63.5557 248.627 63.6126 248.352 63.723 248.096C63.8334 247.841 63.9949 247.611 64.1976 247.42C64.4003 247.229 64.6398 247.082 64.9015 246.988C65.1631 246.893 65.4414 246.853 65.7191 246.87H93.3901C93.6678 246.853 93.9461 246.893 94.2078 246.988C94.4694 247.082 94.709 247.229 94.9116 247.42C95.1143 247.611 95.2758 247.841 95.3862 248.096C95.4966 248.352 95.5536 248.627 95.5536 248.905C95.5536 249.183 95.4966 249.459 95.3862 249.714C95.2758 249.97 95.1143 250.2 94.9116 250.39C94.709 250.581 94.4694 250.728 94.2078 250.823C93.9461 250.917 93.6678 250.957 93.3901 250.94ZM65.7191 248.011C65.5948 248 65.4695 248.014 65.3511 248.054C65.2327 248.094 65.1239 248.158 65.0317 248.242C64.9394 248.326 64.8657 248.428 64.8153 248.543C64.7649 248.657 64.7388 248.78 64.7388 248.905C64.7388 249.03 64.7649 249.154 64.8153 249.268C64.8657 249.382 64.9394 249.484 65.0317 249.569C65.1239 249.653 65.2327 249.717 65.3511 249.756C65.4695 249.796 65.5948 249.811 65.7191 249.799H93.3901C93.5144 249.811 93.6398 249.796 93.7581 249.756C93.8765 249.717 93.9853 249.653 94.0775 249.569C94.1698 249.484 94.2435 249.382 94.2939 249.268C94.3443 249.154 94.3704 249.03 94.3704 248.905C94.3704 248.78 94.3443 248.657 94.2939 248.543C94.2435 248.428 94.1698 248.326 94.0775 248.242C93.9853 248.158 93.8765 248.094 93.7581 248.054C93.6398 248.014 93.5144 248 93.3901 248.011H65.7191Z" fill="#292929"/>
<path d="M83.5824 259.256H65.7184C64.9074 259.256 64.25 259.912 64.25 260.721C64.25 261.53 64.9074 262.185 65.7184 262.185H83.5824C84.3933 262.185 85.0507 261.53 85.0507 260.721C85.0507 259.912 84.3933 259.256 83.5824 259.256Z" fill="#FAF7F2"/>
<path d="M83.5831 262.764H65.7191C65.4414 262.781 65.1631 262.741 64.9015 262.646C64.6398 262.551 64.4003 262.404 64.1976 262.214C63.9949 262.023 63.8334 261.793 63.723 261.537C63.6126 261.282 63.5557 261.007 63.5557 260.728C63.5557 260.45 63.6126 260.175 63.723 259.919C63.8334 259.664 63.9949 259.434 64.1976 259.243C64.4003 259.053 64.6398 258.905 64.9015 258.811C65.1631 258.716 65.4414 258.676 65.7191 258.693H83.5907C83.8685 258.676 84.1467 258.716 84.4084 258.811C84.6701 258.905 84.9096 259.053 85.1123 259.243C85.315 259.434 85.4765 259.664 85.5869 259.919C85.6973 260.175 85.7542 260.45 85.7542 260.728C85.7542 261.007 85.6973 261.282 85.5869 261.537C85.4765 261.793 85.315 262.023 85.1123 262.214C84.9096 262.404 84.6701 262.551 84.4084 262.646C84.1467 262.741 83.8685 262.781 83.5907 262.764H83.5831ZM65.7115 259.834C65.5872 259.823 65.4619 259.838 65.3435 259.877C65.2251 259.917 65.1163 259.981 65.0241 260.065C64.9318 260.149 64.8581 260.252 64.8077 260.366C64.7573 260.48 64.7312 260.604 64.7312 260.728C64.7312 260.853 64.7573 260.977 64.8077 261.091C64.8581 261.205 64.9318 261.308 65.0241 261.392C65.1163 261.476 65.2251 261.54 65.3435 261.58C65.4619 261.619 65.5872 261.634 65.7115 261.622H83.5831C83.7075 261.634 83.8328 261.619 83.9512 261.58C84.0696 261.54 84.1784 261.476 84.2706 261.392C84.3629 261.308 84.4366 261.205 84.487 261.091C84.5374 260.977 84.5635 260.853 84.5635 260.728C84.5635 260.604 84.5374 260.48 84.487 260.366C84.4366 260.252 84.3629 260.149 84.2706 260.065C84.1784 259.981 84.0696 259.917 83.9512 259.877C83.8328 259.838 83.7075 259.823 83.5831 259.834H65.7115Z" fill="#292929"/>
<path d="M88.5277 271.056H65.7184C64.9074 271.056 64.25 271.712 64.25 272.521C64.25 273.33 64.9074 273.986 65.7184 273.986H88.5277C89.3386 273.986 89.996 273.33 89.996 272.521C89.996 271.712 89.3386 271.056 88.5277 271.056Z" fill="#FAF7F2"/>
<path d="M88.5359 274.526H65.7113C65.4336 274.543 65.1553 274.503 64.8937 274.408C64.632 274.314 64.3924 274.166 64.1898 273.976C63.9871 273.785 63.8256 273.555 63.7152 273.3C63.6048 273.044 63.5479 272.769 63.5479 272.491C63.5479 272.212 63.6048 271.937 63.7152 271.682C63.8256 271.426 63.9871 271.196 64.1898 271.006C64.3924 270.815 64.632 270.668 64.8937 270.573C65.1553 270.479 65.4336 270.438 65.7113 270.455H88.5359C88.8136 270.438 89.0919 270.479 89.3535 270.573C89.6152 270.668 89.8547 270.815 90.0574 271.006C90.2601 271.196 90.4216 271.426 90.532 271.682C90.6424 271.937 90.6993 272.212 90.6993 272.491C90.6993 272.769 90.6424 273.044 90.532 273.3C90.4216 273.555 90.2601 273.785 90.0574 273.976C89.8547 274.166 89.6152 274.314 89.3535 274.408C89.0919 274.503 88.8136 274.543 88.5359 274.526ZM65.7113 271.597C65.587 271.585 65.4617 271.6 65.3433 271.64C65.2249 271.679 65.1161 271.743 65.0239 271.827C64.9316 271.911 64.8579 272.014 64.8075 272.128C64.7571 272.242 64.731 272.366 64.731 272.491C64.731 272.616 64.7571 272.739 64.8075 272.853C64.8579 272.967 64.9316 273.07 65.0239 273.154C65.1161 273.238 65.2249 273.302 65.3433 273.342C65.4617 273.382 65.587 273.396 65.7113 273.385H88.5359C88.6602 273.396 88.7855 273.382 88.9039 273.342C89.0223 273.302 89.1311 273.238 89.2233 273.154C89.3156 273.07 89.3893 272.967 89.4397 272.853C89.4901 272.739 89.5162 272.616 89.5162 272.491C89.5162 272.366 89.4901 272.242 89.4397 272.128C89.3893 272.014 89.3156 271.911 89.2233 271.827C89.1311 271.743 89.0223 271.679 88.9039 271.64C88.7855 271.6 88.6602 271.585 88.5359 271.597H65.7113Z" fill="#292929"/>
<path d="M87.0669 282.849H65.7184C64.9074 282.849 64.25 283.505 64.25 284.314C64.25 285.123 64.9074 285.778 65.7184 285.778H87.0669C87.8779 285.778 88.5353 285.123 88.5353 284.314C88.5353 283.505 87.8779 282.849 87.0669 282.849Z" fill="#FAF7F2"/>
<path d="M87.0601 286.349H65.7191C65.4414 286.366 65.1631 286.326 64.9015 286.231C64.6398 286.137 64.4003 285.989 64.1976 285.799C63.9949 285.608 63.8334 285.378 63.723 285.123C63.6126 284.867 63.5557 284.592 63.5557 284.314C63.5557 284.035 63.6126 283.76 63.723 283.505C63.8334 283.249 63.9949 283.019 64.1976 282.829C64.4003 282.638 64.6398 282.491 64.9015 282.396C65.1631 282.302 65.4414 282.261 65.7191 282.278H87.0601C87.3378 282.261 87.6161 282.302 87.8778 282.396C88.1394 282.491 88.379 282.638 88.5816 282.829C88.7843 283.019 88.9458 283.249 89.0562 283.505C89.1666 283.76 89.2236 284.035 89.2236 284.314C89.2236 284.592 89.1666 284.867 89.0562 285.123C88.9458 285.378 88.7843 285.608 88.5816 285.799C88.379 285.989 88.1394 286.137 87.8778 286.231C87.6161 286.326 87.3378 286.366 87.0601 286.349ZM65.7115 283.42C65.5872 283.408 65.4619 283.423 65.3435 283.462C65.2251 283.502 65.1163 283.566 65.0241 283.65C64.9318 283.734 64.8581 283.837 64.8077 283.951C64.7573 284.065 64.7312 284.189 64.7312 284.314C64.7312 284.438 64.7573 284.562 64.8077 284.676C64.8581 284.79 64.9318 284.893 65.0241 284.977C65.1163 285.061 65.2251 285.125 65.3435 285.165C65.4619 285.205 65.5872 285.219 65.7115 285.208H87.0601C87.1844 285.219 87.3098 285.205 87.4281 285.165C87.5465 285.125 87.6553 285.061 87.7475 284.977C87.8398 284.893 87.9135 284.79 87.9639 284.676C88.0144 284.562 88.0404 284.438 88.0404 284.314C88.0404 284.189 88.0144 284.065 87.9639 283.951C87.9135 283.837 87.8398 283.734 87.7475 283.65C87.6553 283.566 87.5465 283.502 87.4281 283.462C87.3098 283.423 87.1844 283.408 87.0601 283.42H65.7115Z" fill="#292929"/>
<path d="M91.4644 294.642H65.7184C64.9074 294.642 64.25 295.297 64.25 296.106C64.25 296.915 64.9074 297.571 65.7184 297.571H91.4644C92.2754 297.571 92.9328 296.915 92.9328 296.106C92.9328 295.297 92.2754 294.642 91.4644 294.642Z" fill="#FAF7F2"/>
<path d="M91.4652 298.111H65.7191C65.4414 298.128 65.1631 298.088 64.9015 297.993C64.6398 297.899 64.4003 297.752 64.1976 297.561C63.9949 297.37 63.8334 297.14 63.723 296.885C63.6126 296.629 63.5557 296.354 63.5557 296.076C63.5557 295.798 63.6126 295.522 63.723 295.267C63.8334 295.011 63.9949 294.781 64.1976 294.591C64.4003 294.4 64.6398 294.253 64.9015 294.158C65.1631 294.064 65.4414 294.024 65.7191 294.041H91.4652C91.7429 294.024 92.0212 294.064 92.2829 294.158C92.5446 294.253 92.7841 294.4 92.9868 294.591C93.1894 294.781 93.3509 295.011 93.4613 295.267C93.5717 295.522 93.6287 295.798 93.6287 296.076C93.6287 296.354 93.5717 296.629 93.4613 296.885C93.3509 297.14 93.1894 297.37 92.9868 297.561C92.7841 297.752 92.5446 297.899 92.2829 297.993C92.0212 298.088 91.7429 298.128 91.4652 298.111ZM65.7191 295.182C65.5948 295.17 65.4695 295.185 65.3511 295.225C65.2327 295.264 65.1239 295.328 65.0317 295.412C64.9394 295.497 64.8657 295.599 64.8153 295.713C64.7649 295.828 64.7388 295.951 64.7388 296.076C64.7388 296.201 64.7649 296.324 64.8153 296.438C64.8657 296.553 64.9394 296.655 65.0317 296.739C65.1239 296.823 65.2327 296.887 65.3511 296.927C65.4695 296.967 65.5948 296.981 65.7191 296.97H91.4652C91.5895 296.981 91.7149 296.967 91.8333 296.927C91.9516 296.887 92.0604 296.823 92.1527 296.739C92.2449 296.655 92.3186 296.553 92.3691 296.438C92.4195 296.324 92.4455 296.201 92.4455 296.076C92.4455 295.951 92.4195 295.828 92.3691 295.713C92.3186 295.599 92.2449 295.497 92.1527 295.412C92.0604 295.328 91.9516 295.264 91.8333 295.225C91.7149 295.185 91.5895 295.17 91.4652 295.182H65.7191Z" fill="#292929"/>
<path d="M51.1951 275.751C51.0823 275.751 50.9721 275.717 50.8784 275.654C50.7846 275.592 50.7116 275.503 50.6684 275.398C50.6253 275.294 50.614 275.18 50.6359 275.069C50.6579 274.958 50.7122 274.857 50.7919 274.777L56.5132 269.056C56.5655 268.999 56.6285 268.954 56.6985 268.923C56.7685 268.892 56.844 268.875 56.9206 268.874C56.9972 268.873 57.0733 268.887 57.1444 268.915C57.2154 268.944 57.28 268.987 57.3342 269.041C57.3884 269.095 57.4311 269.16 57.4598 269.231C57.4885 269.302 57.5026 269.378 57.5012 269.455C57.4999 269.531 57.4831 269.607 57.4519 269.677C57.4207 269.747 57.3758 269.81 57.3197 269.862L51.5983 275.583C51.4914 275.69 51.3464 275.751 51.1951 275.751Z" fill="#292929"/>
<path d="M56.9165 275.751C56.7653 275.751 56.6202 275.69 56.5133 275.583L50.792 269.862C50.7359 269.81 50.6909 269.747 50.6597 269.677C50.6286 269.607 50.6118 269.531 50.6104 269.455C50.6091 269.378 50.6232 269.302 50.6519 269.231C50.6806 269.16 50.7233 269.095 50.7775 269.041C50.8317 268.987 50.8962 268.944 50.9673 268.915C51.0383 268.887 51.1144 268.873 51.191 268.874C51.2676 268.875 51.3432 268.892 51.4132 268.923C51.4832 268.954 51.5462 268.999 51.5984 269.056L57.3198 274.777C57.3995 274.857 57.4537 274.958 57.4757 275.069C57.4977 275.18 57.4864 275.294 57.4432 275.398C57.4001 275.503 57.327 275.592 57.2333 275.654C57.1395 275.717 57.0293 275.751 56.9165 275.751Z" fill="#292929"/>
<path d="M267.708 252.896H249.874C249.723 252.896 249.578 252.836 249.471 252.728C249.364 252.621 249.304 252.476 249.304 252.325C249.304 252.174 249.364 252.029 249.471 251.922C249.578 251.815 249.723 251.754 249.874 251.754H267.7C267.852 251.754 267.997 251.815 268.104 251.922C268.211 252.029 268.271 252.174 268.271 252.325C268.271 252.476 268.211 252.621 268.104 252.728C267.997 252.836 267.852 252.896 267.7 252.896H267.708Z" fill="#292929"/>
<path d="M277.957 84.4583H266.301C266.15 84.4583 266.005 84.3982 265.898 84.2912C265.791 84.1842 265.73 84.039 265.73 83.8877C265.73 83.7364 265.791 83.5912 265.898 83.4842C266.005 83.3772 266.15 83.3171 266.301 83.3171H277.949C278.101 83.3171 278.246 83.3772 278.353 83.4842C278.46 83.5912 278.52 83.7364 278.52 83.8877C278.52 84.039 278.46 84.1842 278.353 84.2912C278.246 84.3982 278.101 84.4583 277.949 84.4583H277.957Z" fill="#292929"/>
<path d="M49.7195 202.997C50.7942 202.121 50.9551 200.539 50.0789 199.464C49.2027 198.39 47.6212 198.229 46.5465 199.105C45.4718 199.981 45.3109 201.563 46.1871 202.637C47.0633 203.712 48.6448 203.873 49.7195 202.997Z" fill="#97DE40"/>
<path d="M217.35 268.88C219.312 268.88 220.903 267.29 220.903 265.327C220.903 263.365 219.312 261.774 217.35 261.774C215.388 261.774 213.797 263.365 213.797 265.327C213.797 267.29 215.388 268.88 217.35 268.88Z" fill="#97DE40"/>
<path d="M305.785 58.7836C308.115 58.6166 309.869 56.5922 309.702 54.2619C309.535 51.9316 307.511 50.178 305.18 50.345C302.85 50.5121 301.096 52.5365 301.263 54.8668C301.43 57.197 303.455 58.9507 305.785 58.7836Z" fill="#97DE40"/>
<path d="M329.848 72.5109L325.646 76.7125L329.848 80.9141L334.05 76.7125L329.848 72.5109Z" fill="#97DE40"/>
<path d="M320.992 221.845L316.821 225.181L320.157 229.352L324.328 226.016L320.992 221.845Z" fill="#97DE40"/>
<path d="M38.3618 143.334L35.0107 139.175L30.8518 142.526L34.2029 146.685L38.3618 143.334Z" fill="#292929"/>
<path d="M126.371 272.342L135.189 264.209L123.731 260.641L126.371 272.342Z" fill="#292929"/>
<path d="M325.935 139.933C328.702 139.739 330.787 137.339 330.593 134.572C330.399 131.806 327.999 129.72 325.233 129.914C322.466 130.108 320.381 132.508 320.575 135.275C320.769 138.041 323.169 140.126 325.935 139.933Z" fill="#292929"/>
<path d="M76.3936 55.1668L84.1006 52.8311L78.2195 47.3228L76.3936 55.1668Z" fill="#292929"/>
<path d="M393 28.4242L390.101 22.3757L386.312 27.9068L393 28.4242Z" fill="#292929"/>
<path d="M12.028 131.804L0.235352 133.645L7.72179 142.935L12.028 131.804Z" fill="#97DE40"/>
<path d="M20.2528 224.464L12.2109 224.015L15.84 231.205L20.2528 224.464Z" fill="#292929"/>
</svg>
