<svg width="433" height="275" viewBox="0 0 433 275" fill="none" xmlns="http://www.w3.org/2000/svg">
<path d="M224.57 265.034H81.4527L59.8074 176.894C59.5657 175.898 59.553 174.86 59.7704 173.859C59.9878 172.858 60.4296 171.919 61.0624 171.113C61.6953 170.307 62.5028 169.656 63.424 169.207C64.3453 168.759 65.3563 168.526 66.3809 168.525H197.356C198.362 168.524 199.339 168.862 200.13 169.482C200.922 170.103 201.483 170.971 201.723 171.948L224.57 265.034Z" fill="#FAF7F2"/>
<path d="M224.571 265.628H81.4533C81.3256 265.628 81.2014 265.585 81.1007 265.507C81 265.428 80.9286 265.318 80.8979 265.194L59.2527 177.03C58.9888 175.95 58.9737 174.824 59.2087 173.737C59.4437 172.65 59.9225 171.631 60.6091 170.756C61.2957 169.881 62.172 169.173 63.172 168.687C64.172 168.2 65.2694 167.947 66.3815 167.946H197.356C198.491 167.943 199.593 168.322 200.486 169.022C201.379 169.721 202.011 170.701 202.279 171.804L225.141 264.928C225.162 265.012 225.163 265.1 225.145 265.184C225.127 265.269 225.09 265.349 225.036 265.417C224.983 265.485 224.914 265.54 224.836 265.578C224.758 265.616 224.673 265.635 224.586 265.635L224.571 265.628ZM81.887 264.486H223.863L201.168 172.07C200.96 171.218 200.472 170.46 199.783 169.918C199.093 169.375 198.241 169.081 197.364 169.08H66.3815C65.4396 169.08 64.5099 169.294 63.6632 169.707C62.8165 170.12 62.075 170.72 61.4949 171.462C60.9148 172.204 60.5114 173.069 60.3154 173.99C60.1193 174.911 60.1358 175.865 60.3635 176.779L81.887 264.486Z" fill="#292929"/>
<path d="M213.949 258.902H89.0687L68.3896 174.664H193.27L213.949 258.902Z" fill="#FAF7F2"/>
<path d="M213.919 259.473H89.0687C88.9409 259.473 88.8167 259.43 88.716 259.352C88.6153 259.273 88.5439 259.163 88.5133 259.039L67.8419 174.801C67.8211 174.717 67.8197 174.629 67.8379 174.545C67.8561 174.46 67.8934 174.38 67.947 174.312C68.0005 174.244 68.0689 174.189 68.1469 174.151C68.2249 174.113 68.3106 174.093 68.3973 174.094H193.27C193.398 174.093 193.522 174.136 193.623 174.215C193.724 174.293 193.795 174.403 193.826 174.527L214.512 258.765C214.533 258.849 214.534 258.937 214.516 259.022C214.498 259.107 214.461 259.186 214.407 259.254C214.354 259.323 214.285 259.378 214.207 259.415C214.129 259.453 214.044 259.473 213.957 259.473H213.919ZM89.4871 258.331H213.196L192.821 175.258H69.1124L89.4871 258.331Z" fill="#292929"/>
<path d="M195.127 252.017H104.125L89.9058 194.149L88.5059 188.443H179.522L180.915 194.149L195.127 252.017Z" fill="#FAF7F2"/>
<path d="M195.127 252.587H104.118C103.99 252.588 103.866 252.545 103.765 252.466C103.664 252.388 103.593 252.278 103.562 252.154L87.9503 188.58C87.9295 188.496 87.9281 188.408 87.9463 188.323C87.9645 188.238 88.0018 188.159 88.0554 188.09C88.1089 188.022 88.1773 187.967 88.2553 187.929C88.3333 187.891 88.419 187.872 88.5057 187.872H179.522C179.65 187.872 179.774 187.914 179.875 187.993C179.976 188.072 180.047 188.182 180.078 188.306L195.659 251.88C195.68 251.964 195.681 252.052 195.663 252.136C195.645 252.221 195.608 252.301 195.554 252.369C195.501 252.437 195.432 252.492 195.354 252.53C195.276 252.568 195.19 252.587 195.104 252.587H195.127ZM104.589 251.446H194.396L179.073 189.013H89.2361L90.461 194.004L104.589 251.446Z" fill="#292929"/>
<path d="M182.581 252.017H129.948L122.454 221.5L121.062 215.802H173.695L175.095 221.5L182.581 252.017Z" fill="#FAF7F2"/>
<path d="M182.581 252.587H129.948C129.82 252.588 129.696 252.545 129.595 252.466C129.494 252.388 129.423 252.278 129.392 252.154L120.506 215.939C120.485 215.855 120.484 215.767 120.502 215.682C120.52 215.597 120.557 215.518 120.611 215.449C120.665 215.381 120.733 215.326 120.811 215.288C120.889 215.25 120.975 215.231 121.061 215.231H173.695C173.822 215.231 173.947 215.273 174.047 215.352C174.148 215.431 174.219 215.541 174.25 215.665L183.136 251.88C183.157 251.964 183.159 252.052 183.14 252.136C183.122 252.221 183.085 252.301 183.031 252.369C182.978 252.437 182.909 252.492 182.831 252.53C182.753 252.568 182.668 252.587 182.581 252.587ZM130.397 251.446H181.858L173.246 216.342H121.792L130.397 251.446Z" fill="#292929"/>
<path d="M300.333 269.553C300.331 270.743 299.857 271.884 299.016 272.725C298.174 273.567 297.034 274.04 295.844 274.042H87.1821C86.1771 274.043 85.2009 273.707 84.4093 273.087C83.6178 272.468 83.0564 271.602 82.815 270.626L81.4531 265.034H295.844C296.436 265.035 297.021 265.153 297.567 265.381C298.114 265.609 298.609 265.942 299.026 266.362C299.443 266.782 299.774 267.28 299.998 267.828C300.222 268.375 300.336 268.962 300.333 269.553Z" fill="#FAF7F2"/>
<path d="M295.844 274.621H87.1819C86.0485 274.624 84.9468 274.246 84.054 273.548C83.1612 272.85 82.5291 271.872 82.2594 270.771L80.8975 265.202C80.8767 265.117 80.8754 265.03 80.8936 264.945C80.9118 264.86 80.9491 264.781 81.0026 264.712C81.0562 264.644 81.1245 264.589 81.2026 264.551C81.2806 264.513 81.3662 264.494 81.4529 264.494H295.844C297.186 264.494 298.474 265.027 299.424 265.977C300.373 266.927 300.907 268.214 300.907 269.557C300.907 270.9 300.373 272.188 299.424 273.138C298.474 274.087 297.186 274.621 295.844 274.621ZM82.1833 265.635L83.3702 270.497C83.5783 271.348 84.0664 272.105 84.7562 272.646C85.4461 273.187 86.2977 273.48 87.1743 273.479H295.844C296.884 273.479 297.881 273.066 298.617 272.331C299.352 271.595 299.766 270.597 299.766 269.557C299.766 268.517 299.352 267.52 298.617 266.784C297.881 266.048 296.884 265.635 295.844 265.635H82.1833Z" fill="#292929"/>
<path d="M174.653 269.553C174.651 270.743 174.178 271.884 173.336 272.725C172.495 273.567 171.354 274.04 170.164 274.042H87.1821C86.1771 274.043 85.2009 273.707 84.4093 273.087C83.6178 272.468 83.0564 271.602 82.815 270.626L81.4531 265.034H170.164C170.756 265.035 171.342 265.153 171.888 265.381C172.434 265.609 172.93 265.942 173.347 266.362C173.764 266.782 174.094 267.28 174.318 267.828C174.542 268.375 174.656 268.962 174.653 269.553Z" fill="#292929"/>
<path d="M170.164 274.621H87.1819C86.0485 274.624 84.9468 274.246 84.054 273.548C83.1612 272.85 82.5291 271.872 82.2594 270.771L80.8975 265.202C80.8767 265.117 80.8754 265.03 80.8936 264.945C80.9118 264.86 80.9491 264.781 81.0026 264.712C81.0562 264.644 81.1245 264.589 81.2026 264.551C81.2806 264.513 81.3662 264.494 81.4529 264.494H170.164C171.507 264.494 172.795 265.027 173.744 265.977C174.694 266.927 175.227 268.214 175.227 269.557C175.227 270.9 174.694 272.188 173.744 273.138C172.795 274.087 171.507 274.621 170.164 274.621ZM82.1833 265.635L83.3702 270.497C83.5783 271.348 84.0664 272.105 84.7562 272.646C85.4461 273.187 86.2977 273.48 87.1743 273.479H170.164C171.204 273.479 172.202 273.066 172.938 272.331C173.673 271.595 174.086 270.597 174.086 269.557C174.086 268.517 173.673 267.52 172.938 266.784C172.202 266.048 171.204 265.635 170.164 265.635H82.1833Z" fill="#292929"/>
<path d="M95.6116 184.388C95.6116 184.715 89.2131 160.239 87.3948 153.255V102.98H0.570312V158.04H77.778C83.8189 166.889 95.6116 184.121 95.6116 184.388Z" fill="#FAF7F2"/>
<path d="M95.5282 184.989C95.3761 184.989 95.2695 184.92 95.125 184.601H95.0793C94.7598 183.954 88.3461 174.474 77.474 158.588H0.570613C0.419277 158.588 0.274136 158.528 0.167125 158.421C0.0601146 158.314 0 158.169 0 158.018V102.98C0 102.829 0.0601146 102.684 0.167125 102.577C0.274136 102.47 0.419277 102.41 0.570613 102.41H87.3875C87.5388 102.41 87.684 102.47 87.791 102.577C87.898 102.684 87.9581 102.829 87.9581 102.98V153.194C91.7622 167.771 95.9086 183.543 96.1369 184.19C96.175 184.252 96.196 184.323 96.1977 184.395C96.1988 184.535 96.1481 184.671 96.0555 184.776C95.9629 184.882 95.8348 184.949 95.6956 184.966L95.5282 184.989ZM1.14123 157.47H77.7784C77.8715 157.47 77.9632 157.493 78.0454 157.537C78.1276 157.581 78.1979 157.644 78.2501 157.721C87.3799 171.096 91.8915 177.7 94.0827 181.002L93.999 180.682C93.3675 178.309 92.4773 175.06 91.6024 171.606C89.784 164.69 87.7527 156.899 86.8473 153.43C86.8412 153.382 86.8412 153.333 86.8473 153.285V103.551H1.14123V157.47Z" fill="#292929"/>
<path d="M69.7285 122.64L70.8241 117.77L72.2849 111.311L80.0452 117.169L74.2554 120.243L69.7285 122.64Z" fill="#FAF7F2"/>
<path d="M69.7287 123.21C69.6436 123.21 69.5596 123.191 69.483 123.154C69.4063 123.117 69.3389 123.063 69.2857 122.997C69.2324 122.93 69.1947 122.853 69.1753 122.77C69.1558 122.687 69.1551 122.601 69.1733 122.518L71.722 111.197C71.7436 111.105 71.7878 111.019 71.8507 110.948C71.9136 110.877 71.9933 110.823 72.0824 110.79C72.1715 110.758 72.2673 110.748 72.3611 110.762C72.455 110.776 72.5439 110.813 72.6198 110.87L80.3877 116.728C80.4641 116.786 80.5247 116.862 80.564 116.949C80.6032 117.037 80.6198 117.133 80.6122 117.228C80.6046 117.324 80.5731 117.416 80.5206 117.496C80.4681 117.576 80.3962 117.642 80.3117 117.687L69.995 123.157C69.9118 123.196 69.8204 123.214 69.7287 123.21ZM72.6426 112.3L70.558 121.552L78.9878 117.086L72.6426 112.3Z" fill="#292929"/>
<path d="M431.832 21.3064H201.327V194.156L184.886 233.909L218.894 205.63H218.887H431.832V21.3064Z" fill="#FAF7F2"/>
<path d="M184.886 234.48C184.796 234.478 184.707 234.454 184.628 234.412C184.548 234.369 184.48 234.308 184.429 234.233C184.378 234.159 184.345 234.074 184.333 233.984C184.321 233.895 184.331 233.804 184.361 233.719L200.764 194.073V21.3673C200.764 21.2159 200.824 21.0708 200.931 20.9638C201.038 20.8568 201.183 20.7966 201.335 20.7966H431.862C432.014 20.7966 432.159 20.8568 432.266 20.9638C432.373 21.0708 432.433 21.2159 432.433 21.3673V205.63C432.433 205.781 432.373 205.926 432.266 206.033C432.159 206.14 432.014 206.2 431.862 206.2H219.1L185.243 234.35C185.142 234.433 185.016 234.479 184.886 234.48ZM201.898 21.877V194.156C201.897 194.232 201.882 194.307 201.852 194.377L186.293 232L218.483 205.242C218.537 205.184 218.601 205.137 218.673 205.106C218.745 205.075 218.823 205.059 218.902 205.059H431.261V21.877H201.898Z" fill="#292929"/>
<path d="M396.972 134.47C402.297 115.397 408.833 100.721 411.222 96.2773C414.653 89.8865 409.221 88.7148 407.623 91.3092C406.368 93.3406 400.898 102.28 400.898 102.303C400.898 102.326 404.04 87.4214 404.77 82.5598C405.5 77.6982 400.73 77.2341 399.247 81.3805C398.265 84.1043 395.275 92.4352 395.275 92.4352C395.275 92.4352 395.511 81.6164 395.701 77.6221C395.876 73.9017 391.015 73.3843 390.033 78.6416C389.12 83.5108 385.864 100.401 385.864 100.401C385.864 100.401 385.986 93.3938 379.831 93.2188C373.676 93.0439 372.222 94.2536 370.625 97.7838C369.286 100.728 369.925 102.531 372.146 103.109C374.368 103.688 376.665 99.7771 376.665 99.7771C376.866 100.031 377.125 100.233 377.42 100.366C377.716 100.498 378.039 100.557 378.362 100.538C378.362 100.538 378.628 101.923 377.396 104.555C376.585 106.285 375.67 107.964 374.657 109.584C374.657 109.584 374.467 103.155 371.02 103.254C369.187 103.307 367.977 105.75 367.064 110.489C366.44 113.761 366.364 117.238 367.513 120.099C371.522 130.035 371.583 133.839 371.583 133.839C371.583 133.839 371.948 140.116 383.171 141.013C394.393 141.911 396.972 134.47 396.972 134.47Z" fill="#FAF7F2"/>
<path d="M384.965 141.637C384.372 141.637 383.756 141.637 383.109 141.561C371.529 140.641 371.012 134.128 370.997 133.854C370.997 133.793 370.86 129.959 366.964 120.289C365.907 117.672 365.74 114.202 366.478 110.36C367.368 105.711 368.555 103.323 370.282 102.752C370.032 102.512 369.828 102.228 369.681 101.915C369.156 100.812 369.3 99.3434 370.122 97.5403C371.872 93.6982 373.53 92.4504 379.86 92.6254C383.581 92.7243 385.186 95.1209 385.909 97.1903C386.89 92.0852 388.823 82.0272 389.492 78.4818C390.101 75.2407 392.125 73.9626 393.761 74.1528C395.396 74.343 396.378 75.7505 396.294 77.5917C396.18 80.0948 396.043 85.3444 395.952 88.867L398.736 81.1219C399.649 78.5807 401.681 77.6373 403.21 78.0253C404.473 78.3449 405.797 79.7296 405.371 82.5902C404.99 85.1238 403.955 90.3582 403.157 94.3068C402.799 96.0643 402.457 97.7153 402.183 99.0695C403.187 97.4186 404.747 94.8698 407.174 90.944C407.613 90.2387 408.303 89.7262 409.105 89.5101C409.907 89.2941 410.761 89.3905 411.495 89.78C412.925 90.6016 413.778 92.8232 411.761 96.4828C408.901 101.808 402.51 116.865 397.557 134.562C397.489 134.729 394.94 141.637 384.965 141.637ZM371.073 103.802H371.02C369.589 103.84 368.471 106.084 367.604 110.573C366.904 114.233 367.048 117.42 368.022 119.863C372.024 129.753 372.13 133.649 372.138 133.808C372.146 133.968 372.671 139.583 383.2 140.42C393.73 141.257 396.302 134.638 396.431 134.288C402.038 114.271 408.65 99.8608 410.727 95.9958C412.317 93.0287 411.86 91.3777 410.894 90.8223C410.42 90.5804 409.872 90.5244 409.358 90.6651C408.845 90.8058 408.402 91.1332 408.117 91.5831C406.93 93.5004 401.582 102.235 401.407 102.554C401.27 102.896 401.14 102.889 400.897 102.874C400.754 102.862 400.62 102.797 400.523 102.691C400.425 102.585 400.372 102.447 400.372 102.303C400.362 102.261 400.362 102.216 400.372 102.174C400.486 101.679 403.522 87.2084 404.237 82.4837C404.503 80.7338 404.001 79.4404 402.928 79.2046C401.856 78.9687 400.501 79.6763 399.809 81.5783C398.828 84.3021 395.838 92.633 395.838 92.633C395.794 92.7631 395.704 92.873 395.586 92.9425C395.468 93.012 395.328 93.0366 395.193 93.0116C395.058 92.9867 394.937 92.9139 394.851 92.8066C394.765 92.6993 394.721 92.5648 394.727 92.4276C394.727 92.3211 394.97 81.5555 395.153 77.5993C395.221 76.1765 394.438 75.4462 393.631 75.3168C392.513 75.1875 391.09 76.1994 390.588 78.7177C389.69 83.5336 386.449 100.31 386.419 100.477C386.396 100.621 386.319 100.751 386.203 100.839C386.088 100.928 385.943 100.97 385.798 100.955C385.653 100.941 385.519 100.871 385.424 100.761C385.328 100.651 385.279 100.508 385.285 100.363C385.285 100.097 385.285 93.9112 379.807 93.759C373.721 93.5993 372.602 94.7937 371.134 98.012C370.472 99.4652 370.312 100.644 370.685 101.42C370.848 101.712 371.074 101.963 371.346 102.155C371.619 102.347 371.931 102.476 372.26 102.531C373.721 102.912 375.607 100.371 376.148 99.488C376.194 99.4085 376.26 99.3416 376.338 99.2929C376.417 99.2443 376.506 99.2153 376.598 99.2086C376.69 99.2019 376.782 99.2175 376.866 99.2543C376.951 99.291 377.026 99.3477 377.083 99.4195C377.222 99.5911 377.399 99.7284 377.599 99.8208C377.8 99.9131 378.019 99.9581 378.24 99.9521C378.388 99.9254 378.541 99.9584 378.665 100.044C378.789 100.129 378.874 100.261 378.902 100.409C378.902 100.568 379.168 102.06 377.89 104.776C377.292 106.083 376.616 107.353 375.866 108.58C375.653 108.937 375.417 109.341 375.105 109.835C375.043 109.943 374.948 110.027 374.834 110.076C374.72 110.125 374.593 110.135 374.472 110.104C374.352 110.074 374.244 110.006 374.166 109.909C374.088 109.812 374.044 109.693 374.04 109.569C374.063 109.523 373.812 103.802 371.073 103.802ZM373.279 103.642C374.223 104.839 374.816 106.274 374.991 107.789C375.672 106.661 376.286 105.495 376.832 104.296C377.343 103.295 377.658 102.205 377.76 101.086C377.39 101.021 377.038 100.873 376.733 100.652C376.14 101.565 374.831 103.208 373.31 103.642H373.279Z" fill="#292929"/>
<path d="M431.832 21.3064H201.335V38.5922H431.832V21.3064Z" fill="#97DE40"/>
<path d="M431.833 39.1628H201.305C201.154 39.1628 201.009 39.1027 200.902 38.9956C200.794 38.8886 200.734 38.7435 200.734 38.5922V21.3064C200.734 21.1551 200.794 21.0099 200.902 20.9029C201.009 20.7959 201.154 20.7358 201.305 20.7358H431.833C431.984 20.7358 432.129 20.7959 432.236 20.9029C432.343 21.0099 432.403 21.1551 432.403 21.3064V38.5922C432.403 38.7435 432.343 38.8886 432.236 38.9956C432.129 39.1027 431.984 39.1628 431.833 39.1628ZM201.906 38.0215H431.262V21.877H201.906V38.0215Z" fill="#292929"/>
<path d="M111.133 207.509H98.3434L97.689 204.838L96.3652 199.437H109.155L110.478 204.838L111.133 207.509Z" fill="#292929"/>
<path d="M111.133 208.079H98.3432C98.2154 208.08 98.0912 208.037 97.9905 207.959C97.8898 207.88 97.8184 207.77 97.7878 207.646L95.8096 199.604C95.7888 199.52 95.7875 199.432 95.8057 199.347C95.8239 199.262 95.8612 199.183 95.9147 199.115C95.9683 199.046 96.0367 198.991 96.1147 198.954C96.1927 198.916 96.2783 198.896 96.365 198.896H109.154C109.282 198.896 109.406 198.939 109.507 199.017C109.608 199.096 109.679 199.206 109.71 199.33L111.688 207.402C111.709 207.486 111.71 207.574 111.692 207.659C111.674 207.744 111.636 207.823 111.583 207.892C111.529 207.96 111.461 208.015 111.383 208.053C111.305 208.091 111.219 208.11 111.133 208.11V208.079ZM98.7844 206.938H110.402L108.705 200.007H97.0878L98.7844 206.938Z" fill="#292929"/>
<path d="M106.491 212.728H100.405C100.253 212.728 100.108 212.668 100.001 212.561C99.8941 212.454 99.834 212.309 99.834 212.157C99.834 212.006 99.8941 211.861 100.001 211.754C100.108 211.647 100.253 211.587 100.405 211.587H106.491C106.642 211.587 106.788 211.647 106.895 211.754C107.002 211.861 107.062 212.006 107.062 212.157C107.062 212.309 107.002 212.454 106.895 212.561C106.788 212.668 106.642 212.728 106.491 212.728Z" fill="#292929"/>
<path d="M111.133 217.377H101.592C101.441 217.377 101.296 217.316 101.189 217.209C101.082 217.102 101.021 216.957 101.021 216.806C101.021 216.655 101.082 216.51 101.189 216.403C101.296 216.296 101.441 216.235 101.592 216.235H111.133C111.284 216.235 111.429 216.296 111.536 216.403C111.643 216.51 111.703 216.655 111.703 216.806C111.703 216.957 111.643 217.102 111.536 217.209C111.429 217.316 111.284 217.377 111.133 217.377Z" fill="#292929"/>
<path d="M109.459 222.025H102.764C102.613 222.025 102.468 221.965 102.36 221.858C102.253 221.751 102.193 221.606 102.193 221.455C102.193 221.303 102.253 221.158 102.36 221.051C102.468 220.944 102.613 220.884 102.764 220.884H109.459C109.611 220.884 109.756 220.944 109.863 221.051C109.97 221.158 110.03 221.303 110.03 221.455C110.03 221.606 109.97 221.751 109.863 221.858C109.756 221.965 109.611 222.025 109.459 222.025Z" fill="#292929"/>
<path d="M111.133 226.674H103.928C103.777 226.674 103.632 226.614 103.525 226.507C103.418 226.4 103.357 226.255 103.357 226.103C103.357 225.952 103.418 225.807 103.525 225.7C103.632 225.593 103.777 225.533 103.928 225.533H111.133C111.284 225.533 111.429 225.593 111.536 225.7C111.643 225.807 111.704 225.952 111.704 226.103C111.704 226.255 111.643 226.4 111.536 226.507C111.429 226.614 111.284 226.674 111.133 226.674Z" fill="#292929"/>
<path d="M180.915 194.149H89.9058L88.5059 188.443H179.522L180.915 194.149Z" fill="#97DE40"/>
<path d="M180.915 194.719H89.9058C89.778 194.72 89.6538 194.677 89.5531 194.599C89.4524 194.52 89.381 194.41 89.3504 194.286L87.9581 188.587C87.9373 188.503 87.9359 188.415 87.9541 188.331C87.9723 188.246 88.0096 188.166 88.0632 188.098C88.1167 188.03 88.1851 187.975 88.2631 187.937C88.3411 187.899 88.4268 187.88 88.5135 187.88H179.522C179.65 187.879 179.774 187.922 179.875 188.001C179.976 188.079 180.047 188.189 180.078 188.313L181.47 194.012C181.491 194.096 181.492 194.184 181.474 194.269C181.456 194.353 181.419 194.433 181.365 194.501C181.312 194.569 181.243 194.625 181.165 194.662C181.087 194.7 181.001 194.72 180.915 194.719ZM90.3775 193.578H180.192L179.074 189.013H89.2363L90.3775 193.578Z" fill="#292929"/>
<path d="M167.654 207.942H118.414L117.272 203.317H166.52L167.654 207.942Z" fill="#97DE40"/>
<path d="M167.654 208.513H118.414C118.286 208.513 118.162 208.471 118.061 208.392C117.96 208.314 117.889 208.203 117.858 208.079L116.725 203.454C116.704 203.369 116.703 203.282 116.721 203.197C116.739 203.112 116.776 203.033 116.83 202.964C116.883 202.896 116.952 202.841 117.03 202.803C117.108 202.765 117.193 202.746 117.28 202.746H166.52C166.648 202.746 166.772 202.788 166.873 202.867C166.973 202.946 167.045 203.056 167.076 203.18L168.209 207.806C168.23 207.89 168.231 207.978 168.213 208.062C168.195 208.147 168.158 208.227 168.104 208.295C168.051 208.363 167.982 208.418 167.904 208.456C167.826 208.494 167.741 208.513 167.654 208.513ZM118.855 207.372H166.923L166.071 203.887H118.003L118.855 207.372Z" fill="#292929"/>
<path d="M98.3848 82.3155L100.7 84.06C101.058 84.33 101.36 84.6679 101.587 85.0544C101.815 85.441 101.964 85.8686 102.027 86.3128C102.089 86.757 102.064 87.2092 101.951 87.6435C101.839 88.0779 101.642 88.4858 101.372 88.8441L80.0262 117.171L72.2547 111.315L93.6053 82.9818C93.8753 82.6235 94.2132 82.3219 94.5997 82.0943C94.9862 81.8666 95.4138 81.7173 95.8581 81.6548C96.3023 81.5924 96.7545 81.6181 97.1888 81.7304C97.6231 81.8427 98.0311 82.0395 98.3893 82.3095L98.3848 82.3155Z" fill="#292929"/>
<path d="M80.0153 117.74C79.8919 117.74 79.7717 117.7 79.673 117.626L71.905 111.768C71.7839 111.677 71.7039 111.542 71.6825 111.392C71.6611 111.242 71.7001 111.09 71.7909 110.969L93.1318 82.6435C93.7717 81.8024 94.7194 81.2498 95.7665 81.1071C96.8137 80.9644 97.8747 81.2434 98.7162 81.8827L100.999 83.6249C101.84 84.2648 102.392 85.2125 102.535 86.2596C102.678 87.3068 102.399 88.3678 101.759 89.2093L80.5022 117.512C80.4461 117.587 80.3723 117.647 80.2874 117.687C80.2024 117.727 80.109 117.745 80.0153 117.74ZM73.0462 111.205L79.8936 116.371L100.938 88.5246C101.163 88.2259 101.327 87.8859 101.42 87.5238C101.514 87.1618 101.535 86.7848 101.483 86.4146C101.43 86.0443 101.306 85.688 101.115 85.366C100.925 85.044 100.674 84.7626 100.375 84.5379L98.0923 82.7956C97.7937 82.5706 97.4536 82.4067 97.0916 82.3133C96.7295 82.2198 96.3526 82.1986 95.9823 82.2509C95.6121 82.3031 95.2557 82.4279 94.9337 82.618C94.6117 82.8081 94.3303 83.0598 94.1057 83.3587L73.0462 111.205Z" fill="#292929"/>
<path d="M69.7285 122.64L70.8241 117.77C72.2415 118.122 73.4697 119.004 74.2554 120.235L69.7285 122.64Z" fill="#292929"/>
<path d="M60.4467 120.175H15.9085C15.7572 120.175 15.612 120.114 15.505 120.007C15.398 119.9 15.3379 119.755 15.3379 119.604C15.3379 119.453 15.398 119.308 15.505 119.201C15.612 119.093 15.7572 119.033 15.9085 119.033H60.4467C60.5981 119.033 60.7432 119.093 60.8502 119.201C60.9572 119.308 61.0174 119.453 61.0174 119.604C61.0174 119.755 60.9572 119.9 60.8502 120.007C60.7432 120.114 60.5981 120.175 60.4467 120.175Z" fill="#292929"/>
<path d="M76.2946 131.693H15.9085C15.7572 131.693 15.612 131.633 15.505 131.526C15.398 131.419 15.3379 131.274 15.3379 131.123C15.3379 130.971 15.398 130.826 15.505 130.719C15.612 130.612 15.7572 130.552 15.9085 130.552H76.2946C76.4459 130.552 76.591 130.612 76.6981 130.719C76.8051 130.826 76.8652 130.971 76.8652 131.123C76.8652 131.274 76.8051 131.419 76.6981 131.526C76.591 131.633 76.4459 131.693 76.2946 131.693Z" fill="#292929"/>
<path d="M64.183 143.205H54.8401C54.6888 143.205 54.5437 143.144 54.4367 143.037C54.3296 142.93 54.2695 142.785 54.2695 142.634C54.2695 142.483 54.3296 142.337 54.4367 142.23C54.5437 142.123 54.6888 142.063 54.8401 142.063H64.1906C64.3419 142.063 64.4871 142.123 64.5941 142.23C64.7011 142.337 64.7612 142.483 64.7612 142.634C64.7612 142.785 64.7011 142.93 64.5941 143.037C64.4871 143.144 64.3419 143.205 64.1906 143.205H64.183Z" fill="#292929"/>
<path d="M48.441 143.205H15.9085C15.7572 143.205 15.612 143.144 15.505 143.037C15.398 142.93 15.3379 142.785 15.3379 142.634C15.3379 142.483 15.398 142.337 15.505 142.23C15.612 142.123 15.7572 142.063 15.9085 142.063H48.441C48.5924 142.063 48.7375 142.123 48.8445 142.23C48.9515 142.337 49.0117 142.483 49.0117 142.634C49.0117 142.785 48.9515 142.93 48.8445 143.037C48.7375 143.144 48.5924 143.205 48.441 143.205Z" fill="#292929"/>
<path d="M369.453 165.322L367.338 205.645H229.227C234.012 174.649 236.698 151.794 241.072 137.088C245.828 121.11 252.606 108.177 274.221 104.616C298.948 100.546 335.087 101.755 350.303 109.242C362.004 114.993 366.341 132.066 368.137 147.085C368.951 154.031 369.24 160.551 369.453 165.322Z" fill="#97DE40"/>
<path d="M367.338 206.2H229.226C229.145 206.2 229.064 206.182 228.989 206.148C228.915 206.114 228.849 206.064 228.795 206.002C228.742 205.94 228.702 205.867 228.68 205.788C228.657 205.71 228.651 205.627 228.663 205.546C229.797 198.181 230.801 191.402 231.768 184.836C234.811 164.348 237.177 148.165 240.525 136.905C245.797 119.155 253.261 107.469 274.122 104.03C298.347 100.043 334.828 100.987 350.539 108.709C360.239 113.479 366.174 126.002 368.684 146.993C369.498 153.841 369.787 160.346 370 165.07V165.291C370.001 165.309 370.001 165.327 370 165.344L367.885 205.668C367.876 205.808 367.815 205.941 367.714 206.039C367.613 206.137 367.479 206.195 367.338 206.2ZM229.896 205.059H366.797L368.882 165.322V165.131C368.669 160.422 368.38 153.97 367.573 147.138C365.146 126.847 359.25 114.263 350.075 109.744C334.562 102.136 298.392 101.207 274.35 105.179C254.075 108.519 246.809 119.931 241.635 137.255C238.311 148.424 235.929 164.576 232.909 185.019C231.958 191.364 230.991 197.945 229.896 205.059Z" fill="#292929"/>
<path d="M355.956 193.365C358.877 183.224 361.966 172.884 364.576 162.583C365.907 157.31 367.102 151.817 368.129 147.07C369.696 139.766 370.875 134.212 371.568 133.816C374.413 138.381 393.091 138.799 396.979 134.47C396.979 134.47 398.501 134.204 398.135 141.82C397.77 149.436 394.803 185.407 394.529 193.145C394.377 197.245 393.137 201.765 391.737 205.63H352.524" fill="#97DE40"/>
<path d="M391.73 206.2H352.525C352.373 206.2 352.228 206.14 352.121 206.033C352.014 205.926 351.954 205.781 351.954 205.63C351.954 205.478 352.014 205.333 352.121 205.226C352.228 205.119 352.373 205.059 352.525 205.059H391.326C392.788 201.232 393.673 197.209 393.951 193.122C394.103 188.77 395.123 175.303 396.013 163.45C396.721 154.039 397.39 145.152 397.535 141.812C397.771 137.202 397.276 135.726 397.01 135.231C394.248 137.681 387.119 138.449 381.261 137.932C378.978 137.727 373.774 137.034 371.583 134.805C370.967 136.448 369.833 141.721 368.738 146.834L368.662 147.206C367.619 152.03 366.44 157.47 365.101 162.742C362.986 171.111 360.536 179.549 358.162 187.735C357.599 189.678 357.039 191.615 356.481 193.548C356.439 193.693 356.34 193.816 356.208 193.888C356.075 193.961 355.919 193.978 355.773 193.936C355.628 193.893 355.506 193.795 355.433 193.662C355.36 193.53 355.343 193.374 355.385 193.228C355.943 191.296 356.504 189.358 357.067 187.416C359.441 179.244 361.89 170.792 363.998 162.461C365.329 157.211 366.501 151.809 367.543 146.986L367.627 146.59C369.803 136.426 370.45 133.793 371.256 133.337C371.384 133.266 371.534 133.247 371.676 133.284C371.818 133.321 371.94 133.41 372.017 133.535C373.006 135.125 376.582 136.372 381.36 136.798C388.093 137.392 394.613 136.235 396.523 134.113C396.608 134.017 396.723 133.952 396.85 133.93C396.989 133.916 397.129 133.932 397.26 133.978C397.392 134.024 397.511 134.099 397.611 134.196C398.524 135.003 398.866 137.582 398.645 141.865C398.478 145.213 397.809 154.107 397.124 163.526C396.234 175.395 395.222 188.854 395.062 193.198C394.766 197.536 393.814 201.805 392.239 205.858C392.196 205.958 392.125 206.043 392.035 206.103C391.944 206.164 391.838 206.198 391.73 206.2Z" fill="#292929"/>
<path d="M298.948 29.0287C284.736 25.8561 280.506 47.6611 291.599 62.5503L304.989 67.5945L335.65 44.1918C335.65 44.1918 344.939 40.0681 339.142 27.8494C332.896 14.6492 308.26 14.5123 298.948 29.0287Z" fill="#292929"/>
<path d="M304.989 68.1575C304.923 68.169 304.856 68.169 304.791 68.1575L291.401 63.1133C291.298 63.076 291.208 63.01 291.142 62.9231C283.465 52.614 283.275 39.6649 287.528 33.1067C290.077 29.1732 294.025 27.5223 298.689 28.4276C303.505 21.2075 312.795 16.9469 322.465 17.5708C330.491 18.0805 336.92 21.8466 339.682 27.644C341.752 31.9959 342.185 35.8532 340.983 39.1095C340.068 41.5371 338.284 43.5382 335.977 44.7243L305.354 68.0814C305.244 68.147 305.116 68.1738 304.989 68.1575ZM291.956 62.071L304.89 66.9402L335.323 43.7429L335.437 43.6744C337.494 42.6064 339.086 40.8192 339.91 38.653C340.998 35.7011 340.572 32.148 338.647 28.0929C336.076 22.6759 329.997 19.1533 322.389 18.6663C312.977 18.0729 303.962 22.2574 299.427 29.3178C299.365 29.416 299.274 29.4926 299.166 29.5375C299.059 29.5824 298.94 29.5933 298.826 29.5689C293.28 28.3363 290.145 31.0905 288.487 33.6697C284.462 39.8932 284.675 52.1804 291.956 62.071Z" fill="#292929"/>
<path d="M337.978 74.7614C334.402 91.2255 319.931 90.9288 319.931 90.9288C319.931 90.9288 319.528 100.949 319.528 102.919C319.528 104.89 315.016 111.197 304.182 110.451C295.897 109.888 292.595 104.235 292.595 102.638C292.595 101.23 292.854 80.2013 292.686 74.0082C292.684 73.4693 292.654 72.9309 292.595 72.3953C292.26 70.5997 291.423 70.1737 290.077 69.5118C289.592 69.2752 289.129 68.9977 288.692 68.6825C284.272 65.5631 284.675 60.1994 287.475 57.5974C290.815 54.4932 297.677 56.0757 298.788 62.3144C298.788 62.3144 303.566 47.8589 302.653 44.945C302.143 43.3321 300.371 42.2137 301.131 40.9507C301.892 39.6877 306.571 35.8304 310.413 34.2859C319.216 40.2736 330.955 40.9735 334.41 33.6468C336.177 36.3906 337.375 39.4618 337.932 42.6778C339.652 52.4543 339.652 67.0619 337.978 74.7614Z" fill="#FAF7F2"/>
<path d="M305.917 111.09C305.346 111.09 304.753 111.09 304.136 111.03C295.767 110.459 292.017 104.73 292.017 102.661C292.017 102.387 292.017 101.36 292.017 99.8379C292.077 93.6068 292.222 79.022 292.085 74.0538C292.083 73.5455 292.055 73.0377 292.001 72.5322C291.72 71.0106 291.081 70.6987 289.795 70.0672C289.281 69.8158 288.79 69.5206 288.327 69.1846C287.317 68.5115 286.474 67.6181 285.859 66.5717C285.245 65.5254 284.877 64.3533 284.781 63.1437C284.702 62.0487 284.865 60.9497 285.26 59.9252C285.654 58.9006 286.27 57.9759 287.064 57.217C288.01 56.4015 289.156 55.8515 290.384 55.623C291.612 55.3945 292.879 55.4955 294.056 55.916C295.126 56.2673 296.106 56.8504 296.925 57.6236C297.744 58.3969 298.383 59.3413 298.795 60.3896C300.599 54.6758 302.653 46.9535 302.082 45.1732C301.879 44.628 301.597 44.1154 301.245 43.6516C300.652 42.7843 299.975 41.8028 300.614 40.7072C301.481 39.1856 306.426 35.3054 310.17 33.799C310.257 33.7648 310.351 33.7524 310.444 33.763C310.536 33.7736 310.625 33.8069 310.702 33.8599C316.348 37.664 323.203 39.3149 328.201 37.9683C329.426 37.6849 330.572 37.1333 331.557 36.3531C332.543 35.5728 333.343 34.5836 333.9 33.4566C333.942 33.3667 334.008 33.2896 334.09 33.2328C334.172 33.1761 334.267 33.1418 334.366 33.1334C334.466 33.1249 334.565 33.1426 334.656 33.1846C334.746 33.2266 334.824 33.2916 334.881 33.3729C336.703 36.1772 337.938 39.3219 338.51 42.6169C340.214 52.363 340.23 67.1608 338.51 74.9212C335.277 89.7876 323.21 91.3548 320.456 91.5222C320.372 93.6145 320.076 101.284 320.076 102.934C320.076 104.045 319.117 105.658 317.641 107.043C315.982 108.61 312.308 111.09 305.917 111.09ZM291.636 56.6387C290.238 56.6051 288.878 57.1026 287.832 58.031C287.165 58.675 286.648 59.4581 286.318 60.3248C285.988 61.1914 285.853 62.1201 285.922 63.0448C286.005 64.0833 286.322 65.0896 286.849 65.9883C287.376 66.8869 288.1 67.6545 288.966 68.2336C289.379 68.524 289.817 68.7786 290.274 68.9944C291.636 69.6639 292.717 70.1965 293.097 72.2811C293.161 72.847 293.194 73.4159 293.196 73.9854C293.333 78.9763 293.196 93.5764 293.127 99.8075C293.127 101.329 293.127 102.349 293.127 102.623C293.127 103.771 296.011 109.31 304.182 109.866C311.242 110.345 315.145 107.758 316.842 106.176C318.364 104.753 318.919 103.437 318.919 102.904C318.919 100.949 319.307 91.3016 319.322 90.8907C319.324 90.8168 319.341 90.744 319.371 90.6764C319.401 90.6089 319.444 90.5479 319.498 90.497C319.552 90.4462 319.615 90.4064 319.684 90.3799C319.753 90.3535 319.827 90.3409 319.901 90.3429C320.479 90.3429 333.945 90.419 337.399 74.6245C339.058 66.9782 339.043 52.3858 337.361 42.7538C336.853 39.9433 335.859 37.2426 334.425 34.7729C333.066 36.9033 330.933 38.4227 328.475 39.0106C323.279 40.4181 316.188 38.8128 310.329 34.9174C306.487 36.5532 302.204 40.1899 301.611 41.2246C301.359 41.6583 301.611 42.0615 302.196 42.9516C302.611 43.5008 302.942 44.1085 303.178 44.7548C304.121 47.7524 299.807 60.9754 299.313 62.4742C299.273 62.5946 299.194 62.6984 299.089 62.7691C298.984 62.8398 298.858 62.8734 298.732 62.8647C298.605 62.856 298.485 62.8054 298.391 62.7209C298.296 62.6364 298.232 62.5228 298.21 62.3981C298.036 61.1625 297.523 59.9992 296.728 59.0376C295.933 58.0759 294.887 57.3535 293.706 56.9507C293.039 56.7373 292.343 56.632 291.644 56.6387H291.636Z" fill="#292929"/>
<path d="M385.24 143.905C382.836 143.909 380.437 143.69 378.073 143.25C377.995 143.241 377.92 143.216 377.853 143.176C377.785 143.137 377.727 143.084 377.68 143.021C377.634 142.957 377.601 142.885 377.584 142.809C377.567 142.733 377.566 142.654 377.58 142.577C377.595 142.5 377.625 142.427 377.669 142.362C377.713 142.298 377.77 142.243 377.837 142.201C377.903 142.159 377.977 142.132 378.054 142.12C378.131 142.108 378.21 142.112 378.286 142.132C384.373 143.303 391.829 142.801 394.849 141.013C394.979 140.947 395.128 140.933 395.268 140.974C395.407 141.015 395.526 141.107 395.6 141.232C395.674 141.357 395.697 141.506 395.665 141.648C395.633 141.789 395.548 141.914 395.427 141.995C393.327 143.235 389.447 143.905 385.24 143.905Z" fill="#292929"/>
<path d="M388.048 147.397H387.363C387.288 147.393 387.215 147.375 387.147 147.343C387.079 147.311 387.018 147.266 386.967 147.211C386.917 147.155 386.878 147.09 386.852 147.02C386.827 146.949 386.815 146.874 386.819 146.799C386.822 146.724 386.841 146.651 386.873 146.583C386.905 146.515 386.949 146.454 387.005 146.404C387.06 146.353 387.125 146.314 387.196 146.289C387.266 146.263 387.341 146.252 387.416 146.255C389.267 146.371 391.119 146.064 392.833 145.358C392.9 145.323 392.972 145.301 393.047 145.294C393.122 145.287 393.197 145.295 393.269 145.318C393.341 145.34 393.407 145.376 393.465 145.424C393.523 145.472 393.57 145.531 393.605 145.597C393.64 145.664 393.662 145.736 393.669 145.811C393.676 145.886 393.668 145.961 393.646 146.033C393.623 146.105 393.587 146.171 393.539 146.229C393.491 146.287 393.432 146.335 393.366 146.37C391.689 147.094 389.874 147.444 388.048 147.397Z" fill="#292929"/>
<path d="M374.215 115.967H374.086C374.012 115.951 373.943 115.92 373.881 115.877C373.819 115.834 373.767 115.779 373.726 115.715C373.686 115.652 373.659 115.581 373.646 115.506C373.633 115.432 373.635 115.356 373.652 115.283C374.028 113.418 374.164 111.513 374.055 109.614C374.05 109.54 374.06 109.464 374.084 109.393C374.108 109.322 374.146 109.256 374.196 109.2C374.245 109.143 374.305 109.097 374.372 109.064C374.44 109.03 374.513 109.011 374.588 109.006C374.663 109.001 374.738 109.011 374.809 109.035C374.88 109.059 374.946 109.097 375.003 109.146C375.059 109.195 375.105 109.256 375.139 109.323C375.172 109.39 375.192 109.463 375.197 109.538C375.315 111.547 375.169 113.563 374.763 115.534C374.733 115.656 374.662 115.766 374.563 115.844C374.464 115.923 374.342 115.966 374.215 115.967Z" fill="#292929"/>
<path d="M397.382 111.387C397.298 111.388 397.215 111.369 397.139 111.334C397.078 111.334 390.984 108.42 386.328 106.556C386.194 106.495 386.089 106.385 386.034 106.248C385.979 106.112 385.98 105.96 386.034 105.823C386.089 105.687 386.195 105.577 386.329 105.516C386.463 105.456 386.615 105.45 386.754 105.498C391.44 107.378 397.565 110.276 397.626 110.307C397.744 110.362 397.839 110.455 397.897 110.572C397.954 110.689 397.97 110.822 397.942 110.949C397.913 111.076 397.842 111.189 397.741 111.27C397.639 111.352 397.512 111.395 397.382 111.395V111.387Z" fill="#292929"/>
<path d="M384.875 105.947C384.81 105.959 384.743 105.959 384.677 105.947C383.856 105.627 383.018 105.353 382.167 105.126C382.019 105.09 381.892 104.998 381.813 104.869C381.734 104.74 381.709 104.584 381.744 104.437C381.78 104.29 381.872 104.163 382.001 104.083C382.13 104.004 382.285 103.98 382.433 104.015C383.328 104.252 384.21 104.539 385.073 104.875C385.197 104.922 385.3 105.011 385.365 105.127C385.43 105.243 385.453 105.377 385.43 105.508C385.406 105.638 385.338 105.757 385.237 105.843C385.136 105.928 385.008 105.976 384.875 105.978V105.947Z" fill="#292929"/>
<path d="M396.203 110.672C396.102 110.672 396.002 110.645 395.915 110.594C395.828 110.543 395.755 110.469 395.706 110.381C395.656 110.292 395.631 110.193 395.633 110.091C395.635 109.99 395.663 109.891 395.716 109.805L405.371 93.7286C405.448 93.5984 405.575 93.5045 405.722 93.4674C405.869 93.4303 406.024 93.4531 406.154 93.5308C406.285 93.6085 406.379 93.7347 406.416 93.8816C406.453 94.0286 406.43 94.1843 406.352 94.3144L396.697 110.39C396.647 110.477 396.575 110.548 396.488 110.597C396.401 110.647 396.303 110.672 396.203 110.672Z" fill="#292929"/>
<path d="M390.93 105.156C390.839 105.156 390.749 105.135 390.667 105.093C390.586 105.051 390.516 104.99 390.463 104.916C390.41 104.841 390.376 104.755 390.363 104.664C390.35 104.574 390.36 104.481 390.39 104.395L397.595 84.2868C397.619 84.2144 397.657 84.1475 397.707 84.0901C397.758 84.0326 397.819 83.9858 397.887 83.9525C397.956 83.9191 398.031 83.8999 398.107 83.8959C398.183 83.8918 398.259 83.9031 398.331 83.9291C398.403 83.955 398.469 83.9951 398.525 84.0469C398.58 84.0988 398.625 84.1613 398.657 84.2308C398.688 84.3004 398.705 84.3755 398.707 84.4518C398.709 84.528 398.696 84.6039 398.668 84.6749L391.463 104.783C391.423 104.892 391.35 104.986 391.255 105.053C391.16 105.12 391.046 105.156 390.93 105.156Z" fill="#292929"/>
<path d="M385.369 103.49H385.262C385.114 103.46 384.984 103.373 384.899 103.248C384.815 103.122 384.784 102.969 384.813 102.82L386.145 95.973C386.18 95.8306 386.269 95.7072 386.392 95.6284C386.516 95.5496 386.665 95.5215 386.809 95.5499C386.953 95.5783 387.081 95.661 387.165 95.7809C387.25 95.9007 387.285 96.0486 387.263 96.1936L385.932 103.041C385.904 103.169 385.833 103.284 385.73 103.365C385.628 103.447 385.5 103.491 385.369 103.49Z" fill="#292929"/>
<path d="M380.279 101.109C380.079 101.121 379.878 101.121 379.678 101.109C379.603 101.099 379.532 101.075 379.466 101.038C379.401 101.001 379.344 100.951 379.298 100.892C379.252 100.832 379.218 100.764 379.199 100.692C379.179 100.619 379.174 100.544 379.183 100.469C379.192 100.395 379.215 100.322 379.252 100.256C379.289 100.191 379.339 100.133 379.398 100.087C379.458 100.041 379.526 100.007 379.599 99.9879C379.672 99.9687 379.748 99.9642 379.822 99.9749C380.406 100.027 380.994 99.9604 381.552 99.7786C382.109 99.5968 382.623 99.3038 383.064 98.9174C383.115 98.8519 383.179 98.7984 383.253 98.7605C383.327 98.7226 383.408 98.7012 383.491 98.6979C383.574 98.6945 383.656 98.7093 383.733 98.7412C383.809 98.773 383.878 98.8212 383.934 98.8823C383.99 98.9434 384.032 99.016 384.057 99.095C384.083 99.1741 384.09 99.2576 384.08 99.3399C384.069 99.4222 384.041 99.5012 383.997 99.5715C383.953 99.6417 383.894 99.7015 383.824 99.7467C382.838 100.601 381.584 101.083 380.279 101.109Z" fill="#292929"/>
<path d="M383.079 125.873C383.004 125.868 382.931 125.849 382.863 125.815C382.796 125.782 382.736 125.736 382.686 125.679C382.637 125.623 382.599 125.557 382.575 125.486C382.551 125.415 382.541 125.339 382.546 125.264C382.714 122.526 382.333 118.858 377.829 114.72C377.74 114.614 377.693 114.479 377.695 114.341C377.698 114.203 377.751 114.071 377.844 113.968C377.937 113.866 378.063 113.801 378.201 113.785C378.338 113.77 378.476 113.804 378.59 113.883C383.505 118.394 383.847 122.586 383.672 125.341C383.662 125.489 383.595 125.628 383.484 125.728C383.373 125.827 383.228 125.879 383.079 125.873Z" fill="#292929"/>
<path d="M354.731 183.954C354.631 183.954 354.532 183.928 354.444 183.878C354.357 183.828 354.284 183.755 354.234 183.668C354.184 183.58 354.158 183.481 354.158 183.381C354.159 183.28 354.186 183.181 354.237 183.094L358.612 175.684C358.693 175.563 358.817 175.478 358.959 175.446C359.1 175.414 359.249 175.437 359.374 175.511C359.5 175.585 359.592 175.704 359.633 175.843C359.673 175.983 359.659 176.133 359.593 176.262L355.218 183.672C355.168 183.757 355.097 183.828 355.012 183.877C354.927 183.927 354.83 183.953 354.731 183.954Z" fill="#292929"/>
<path d="M348.979 202.647C348.827 202.647 348.682 202.587 348.575 202.48C348.468 202.373 348.408 202.228 348.408 202.077C348.56 179.321 348.888 151.923 349.534 150.63C349.75 150.242 349.992 149.868 350.257 149.512C350.888 148.606 351.847 147.229 351.642 146.468C351.597 146.329 351.522 146.202 351.422 146.095C351.322 145.989 351.199 145.906 351.063 145.852C349.481 145.053 348.682 144.239 348.53 143.303C348.355 142.215 349.139 141.28 349.747 140.671C351.543 138.868 352.03 137.004 351.878 136.251C351.852 136.101 351.887 135.948 351.975 135.825C352.063 135.701 352.196 135.618 352.345 135.593C352.495 135.567 352.648 135.602 352.771 135.69C352.895 135.778 352.978 135.911 353.004 136.06C353.209 137.27 352.532 139.484 350.561 141.477C349.884 142.155 349.595 142.695 349.664 143.128C349.732 143.562 350.424 144.232 351.588 144.84C351.871 144.966 352.121 145.152 352.323 145.386C352.524 145.621 352.671 145.897 352.752 146.195C353.08 147.503 352.037 149.002 351.231 150.204C351.001 150.518 350.79 150.846 350.599 151.185C350.189 152.426 349.839 171.956 349.595 202.16C349.574 202.305 349.499 202.436 349.384 202.527C349.269 202.617 349.124 202.66 348.979 202.647Z" fill="#292929"/>
<path d="M270.478 149.147C270.333 149.147 270.194 149.092 270.088 148.993C269.982 148.894 269.917 148.759 269.908 148.614C269.506 142.722 268.795 136.856 267.777 131.039C267.759 130.964 267.756 130.886 267.768 130.81C267.781 130.734 267.809 130.661 267.85 130.596C267.892 130.531 267.946 130.475 268.01 130.431C268.073 130.388 268.145 130.357 268.221 130.343C268.297 130.328 268.375 130.328 268.45 130.344C268.526 130.36 268.597 130.392 268.66 130.436C268.723 130.481 268.777 130.537 268.817 130.603C268.858 130.669 268.884 130.742 268.896 130.818C269.921 136.683 270.637 142.598 271.041 148.538C271.046 148.613 271.037 148.688 271.013 148.759C270.989 148.831 270.951 148.896 270.901 148.953C270.852 149.009 270.792 149.056 270.724 149.089C270.657 149.122 270.584 149.142 270.509 149.147H270.478Z" fill="#292929"/>
<path d="M264.277 202.092H264.132C263.984 202.062 263.854 201.975 263.77 201.85C263.685 201.724 263.654 201.571 263.684 201.422C263.76 201.049 271.155 164.302 270.843 157.493C270.836 157.341 270.889 157.193 270.991 157.081C271.093 156.969 271.235 156.902 271.387 156.895C271.538 156.888 271.686 156.942 271.798 157.044C271.91 157.146 271.977 157.288 271.984 157.439C272.304 164.386 265.137 200.129 264.81 201.643C264.783 201.766 264.716 201.877 264.62 201.958C264.523 202.039 264.403 202.086 264.277 202.092Z" fill="#292929"/>
<path d="M320.631 111.03C320.528 111.03 320.427 111.002 320.338 110.95C320.25 110.897 320.177 110.822 320.128 110.731C320.079 110.641 320.055 110.539 320.059 110.436C320.063 110.333 320.095 110.233 320.151 110.147C320.745 109.258 321.087 108.225 321.14 107.157C321.149 107.006 321.216 106.864 321.329 106.762C321.442 106.661 321.59 106.609 321.742 106.617C321.893 106.625 322.035 106.693 322.136 106.805C322.237 106.918 322.29 107.067 322.282 107.218C322.22 108.489 321.815 109.719 321.11 110.779C321.057 110.857 320.986 110.921 320.902 110.964C320.818 111.008 320.725 111.031 320.631 111.03Z" fill="#292929"/>
<path d="M306.952 116.279C303.892 116.289 300.85 115.806 297.944 114.849C297.87 114.827 297.802 114.791 297.742 114.742C297.683 114.693 297.635 114.633 297.599 114.564C297.564 114.496 297.543 114.422 297.537 114.345C297.531 114.269 297.541 114.192 297.565 114.119C297.59 114.046 297.629 113.979 297.68 113.922C297.731 113.865 297.793 113.818 297.862 113.786C297.932 113.753 298.007 113.735 298.084 113.732C298.161 113.729 298.237 113.741 298.309 113.769C305.354 116.142 313.974 115.397 318.356 112.034C318.415 111.984 318.484 111.946 318.558 111.924C318.632 111.901 318.71 111.893 318.787 111.902C318.863 111.91 318.938 111.934 319.005 111.972C319.073 112.01 319.132 112.061 319.179 112.122C319.226 112.184 319.26 112.254 319.279 112.329C319.298 112.404 319.301 112.482 319.289 112.559C319.277 112.635 319.249 112.708 319.208 112.774C319.167 112.839 319.112 112.895 319.049 112.939C316.203 115.153 311.707 116.279 306.952 116.279Z" fill="#292929"/>
<path d="M293.25 112.521C293.138 112.519 293.03 112.485 292.938 112.422C290.984 111.164 289.353 109.465 288.175 107.461C288.099 107.33 288.079 107.174 288.118 107.028C288.157 106.882 288.253 106.757 288.384 106.682C288.515 106.606 288.671 106.585 288.818 106.625C288.964 106.664 289.088 106.76 289.164 106.891C290.255 108.736 291.764 110.3 293.569 111.456C293.67 111.524 293.746 111.623 293.787 111.738C293.827 111.853 293.829 111.978 293.794 112.095C293.758 112.211 293.686 112.313 293.588 112.386C293.49 112.458 293.372 112.498 293.25 112.498V112.521Z" fill="#292929"/>
<path d="M296.628 69.5042L292.679 73.9854C292.677 73.4465 292.646 72.9081 292.588 72.3725C292.253 70.5769 291.416 70.1509 290.069 69.4889C289.585 69.2524 289.122 68.9749 288.685 68.6597C292.101 71.0258 296.628 69.5042 296.628 69.5042Z" fill="#292929"/>
<path d="M292.686 74.594C292.537 74.5941 292.395 74.5361 292.288 74.4323C292.181 74.3286 292.119 74.1873 292.116 74.0386C292.114 73.5303 292.086 73.0224 292.032 72.517C291.75 70.9954 291.111 70.6834 289.825 70.052C289.311 69.8006 288.82 69.5053 288.357 69.1694C288.233 69.0826 288.148 68.9501 288.122 68.801C288.096 68.6519 288.13 68.4984 288.216 68.3744C288.303 68.2503 288.436 68.1657 288.585 68.1393C288.734 68.1129 288.887 68.1468 289.011 68.2336C292.138 70.3791 296.407 68.9944 296.445 68.9944C296.564 68.954 296.693 68.9542 296.813 68.995C296.932 69.0359 297.034 69.115 297.104 69.2201C297.173 69.3253 297.206 69.4505 297.197 69.5762C297.188 69.7019 297.137 69.821 297.053 69.915L293.105 74.3962C293.052 74.4566 292.988 74.5054 292.916 74.5395C292.844 74.5735 292.766 74.5921 292.686 74.594ZM292.473 70.5541C292.83 71.0815 293.063 71.682 293.158 72.3116C293.158 72.3801 293.158 72.4714 293.158 72.5855L295.022 70.4628C294.175 70.585 293.318 70.6156 292.465 70.5541H292.473Z" fill="#292929"/>
<path d="M319.931 91.507C312.148 91.507 305.726 88.2583 302.31 82.5902C302.233 82.4601 302.21 82.3044 302.247 82.1574C302.284 82.0105 302.378 81.8843 302.508 81.8066C302.638 81.7289 302.794 81.7061 302.941 81.7432C303.088 81.7803 303.214 81.8742 303.292 82.0044C305.179 85.1314 309.842 90.3734 319.931 90.3734C320.082 90.3734 320.227 90.4335 320.334 90.5405C320.441 90.6475 320.501 90.7927 320.501 90.944C320.501 91.0953 320.441 91.2405 320.334 91.3475C320.227 91.4545 320.082 91.5146 319.931 91.5146V91.507Z" fill="#292929"/>
<path d="M324.549 68.8042C323.439 68.7917 322.334 68.6538 321.255 68.3934C321.18 68.3786 321.108 68.3489 321.045 68.306C320.981 68.263 320.927 68.2077 320.885 68.1434C320.844 68.079 320.816 68.007 320.802 67.9315C320.789 67.856 320.791 67.7786 320.809 67.704C320.826 67.6294 320.858 67.559 320.904 67.4971C320.949 67.4352 321.006 67.383 321.072 67.3437C321.137 67.3043 321.21 67.2787 321.286 67.2682C321.362 67.2577 321.44 67.2626 321.513 67.2826C323.986 67.8684 326.269 67.7695 327.189 67.0391C327.32 66.9444 327.425 66.8195 327.497 66.675C327.568 66.5306 327.604 66.371 327.6 66.2098C327.6 65.8218 327.6 65.2055 327.547 64.4371C327.471 62.3525 327.357 59.2103 327.547 56.4181C327.594 54.8966 327.85 53.3888 328.308 51.9369C328.575 51.1692 329.003 50.4673 329.563 49.8782C330.123 49.2891 330.803 48.8263 331.556 48.5208C332.46 48.196 333.422 48.0667 334.38 48.1415C335.337 48.2163 336.268 48.4934 337.11 48.9545C337.864 49.3354 338.569 49.8054 339.21 50.3544C339.267 50.4044 339.314 50.465 339.347 50.533C339.381 50.6009 339.4 50.6748 339.405 50.7504C339.41 50.826 339.4 50.9018 339.376 50.9736C339.352 51.0453 339.313 51.1115 339.263 51.1685C339.213 51.2254 339.153 51.272 339.085 51.3055C339.017 51.339 338.943 51.3587 338.867 51.3637C338.792 51.3686 338.716 51.3586 338.644 51.3343C338.572 51.3099 338.506 51.2717 338.449 51.2217C337.878 50.7324 337.249 50.3135 336.578 49.974C335.879 49.5864 335.107 49.3507 334.311 49.2825C333.515 49.2144 332.714 49.3152 331.96 49.5784C331.356 49.8244 330.812 50.1969 330.365 50.6706C329.917 51.1444 329.576 51.7084 329.365 52.3249C328.952 53.6754 328.722 55.075 328.68 56.4866C328.513 59.2179 328.627 62.3297 328.68 64.3915C328.68 65.1523 328.734 65.8066 328.734 66.2098C328.737 66.5436 328.663 66.8737 328.516 67.1736C328.37 67.4735 328.155 67.7349 327.889 67.9369C326.898 68.5768 325.727 68.8808 324.549 68.8042Z" fill="#292929"/>
<path d="M336.837 49.4642C333.398 49.1903 328.818 53.177 328.11 56.4562C328.156 54.9903 328.397 53.5371 328.826 52.1347C329.982 49.0077 333.368 47.7296 336.837 49.4642Z" fill="#292929"/>
<path d="M328.11 57.0268H328.042C327.898 57.0078 327.768 56.9352 327.676 56.8236C327.584 56.7121 327.538 56.5699 327.547 56.4257C327.594 54.9042 327.85 53.3964 328.308 51.9445C328.575 51.1768 329.003 50.4749 329.563 49.8858C330.124 49.2967 330.803 48.8339 331.557 48.5284C332.46 48.2036 333.423 48.0744 334.38 48.1491C335.337 48.2239 336.268 48.501 337.11 48.9621C337.229 49.0209 337.324 49.1191 337.378 49.24C337.432 49.3609 337.443 49.4969 337.408 49.6246C337.373 49.7524 337.294 49.864 337.186 49.9402C337.077 50.0164 336.946 50.0526 336.814 50.0425C333.626 49.7838 329.32 53.664 328.696 56.5855C328.666 56.7162 328.59 56.832 328.483 56.9127C328.376 56.9934 328.244 57.0338 328.11 57.0268ZM333.725 49.2588C333.121 49.255 332.522 49.366 331.96 49.586C331.356 49.8321 330.813 50.2045 330.365 50.6782C329.918 51.152 329.577 51.7161 329.365 52.3325C329.258 52.631 329.169 52.9359 329.099 53.2455C330.44 51.4728 332.243 50.1039 334.311 49.2892C334.116 49.2686 333.921 49.2584 333.725 49.2588Z" fill="#292929"/>
<path d="M332.416 58.4571C333.24 58.4571 333.907 57.6464 333.907 56.6464C333.907 55.6463 333.24 54.8356 332.416 54.8356C331.592 54.8356 330.925 55.6463 330.925 56.6464C330.925 57.6464 331.592 58.4571 332.416 58.4571Z" fill="#292929"/>
<path d="M318.25 58.4571C319.074 58.4571 319.741 57.6464 319.741 56.6464C319.741 55.6463 319.074 54.8356 318.25 54.8356C317.426 54.8356 316.759 55.6463 316.759 56.6464C316.759 57.6464 317.426 58.4571 318.25 58.4571Z" fill="#292929"/>
<path d="M322.716 76.5037C320.863 76.5696 319.023 76.162 317.371 75.3193C315.719 74.4766 314.309 73.2267 313.274 71.6877C313.191 71.5606 313.163 71.4058 313.194 71.2574C313.225 71.109 313.314 70.9792 313.442 70.8965C313.569 70.8137 313.723 70.7849 313.872 70.8163C314.02 70.8477 314.15 70.9367 314.233 71.0638C316.127 73.9778 319.452 75.5374 323.363 75.3472C323.513 75.341 323.661 75.394 323.773 75.4949C323.886 75.5958 323.954 75.7367 323.964 75.8874C323.968 75.9624 323.957 76.0374 323.932 76.1082C323.907 76.179 323.868 76.2442 323.818 76.3C323.768 76.3559 323.707 76.4013 323.64 76.4336C323.572 76.4659 323.498 76.4846 323.423 76.4885L322.716 76.5037Z" fill="#292929"/>
<path d="M310.847 51.8304C310.73 51.8308 310.616 51.7953 310.52 51.7288C310.424 51.6623 310.351 51.5679 310.31 51.4583C310.269 51.3488 310.263 51.2295 310.293 51.1164C310.322 51.0034 310.385 50.902 310.474 50.8261C314.446 47.3872 319.551 46.984 323.172 49.8066C323.237 49.8503 323.293 49.9069 323.335 49.9729C323.377 50.0389 323.405 50.1128 323.417 50.1902C323.43 50.2675 323.426 50.3466 323.407 50.4225C323.387 50.4983 323.352 50.5693 323.304 50.6311C323.256 50.6929 323.195 50.7441 323.127 50.7815C323.058 50.8189 322.982 50.8418 322.904 50.8487C322.826 50.8555 322.747 50.8463 322.673 50.8214C322.599 50.7966 322.53 50.7568 322.472 50.7044C319.284 48.2241 314.765 48.6121 311.22 51.6858C311.117 51.778 310.985 51.8294 310.847 51.8304Z" fill="#292929"/>
<path d="M289.826 64.7262C289.681 64.7266 289.541 64.6717 289.435 64.5728C289.329 64.4739 289.265 64.3383 289.255 64.1937C289.195 63.5052 289.342 62.8144 289.677 62.2099C290.011 61.6053 290.519 61.1145 291.135 60.8004C291.87 60.4431 292.693 60.3075 293.503 60.4102C294.314 60.5129 295.077 60.8494 295.7 61.3786C295.758 61.4256 295.807 61.4836 295.843 61.5494C295.879 61.6151 295.901 61.6873 295.91 61.7619C295.918 61.8364 295.911 61.9118 295.89 61.9838C295.869 62.0557 295.834 62.1229 295.787 62.1813C295.74 62.2397 295.682 62.2884 295.616 62.3244C295.551 62.3604 295.478 62.3832 295.404 62.3913C295.329 62.3994 295.254 62.3928 295.182 62.3718C295.11 62.3507 295.043 62.3158 294.984 62.2688C294.537 61.8795 293.985 61.6295 293.397 61.5498C292.809 61.47 292.21 61.5639 291.675 61.8199C291.261 62.0308 290.919 62.3609 290.694 62.7676C290.469 63.1744 290.37 63.6393 290.412 64.1024C290.42 64.2525 290.369 64.3999 290.269 64.5124C290.17 64.625 290.029 64.6936 289.879 64.7034L289.826 64.7262Z" fill="#292929"/>
<path d="M190.965 120.281C192.351 120.281 193.476 119.157 193.476 117.77C193.476 116.384 192.351 115.26 190.965 115.26C189.578 115.26 188.454 116.384 188.454 117.77C188.454 119.157 189.578 120.281 190.965 120.281Z" fill="#97DE40"/>
<path d="M236.363 261.086C238.081 261.086 239.474 259.692 239.474 257.974C239.474 256.255 238.081 254.862 236.363 254.862C234.644 254.862 233.251 256.255 233.251 257.974C233.251 259.692 234.644 261.086 236.363 261.086Z" fill="#292929"/>
<path d="M29.6565 172.062C31.6188 172.062 33.2095 170.472 33.2095 168.509C33.2095 166.547 31.6188 164.956 29.6565 164.956C27.6943 164.956 26.1035 166.547 26.1035 168.509C26.1035 170.472 27.6943 172.062 29.6565 172.062Z" fill="#97DE40"/>
<path d="M190.463 28.4495C190.641 26.9008 189.53 25.501 187.981 25.3229C186.433 25.1448 185.033 26.2559 184.855 27.8045C184.677 29.3532 185.788 30.7531 187.336 30.9312C188.885 31.1093 190.285 29.9982 190.463 28.4495Z" fill="#292929"/>
<path d="M64.184 256.879L59.9824 261.08L64.184 265.282L68.3857 261.08L64.184 256.879Z" fill="#97DE40"/>
<path d="M47.4739 169.663L41.8682 175.268L47.4739 180.874L53.0797 175.268L47.4739 169.663Z" fill="#292929"/>
<path d="M215.486 12.6827L222.345 7.23851L216.901 0.379498L210.042 5.82369L215.486 12.6827Z" fill="#97DE40"/>
<path d="M233.061 220.236L226.869 214.044L220.677 220.236L226.869 226.428L233.061 220.236Z" fill="#97DE40"/>
<path d="M167.653 130.933L170.841 138.328L175.65 131.868L167.653 130.933Z" fill="#97DE40"/>
<path d="M66.9371 86.3867L61.7939 92.5798L69.7293 93.9416L66.9371 86.3867Z" fill="#97DE40"/>
<path d="M178.776 161.807L186.385 164.439L184.863 156.534L178.776 161.807Z" fill="#292929"/>
<path d="M359.106 92.7015C358.904 92.7015 358.71 92.6213 358.568 92.4787C358.425 92.336 358.345 92.1425 358.345 91.9407V88.38C358.345 88.1783 358.425 87.9847 358.568 87.8421C358.71 87.6994 358.904 87.6192 359.106 87.6192C359.307 87.6192 359.501 87.6994 359.644 87.8421C359.786 87.9847 359.866 88.1783 359.866 88.38V91.9407C359.866 92.1425 359.786 92.336 359.644 92.4787C359.501 92.6213 359.307 92.7015 359.106 92.7015Z" fill="#292929"/>
<path d="M359.106 85.6107C358.904 85.6107 358.71 85.5305 358.568 85.3878C358.425 85.2451 358.345 85.0516 358.345 84.8498V81.2892C358.345 81.0874 358.425 80.8939 358.568 80.7512C358.71 80.6086 358.904 80.5284 359.106 80.5284C359.307 80.5284 359.501 80.6086 359.644 80.7512C359.786 80.8939 359.866 81.0874 359.866 81.2892V84.8498C359.866 85.0516 359.786 85.2451 359.644 85.3878C359.501 85.5305 359.307 85.6107 359.106 85.6107Z" fill="#292929"/>
<path d="M357.341 87.3758H353.78C353.579 87.3758 353.385 87.2956 353.242 87.1529C353.1 87.0102 353.02 86.8167 353.02 86.615C353.02 86.4132 353.1 86.2197 353.242 86.077C353.385 85.9343 353.579 85.8541 353.78 85.8541H357.341C357.543 85.8541 357.736 85.9343 357.879 86.077C358.022 86.2197 358.102 86.4132 358.102 86.615C358.102 86.8167 358.022 87.0102 357.879 87.1529C357.736 87.2956 357.543 87.3758 357.341 87.3758Z" fill="#292929"/>
<path d="M364.432 87.3758H360.871C360.669 87.3758 360.476 87.2956 360.333 87.1529C360.19 87.0102 360.11 86.8167 360.11 86.615C360.11 86.4132 360.19 86.2197 360.333 86.077C360.476 85.9343 360.669 85.8541 360.871 85.8541H364.432C364.634 85.8541 364.827 85.9343 364.97 86.077C365.112 86.2197 365.193 86.4132 365.193 86.615C365.193 86.8167 365.112 87.0102 364.97 87.1529C364.827 87.2956 364.634 87.3758 364.432 87.3758Z" fill="#292929"/>
</svg>
