<svg width="460" height="245" viewBox="0 0 460 245" fill="none" xmlns="http://www.w3.org/2000/svg">
<path d="M97.1161 174.275C98.377 172.923 98.3031 170.804 96.9509 169.544C95.5988 168.283 93.4805 168.357 92.2196 169.709C90.9587 171.061 91.0327 173.179 92.3848 174.44C93.7369 175.701 95.8552 175.627 97.1161 174.275Z" fill="#97DE40"/>
<path d="M167.805 40.3412C170.423 40.3412 172.545 38.2191 172.545 35.6013C172.545 32.9836 170.423 30.8615 167.805 30.8615C165.188 30.8615 163.065 32.9836 163.065 35.6013C163.065 38.2191 165.188 40.3412 167.805 40.3412Z" fill="#97DE40"/>
<path d="M314.544 18.171C318.078 18.171 320.942 15.3063 320.942 11.7725C320.942 8.23872 318.078 5.37402 314.544 5.37402C311.01 5.37402 308.146 8.23872 308.146 11.7725C308.146 15.3063 311.01 18.171 314.544 18.171Z" fill="#97DE40"/>
<path d="M263.121 238.392L268.496 244.219L274.323 238.844L268.948 233.017L263.121 238.392Z" fill="#97DE40"/>
<path d="M96.8507 103.212L91.2832 107.664L95.7356 113.232L101.303 108.779L96.8507 103.212Z" fill="#292929"/>
<path d="M235.903 36.151L241.292 31.4844L236.625 26.0952L231.236 30.7618L235.903 36.151Z" fill="#97DE40"/>
<path d="M78.0254 235.184L85.083 225.879L75.7782 218.821L68.7206 228.126L78.0254 235.184Z" fill="#97DE40"/>
<path d="M341.639 181.452C345.337 181.193 348.125 177.986 347.866 174.288C347.607 170.591 344.4 167.803 340.702 168.062C337.004 168.321 334.217 171.528 334.476 175.226C334.734 178.923 337.942 181.711 341.639 181.452Z" fill="#97DE40"/>
<path d="M273.217 191.69L269.352 183.626L264.3 190.998L273.217 191.69Z" fill="#292929"/>
<path d="M313.304 82.072L302.972 79.1353L305.597 89.5584L313.304 82.072Z" fill="#292929"/>
<path d="M28.6055 203.856L27.7306 193.151L18.8975 199.261L28.6055 203.856Z" fill="#292929"/>
<path d="M348.088 42.0378V48.4743L321.977 63.4243L295.303 48.1319L303.588 38.4847L348.088 42.0378Z" fill="#292929"/>
<path d="M321.97 63.9951C321.871 63.9945 321.774 63.9683 321.688 63.919L295.022 48.6266C294.948 48.585 294.885 48.5279 294.837 48.4591C294.788 48.3903 294.756 48.3117 294.741 48.2288C294.726 48.1459 294.73 48.0608 294.753 47.9796C294.775 47.8984 294.815 47.8232 294.869 47.7592L303.155 38.1197C303.215 38.0534 303.289 38.0014 303.372 37.9672C303.455 37.933 303.545 37.9175 303.634 37.9219L348.127 41.4749C348.27 41.4864 348.404 41.5515 348.501 41.6573C348.598 41.7631 348.652 41.9017 348.652 42.0455V48.482C348.651 48.5826 348.624 48.6813 348.574 48.7682C348.523 48.855 348.45 48.9269 348.363 48.9765L322.251 63.9266C322.165 63.9729 322.068 63.9965 321.97 63.9951ZM296.186 47.9799L321.977 62.7702L347.518 48.1472V42.5705L303.832 39.1087L296.186 47.9799Z" fill="#292929"/>
<path d="M395.426 109.538C379.449 118.941 357.15 118.667 341.91 108.876L321.482 95.6983L376.307 63.4548L396.735 76.6322C412.02 86.5 411.449 100.119 395.426 109.538ZM381.169 100.347C389.302 95.5689 389.72 89.1781 382.249 84.3697L376.444 80.6265L349.283 96.6037L355.088 100.347C362.567 105.14 373.081 105.094 381.169 100.339V100.347Z" fill="#FAF7F2"/>
<path d="M369.049 117.047C359.264 117.047 349.549 114.475 341.606 109.347L321.163 96.17C321.079 96.119 321.01 96.0474 320.963 95.9622C320.915 95.8769 320.89 95.7808 320.89 95.683C320.89 95.5853 320.915 95.4892 320.963 95.4039C321.01 95.3186 321.079 95.2471 321.163 95.1961L375.987 62.9679C376.077 62.9111 376.181 62.881 376.288 62.881C376.394 62.881 376.498 62.9111 376.588 62.9679L397.016 76.1452C404.465 80.946 408.497 86.926 408.368 92.9898C408.238 99.2285 403.734 105.277 395.685 110.009C387.583 114.666 378.393 117.094 369.049 117.047ZM322.57 95.7439L342.222 108.419C357.149 118.043 379.403 118.31 395.137 109.073C402.829 104.547 407.135 98.848 407.257 93.0202C407.371 87.3673 403.529 81.7373 396.423 77.1571L376.292 64.1396L322.57 95.7439ZM367.892 104.524C363.259 104.571 358.709 103.288 354.783 100.826L348.978 97.083C348.895 97.032 348.826 96.9604 348.778 96.8752C348.73 96.7899 348.705 96.6938 348.705 96.596C348.705 96.4983 348.73 96.4021 348.778 96.3169C348.826 96.2316 348.895 96.1601 348.978 96.1091L376.139 80.1319C376.229 80.0752 376.334 80.045 376.44 80.045C376.546 80.045 376.65 80.0752 376.74 80.1319L382.545 83.8752C386.266 86.2717 388.198 89.1172 388.13 92.0996C388.061 95.2798 385.749 98.3079 381.442 100.834C377.329 103.231 372.653 104.494 367.892 104.493V104.524ZM350.393 96.6188L355.422 99.8599C362.696 104.554 372.921 104.554 380.91 99.8599C384.858 97.5394 386.996 94.8461 386.996 92.0844C387.05 89.5204 385.3 87.0173 381.929 84.8414L376.421 81.2884L350.393 96.6188Z" fill="#292929"/>
<path d="M423.379 132.682L427.883 117.785L398.386 112.17L402.578 133.724L423.379 132.682Z" fill="#97DE40"/>
<path d="M402.57 134.295C402.437 134.295 402.308 134.249 402.205 134.164C402.102 134.079 402.032 133.961 402.007 133.83L397.815 112.277C397.798 112.185 397.804 112.091 397.832 112.002C397.86 111.913 397.909 111.832 397.975 111.767C398.04 111.7 398.121 111.65 398.21 111.623C398.299 111.595 398.393 111.589 398.485 111.607L427.982 117.222C428.065 117.236 428.143 117.268 428.212 117.315C428.282 117.363 428.339 117.426 428.381 117.498C428.424 117.571 428.449 117.652 428.456 117.736C428.463 117.82 428.452 117.904 428.423 117.983L423.919 132.879C423.885 132.992 423.817 133.091 423.724 133.163C423.631 133.235 423.519 133.277 423.402 133.283L402.608 134.333L402.57 134.295ZM399.109 112.908L403.05 133.153L422.953 132.149L427.152 118.234L399.109 112.908Z" fill="#292929"/>
<path d="M148.031 14.656L126.241 2.39924C123.419 0.778699 119.348 1.00695 114.609 3.42635L91.3428 15.2875V78.0321L139.852 71.8619L148.031 14.656Z" fill="#292929"/>
<path d="M91.3275 78.6179C91.1761 78.6179 91.031 78.5578 90.924 78.4508C90.817 78.3438 90.7568 78.1986 90.7568 78.0473V15.3027C90.7566 15.1972 90.7857 15.0937 90.8407 15.0037C90.8958 14.9137 90.9747 14.8408 91.0688 14.7929L114.335 2.93179C119.029 0.535214 123.297 0.154811 126.378 1.84383C126.426 1.85497 126.472 1.8729 126.515 1.89708L148.313 14.1538C148.412 14.2108 148.492 14.2964 148.543 14.3995C148.593 14.5027 148.611 14.6186 148.594 14.7321L140.393 71.9531C140.375 72.0774 140.317 72.1924 140.228 72.2804C140.138 72.3684 140.023 72.4245 139.898 72.4401L91.3959 78.6179H91.3275ZM91.8981 15.6527V77.4006L139.327 71.3673L147.407 14.9603L126.104 2.96223C126.054 2.95157 126.005 2.93363 125.96 2.90896C123.213 1.33407 119.28 1.70687 114.867 3.95128L91.8981 15.6527Z" fill="#292929"/>
<path d="M39.9349 170.022L16.1517 183.626L15.9463 182.804V162.46L35.3015 151.382L39.9349 170.022Z" fill="#FAF7F2"/>
<path d="M16.1517 184.197C16.0733 184.197 15.9957 184.181 15.9235 184.151C15.8427 184.116 15.7711 184.063 15.7144 183.995C15.6576 183.928 15.6172 183.848 15.5963 183.763L15.3909 182.903C15.3853 182.858 15.3853 182.812 15.3909 182.766V162.46C15.3912 162.359 15.4181 162.261 15.4689 162.174C15.5197 162.087 15.5925 162.015 15.68 161.966L35.0352 150.88C35.1118 150.837 35.1974 150.811 35.2854 150.806C35.3735 150.801 35.4615 150.816 35.5426 150.851C35.6237 150.886 35.6956 150.939 35.7528 151.006C35.81 151.073 35.8508 151.152 35.8721 151.238L40.5131 169.878C40.5424 169.999 40.5315 170.126 40.4821 170.24C40.4326 170.354 40.3474 170.448 40.2392 170.509L16.4332 184.121C16.3476 184.17 16.2506 184.196 16.1517 184.197ZM16.5169 182.736L39.273 169.726L34.9211 152.227L16.5093 162.772L16.5169 182.736Z" fill="#292929"/>
<path d="M307.073 176.117L292.792 184.212C292.572 184.333 292.359 184.463 292.146 184.6C286.409 188.023 283.609 192.079 283.609 196.21C283.609 200.858 287.155 205.598 294.093 209.593C302.519 214.308 312.171 216.371 321.787 215.512V184.6L307.073 176.117Z" fill="#292929"/>
<path d="M317.663 216.257C309.301 216.294 301.072 214.168 293.773 210.087C286.827 206.085 283.008 201.155 283.008 196.21C283.008 191.736 286.051 187.552 291.818 184.113C292.031 183.984 292.252 183.847 292.488 183.717L306.761 175.622C306.846 175.573 306.943 175.548 307.042 175.548C307.141 175.548 307.238 175.573 307.324 175.622L322.038 184.105C322.125 184.155 322.198 184.227 322.249 184.314C322.3 184.4 322.327 184.499 322.327 184.6V215.512C322.327 215.654 322.275 215.792 322.179 215.898C322.083 216.003 321.951 216.069 321.809 216.082C320.455 216.197 319.063 216.257 317.663 216.257ZM307.072 176.771L293.081 184.706C292.86 184.828 292.655 184.957 292.45 185.079C287.04 188.305 284.187 192.147 284.187 196.202C284.187 200.729 287.809 205.332 294.382 209.098C302.557 213.654 311.893 215.7 321.224 214.979V184.927L307.072 176.771Z" fill="#292929"/>
<path d="M352.722 202.441V227.434L338.441 235.529C336.85 236.424 335.195 237.2 333.489 237.849C323.598 241.654 311.6 241.585 301.199 237.849C298.736 236.977 296.358 235.882 294.093 234.578C287.155 230.576 283.609 225.844 283.609 221.195V196.21C283.618 194.869 283.906 193.545 284.454 192.322C284.514 192.186 284.583 192.054 284.659 191.926C284.714 191.785 284.782 191.65 284.865 191.523C284.979 191.303 285.108 191.09 285.238 190.877C285.367 190.664 285.504 190.473 285.641 190.276C285.876 189.939 286.13 189.616 286.402 189.309C286.577 189.096 286.759 188.891 286.949 188.693C287.14 188.495 287.406 188.214 287.649 187.985C287.893 187.757 288.053 187.59 288.281 187.407C288.354 187.333 288.433 187.265 288.517 187.202C288.752 186.996 288.996 186.799 289.277 186.601C289.513 186.418 289.757 186.228 290.038 186.053C290.32 185.878 290.799 185.528 291.172 185.292C291.545 185.056 291.849 184.858 292.207 184.645C292.42 184.516 292.633 184.379 292.853 184.257L307.134 176.162L321.848 184.645L307.841 192.588C305.042 194.171 303.771 196.027 303.992 197.838C303.982 197.909 303.982 197.98 303.992 198.051C304.005 198.154 304.028 198.256 304.06 198.355C304.082 198.441 304.11 198.525 304.144 198.606C304.265 198.94 304.429 199.257 304.631 199.55C304.692 199.648 304.761 199.743 304.836 199.831C305.027 200.082 305.238 200.316 305.468 200.531C305.615 200.679 305.77 200.818 305.932 200.95C306.137 201.125 306.35 201.285 306.578 201.444C306.807 201.604 307.164 201.84 307.499 202.03C308.693 202.707 309.972 203.218 311.303 203.552C311.615 203.635 311.942 203.704 312.269 203.765C312.391 203.765 312.52 203.818 312.657 203.833C312.931 203.887 313.198 203.925 313.471 203.955C317.108 204.416 320.797 203.704 324.001 201.924L338.008 193.981L352.722 202.441Z" fill="#292929"/>
<path d="M317.617 241.243C311.959 241.249 306.341 240.284 301.009 238.39C298.514 237.507 296.105 236.399 293.811 235.08C286.865 231.078 283.046 226.148 283.046 221.203V196.21C283.055 194.791 283.358 193.39 283.936 192.094C284.005 191.949 284.065 191.812 284.149 191.675C284.213 191.516 284.292 191.363 284.385 191.219C284.476 191.029 284.613 190.808 284.75 190.587C284.887 190.367 285.047 190.131 285.191 189.933C285.426 189.587 285.68 189.254 285.952 188.936C286.12 188.723 286.317 188.51 286.515 188.297C286.713 188.084 286.979 187.81 287.238 187.537L287.352 187.422C287.527 187.255 287.702 187.08 287.9 186.928C287.978 186.848 288.062 186.774 288.151 186.707C288.349 186.532 288.592 186.334 288.836 186.144L288.881 186.099C289.155 185.878 289.399 185.695 289.642 185.528C289.886 185.361 290.403 184.995 290.791 184.767C291.179 184.539 291.476 184.326 291.841 184.105C292.054 183.976 292.275 183.831 292.51 183.71L306.783 175.615C306.869 175.566 306.966 175.54 307.065 175.54C307.164 175.54 307.261 175.566 307.346 175.615L322.061 184.098C322.148 184.148 322.22 184.22 322.27 184.307C322.32 184.393 322.347 184.492 322.347 184.592C322.347 184.692 322.32 184.791 322.27 184.878C322.22 184.965 322.148 185.037 322.061 185.087L308.054 193.03C305.558 194.437 304.296 196.073 304.493 197.709C304.493 197.709 304.493 197.899 304.493 197.937C304.503 198.002 304.518 198.065 304.539 198.127C304.556 198.202 304.579 198.276 304.607 198.348C304.714 198.639 304.857 198.915 305.034 199.169C305.081 199.249 305.135 199.325 305.193 199.398C305.375 199.637 305.576 199.861 305.794 200.067C305.931 200.204 306.076 200.334 306.228 200.455C306.38 200.577 306.624 200.775 306.844 200.927C307.129 201.129 307.423 201.317 307.727 201.49C308.872 202.161 310.103 202.673 311.386 203.012C311.691 203.088 312.003 203.156 312.315 203.217L312.665 203.285C312.961 203.339 313.212 203.377 313.471 203.407C316.998 203.861 320.577 203.17 323.681 201.437L337.688 193.494C337.774 193.445 337.871 193.419 337.969 193.419C338.068 193.419 338.165 193.445 338.251 193.494L353.011 201.924C353.098 201.973 353.171 202.045 353.222 202.132C353.273 202.219 353.299 202.318 353.3 202.418V227.411C353.299 227.512 353.273 227.61 353.222 227.697C353.171 227.784 353.098 227.856 353.011 227.906L338.73 236.001C337.115 236.91 335.434 237.699 333.701 238.359C328.561 240.294 323.11 241.272 317.617 241.243ZM289.619 187.012L289.574 187.05C289.33 187.232 289.094 187.43 288.874 187.628C288.802 187.682 288.733 187.74 288.668 187.803C288.455 187.978 288.303 188.13 288.151 188.275L288.029 188.389C287.793 188.609 287.573 188.838 287.36 189.073C287.147 189.309 286.995 189.461 286.835 189.667C286.579 189.962 286.34 190.272 286.12 190.595C285.975 190.785 285.853 190.975 285.732 191.166C285.61 191.356 285.481 191.576 285.374 191.774C285.304 191.882 285.246 191.997 285.199 192.117C285.185 192.154 285.167 192.19 285.146 192.223C285.083 192.331 285.028 192.443 284.978 192.558C284.477 193.708 284.218 194.948 284.218 196.202V221.195C284.218 225.722 287.839 230.325 294.413 234.083C296.646 235.368 298.991 236.448 301.42 237.309C311.767 241.022 323.689 241.022 333.313 237.309C334.993 236.671 336.623 235.908 338.19 235.027L352.181 227.091V202.745L338.038 194.589L324.343 202.372C321.026 204.225 317.201 204.964 313.433 204.48C313.151 204.48 312.878 204.404 312.588 204.351C312.436 204.351 312.299 204.305 312.17 204.275C311.866 204.221 311.531 204.145 311.204 204.062C309.821 203.711 308.493 203.173 307.255 202.464C306.898 202.258 306.578 202.053 306.289 201.848C306 201.642 305.817 201.505 305.604 201.323C305.391 201.14 305.262 201.033 305.102 200.874C304.853 200.64 304.624 200.385 304.417 200.113C304.348 200.031 304.284 199.945 304.227 199.854C303.985 199.508 303.788 199.132 303.641 198.736C303.601 198.632 303.568 198.525 303.542 198.416C303.509 198.312 303.483 198.205 303.466 198.097C303.441 197.992 303.428 197.885 303.428 197.777C303.177 195.753 304.638 193.684 307.567 192.033L320.706 184.577L307.141 176.756L293.15 184.691C292.929 184.813 292.724 184.942 292.518 185.064C292.16 185.277 291.826 185.482 291.499 185.703C291.171 185.924 290.738 186.213 290.388 186.464C290.038 186.715 289.924 186.799 289.718 186.966L289.619 187.012Z" fill="#292929"/>
<path d="M338.007 193.958L324.001 201.924C320.791 203.711 317.093 204.426 313.448 203.963C313.174 203.963 312.9 203.894 312.634 203.841C312.505 203.841 312.368 203.803 312.246 203.772C311.919 203.712 311.599 203.643 311.28 203.559C309.949 203.226 308.669 202.714 307.476 202.038C307.141 201.848 306.837 201.65 306.555 201.452C306.274 201.254 306.106 201.125 305.908 200.957C305.745 200.828 305.589 200.689 305.444 200.539C305.214 200.324 305.003 200.09 304.813 199.839C304.739 199.749 304.67 199.655 304.607 199.557C304.406 199.265 304.242 198.948 304.12 198.614C304.088 198.532 304.06 198.448 304.037 198.363C304.004 198.264 303.981 198.162 303.968 198.059C303.958 197.988 303.958 197.916 303.968 197.846C303.748 196.042 305.011 194.178 307.818 192.596L321.825 184.653L307.11 176.17L292.83 184.265C292.609 184.387 292.396 184.516 292.183 184.653C291.826 184.866 291.483 185.079 291.148 185.3C290.814 185.52 290.388 185.817 290.015 186.061C289.642 186.304 289.52 186.426 289.254 186.608C289.003 186.799 288.76 187.004 288.493 187.209C288.41 187.272 288.331 187.341 288.257 187.415C288.037 187.597 287.831 187.803 287.626 187.993C287.42 188.183 287.147 188.457 286.926 188.701C286.705 188.944 286.553 189.104 286.378 189.317C286.106 189.624 285.852 189.947 285.617 190.283C285.473 190.473 285.343 190.679 285.214 190.884C285.085 191.09 284.948 191.31 284.841 191.531C284.759 191.658 284.69 191.793 284.636 191.934C284.559 192.062 284.491 192.194 284.43 192.33C283.882 193.553 283.594 194.877 283.586 196.217C283.586 200.866 287.131 205.606 294.07 209.6C307.392 217.284 325.56 217.84 338.418 210.544L352.699 202.449L338.007 193.958Z" fill="#FAF7F2"/>
<path d="M317.602 216.242C309.26 216.292 301.048 214.171 293.773 210.087C286.827 206.085 283.008 201.155 283.008 196.21C283.017 194.791 283.32 193.39 283.898 192.094C283.966 191.949 284.027 191.812 284.111 191.675C284.175 191.516 284.254 191.363 284.347 191.219C284.438 191.029 284.575 190.808 284.712 190.587C284.849 190.367 285.009 190.131 285.153 189.933C285.388 189.587 285.642 189.254 285.914 188.936C286.082 188.723 286.279 188.51 286.477 188.297C286.675 188.084 286.941 187.81 287.2 187.537L287.314 187.422C287.489 187.255 287.664 187.08 287.862 186.928C287.94 186.848 288.024 186.774 288.113 186.707C288.311 186.532 288.554 186.334 288.798 186.144L288.843 186.099C289.117 185.878 289.361 185.695 289.604 185.528C289.848 185.361 290.365 184.995 290.753 184.767C291.141 184.539 291.438 184.326 291.803 184.105C292.016 183.976 292.237 183.831 292.472 183.71L306.745 175.615C306.831 175.566 306.928 175.54 307.027 175.54C307.125 175.54 307.222 175.566 307.308 175.615L322.023 184.098C322.109 184.148 322.182 184.22 322.232 184.307C322.282 184.393 322.308 184.492 322.308 184.592C322.308 184.692 322.282 184.791 322.232 184.878C322.182 184.965 322.109 185.037 322.023 185.087L308.016 193.03C305.52 194.437 304.257 196.073 304.455 197.709C304.455 197.709 304.455 197.899 304.455 197.937C304.465 198.002 304.48 198.065 304.501 198.127C304.52 198.202 304.542 198.276 304.569 198.348C304.676 198.639 304.819 198.915 304.995 199.169C305.051 199.257 305.112 199.341 305.178 199.421C305.35 199.649 305.541 199.863 305.749 200.06C305.88 200.193 306.02 200.317 306.167 200.432C306.38 200.615 306.578 200.76 306.799 200.912C307.083 201.114 307.378 201.302 307.681 201.475C308.826 202.146 310.057 202.658 311.341 202.996C311.645 203.072 311.957 203.141 312.269 203.202L312.619 203.27C312.908 203.324 313.167 203.362 313.425 203.392C316.952 203.846 320.531 203.155 323.635 201.421L337.642 193.479C337.728 193.43 337.825 193.404 337.924 193.404C338.022 193.404 338.119 193.43 338.205 193.479L353.011 201.924C353.098 201.974 353.17 202.046 353.22 202.133C353.27 202.219 353.297 202.318 353.297 202.418C353.297 202.518 353.27 202.617 353.22 202.704C353.17 202.791 353.098 202.863 353.011 202.913L338.722 211.053C332.242 214.561 324.97 216.348 317.602 216.242ZM289.612 187.012L289.566 187.05C289.323 187.232 289.087 187.43 288.866 187.628C288.794 187.682 288.725 187.74 288.661 187.803C288.448 187.978 288.295 188.13 288.143 188.275L288.022 188.389C287.786 188.609 287.565 188.838 287.352 189.073C287.139 189.309 286.987 189.461 286.827 189.667C286.571 189.962 286.332 190.272 286.112 190.595C285.967 190.785 285.846 190.975 285.724 191.166C285.602 191.356 285.473 191.576 285.366 191.774C285.297 191.882 285.238 191.997 285.191 192.117C285.178 192.154 285.16 192.19 285.138 192.223C285.076 192.331 285.02 192.443 284.971 192.558C284.469 193.708 284.211 194.948 284.21 196.202C284.21 200.729 287.831 205.332 294.405 209.098C307.673 216.752 325.682 217.14 338.19 210.042L351.603 202.433L338.038 194.612L324.343 202.395C321.026 204.248 317.201 204.987 313.433 204.503C313.151 204.503 312.862 204.427 312.588 204.373C312.444 204.373 312.299 204.328 312.17 204.297C311.866 204.244 311.531 204.168 311.204 204.084C309.821 203.733 308.493 203.196 307.255 202.487C306.897 202.281 306.578 202.076 306.289 201.87C306 201.665 305.817 201.528 305.604 201.345C305.427 201.207 305.259 201.057 305.102 200.897C304.853 200.663 304.624 200.408 304.417 200.136C304.332 200.031 304.253 199.922 304.181 199.809C303.957 199.483 303.776 199.13 303.641 198.759C303.603 198.659 303.57 198.557 303.542 198.454C303.508 198.345 303.483 198.233 303.466 198.12C303.441 198.015 303.428 197.908 303.428 197.8C303.177 195.776 304.638 193.707 307.567 192.056L320.706 184.6L307.141 176.779L293.149 184.714C292.929 184.836 292.723 184.965 292.518 185.087C292.16 185.3 291.826 185.505 291.499 185.726C291.171 185.946 290.738 186.236 290.388 186.487C290.038 186.738 289.924 186.821 289.718 186.989L289.612 187.012Z" fill="#292929"/>
<path d="M164.054 209.098V226.802L149.165 235.179L134.275 226.802V209.098H164.054Z" fill="#292929"/>
<path d="M149.165 235.749C149.066 235.749 148.969 235.723 148.883 235.673L133.994 227.304C133.907 227.255 133.834 227.183 133.783 227.096C133.732 227.009 133.705 226.91 133.705 226.81V209.098C133.705 208.947 133.765 208.801 133.872 208.694C133.979 208.587 134.124 208.527 134.276 208.527H164.054C164.205 208.527 164.351 208.587 164.458 208.694C164.565 208.801 164.625 208.947 164.625 209.098V226.802C164.624 226.903 164.597 227.002 164.547 227.088C164.496 227.175 164.423 227.247 164.336 227.297L149.446 235.666C149.361 235.718 149.264 235.747 149.165 235.749ZM134.846 226.475L149.165 234.524L163.483 226.475V209.669H134.846V226.475Z" fill="#292929"/>
<path d="M164.054 209.098V226.802L149.165 235.179V217.467L149.69 209.098H164.054Z" fill="#97DE40"/>
<path d="M149.165 235.749C149.014 235.749 148.869 235.689 148.762 235.582C148.655 235.475 148.595 235.33 148.595 235.179V217.467L149.12 209.06C149.129 208.915 149.194 208.78 149.3 208.681C149.406 208.582 149.545 208.527 149.69 208.527H164.055C164.206 208.527 164.351 208.587 164.458 208.694C164.565 208.801 164.625 208.947 164.625 209.098V226.802C164.625 226.903 164.598 227.002 164.547 227.088C164.496 227.175 164.424 227.247 164.336 227.297L149.447 235.666C149.362 235.718 149.265 235.747 149.165 235.749ZM150.23 209.669L149.736 217.505V234.205L163.484 226.475V209.669H150.23Z" fill="#292929"/>
<path d="M315.084 128.954L189.062 201.109L104.33 152.516L96.2881 147.913L222.325 75.7572L230.359 80.3601L315.084 128.954Z" fill="#FAF7F2"/>
<path d="M189.062 201.68C188.963 201.68 188.866 201.653 188.781 201.604L96.0066 148.408C95.9197 148.358 95.8475 148.286 95.7973 148.199C95.7471 148.112 95.7207 148.013 95.7207 147.913C95.7207 147.813 95.7471 147.714 95.7973 147.628C95.8475 147.541 95.9197 147.469 96.0066 147.419L222.044 75.2627C222.13 75.2126 222.229 75.1863 222.329 75.1863C222.429 75.1863 222.528 75.2126 222.614 75.2627L315.373 128.459C315.46 128.509 315.532 128.581 315.582 128.668C315.633 128.755 315.659 128.853 315.659 128.954C315.659 129.054 315.633 129.152 315.582 129.239C315.532 129.326 315.46 129.398 315.373 129.448L189.344 201.604C189.258 201.653 189.161 201.68 189.062 201.68ZM97.437 147.906L189.055 200.448L313.928 128.931L222.325 76.3887L97.437 147.906Z" fill="#292929"/>
<path d="M190.843 172.541C190.744 172.54 190.647 172.514 190.561 172.465L187.693 170.821C187.628 170.784 187.571 170.734 187.525 170.675C187.48 170.615 187.446 170.547 187.427 170.475C187.407 170.402 187.402 170.327 187.412 170.253C187.422 170.178 187.446 170.106 187.484 170.042C187.521 169.977 187.571 169.92 187.63 169.874C187.69 169.828 187.758 169.795 187.83 169.775C187.903 169.756 187.978 169.751 188.053 169.761C188.127 169.771 188.199 169.795 188.264 169.832L190.843 171.316L190.995 171.232C191.125 171.17 191.274 171.16 191.411 171.203C191.548 171.247 191.664 171.34 191.735 171.465C191.807 171.591 191.828 171.738 191.795 171.878C191.762 172.018 191.677 172.141 191.558 172.221L191.124 172.472C191.038 172.519 190.941 172.543 190.843 172.541ZM194.578 170.403C194.453 170.402 194.331 170.36 194.232 170.283C194.133 170.207 194.062 170.099 194.03 169.978C193.998 169.857 194.007 169.728 194.055 169.613C194.103 169.497 194.188 169.4 194.297 169.338L197.599 167.451C197.664 167.414 197.735 167.389 197.81 167.379C197.884 167.37 197.96 167.375 198.032 167.394C198.104 167.413 198.172 167.447 198.232 167.493C198.291 167.538 198.341 167.595 198.379 167.66C198.416 167.725 198.44 167.797 198.45 167.871C198.46 167.945 198.455 168.021 198.435 168.093C198.416 168.166 198.383 168.234 198.337 168.293C198.291 168.353 198.234 168.403 198.169 168.44L194.867 170.327C194.779 170.377 194.68 170.404 194.578 170.403ZM184.688 169.003C184.589 169.002 184.492 168.976 184.406 168.927L181.104 167.033C181.039 166.995 180.982 166.945 180.937 166.886C180.891 166.826 180.858 166.758 180.838 166.686C180.819 166.614 180.814 166.538 180.823 166.464C180.833 166.389 180.858 166.318 180.895 166.253C180.932 166.188 180.982 166.131 181.042 166.085C181.101 166.039 181.169 166.006 181.242 165.987C181.314 165.967 181.39 165.962 181.464 165.972C181.538 165.982 181.61 166.006 181.675 166.043L184.977 167.938C185.085 168 185.171 168.097 185.219 168.213C185.267 168.329 185.276 168.457 185.244 168.578C185.212 168.699 185.141 168.807 185.042 168.884C184.942 168.96 184.821 169.002 184.695 169.003H184.688ZM201.19 166.622C201.064 166.621 200.943 166.579 200.844 166.502C200.744 166.425 200.673 166.318 200.641 166.197C200.609 166.076 200.618 165.947 200.666 165.831C200.715 165.716 200.8 165.619 200.908 165.557L204.21 163.67C204.335 163.63 204.47 163.635 204.592 163.683C204.714 163.731 204.816 163.819 204.88 163.934C204.945 164.048 204.968 164.181 204.945 164.31C204.923 164.44 204.857 164.557 204.758 164.644L201.456 166.53C201.374 166.583 201.28 166.615 201.182 166.622H201.19ZM178.084 165.222C177.985 165.221 177.888 165.195 177.802 165.146L174.5 163.251C174.435 163.214 174.378 163.164 174.333 163.104C174.287 163.045 174.254 162.977 174.234 162.905C174.215 162.832 174.21 162.757 174.22 162.682C174.229 162.608 174.254 162.536 174.291 162.471C174.329 162.406 174.378 162.35 174.438 162.304C174.497 162.258 174.565 162.225 174.638 162.205C174.71 162.186 174.786 162.181 174.86 162.191C174.934 162.2 175.006 162.225 175.071 162.262L178.373 164.157C178.482 164.219 178.567 164.316 178.615 164.432C178.663 164.547 178.672 164.676 178.64 164.797C178.608 164.918 178.537 165.026 178.438 165.102C178.338 165.179 178.217 165.221 178.091 165.222H178.084ZM207.756 162.84C207.63 162.84 207.509 162.798 207.409 162.721C207.31 162.644 207.239 162.537 207.207 162.416C207.175 162.294 207.184 162.166 207.232 162.05C207.28 161.934 207.365 161.838 207.474 161.775L210.776 159.888C210.841 159.851 210.913 159.827 210.987 159.817C211.061 159.807 211.137 159.812 211.209 159.832C211.282 159.851 211.35 159.884 211.409 159.93C211.469 159.976 211.518 160.033 211.556 160.098C211.593 160.163 211.618 160.234 211.627 160.309C211.637 160.383 211.632 160.459 211.613 160.531C211.593 160.603 211.56 160.671 211.514 160.731C211.469 160.79 211.412 160.84 211.347 160.878L208.045 162.764C207.971 162.81 207.888 162.839 207.801 162.848L207.756 162.84ZM171.449 161.433C171.351 161.432 171.254 161.406 171.168 161.357L167.866 159.462C167.801 159.425 167.744 159.375 167.698 159.316C167.653 159.256 167.619 159.188 167.6 159.116C167.58 159.043 167.575 158.968 167.585 158.894C167.595 158.819 167.619 158.748 167.657 158.683C167.694 158.618 167.744 158.561 167.804 158.515C167.863 158.469 167.931 158.436 168.003 158.416C168.076 158.397 168.151 158.392 168.226 158.402C168.3 158.412 168.372 158.436 168.437 158.473L171.739 160.368C171.847 160.43 171.932 160.527 171.981 160.643C172.029 160.758 172.038 160.887 172.006 161.008C171.974 161.129 171.902 161.237 171.803 161.313C171.704 161.39 171.582 161.432 171.457 161.433H171.449ZM214.36 159.059C214.234 159.058 214.112 159.016 214.013 158.94C213.914 158.863 213.843 158.756 213.811 158.634C213.779 158.513 213.788 158.385 213.836 158.269C213.884 158.153 213.969 158.057 214.078 157.994L217.38 156.107C217.511 156.032 217.667 156.011 217.813 156.05C217.959 156.09 218.084 156.185 218.16 156.316C218.235 156.448 218.256 156.603 218.217 156.75C218.177 156.896 218.082 157.021 217.951 157.096L214.649 158.991C214.57 159.036 214.481 159.062 214.39 159.067L214.36 159.059ZM164.846 157.652C164.747 157.651 164.65 157.625 164.564 157.576L161.262 155.681C161.197 155.644 161.14 155.594 161.095 155.534C161.049 155.475 161.015 155.407 160.996 155.335C160.977 155.262 160.972 155.187 160.981 155.112C160.991 155.038 161.015 154.966 161.053 154.901C161.09 154.836 161.14 154.779 161.2 154.734C161.259 154.688 161.327 154.655 161.399 154.635C161.472 154.616 161.547 154.611 161.622 154.621C161.696 154.63 161.768 154.655 161.833 154.692L165.135 156.587C165.243 156.649 165.328 156.746 165.377 156.861C165.425 156.977 165.434 157.106 165.402 157.227C165.37 157.348 165.299 157.455 165.199 157.532C165.1 157.609 164.979 157.651 164.853 157.652H164.846ZM220.963 155.278C220.838 155.277 220.716 155.235 220.617 155.158C220.518 155.082 220.447 154.974 220.415 154.853C220.383 154.732 220.392 154.603 220.44 154.488C220.488 154.372 220.573 154.275 220.682 154.213L223.984 152.326C224.115 152.25 224.271 152.23 224.417 152.269C224.563 152.308 224.688 152.404 224.764 152.535C224.839 152.666 224.86 152.822 224.821 152.968C224.781 153.115 224.686 153.239 224.554 153.315L221.253 155.202C221.174 155.25 221.086 155.279 220.994 155.286L220.963 155.278ZM158.249 153.863C158.15 153.862 158.053 153.836 157.968 153.787L154.666 151.892C154.601 151.855 154.544 151.805 154.498 151.745C154.453 151.686 154.419 151.618 154.4 151.546C154.38 151.473 154.375 151.398 154.385 151.323C154.395 151.249 154.419 151.177 154.457 151.112C154.494 151.047 154.544 150.991 154.603 150.945C154.663 150.899 154.731 150.866 154.803 150.846C154.876 150.827 154.951 150.822 155.025 150.832C155.1 150.841 155.171 150.866 155.236 150.903L158.538 152.798C158.647 152.86 158.732 152.957 158.78 153.073C158.829 153.188 158.837 153.317 158.805 153.438C158.773 153.559 158.702 153.667 158.603 153.743C158.504 153.82 158.382 153.862 158.257 153.863H158.249ZM227.583 151.504C227.457 151.504 227.335 151.462 227.236 151.385C227.137 151.308 227.066 151.201 227.034 151.079C227.002 150.958 227.011 150.83 227.059 150.714C227.107 150.598 227.192 150.502 227.301 150.439L230.603 148.552C230.668 148.515 230.74 148.491 230.814 148.481C230.888 148.471 230.964 148.476 231.036 148.495C231.109 148.515 231.177 148.548 231.236 148.594C231.295 148.64 231.345 148.697 231.383 148.761C231.42 148.826 231.445 148.898 231.454 148.972C231.464 149.047 231.459 149.122 231.44 149.195C231.42 149.267 231.387 149.335 231.341 149.394C231.295 149.454 231.239 149.504 231.174 149.541L227.872 151.428C227.784 151.479 227.684 151.505 227.583 151.504ZM151.668 150.082C151.569 150.081 151.472 150.055 151.387 150.005L148.085 148.111C148.02 148.074 147.963 148.024 147.917 147.964C147.872 147.905 147.838 147.837 147.819 147.764C147.799 147.692 147.794 147.616 147.804 147.542C147.814 147.468 147.838 147.396 147.875 147.331C147.913 147.266 147.963 147.209 148.022 147.164C148.082 147.118 148.15 147.084 148.222 147.065C148.295 147.046 148.37 147.041 148.444 147.05C148.519 147.06 148.59 147.084 148.655 147.122L151.957 149.016C152.066 149.079 152.151 149.176 152.199 149.291C152.248 149.407 152.256 149.535 152.224 149.657C152.192 149.778 152.121 149.885 152.022 149.962C151.923 150.039 151.801 150.081 151.676 150.082H151.668ZM234.186 147.723C234.061 147.722 233.939 147.68 233.84 147.604C233.741 147.527 233.67 147.419 233.638 147.298C233.606 147.177 233.615 147.049 233.663 146.933C233.711 146.817 233.796 146.72 233.905 146.658L237.207 144.771C237.272 144.734 237.343 144.709 237.418 144.699C237.492 144.69 237.568 144.695 237.64 144.714C237.713 144.734 237.78 144.767 237.84 144.813C237.899 144.858 237.949 144.915 237.987 144.98C238.024 145.045 238.049 145.117 238.058 145.191C238.068 145.266 238.063 145.341 238.044 145.413C238.024 145.486 237.991 145.554 237.945 145.613C237.899 145.673 237.842 145.723 237.777 145.76L234.476 147.647C234.39 147.696 234.293 147.722 234.194 147.723H234.186ZM145.064 146.3C144.965 146.3 144.868 146.273 144.783 146.224L144.265 145.927C144.179 145.877 144.106 145.805 144.056 145.719C144.006 145.632 143.979 145.533 143.979 145.433C143.979 145.333 144.006 145.234 144.056 145.147C144.106 145.06 144.179 144.988 144.265 144.938L147.05 143.348C147.115 143.311 147.187 143.287 147.261 143.277C147.335 143.267 147.411 143.272 147.483 143.291C147.556 143.311 147.624 143.344 147.683 143.39C147.743 143.436 147.792 143.493 147.83 143.558C147.867 143.622 147.892 143.694 147.901 143.768C147.911 143.843 147.906 143.918 147.887 143.991C147.867 144.063 147.834 144.131 147.788 144.191C147.743 144.25 147.686 144.3 147.621 144.337L145.597 145.501C145.636 145.588 145.653 145.683 145.646 145.778C145.64 145.873 145.609 145.965 145.558 146.045C145.506 146.126 145.435 146.192 145.352 146.237C145.268 146.283 145.175 146.307 145.08 146.308L145.064 146.3ZM240.79 143.942C240.665 143.941 240.543 143.899 240.444 143.822C240.345 143.745 240.274 143.638 240.242 143.517C240.21 143.396 240.219 143.267 240.267 143.152C240.315 143.036 240.4 142.939 240.509 142.877L243.811 140.99C243.876 140.952 243.947 140.928 244.022 140.918C244.096 140.908 244.172 140.913 244.244 140.933C244.316 140.952 244.384 140.986 244.444 141.031C244.503 141.077 244.553 141.134 244.591 141.199C244.628 141.264 244.652 141.336 244.662 141.41C244.672 141.484 244.667 141.56 244.647 141.632C244.628 141.705 244.595 141.773 244.549 141.832C244.503 141.891 244.446 141.941 244.381 141.979L241.079 143.866C240.994 143.917 240.897 143.946 240.798 143.949L240.79 143.942ZM150.633 142.519C150.508 142.518 150.386 142.476 150.287 142.4C150.188 142.323 150.117 142.215 150.085 142.094C150.053 141.973 150.062 141.845 150.11 141.729C150.158 141.613 150.243 141.516 150.352 141.454L153.654 139.567C153.785 139.491 153.941 139.471 154.087 139.51C154.233 139.549 154.358 139.645 154.434 139.776C154.509 139.907 154.53 140.063 154.491 140.209C154.451 140.356 154.356 140.48 154.225 140.556L150.923 142.443C150.837 142.492 150.74 142.518 150.641 142.519H150.633ZM247.394 140.16C247.269 140.16 247.147 140.118 247.048 140.041C246.949 139.964 246.878 139.857 246.846 139.736C246.814 139.614 246.822 139.486 246.871 139.37C246.919 139.255 247.004 139.158 247.113 139.095L250.415 137.208C250.546 137.133 250.702 137.112 250.848 137.152C250.994 137.191 251.119 137.287 251.195 137.418C251.27 137.549 251.291 137.705 251.251 137.851C251.212 137.997 251.116 138.122 250.985 138.198L247.683 140.084C247.598 140.136 247.501 140.165 247.402 140.168L247.394 140.16ZM157.245 138.776C157.12 138.775 156.998 138.733 156.899 138.656C156.8 138.58 156.729 138.472 156.696 138.351C156.664 138.23 156.673 138.101 156.721 137.986C156.77 137.87 156.855 137.773 156.963 137.711L160.265 135.816C160.397 135.741 160.552 135.72 160.699 135.759C160.845 135.799 160.97 135.894 161.045 136.025C161.121 136.157 161.141 136.312 161.102 136.459C161.063 136.605 160.967 136.73 160.836 136.805L157.534 138.7C157.446 138.75 157.346 138.777 157.245 138.776ZM254.006 136.417C253.88 136.417 253.759 136.375 253.659 136.298C253.56 136.221 253.489 136.114 253.457 135.992C253.425 135.871 253.434 135.743 253.482 135.627C253.53 135.511 253.616 135.415 253.724 135.352L256.159 133.96L255.976 133.853C255.845 133.778 255.749 133.653 255.71 133.507C255.671 133.36 255.691 133.205 255.767 133.073C255.843 132.942 255.967 132.847 256.114 132.807C256.26 132.768 256.416 132.789 256.547 132.864L257.597 133.465C257.684 133.515 257.756 133.587 257.806 133.674C257.856 133.761 257.883 133.86 257.883 133.96C257.883 134.06 257.856 134.159 257.806 134.245C257.756 134.332 257.684 134.404 257.597 134.454L254.295 136.341C254.204 136.381 254.104 136.397 254.006 136.387V136.417ZM163.849 134.972C163.723 134.971 163.602 134.929 163.503 134.852C163.403 134.775 163.332 134.668 163.3 134.547C163.268 134.426 163.277 134.297 163.325 134.181C163.374 134.066 163.459 133.969 163.567 133.907L166.869 132.02C166.934 131.982 167.006 131.958 167.08 131.948C167.155 131.938 167.23 131.943 167.303 131.963C167.375 131.982 167.443 132.016 167.502 132.061C167.562 132.107 167.612 132.164 167.649 132.229C167.687 132.294 167.711 132.366 167.721 132.44C167.73 132.514 167.725 132.59 167.706 132.662C167.687 132.735 167.653 132.802 167.607 132.862C167.562 132.921 167.505 132.971 167.44 133.009L164.138 134.896C164.05 134.946 163.95 134.972 163.849 134.972ZM252.963 132.012C252.865 132.012 252.768 131.985 252.682 131.936L249.38 130.042C249.249 129.966 249.153 129.841 249.114 129.695C249.075 129.549 249.095 129.393 249.171 129.262C249.246 129.131 249.371 129.035 249.517 128.996C249.664 128.956 249.819 128.977 249.951 129.053L253.253 130.947C253.361 131.01 253.446 131.106 253.495 131.222C253.543 131.338 253.552 131.466 253.52 131.587C253.487 131.709 253.416 131.816 253.317 131.893C253.218 131.969 253.096 132.011 252.971 132.012H252.963ZM170.453 131.168C170.327 131.167 170.206 131.125 170.107 131.048C170.007 130.971 169.936 130.864 169.904 130.743C169.872 130.622 169.881 130.493 169.929 130.377C169.978 130.262 170.063 130.165 170.171 130.102L173.473 128.216C173.538 128.178 173.61 128.154 173.684 128.144C173.759 128.134 173.834 128.139 173.906 128.159C173.979 128.178 174.047 128.212 174.106 128.257C174.166 128.303 174.216 128.36 174.253 128.425C174.291 128.49 174.315 128.561 174.325 128.636C174.334 128.71 174.329 128.786 174.31 128.858C174.291 128.931 174.257 128.998 174.211 129.058C174.166 129.117 174.109 129.167 174.044 129.205L170.742 131.092C170.654 131.142 170.554 131.168 170.453 131.168ZM246.367 128.2C246.268 128.2 246.171 128.174 246.086 128.124L242.799 126.253C242.668 126.177 242.572 126.052 242.533 125.906C242.494 125.76 242.514 125.604 242.59 125.473C242.665 125.342 242.79 125.246 242.936 125.207C243.082 125.168 243.238 125.188 243.369 125.264L246.671 127.158C246.78 127.221 246.865 127.317 246.913 127.433C246.962 127.549 246.97 127.677 246.938 127.798C246.906 127.92 246.835 128.027 246.736 128.104C246.637 128.181 246.515 128.223 246.39 128.223L246.367 128.2ZM177.057 127.386C176.931 127.386 176.81 127.344 176.71 127.267C176.611 127.19 176.54 127.083 176.508 126.962C176.476 126.84 176.485 126.712 176.533 126.596C176.581 126.48 176.666 126.384 176.775 126.321L180.077 124.434C180.142 124.397 180.214 124.373 180.288 124.363C180.362 124.353 180.438 124.358 180.51 124.377C180.583 124.397 180.651 124.43 180.71 124.476C180.77 124.522 180.819 124.579 180.857 124.644C180.894 124.709 180.919 124.78 180.928 124.855C180.938 124.929 180.933 125.004 180.914 125.077C180.894 125.149 180.861 125.217 180.815 125.277C180.77 125.336 180.713 125.386 180.648 125.423L177.369 127.364C177.268 127.407 177.157 127.42 177.049 127.402L177.057 127.386ZM239.763 124.419C239.664 124.419 239.567 124.392 239.482 124.343L236.18 122.449C236.049 122.373 235.953 122.248 235.914 122.102C235.874 121.956 235.895 121.8 235.971 121.669C236.046 121.538 236.171 121.442 236.317 121.403C236.463 121.363 236.619 121.384 236.75 121.46L240.052 123.354C240.161 123.417 240.246 123.513 240.294 123.629C240.343 123.745 240.351 123.873 240.319 123.994C240.287 124.116 240.216 124.223 240.117 124.3C240.018 124.376 239.896 124.418 239.771 124.419H239.763ZM183.653 123.613C183.528 123.612 183.406 123.57 183.307 123.493C183.208 123.416 183.136 123.309 183.104 123.188C183.072 123.067 183.081 122.938 183.129 122.822C183.178 122.707 183.263 122.61 183.371 122.548L186.673 120.661C186.738 120.623 186.81 120.599 186.884 120.589C186.959 120.579 187.034 120.584 187.107 120.604C187.179 120.623 187.247 120.657 187.306 120.702C187.366 120.748 187.416 120.805 187.453 120.87C187.491 120.935 187.515 121.007 187.525 121.081C187.535 121.155 187.53 121.231 187.51 121.303C187.491 121.376 187.457 121.443 187.412 121.503C187.366 121.562 187.309 121.612 187.244 121.65L183.934 123.559C183.847 123.603 183.75 123.624 183.653 123.62V123.613ZM233.159 120.638C233.06 120.637 232.963 120.611 232.878 120.562L229.576 118.667C229.511 118.63 229.454 118.58 229.408 118.521C229.363 118.461 229.329 118.393 229.31 118.321C229.29 118.248 229.285 118.173 229.295 118.099C229.305 118.024 229.329 117.952 229.367 117.888C229.404 117.823 229.454 117.766 229.513 117.72C229.573 117.674 229.641 117.641 229.713 117.621C229.786 117.602 229.861 117.597 229.936 117.607C230.01 117.617 230.082 117.641 230.146 117.678L233.448 119.573C233.557 119.635 233.642 119.732 233.69 119.848C233.739 119.963 233.747 120.092 233.715 120.213C233.683 120.334 233.612 120.442 233.513 120.518C233.414 120.595 233.292 120.637 233.167 120.638H233.159ZM190.257 119.831C190.131 119.831 190.01 119.789 189.911 119.712C189.811 119.635 189.74 119.528 189.708 119.407C189.676 119.285 189.685 119.157 189.733 119.041C189.782 118.925 189.867 118.829 189.975 118.766L193.277 116.879C193.408 116.804 193.564 116.783 193.711 116.823C193.857 116.862 193.981 116.958 194.057 117.089C194.133 117.22 194.153 117.376 194.114 117.522C194.075 117.668 193.979 117.793 193.848 117.869L190.538 119.755C190.453 119.807 190.356 119.836 190.257 119.839V119.831ZM226.563 116.849C226.464 116.848 226.367 116.822 226.282 116.773L223.018 114.894C222.886 114.818 222.791 114.693 222.752 114.547C222.712 114.401 222.733 114.245 222.808 114.114C222.884 113.983 223.009 113.887 223.155 113.848C223.301 113.809 223.457 113.829 223.588 113.905L226.89 115.799C226.999 115.862 227.084 115.958 227.132 116.074C227.18 116.19 227.189 116.318 227.157 116.439C227.125 116.561 227.054 116.668 226.955 116.745C226.856 116.822 226.734 116.864 226.609 116.864L226.563 116.849ZM196.891 116.088C196.766 116.087 196.644 116.046 196.545 115.969C196.446 115.892 196.375 115.785 196.343 115.663C196.311 115.542 196.319 115.414 196.368 115.298C196.416 115.182 196.501 115.086 196.61 115.023L199.912 113.136C199.977 113.099 200.048 113.074 200.123 113.065C200.197 113.055 200.272 113.06 200.345 113.079C200.417 113.099 200.485 113.132 200.545 113.178C200.604 113.224 200.654 113.281 200.691 113.345C200.729 113.41 200.753 113.482 200.763 113.556C200.773 113.631 200.768 113.706 200.748 113.779C200.729 113.851 200.695 113.919 200.65 113.978C200.604 114.038 200.547 114.088 200.482 114.125L197.15 115.951C197.065 116.012 196.965 116.049 196.861 116.058L196.891 116.088ZM219.974 113.075C219.876 113.075 219.779 113.049 219.693 112.999L216.391 111.105C216.26 111.029 216.164 110.905 216.125 110.758C216.086 110.612 216.106 110.456 216.182 110.325C216.257 110.194 216.382 110.098 216.528 110.059C216.675 110.02 216.83 110.04 216.962 110.116L220.263 112.01C220.372 112.073 220.457 112.169 220.505 112.285C220.554 112.401 220.563 112.529 220.53 112.651C220.498 112.772 220.427 112.879 220.328 112.956C220.229 113.033 220.107 113.075 219.982 113.075H219.974ZM203.472 112.315C203.347 112.314 203.225 112.272 203.126 112.195C203.027 112.118 202.956 112.011 202.924 111.89C202.892 111.769 202.9 111.64 202.949 111.524C202.997 111.409 203.082 111.312 203.191 111.249L206.493 109.363C206.558 109.325 206.629 109.301 206.704 109.291C206.778 109.281 206.854 109.286 206.926 109.306C206.998 109.325 207.066 109.359 207.126 109.404C207.185 109.45 207.235 109.507 207.273 109.572C207.31 109.637 207.334 109.708 207.344 109.783C207.354 109.857 207.349 109.933 207.329 110.005C207.31 110.077 207.276 110.145 207.231 110.205C207.185 110.264 207.128 110.314 207.063 110.352L203.761 112.238C203.668 112.28 203.566 112.296 203.465 112.284L203.472 112.315ZM213.363 109.325C213.264 109.324 213.167 109.298 213.081 109.248L211.027 108.069L210.342 108.457C210.277 108.495 210.206 108.519 210.131 108.529C210.057 108.538 209.982 108.534 209.909 108.514C209.837 108.495 209.769 108.461 209.709 108.415C209.65 108.37 209.6 108.313 209.563 108.248C209.525 108.183 209.501 108.111 209.491 108.037C209.481 107.963 209.486 107.887 209.506 107.815C209.525 107.742 209.559 107.674 209.604 107.615C209.65 107.556 209.707 107.506 209.772 107.468L210.738 106.913C210.825 106.863 210.923 106.836 211.023 106.836C211.123 106.836 211.222 106.863 211.309 106.913L213.644 108.252C213.753 108.314 213.838 108.411 213.886 108.527C213.935 108.642 213.943 108.771 213.911 108.892C213.879 109.013 213.808 109.121 213.709 109.197C213.61 109.274 213.488 109.316 213.363 109.317V109.325Z" fill="#292929"/>
<path d="M230.359 80.3601L104.33 152.516L96.2881 147.913L222.325 75.7572L230.359 80.3601Z" fill="#FAF7F2"/>
<path d="M104.33 153.087C104.231 153.086 104.134 153.06 104.049 153.011L96.0145 148.4C95.9275 148.35 95.8553 148.278 95.8051 148.191C95.7549 148.104 95.7285 148.006 95.7285 147.906C95.7285 147.805 95.7549 147.707 95.8051 147.62C95.8553 147.533 95.9275 147.461 96.0145 147.411L222.051 75.2552C222.138 75.2051 222.237 75.1787 222.337 75.1787C222.437 75.1787 222.535 75.2051 222.622 75.2552L230.626 79.8657C230.713 79.9158 230.785 79.9878 230.835 80.0746C230.885 80.1614 230.912 80.26 230.912 80.3602C230.912 80.4605 230.885 80.559 230.835 80.6459C230.785 80.7327 230.713 80.8047 230.626 80.8548L104.612 153.011C104.526 153.06 104.429 153.086 104.33 153.087ZM97.4372 147.906L104.33 151.862L229.218 80.345L222.325 76.3888L97.4372 147.906Z" fill="#292929"/>
<path d="M161.506 146.209C161.362 146.208 161.225 146.154 161.12 146.057C161.015 145.96 160.95 145.827 160.938 145.684C160.927 145.541 160.969 145.4 161.058 145.287C161.146 145.174 161.273 145.099 161.414 145.075L171.465 143.409L173.565 137.323C173.614 137.179 173.718 137.062 173.855 136.995C173.991 136.929 174.148 136.919 174.291 136.969C174.434 137.018 174.552 137.123 174.618 137.259C174.685 137.395 174.694 137.552 174.645 137.695L172.431 144.101C172.398 144.2 172.338 144.287 172.259 144.354C172.18 144.421 172.084 144.465 171.982 144.482L161.597 146.201L161.506 146.209Z" fill="#292929"/>
<path d="M192.394 164.012C192.334 164.022 192.272 164.022 192.212 164.012C192.136 163.988 192.067 163.949 192.007 163.897C191.947 163.845 191.899 163.782 191.866 163.71C191.832 163.639 191.814 163.561 191.812 163.482C191.81 163.403 191.824 163.324 191.854 163.251L194.068 156.822C194.101 156.724 194.161 156.637 194.24 156.57C194.319 156.503 194.415 156.459 194.517 156.442L204.894 154.753C205.044 154.728 205.197 154.763 205.32 154.851C205.444 154.938 205.527 155.071 205.553 155.221C205.578 155.37 205.543 155.523 205.455 155.647C205.367 155.77 205.234 155.854 205.085 155.879L195.034 157.545L192.934 163.632C192.895 163.743 192.822 163.84 192.725 163.908C192.628 163.976 192.513 164.012 192.394 164.012Z" fill="#292929"/>
<path d="M194.601 157.583C194.502 157.583 194.405 157.557 194.319 157.507L171.609 144.421C171.544 144.383 171.487 144.334 171.441 144.274C171.396 144.215 171.362 144.147 171.343 144.074C171.323 144.002 171.318 143.926 171.328 143.852C171.338 143.778 171.362 143.706 171.4 143.641C171.437 143.576 171.487 143.519 171.546 143.474C171.606 143.428 171.674 143.394 171.746 143.375C171.819 143.356 171.894 143.351 171.969 143.36C172.043 143.37 172.115 143.394 172.179 143.432L194.867 156.518C194.976 156.58 195.061 156.677 195.109 156.793C195.157 156.909 195.166 157.037 195.134 157.158C195.102 157.28 195.031 157.387 194.932 157.464C194.833 157.54 194.711 157.582 194.586 157.583H194.601Z" fill="#292929"/>
<path d="M183.972 156.602C183.849 156.602 183.729 156.563 183.63 156.489C183.531 156.415 183.458 156.312 183.423 156.194C183.388 156.075 183.392 155.949 183.435 155.833C183.478 155.717 183.557 155.619 183.66 155.552L192.075 150.112C192.202 150.039 192.352 150.018 192.494 150.053C192.636 150.088 192.759 150.176 192.838 150.299C192.917 150.422 192.946 150.57 192.918 150.714C192.891 150.857 192.81 150.985 192.691 151.07L184.277 156.51C184.186 156.569 184.08 156.601 183.972 156.602Z" fill="#292929"/>
<path d="M42.1787 108.244L18.4336 121.84L37.6899 132.887L61.4502 119.291L42.1787 108.244Z" fill="#292929"/>
<path d="M37.6975 133.45C37.5987 133.449 37.5017 133.423 37.416 133.374L18.1522 122.319C18.0652 122.269 17.993 122.197 17.9428 122.11C17.8926 122.024 17.8662 121.925 17.8662 121.825C17.8662 121.724 17.8926 121.626 17.9428 121.539C17.993 121.452 18.0652 121.38 18.1522 121.33L41.8973 107.734C41.984 107.684 42.0824 107.658 42.1826 107.658C42.2827 107.658 42.3811 107.684 42.4679 107.734L61.7242 118.797C61.8111 118.847 61.8833 118.919 61.9335 119.006C61.9837 119.092 62.0101 119.191 62.0101 119.291C62.0101 119.392 61.9837 119.49 61.9335 119.577C61.8833 119.664 61.8111 119.736 61.7242 119.786L37.9638 133.389C37.8812 133.43 37.7899 133.451 37.6975 133.45ZM19.5825 121.825L37.6975 132.218L60.309 119.284L42.1864 108.891L19.5825 121.825Z" fill="#292929"/>
<path d="M348.088 42.0378L321.977 56.9879L295.303 41.6954L321.414 26.7454L348.088 42.0378Z" fill="#FAF7F2"/>
<path d="M321.969 57.5585C321.871 57.558 321.774 57.5317 321.688 57.4824L295.021 42.19C294.934 42.14 294.862 42.0679 294.812 41.9811C294.762 41.8943 294.735 41.7958 294.735 41.6955C294.735 41.5952 294.762 41.4967 294.812 41.4099C294.862 41.323 294.934 41.251 295.021 41.201L321.163 26.2509C321.25 26.2008 321.348 26.1744 321.448 26.1744C321.548 26.1744 321.647 26.2008 321.734 26.2509L348.4 41.5433C348.487 41.5933 348.559 41.6654 348.61 41.7522C348.66 41.839 348.686 41.9376 348.686 42.0379C348.686 42.1381 348.66 42.2367 348.61 42.3235C348.559 42.4103 348.487 42.4823 348.4 42.5324L322.289 57.4824C322.192 57.5382 322.081 57.5646 321.969 57.5585ZM296.452 41.6955L321.977 56.3336L346.939 42.0379L321.414 27.3997L296.452 41.6955Z" fill="#292929"/>
<path d="M321.642 93.7505L318.036 95.8199L321.741 97.9502L325.348 95.8808L321.642 93.7505Z" fill="#292929"/>
<path d="M321.741 98.5209C321.643 98.5203 321.546 98.4941 321.46 98.4448L317.755 96.3145C317.668 96.2645 317.596 96.1924 317.545 96.1056C317.495 96.0188 317.469 95.9203 317.469 95.82C317.469 95.7197 317.495 95.6212 317.545 95.5343C317.596 95.4475 317.668 95.3755 317.755 95.3254L321.361 93.256C321.448 93.2059 321.546 93.1796 321.646 93.1796C321.746 93.1796 321.845 93.2059 321.932 93.256L325.637 95.3863C325.724 95.4363 325.796 95.5084 325.846 95.5952C325.896 95.682 325.923 95.7805 325.923 95.8808C325.923 95.9811 325.896 96.0796 325.846 96.1665C325.796 96.2533 325.724 96.3253 325.637 96.3754L322.03 98.4524C321.942 98.5003 321.842 98.524 321.741 98.5209ZM319.185 95.82L321.741 97.2883L324.199 95.8808L321.642 94.4125L319.185 95.82Z" fill="#292929"/>
<path d="M376.39 61.3702L372.776 63.4397L376.482 65.57L380.095 63.5005L376.39 61.3702Z" fill="#292929"/>
<path d="M376.482 66.1405C376.383 66.1399 376.286 66.1137 376.2 66.0644L372.495 63.9341C372.408 63.8841 372.336 63.812 372.286 63.7252C372.235 63.6384 372.209 63.5399 372.209 63.4396C372.209 63.3393 372.235 63.2408 372.286 63.154C372.336 63.0672 372.408 62.9951 372.495 62.9451L376.101 60.8756C376.188 60.8256 376.286 60.7992 376.387 60.7992C376.487 60.7992 376.585 60.8256 376.672 60.8756L380.377 63.0059C380.464 63.056 380.536 63.128 380.586 63.2148C380.636 63.3017 380.663 63.4002 380.663 63.5005C380.663 63.6007 380.636 63.6993 380.586 63.7861C380.536 63.8729 380.464 63.945 380.377 63.995L376.771 66.0644C376.683 66.115 376.583 66.1413 376.482 66.1405ZM373.925 63.4548L376.482 64.9232L378.939 63.5157L376.383 62.0473L373.925 63.4548Z" fill="#292929"/>
<path d="M395.434 107.072L391.828 109.134L395.533 111.264L399.14 109.203L395.434 107.072Z" fill="#292929"/>
<path d="M395.532 111.835C395.434 111.835 395.337 111.808 395.251 111.759L391.546 109.629C391.459 109.579 391.387 109.507 391.336 109.42C391.286 109.333 391.26 109.235 391.26 109.134C391.26 109.034 391.286 108.935 391.336 108.849C391.387 108.762 391.459 108.69 391.546 108.64L395.152 106.57C395.239 106.52 395.337 106.494 395.437 106.494C395.537 106.494 395.636 106.52 395.723 106.57L399.428 108.701C399.515 108.751 399.587 108.823 399.637 108.91C399.687 108.996 399.714 109.095 399.714 109.195C399.714 109.295 399.687 109.394 399.637 109.481C399.587 109.568 399.515 109.64 399.428 109.69L395.822 111.759C395.734 111.81 395.634 111.836 395.532 111.835ZM392.976 109.104L395.532 110.572L397.99 109.165L395.433 107.696L392.976 109.104Z" fill="#292929"/>
<path d="M144.509 143.295L140.902 145.357L144.608 147.487L148.214 145.425L144.509 143.295Z" fill="#292929"/>
<path d="M144.608 148.058C144.509 148.057 144.412 148.031 144.326 147.982L140.621 145.851C140.534 145.801 140.462 145.729 140.412 145.642C140.361 145.556 140.335 145.457 140.335 145.357C140.335 145.257 140.361 145.158 140.412 145.071C140.462 144.984 140.534 144.912 140.621 144.862L144.227 142.793C144.314 142.742 144.412 142.715 144.512 142.715C144.613 142.715 144.711 142.742 144.798 142.793L148.503 144.923C148.59 144.973 148.662 145.045 148.712 145.132C148.762 145.219 148.789 145.317 148.789 145.418C148.789 145.518 148.762 145.616 148.712 145.703C148.662 145.79 148.59 145.862 148.503 145.912L144.897 147.982C144.809 148.032 144.709 148.059 144.608 148.058ZM142.051 145.357L144.608 146.825L147.065 145.418L144.509 143.949L142.051 145.357Z" fill="#292929"/>
<path d="M210.935 105.277L207.329 107.346L211.034 109.477L214.641 107.407L210.935 105.277Z" fill="#292929"/>
<path d="M211.034 110.047C210.936 110.047 210.839 110.02 210.753 109.971L207.048 107.841C206.961 107.791 206.889 107.719 206.838 107.632C206.788 107.545 206.762 107.447 206.762 107.346C206.762 107.246 206.788 107.147 206.838 107.061C206.889 106.974 206.961 106.902 207.048 106.852L210.654 104.782C210.74 104.732 210.839 104.705 210.939 104.705C211.04 104.705 211.138 104.732 211.225 104.782L214.93 106.913C215.017 106.963 215.089 107.035 215.139 107.122C215.189 107.208 215.216 107.307 215.216 107.407C215.216 107.507 215.189 107.606 215.139 107.693C215.089 107.78 215.017 107.852 214.93 107.902L211.323 109.971C211.236 110.022 211.136 110.048 211.034 110.047ZM208.478 107.346L211.034 108.815L213.492 107.407L210.935 105.939L208.478 107.346Z" fill="#292929"/>
<path d="M190.896 169.878L187.29 171.94L190.995 174.07L194.601 172.001L190.896 169.878Z" fill="#292929"/>
<path d="M190.995 174.641C190.896 174.64 190.799 174.614 190.714 174.565L187.009 172.434C186.922 172.384 186.849 172.312 186.799 172.225C186.749 172.139 186.723 172.04 186.723 171.94C186.723 171.839 186.749 171.741 186.799 171.654C186.849 171.567 186.922 171.495 187.009 171.445L190.615 169.376C190.702 169.326 190.8 169.299 190.9 169.299C191 169.299 191.099 169.326 191.185 169.376L194.868 171.491C194.955 171.541 195.027 171.613 195.077 171.7C195.127 171.787 195.154 171.885 195.154 171.985C195.154 172.086 195.127 172.184 195.077 172.271C195.027 172.358 194.955 172.43 194.868 172.48L191.277 174.534C191.194 174.594 191.097 174.631 190.995 174.641ZM188.439 171.94L190.995 173.408L193.453 172.001L190.896 170.532L188.439 171.94Z" fill="#292929"/>
<path d="M257.255 131.822L253.648 133.891L257.354 136.014L260.967 133.952L257.255 131.822Z" fill="#292929"/>
<path d="M257.354 136.585C257.255 136.584 257.158 136.558 257.072 136.509L253.367 134.378C253.28 134.328 253.208 134.256 253.158 134.169C253.107 134.082 253.081 133.984 253.081 133.884C253.081 133.783 253.107 133.685 253.158 133.598C253.208 133.511 253.28 133.439 253.367 133.389L256.973 131.32C257.06 131.27 257.158 131.243 257.259 131.243C257.359 131.243 257.457 131.27 257.544 131.32L261.249 133.45C261.336 133.5 261.408 133.572 261.458 133.659C261.509 133.746 261.535 133.844 261.535 133.945C261.535 134.045 261.509 134.143 261.458 134.23C261.408 134.317 261.336 134.389 261.249 134.439L257.643 136.493C257.556 136.549 257.457 136.581 257.354 136.585ZM254.797 133.884L257.354 135.352L259.811 133.945L257.255 132.476L254.797 133.884Z" fill="#292929"/>
<path d="M107.327 146.384C108.233 146.924 108.324 147.731 107.525 148.187C107.043 148.404 106.516 148.505 105.987 148.481C105.459 148.457 104.943 148.31 104.482 148.05C103.576 147.51 103.485 146.703 104.284 146.247C104.767 146.03 105.293 145.929 105.822 145.953C106.351 145.977 106.866 146.124 107.327 146.384Z" fill="#FAF7F2"/>
<path d="M106.194 149.031C105.48 149.038 104.777 148.857 104.155 148.506C103.866 148.365 103.62 148.15 103.441 147.883C103.262 147.616 103.157 147.306 103.136 146.985C103.149 146.718 103.233 146.459 103.379 146.234C103.524 146.01 103.727 145.828 103.965 145.707C104.541 145.433 105.175 145.304 105.813 145.329C106.45 145.354 107.072 145.533 107.625 145.851C107.913 145.993 108.16 146.208 108.339 146.475C108.518 146.742 108.623 147.052 108.644 147.373C108.63 147.64 108.547 147.899 108.401 148.123C108.255 148.348 108.053 148.53 107.815 148.651C107.316 148.915 106.758 149.046 106.194 149.031ZM105.57 146.475C105.212 146.462 104.856 146.541 104.536 146.703C104.46 146.749 104.277 146.863 104.277 147C104.277 147.137 104.399 147.32 104.741 147.525C105.12 147.737 105.543 147.86 105.977 147.884C106.411 147.908 106.844 147.832 107.244 147.662C107.32 147.616 107.503 147.502 107.503 147.365C107.503 147.228 107.381 147.046 107.039 146.84C106.59 146.592 106.084 146.463 105.57 146.467V146.475Z" fill="#292929"/>
<path d="M112.555 143.341C113.46 143.881 113.552 144.687 112.753 145.144C112.27 145.361 111.743 145.462 111.215 145.438C110.686 145.414 110.17 145.266 109.709 145.007C108.804 144.467 108.713 143.66 109.512 143.204C109.994 142.986 110.521 142.886 111.05 142.91C111.578 142.933 112.094 143.081 112.555 143.341Z" fill="#FAF7F2"/>
<path d="M111.421 146.003C110.707 146.01 110.004 145.829 109.382 145.479C109.093 145.337 108.846 145.122 108.667 144.855C108.488 144.588 108.383 144.278 108.362 143.957C108.376 143.69 108.46 143.431 108.605 143.207C108.751 142.982 108.953 142.8 109.192 142.679C109.768 142.405 110.402 142.276 111.039 142.301C111.676 142.326 112.298 142.505 112.851 142.823C113.14 142.965 113.386 143.18 113.565 143.447C113.744 143.714 113.85 144.024 113.871 144.345C113.857 144.612 113.773 144.871 113.627 145.095C113.482 145.32 113.28 145.502 113.041 145.623C112.543 145.887 111.985 146.018 111.421 146.003ZM110.797 143.447C110.438 143.435 110.082 143.513 109.762 143.675C109.686 143.721 109.504 143.835 109.504 143.972C109.504 144.109 109.625 144.292 109.968 144.497C110.347 144.71 110.769 144.832 111.203 144.856C111.637 144.88 112.071 144.804 112.471 144.634C112.547 144.588 112.729 144.474 112.729 144.337C112.729 144.2 112.608 144.018 112.265 143.812C111.815 143.566 111.31 143.441 110.797 143.447Z" fill="#292929"/>
<path d="M117.781 140.297C118.687 140.838 118.778 141.644 117.979 142.1C117.497 142.318 116.97 142.418 116.441 142.395C115.913 142.371 115.397 142.223 114.936 141.964C114.031 141.423 113.939 140.617 114.738 140.16C115.221 139.943 115.747 139.843 116.276 139.866C116.805 139.89 117.32 140.038 117.781 140.297Z" fill="#FAF7F2"/>
<path d="M116.647 142.975C115.934 142.982 115.23 142.801 114.608 142.45C114.319 142.309 114.073 142.094 113.894 141.827C113.715 141.559 113.61 141.25 113.589 140.929C113.603 140.662 113.686 140.403 113.832 140.178C113.978 139.954 114.18 139.772 114.418 139.651C114.994 139.377 115.628 139.248 116.266 139.273C116.903 139.298 117.525 139.477 118.078 139.795C118.367 139.937 118.613 140.152 118.792 140.419C118.971 140.686 119.076 140.996 119.097 141.317C119.084 141.584 119 141.843 118.854 142.067C118.708 142.292 118.506 142.474 118.268 142.595C117.769 142.859 117.211 142.99 116.647 142.975ZM116.023 140.419C115.665 140.407 115.309 140.485 114.989 140.647C114.913 140.693 114.73 140.807 114.73 140.944C114.73 141.081 114.852 141.264 115.194 141.469C115.573 141.681 115.996 141.804 116.43 141.828C116.864 141.852 117.297 141.776 117.697 141.606C117.773 141.56 117.956 141.446 117.956 141.309C117.956 141.172 117.834 140.99 117.492 140.784C117.042 140.539 116.536 140.413 116.023 140.419Z" fill="#292929"/>
<path d="M149.165 200.721L134.275 209.098L149.165 217.467L164.054 209.098L149.165 200.721Z" fill="#97DE40"/>
<path d="M149.165 218.038C149.066 218.037 148.969 218.011 148.883 217.962L133.994 209.593C133.905 209.543 133.831 209.471 133.78 209.383C133.728 209.296 133.701 209.196 133.701 209.094C133.701 208.993 133.728 208.893 133.78 208.805C133.831 208.718 133.905 208.645 133.994 208.596L148.883 200.227C148.969 200.178 149.066 200.153 149.165 200.153C149.263 200.153 149.36 200.178 149.446 200.227L164.335 208.596C164.424 208.645 164.498 208.718 164.549 208.805C164.601 208.893 164.628 208.993 164.628 209.094C164.628 209.196 164.601 209.296 164.549 209.383C164.498 209.471 164.424 209.543 164.335 209.593L149.446 217.962C149.36 218.011 149.263 218.037 149.165 218.038ZM135.47 209.098L149.165 216.813L162.859 209.098L149.165 201.383L135.47 209.098Z" fill="#292929"/>
<path d="M113.445 27.7344V90.479L91.3281 78.0473V15.2875L113.445 27.7344Z" fill="#97DE40"/>
<path d="M113.46 91.0496C113.361 91.0491 113.264 91.0229 113.179 90.9735L91.0616 78.5418C90.9741 78.4922 90.9012 78.4203 90.8505 78.3334C90.7997 78.2466 90.7728 78.1478 90.7725 78.0472V15.2874C90.7728 15.1878 90.7992 15.09 90.849 15.0037C90.8989 14.9174 90.9705 14.8457 91.0567 14.7957C91.1428 14.7457 91.2406 14.7191 91.3402 14.7186C91.4399 14.7181 91.5379 14.7437 91.6246 14.7929L113.742 27.2323C113.829 27.2819 113.902 27.3538 113.953 27.4406C114.003 27.5275 114.03 27.6262 114.031 27.7268V90.4714C114.031 90.6227 113.971 90.7679 113.864 90.8749C113.757 90.9819 113.611 91.042 113.46 91.042V91.0496ZM91.9137 77.7125L112.889 89.5051V28.0692L91.8985 16.2841L91.9137 77.7125Z" fill="#292929"/>
<path d="M277.934 21.4348L283.457 18.1709L311.539 33.9655V67.3958L306.023 70.6521L277.934 21.4348Z" fill="#97DE40"/>
<path d="M306.023 71.2228H305.878C305.805 71.2038 305.737 71.1704 305.676 71.1247C305.616 71.079 305.566 71.0218 305.528 70.9565L277.446 21.7392C277.376 21.6103 277.358 21.4594 277.397 21.3177C277.435 21.176 277.526 21.0545 277.652 20.9784L283.168 17.7145C283.254 17.6644 283.353 17.6381 283.453 17.6381C283.553 17.6381 283.652 17.6644 283.738 17.7145L311.828 33.5091C311.915 33.5587 311.988 33.6306 312.039 33.7174C312.09 33.8043 312.117 33.903 312.117 34.0036V67.4263C312.117 67.5262 312.092 67.6244 312.042 67.7112C311.993 67.7979 311.921 67.8702 311.835 67.9208L306.319 71.1847C306.226 71.2236 306.123 71.2367 306.023 71.2228ZM278.709 21.6099L306.228 69.8381L310.968 67.0383V34.3003L283.457 18.8329L278.709 21.6099Z" fill="#292929"/>
<path d="M306.023 37.2295L277.934 21.4349V54.8576L306.023 70.6522V37.2295Z" fill="#FAF7F2"/>
<path d="M306.022 71.2228C305.924 71.2222 305.827 71.196 305.741 71.1467L277.659 55.3521C277.572 55.3025 277.499 55.2306 277.448 55.1438C277.397 55.0569 277.37 54.9582 277.37 54.8576V21.4349C277.37 21.3353 277.397 21.2374 277.447 21.1512C277.497 21.0649 277.568 20.9932 277.654 20.9432C277.74 20.8932 277.838 20.8666 277.938 20.8661C278.038 20.8656 278.136 20.8912 278.222 20.9404L306.312 36.7349C306.399 36.7846 306.472 36.8564 306.523 36.9433C306.573 37.0301 306.6 37.1289 306.601 37.2295V70.6522C306.601 70.8035 306.541 70.9486 306.434 71.0556C306.327 71.1627 306.181 71.2228 306.03 71.2228H306.022ZM278.511 54.4848L305.452 69.6403V37.587L278.504 22.4316L278.511 54.4848Z" fill="#292929"/>
<path d="M306.022 37.8001C305.896 37.8011 305.773 37.7604 305.673 37.6842C305.573 37.608 305.5 37.5007 305.467 37.379C305.434 37.2574 305.442 37.1282 305.49 37.0117C305.539 36.8952 305.624 36.7979 305.733 36.735L311.272 33.4787C311.337 33.4352 311.409 33.4053 311.486 33.391C311.562 33.3766 311.641 33.3781 311.717 33.3953C311.793 33.4125 311.864 33.445 311.927 33.4909C311.99 33.5368 312.043 33.5951 312.083 33.6622C312.122 33.7293 312.148 33.8037 312.157 33.881C312.167 33.9582 312.161 34.0366 312.139 34.1114C312.117 34.1861 312.08 34.2556 312.031 34.3156C311.981 34.3756 311.92 34.4248 311.85 34.4602L306.334 37.7241C306.24 37.7792 306.132 37.8056 306.022 37.8001Z" fill="#292929"/>
<path d="M290.624 43.4452L286.721 41.6878L286.036 43.1333C285.892 43.3962 285.807 43.6867 285.785 43.9854C285.78 44.1855 285.853 44.3796 285.99 44.5256C286.096 44.6468 286.216 44.7541 286.348 44.8451C286.54 44.9793 286.741 45.1012 286.949 45.2103V45.5147L283.776 44.0843V43.78C284.038 43.8827 284.326 43.8987 284.598 43.8257C284.759 43.7199 284.894 43.5795 284.994 43.4148C285.159 43.1566 285.307 42.8872 285.435 42.6084L288.98 35.061L289.239 35.1752L292.746 46.0016C292.888 46.4479 293.02 46.8157 293.142 47.1048C293.242 47.3526 293.367 47.5897 293.515 47.8123C293.63 47.9851 293.771 48.1391 293.933 48.2688C294.102 48.3976 294.283 48.5097 294.473 48.6036V48.9079L290.494 47.1124V46.8081C290.656 46.8762 290.824 46.9272 290.997 46.9602C291.102 46.9854 291.211 46.9854 291.316 46.9602C291.351 46.9508 291.384 46.9346 291.413 46.9124C291.441 46.8902 291.466 46.8625 291.483 46.8309C291.517 46.7595 291.532 46.6813 291.529 46.6026C291.528 46.4355 291.505 46.2692 291.461 46.1081C291.41 45.8951 291.334 45.6415 291.232 45.3473L290.624 43.4452ZM290.418 42.7453L288.706 37.4804L286.926 41.1856L290.418 42.7453Z" fill="#292929"/>
<path d="M298.993 49.859C298.573 50.058 298.131 50.2061 297.676 50.3003C297.382 50.3106 297.089 50.2479 296.824 50.1177C296.587 50.009 296.368 49.8625 296.178 49.684C295.98 49.5006 295.808 49.2907 295.668 49.0601C295.524 48.8222 295.411 48.5664 295.333 48.2993C295.252 48.0252 295.211 47.7407 295.211 47.4548C295.207 47.2668 295.233 47.0793 295.287 46.8994C295.337 46.7499 295.417 46.6125 295.523 46.4962C295.635 46.377 295.77 46.2813 295.919 46.2147C296.102 46.134 296.293 46.0753 296.49 46.0397C297.321 45.9236 298.163 45.9006 299 45.9712V45.6745C299.005 45.3454 298.977 45.0166 298.917 44.693C298.87 44.4441 298.788 44.2032 298.673 43.9779C298.574 43.7871 298.44 43.6168 298.278 43.4757C298.116 43.3401 297.937 43.2274 297.745 43.141C297.611 43.0763 297.467 43.0376 297.319 43.0268C297.206 43.0186 297.094 43.0396 296.992 43.0877C296.902 43.1315 296.83 43.2038 296.786 43.2931C296.738 43.39 296.715 43.4971 296.718 43.6051V44.0844C296.73 44.1759 296.72 44.269 296.69 44.3561C296.659 44.4433 296.609 44.5222 296.543 44.5865C296.474 44.6281 296.395 44.6501 296.315 44.6501C296.234 44.6501 296.155 44.6281 296.086 44.5865C295.896 44.4977 295.739 44.3513 295.637 44.1681C295.519 43.9678 295.459 43.7387 295.462 43.5062C295.459 43.2938 295.517 43.085 295.63 42.9051C295.747 42.7275 295.917 42.5916 296.117 42.5171C296.36 42.43 296.621 42.4013 296.878 42.4334C297.245 42.4801 297.602 42.5854 297.935 42.7453C298.424 42.9593 298.876 43.2495 299.274 43.6051C299.629 43.9445 299.89 44.3687 300.035 44.8376C300.149 45.3363 300.195 45.8482 300.172 46.3592V48.908C300.172 49.2681 300.172 49.5597 300.172 49.7829C300.172 50.0035 300.172 50.1557 300.172 50.247C300.184 50.3788 300.226 50.5062 300.294 50.6198C300.344 50.6922 300.412 50.75 300.491 50.7872C300.537 50.8081 300.586 50.821 300.636 50.8252C300.689 50.837 300.743 50.837 300.796 50.8252C300.868 50.7965 300.936 50.7608 301.001 50.7187L301.306 50.5209V50.9774C300.748 51.5455 300.218 51.7154 299.715 51.4871C299.47 51.3728 299.268 51.1836 299.137 50.947C298.992 50.6038 298.942 50.228 298.993 49.859ZM298.993 49.3264V46.4657H298.064C297.889 46.4675 297.713 46.4828 297.54 46.5114C297.224 46.5432 296.928 46.6767 296.695 46.8918C296.515 47.1027 296.425 47.3759 296.444 47.6526C296.443 47.8509 296.471 48.0483 296.528 48.2384C296.582 48.427 296.659 48.6083 296.756 48.7786C296.847 48.9402 296.96 49.0886 297.091 49.2199C297.207 49.3368 297.344 49.4321 297.494 49.5014C297.742 49.5793 298.004 49.6039 298.262 49.5738C298.52 49.5436 298.769 49.4593 298.993 49.3264Z" fill="#292929"/>
<path d="M321.437 43.0648C321.354 43.1181 321.224 43.1941 321.125 43.1257C320.897 42.9811 320.661 42.8518 320.441 42.73C319.9 43.2398 319.398 43.7419 318.919 44.2517L318.455 44.7843C318.376 44.8675 318.307 44.9594 318.249 45.0582L318.059 45.2788C317.791 45.6319 317.552 46.0059 317.344 46.3972C317.322 46.4514 317.286 46.4985 317.239 46.5333C317.192 46.5682 317.136 46.5896 317.078 46.595C316.933 46.595 316.834 46.4657 316.773 46.3972C316.684 46.2458 316.644 46.0702 316.659 45.895C316.637 45.7229 316.675 45.5484 316.766 45.4005C317.254 44.5259 317.85 43.7157 318.539 42.9887C318.759 42.73 319.003 42.4562 319.246 42.2279L318.729 42.0529C317.968 41.8095 317.207 41.5964 316.446 41.391C315.785 41.2344 315.11 41.1451 314.43 41.1247C314.21 41.2997 313.974 41.4975 313.776 41.6877C313.457 41.9534 313.162 42.2461 312.893 42.5627L312.612 42.8898C312.612 42.8898 312.566 42.9431 312.574 42.9735C312.446 43.1322 312.339 43.306 312.254 43.4909C312.237 43.5478 312.201 43.5976 312.153 43.6332C312.105 43.6687 312.048 43.6881 311.988 43.6887C311.843 43.6887 311.744 43.5593 311.676 43.4909C311.595 43.3362 311.556 43.1632 311.562 42.9887C311.553 42.8173 311.59 42.6466 311.668 42.4942C311.765 42.2995 311.874 42.1114 311.996 41.9312C312.337 41.4762 312.716 41.0512 313.129 40.6606V40.4932C313.129 40.2422 313.19 39.8618 313.525 39.8161C313.746 39.7779 313.97 39.755 314.194 39.7476C314.896 39.1739 315.627 38.638 316.385 38.1423C317.192 37.625 318.036 37.1228 318.911 36.6739C319.746 36.2421 320.617 35.8832 321.513 35.6012C321.98 35.4436 322.458 35.324 322.944 35.2436C323.389 35.1219 323.862 35.1486 324.29 35.3197C324.528 35.4291 324.733 35.598 324.886 35.8098C325.04 36.0217 325.136 36.2696 325.165 36.5294C325.268 37.0984 325.16 37.6855 324.861 38.1804C324.599 38.5755 324.306 38.9494 323.986 39.2988C323.651 39.6487 323.355 39.9911 323.005 40.3183C322.464 40.828 321.932 41.3377 321.369 41.8399C321.466 41.9492 321.537 42.0796 321.575 42.2209C321.613 42.3622 321.618 42.5105 321.589 42.654C321.578 42.8023 321.525 42.9445 321.437 43.0648ZM315.997 39.9226C316.713 40.0672 317.42 40.2878 318.143 40.4856C318.882 40.6836 319.604 40.938 320.304 41.2464C320.996 40.5998 321.711 39.9607 322.396 39.2835C322.725 38.9757 323.037 38.6506 323.332 38.3097C323.485 38.1531 323.63 37.988 323.765 37.8152L324.123 37.4043L324.29 37.138C324.29 37.138 324.328 37.0543 324.359 37.0239C324.362 36.9678 324.352 36.9116 324.33 36.8601C324.307 36.8085 324.273 36.763 324.23 36.7272H324.153C324.087 36.6896 324.015 36.6614 323.94 36.6435C323.524 36.5889 323.101 36.6121 322.693 36.712C321.802 36.9189 320.933 37.2119 320.098 37.5869C319.316 37.9431 318.554 38.3419 317.816 38.7814C317.435 38.9944 317.055 39.2151 316.728 39.4433C316.568 39.5574 316.393 39.6792 316.195 39.7933C316.125 39.8287 316.058 39.8721 315.997 39.9226Z" fill="#292929"/>
<path d="M328.413 44.5485C328.36 44.5696 328.311 44.6006 328.269 44.6398C328.269 44.6398 328.185 44.6931 328.162 44.7311C328.15 44.733 328.138 44.7374 328.128 44.7439C328.117 44.7504 328.108 44.759 328.101 44.7692C328.079 44.778 328.055 44.778 328.033 44.7692L327.767 44.967L327.226 45.3702C326.595 45.8419 325.956 46.3136 325.37 46.8386C325.1 47.0888 324.846 47.3556 324.609 47.6374L324.487 47.7744C324.425 47.8404 324.371 47.9146 324.328 47.995C324.236 48.1425 324.157 48.2978 324.092 48.4591C324.062 48.5127 324.022 48.5598 323.973 48.5976C323.925 48.6355 323.87 48.6634 323.81 48.6798C323.747 48.6687 323.687 48.643 323.636 48.6047C323.584 48.5664 323.542 48.5165 323.514 48.4591C323.429 48.311 323.384 48.143 323.384 47.9722C323.381 47.8013 323.417 47.6319 323.491 47.4777C323.679 47.0554 323.937 46.6673 324.252 46.3288L324.328 46.2451L322.859 46.6027C322.283 46.7678 321.669 46.7519 321.102 46.5571C320.925 46.4586 320.775 46.3183 320.665 46.1486C320.555 45.9788 320.488 45.7847 320.47 45.5832C320.459 45.1677 320.588 44.7605 320.836 44.4268C321.205 43.911 321.66 43.4631 322.182 43.103C323.155 42.3905 324.305 41.9613 325.507 41.8628C325.831 41.8433 326.155 41.882 326.466 41.977C326.809 42.1219 327.081 42.3948 327.226 42.7378C327.318 43.0419 327.326 43.3653 327.249 43.6736C327.469 43.5753 327.682 43.4635 327.888 43.3388L328.018 43.2627C328.035 43.2563 328.054 43.2563 328.071 43.2627C328.093 43.2373 328.122 43.2188 328.155 43.2095C328.467 43.0345 328.649 43.5595 328.68 43.7116C328.727 43.8615 328.727 44.0225 328.679 44.1724C328.632 44.3222 328.539 44.4536 328.413 44.5485ZM326.268 44.1681C326.268 44.0629 326.291 43.9589 326.336 43.8638L326.45 43.5062L326.344 43.4377C326.277 43.4001 326.205 43.3719 326.131 43.354C325.691 43.2764 325.24 43.2919 324.807 43.3997C324.422 43.4885 324.045 43.6106 323.681 43.7649C323.327 43.9162 322.986 44.0969 322.662 44.3051L322.418 44.4724C322.418 44.4724 322.334 44.5257 322.312 44.5637C322.157 44.6696 322.016 44.7949 321.893 44.9365C321.758 45.0598 321.631 45.192 321.513 45.3322C321.985 45.3742 322.46 45.3382 322.92 45.2256L324.16 44.9061C324.875 44.6964 325.578 44.4501 326.268 44.1681Z" fill="#292929"/>
<path d="M366.903 127.044C366.777 127.045 366.654 127.004 366.554 126.928C366.453 126.852 366.381 126.744 366.348 126.623C366.315 126.501 366.323 126.372 366.371 126.255C366.419 126.139 366.505 126.042 366.614 125.979L421.393 93.7809C421.522 93.7149 421.672 93.7008 421.812 93.7414C421.951 93.782 422.07 93.8744 422.144 93.9996C422.218 94.1248 422.241 94.2735 422.209 94.4152C422.177 94.557 422.092 94.6811 421.971 94.7624L367.192 126.96C367.105 127.014 367.005 127.043 366.903 127.044Z" fill="#292929"/>
<path d="M356.921 119.131C356.811 119.132 356.702 119.1 356.609 119.04L321.163 96.1699C321.096 96.1315 321.037 96.0798 320.99 96.018C320.943 95.9561 320.91 95.8854 320.891 95.8102C320.873 95.7349 320.87 95.6567 320.883 95.5803C320.896 95.5039 320.924 95.4309 320.966 95.3657C321.008 95.3005 321.062 95.2446 321.126 95.2012C321.191 95.1579 321.263 95.1281 321.339 95.1137C321.415 95.0992 321.494 95.1004 321.569 95.1172C321.645 95.134 321.716 95.166 321.779 95.2113L357.233 118.036C357.337 118.103 357.416 118.201 357.459 118.317C357.502 118.433 357.506 118.559 357.471 118.678C357.435 118.796 357.363 118.9 357.264 118.973C357.165 119.047 357.045 119.086 356.921 119.086V119.131Z" fill="#292929"/>
<path d="M411.282 86.5988C411.171 86.5993 411.063 86.5676 410.97 86.5075L375.972 63.9493C375.905 63.9109 375.846 63.8592 375.8 63.7974C375.753 63.7355 375.719 63.6648 375.701 63.5896C375.683 63.5144 375.68 63.4361 375.692 63.3597C375.705 63.2833 375.733 63.2103 375.775 63.1451C375.817 63.0799 375.872 63.024 375.936 62.9807C376 62.9373 376.073 62.9075 376.149 62.8931C376.225 62.8786 376.303 62.8798 376.379 62.8966C376.454 62.9134 376.526 62.9454 376.589 62.9907L411.586 85.5489C411.69 85.6158 411.769 85.7146 411.812 85.8303C411.855 85.946 411.859 86.0725 411.824 86.1907C411.789 86.309 411.716 86.4127 411.617 86.4863C411.518 86.5599 411.398 86.5993 411.274 86.5988H411.282Z" fill="#292929"/>
<path d="M145.993 40.752C150.847 41.0791 153.89 45.1419 153.89 51.9892C153.89 62.1537 146.685 73.528 137.152 78.3744L113.46 90.479V27.6963L136.726 15.8352C145.856 11.179 152.52 14.5722 152.52 23.839C152.52 29.4462 149.941 35.8066 146.008 40.7139L145.993 40.752ZM139.853 57.0867C139.853 53.7543 137.844 52.4305 134.77 53.9978L127.063 57.9236V69.3359L134.763 65.41C136.282 64.6101 137.556 63.4156 138.454 61.9522C139.351 60.4888 139.837 58.8106 139.86 57.0943L139.853 57.0867ZM139.031 33.6003C139.031 30.344 137.197 29.0354 134.23 30.557L127.056 34.2089V45.1951L134.23 41.5432C135.677 40.7886 136.889 39.6521 137.735 38.2572C138.582 36.8623 139.03 35.2623 139.031 33.6307V33.6003Z" fill="#FAF7F2"/>
<path d="M113.46 91.0497C113.309 91.0497 113.164 90.9896 113.057 90.8826C112.95 90.7756 112.89 90.6304 112.89 90.4791V27.6964C112.889 27.5909 112.918 27.4874 112.974 27.3975C113.029 27.3075 113.108 27.2345 113.202 27.1867L136.467 15.3255C141.352 12.8377 145.749 12.5105 148.846 14.405C151.585 16.0864 153.091 19.4339 153.091 23.8391C153.091 29.1648 150.854 35.2513 147.073 40.2727C151.729 41.102 154.476 45.3854 154.476 51.9589C154.476 62.3441 147.157 73.9085 137.456 78.8538L113.719 90.9584C113.641 91.0094 113.553 91.0407 113.46 91.0497ZM114.031 28.0844V89.5509L136.939 77.8723C146.29 73.1096 153.335 61.9865 153.335 52.0045C153.335 45.6365 150.588 41.6498 145.978 41.3531C145.872 41.3483 145.77 41.3145 145.683 41.2552C145.596 41.196 145.527 41.1137 145.483 41.0176C145.44 40.9214 145.424 40.8151 145.437 40.7105C145.451 40.6059 145.493 40.507 145.559 40.4249C149.561 35.4339 151.95 29.2561 151.95 23.9076C151.95 19.8524 150.672 16.9309 148.245 15.4473C145.498 13.7659 141.496 14.1082 136.985 16.4135L114.031 28.0844ZM127.087 69.9294C126.935 69.9294 126.79 69.8693 126.683 69.7623C126.576 69.6553 126.516 69.5101 126.516 69.3588V57.9465C126.516 57.841 126.545 57.7375 126.6 57.6476C126.655 57.5576 126.734 57.4846 126.828 57.4368L134.535 53.5034C136.65 52.423 138.012 52.7425 138.773 53.2219C139.533 53.7012 140.446 54.7435 140.446 57.102C140.424 58.9223 139.912 60.7028 138.962 62.2561C138.013 63.8093 136.662 65.0777 135.052 65.9275L127.345 69.8609C127.257 69.9023 127.161 69.9207 127.064 69.9142L127.087 69.9294ZM127.657 58.2965V68.423L134.504 64.9156C135.929 64.1628 137.124 63.0396 137.964 61.6645C138.803 60.2893 139.256 58.7131 139.275 57.102C139.275 55.6793 138.872 54.6446 138.149 54.1957C137.426 53.7468 136.308 53.8609 135.029 54.5152L127.657 58.2965ZM127.087 45.7582C126.935 45.7582 126.79 45.6981 126.683 45.5911C126.576 45.4841 126.516 45.339 126.516 45.1876V34.2471C126.516 34.1416 126.545 34.0381 126.6 33.9481C126.655 33.8581 126.734 33.7851 126.828 33.7373L133.995 30.0854C136.018 29.0507 137.304 29.3246 138.019 29.7963C138.735 30.268 139.625 31.2723 139.625 33.6004C139.623 35.3354 139.146 37.0368 138.246 38.5201C137.347 40.0035 136.058 41.2121 134.52 42.015L127.345 45.6669C127.262 45.715 127.168 45.7412 127.071 45.743L127.087 45.7582ZM127.657 34.6123V44.2518L134.002 41.0107C135.354 40.3033 136.487 39.2396 137.278 37.9349C138.069 36.6301 138.489 35.1339 138.491 33.608C138.491 32.1929 138.118 31.1886 137.434 30.7701C136.749 30.3517 135.752 30.4734 134.52 31.0973L127.657 34.6123Z" fill="#292929"/>
<path d="M61.4508 119.291L79.7636 192.923L55.9729 206.519L37.6904 132.887L61.4508 119.291Z" fill="#97DE40"/>
<path d="M55.9727 207.089C55.845 207.09 55.7208 207.047 55.6201 206.969C55.5194 206.89 55.448 206.78 55.4173 206.656L37.1577 133.032C37.1284 132.911 37.1393 132.784 37.1887 132.67C37.2382 132.556 37.3234 132.461 37.4316 132.4L61.1919 118.804C61.2685 118.76 61.3541 118.735 61.4422 118.73C61.5302 118.725 61.6182 118.74 61.6993 118.775C61.7804 118.81 61.8523 118.862 61.9095 118.93C61.9667 118.997 62.0075 119.076 62.0288 119.162L80.3189 192.794C80.3482 192.914 80.3373 193.041 80.2879 193.155C80.2384 193.269 80.1531 193.364 80.045 193.425L56.2542 207.021C56.1678 207.068 56.0709 207.091 55.9727 207.089ZM38.3522 133.168L56.3455 205.644L79.1092 192.634L61.0854 120.158L38.3522 133.168Z" fill="#292929"/>
<path d="M21.4391 162.574L31.9308 156.594L25.7682 137.901L18.7459 141.127L15.5732 150.827L17.8633 158.808L21.4391 162.574Z" fill="#292929"/>
<path d="M21.4388 163.122C21.3621 163.122 21.2861 163.106 21.2155 163.076C21.1449 163.046 21.0811 163.002 21.0279 162.947L17.4445 159.143C17.3802 159.077 17.3332 158.996 17.3076 158.907L15.0251 150.926C14.9916 150.817 14.9916 150.7 15.0251 150.591L18.2053 140.891C18.2296 140.816 18.2692 140.747 18.3216 140.688C18.374 140.629 18.438 140.581 18.5096 140.548L25.532 137.323C25.6041 137.292 25.6818 137.277 25.76 137.278C25.8382 137.279 25.9154 137.296 25.9868 137.328C26.0581 137.361 26.1221 137.407 26.1748 137.465C26.2274 137.523 26.2676 137.591 26.2928 137.665L32.463 156.358C32.505 156.484 32.5022 156.62 32.455 156.743C32.4078 156.867 32.3192 156.97 32.2043 157.035L21.7127 163.015C21.6323 163.074 21.5378 163.111 21.4388 163.122ZM18.3955 158.496L21.5757 161.836L31.2762 156.305L25.4559 138.662L19.24 141.522L16.1968 150.819L18.3955 158.496Z" fill="#292929"/>
<path d="M411.282 87.7096C412.211 87.7096 412.963 86.9568 412.963 86.0282C412.963 85.0996 412.211 84.3468 411.282 84.3468C410.353 84.3468 409.601 85.0996 409.601 86.0282C409.601 86.9568 410.353 87.7096 411.282 87.7096Z" fill="#292929"/>
<path d="M411.281 88.2802C410.83 88.2802 410.389 88.1464 410.013 87.8956C409.638 87.6448 409.346 87.2883 409.173 86.8712C409 86.4542 408.955 85.9953 409.043 85.5525C409.131 85.1097 409.348 84.7031 409.668 84.3839C409.987 84.0646 410.393 83.8473 410.836 83.7592C411.279 83.6711 411.738 83.7163 412.155 83.8891C412.572 84.0618 412.928 84.3544 413.179 84.7297C413.43 85.1051 413.564 85.5464 413.564 85.9978C413.564 86.6031 413.323 87.1837 412.895 87.6117C412.467 88.0398 411.887 88.2802 411.281 88.2802ZM411.281 84.9174C411.062 84.9174 410.847 84.9826 410.664 85.1046C410.482 85.2267 410.339 85.4002 410.255 85.6031C410.171 85.8061 410.149 86.0295 410.192 86.2449C410.235 86.4604 410.341 86.6583 410.496 86.8137C410.651 86.969 410.849 87.0748 411.065 87.1177C411.28 87.1605 411.504 87.1385 411.707 87.0545C411.91 86.9704 412.083 86.828 412.205 86.6453C412.327 86.4627 412.392 86.2479 412.392 86.0282C412.392 85.7336 412.275 85.4511 412.067 85.2428C411.859 85.0345 411.576 84.9174 411.281 84.9174Z" fill="#292929"/>
<path d="M422.413 95.3636C423.341 95.3636 424.094 94.6108 424.094 93.6822C424.094 92.7535 423.341 92.0007 422.413 92.0007C421.484 92.0007 420.731 92.7535 420.731 93.6822C420.731 94.6108 421.484 95.3636 422.413 95.3636Z" fill="#292929"/>
<path d="M422.412 95.934C421.961 95.934 421.52 95.8002 421.144 95.5494C420.769 95.2986 420.476 94.9421 420.304 94.525C420.131 94.108 420.086 93.6491 420.174 93.2063C420.262 92.7636 420.479 92.3568 420.798 92.0376C421.118 91.7184 421.524 91.5011 421.967 91.413C422.41 91.3249 422.869 91.3701 423.286 91.5429C423.703 91.7156 424.059 92.0082 424.31 92.3835C424.561 92.7589 424.695 93.2002 424.695 93.6516C424.695 94.2569 424.454 94.8375 424.026 95.2655C423.598 95.6936 423.018 95.934 422.412 95.934ZM422.412 92.5712C422.193 92.5712 421.978 92.6364 421.795 92.7584C421.613 92.8805 421.47 93.054 421.386 93.2569C421.302 93.4599 421.28 93.6833 421.323 93.8987C421.366 94.1142 421.472 94.3121 421.627 94.4675C421.782 94.6228 421.98 94.7286 422.196 94.7715C422.411 94.8143 422.634 94.7923 422.837 94.7083C423.04 94.6242 423.214 94.4818 423.336 94.2991C423.458 94.1165 423.523 93.9017 423.523 93.682C423.523 93.3874 423.406 93.1049 423.198 92.8966C422.989 92.6883 422.707 92.5712 422.412 92.5712Z" fill="#292929"/>
<path d="M366.903 128.155C367.832 128.155 368.585 127.402 368.585 126.473C368.585 125.545 367.832 124.792 366.903 124.792C365.974 124.792 365.222 125.545 365.222 126.473C365.222 127.402 365.974 128.155 366.903 128.155Z" fill="#292929"/>
<path d="M366.904 128.725C366.452 128.725 366.011 128.591 365.635 128.341C365.26 128.09 364.968 127.733 364.795 127.316C364.622 126.899 364.577 126.44 364.665 125.998C364.753 125.555 364.97 125.148 365.29 124.829C365.609 124.51 366.015 124.292 366.458 124.204C366.901 124.116 367.36 124.161 367.777 124.334C368.194 124.507 368.55 124.799 368.801 125.175C369.052 125.55 369.186 125.991 369.186 126.443C369.186 127.048 368.946 127.629 368.517 128.057C368.089 128.485 367.509 128.725 366.904 128.725ZM366.904 125.362C366.684 125.362 366.469 125.428 366.286 125.55C366.104 125.672 365.961 125.845 365.877 126.048C365.793 126.251 365.771 126.475 365.814 126.69C365.857 126.905 365.963 127.103 366.118 127.259C366.273 127.414 366.471 127.52 366.687 127.563C366.902 127.606 367.126 127.584 367.329 127.5C367.532 127.415 367.705 127.273 367.827 127.09C367.949 126.908 368.014 126.693 368.014 126.473C368.014 126.179 367.897 125.896 367.689 125.688C367.481 125.48 367.198 125.362 366.904 125.362Z" fill="#292929"/>
<path d="M357.249 120.562C358.177 120.562 358.93 119.809 358.93 118.88C358.93 117.952 358.177 117.199 357.249 117.199C356.32 117.199 355.567 117.952 355.567 118.88C355.567 119.809 356.32 120.562 357.249 120.562Z" fill="#292929"/>
<path d="M357.248 121.132C356.797 121.132 356.356 120.998 355.98 120.748C355.605 120.497 355.312 120.14 355.14 119.723C354.967 119.306 354.922 118.847 355.01 118.405C355.098 117.962 355.315 117.555 355.634 117.236C355.954 116.917 356.36 116.699 356.803 116.611C357.246 116.523 357.705 116.568 358.122 116.741C358.539 116.914 358.895 117.206 359.146 117.582C359.397 117.957 359.531 118.398 359.531 118.85C359.531 119.455 359.29 120.036 358.862 120.464C358.434 120.892 357.854 121.132 357.248 121.132ZM357.248 117.769C357.029 117.769 356.814 117.835 356.631 117.957C356.448 118.079 356.306 118.252 356.222 118.455C356.138 118.658 356.116 118.881 356.159 119.097C356.202 119.312 356.307 119.51 356.463 119.666C356.618 119.821 356.816 119.927 357.032 119.97C357.247 120.013 357.47 119.991 357.673 119.906C357.876 119.822 358.05 119.68 358.172 119.497C358.294 119.315 358.359 119.1 358.359 118.88C358.357 118.587 358.239 118.306 358.031 118.1C357.823 117.893 357.542 117.777 357.248 117.777V117.769Z" fill="#292929"/>
<path d="M455.173 140.908L429.704 125.507C427.094 123.929 423.698 124.765 422.12 127.376L420.21 130.534C418.632 133.144 419.468 136.54 422.079 138.118L447.548 153.519C450.158 155.097 453.554 154.26 455.133 151.65L457.042 148.492C458.62 145.882 457.784 142.486 455.173 140.908Z" fill="#292929"/>
<path d="M450.358 154.913C449.25 154.912 448.164 154.61 447.215 154.038L421.751 138.639C421.065 138.225 420.468 137.681 419.993 137.036C419.518 136.392 419.175 135.66 418.983 134.882C418.792 134.105 418.756 133.297 418.877 132.506C418.998 131.714 419.274 130.954 419.689 130.27L421.599 127.112C422.438 125.735 423.791 124.747 425.359 124.366C426.927 123.985 428.582 124.242 429.96 125.081L455.425 140.48C456.11 140.893 456.708 141.438 457.183 142.083C457.658 142.727 458.001 143.459 458.192 144.237C458.384 145.014 458.42 145.822 458.299 146.613C458.178 147.405 457.902 148.164 457.486 148.849L455.577 152.006C455.03 152.899 454.262 153.635 453.348 154.144C452.434 154.653 451.404 154.918 450.358 154.913ZM447.801 153.056C448.926 153.732 450.273 153.936 451.547 153.622C452.822 153.308 453.92 152.503 454.603 151.383L456.513 148.225C456.849 147.669 457.073 147.051 457.171 146.408C457.269 145.765 457.24 145.109 457.084 144.478C456.929 143.846 456.651 143.251 456.265 142.727C455.88 142.203 455.395 141.76 454.839 141.423L429.374 126.024C428.818 125.688 428.2 125.464 427.557 125.366C426.914 125.268 426.258 125.297 425.627 125.453C424.995 125.608 424.4 125.886 423.876 126.272C423.352 126.657 422.909 127.142 422.572 127.698L420.663 130.856C419.985 131.98 419.78 133.327 420.094 134.602C420.408 135.877 421.214 136.976 422.337 137.657L447.801 153.056Z" fill="#292929"/>
<path d="M455.171 140.917L452.014 139.008C449.403 137.429 446.008 138.266 444.429 140.876L442.52 144.034C440.941 146.644 441.778 150.04 444.388 151.619L447.546 153.528C450.156 155.106 453.552 154.27 455.131 151.659L457.04 148.502C458.618 145.891 457.782 142.495 455.171 140.917Z" fill="#FAF7F2"/>
<path d="M450.357 154.913C449.25 154.912 448.163 154.61 447.215 154.038L444.057 152.128C443.372 151.715 442.774 151.17 442.299 150.525C441.825 149.881 441.482 149.149 441.29 148.371C441.098 147.594 441.062 146.786 441.183 145.995C441.304 145.203 441.58 144.444 441.996 143.759L443.905 140.602C444.319 139.916 444.863 139.319 445.508 138.844C446.153 138.369 446.885 138.026 447.662 137.834C448.439 137.643 449.247 137.606 450.038 137.727C450.83 137.849 451.59 138.125 452.274 138.54L455.432 140.45C456.117 140.863 456.715 141.407 457.19 142.052C457.665 142.697 458.008 143.429 458.199 144.206C458.391 144.984 458.427 145.791 458.306 146.583C458.185 147.374 457.909 148.134 457.493 148.818L455.584 151.976C455.04 152.875 454.273 153.618 453.357 154.132C452.441 154.647 451.408 154.916 450.357 154.913ZM447.801 153.056C448.926 153.732 450.272 153.936 451.547 153.622C452.821 153.308 453.92 152.503 454.602 151.382L456.512 148.225C456.849 147.669 457.073 147.051 457.171 146.408C457.269 145.765 457.239 145.109 457.084 144.478C456.928 143.846 456.65 143.251 456.265 142.727C455.88 142.203 455.395 141.76 454.838 141.423L451.681 139.537C450.556 138.859 449.209 138.654 447.934 138.968C446.659 139.281 445.561 140.088 444.879 141.21L442.969 144.368C442.291 145.492 442.087 146.839 442.401 148.114C442.714 149.389 443.521 150.488 444.643 151.169L447.801 153.056Z" fill="#292929"/>
<path d="M415.679 124.1C415.569 124.1 415.46 124.068 415.368 124.008L398.074 112.649C398.005 112.612 397.944 112.56 397.896 112.498C397.848 112.435 397.813 112.363 397.794 112.287C397.774 112.21 397.771 112.131 397.784 112.053C397.797 111.975 397.827 111.901 397.87 111.835C397.913 111.769 397.97 111.713 398.036 111.67C398.102 111.627 398.176 111.598 398.254 111.585C398.332 111.572 398.411 111.576 398.488 111.595C398.564 111.615 398.636 111.65 398.698 111.698L415.991 123.057C416.095 123.124 416.174 123.223 416.217 123.339C416.26 123.454 416.264 123.581 416.229 123.699C416.194 123.817 416.121 123.921 416.022 123.995C415.923 124.068 415.803 124.108 415.679 124.107V124.1Z" fill="#292929"/>
<path d="M417.223 121.49C418.814 122.433 418.966 123.848 417.573 124.655C416.719 125.045 415.785 125.226 414.847 125.184C413.909 125.142 412.995 124.877 412.179 124.411C410.589 123.468 410.437 122.053 411.829 121.246C412.683 120.856 413.618 120.675 414.556 120.717C415.494 120.76 416.408 121.024 417.223 121.49Z" fill="#FAF7F2"/>
<path d="M415.239 125.766C414.063 125.775 412.906 125.476 411.883 124.898C411.443 124.69 411.065 124.369 410.787 123.969C410.509 123.568 410.342 123.102 410.301 122.616C410.319 122.222 410.443 121.84 410.66 121.511C410.877 121.181 411.178 120.916 411.533 120.744C412.475 120.302 413.51 120.094 414.55 120.137C415.59 120.181 416.604 120.475 417.506 120.995C417.946 121.204 418.324 121.525 418.602 121.925C418.88 122.326 419.047 122.792 419.088 123.278C419.069 123.672 418.945 124.053 418.728 124.382C418.511 124.712 418.21 124.977 417.856 125.149C417.05 125.575 416.149 125.788 415.239 125.766ZM414.151 121.277C413.442 121.256 412.741 121.415 412.112 121.741C411.935 121.821 411.781 121.944 411.665 122.1C411.549 122.256 411.475 122.439 411.45 122.631C411.45 123.057 411.83 123.544 412.469 123.925C413.198 124.337 414.012 124.573 414.848 124.615C415.684 124.658 416.519 124.504 417.285 124.168C417.464 124.09 417.619 123.967 417.737 123.811C417.854 123.655 417.929 123.471 417.955 123.278C417.955 122.852 417.574 122.365 416.935 121.984C416.084 121.512 415.124 121.268 414.151 121.277Z" fill="#292929"/>
<path d="M36.9136 185.224L18.4485 174.664L15.9455 183.664L0.569336 174.831L18.4333 121.84L37.6972 132.895L55.9568 206.519L40.1547 197.48L36.9136 185.224ZM26.4219 145.623L21.4386 162.612L32.9041 169.17L26.4219 145.623Z" fill="#FAF7F2"/>
<path d="M55.9725 207.09C55.8736 207.089 55.7766 207.063 55.691 207.013L39.8888 197.975C39.8235 197.937 39.7663 197.887 39.7206 197.827C39.6749 197.767 39.6415 197.698 39.6225 197.625L36.4347 185.596L18.8065 175.523L16.5241 183.786C16.5006 183.869 16.4586 183.946 16.4012 184.01C16.3438 184.075 16.2725 184.125 16.1926 184.158C16.1127 184.191 16.0264 184.206 15.9402 184.2C15.854 184.195 15.7701 184.17 15.6948 184.128L0.288237 175.295C0.173352 175.23 0.0847527 175.126 0.037572 175.003C-0.00960864 174.879 -0.0124398 174.743 0.0295617 174.618L17.8935 121.627C17.9207 121.547 17.965 121.475 18.0233 121.415C18.0816 121.354 18.1526 121.308 18.2311 121.278C18.3095 121.248 18.3936 121.236 18.4773 121.242C18.561 121.249 18.6422 121.274 18.7152 121.315L37.9791 132.37C38.0452 132.408 38.1029 132.46 38.1486 132.521C38.1944 132.583 38.2273 132.653 38.2454 132.727L56.505 206.352C56.5258 206.436 56.5272 206.524 56.509 206.608C56.4908 206.693 56.4535 206.773 56.3999 206.841C56.3464 206.909 56.278 206.964 56.2 207.002C56.122 207.04 56.0364 207.059 55.9496 207.059L55.9725 207.09ZM40.6572 197.108L55.1127 205.362L37.2183 133.267L18.7685 122.684L1.26969 174.572L15.6035 182.774L17.8859 174.511C17.9094 174.428 17.9514 174.351 18.0088 174.287C18.0662 174.222 18.1376 174.172 18.2174 174.139C18.2973 174.106 18.3836 174.091 18.4698 174.097C18.556 174.102 18.64 174.127 18.7152 174.169L37.1803 184.729C37.2456 184.767 37.3028 184.817 37.3485 184.877C37.3942 184.937 37.4275 185.006 37.4466 185.079L40.6572 197.108ZM32.9045 169.718C32.8056 169.718 32.7086 169.691 32.623 169.642L21.1575 163.084C21.046 163.021 20.9592 162.922 20.9109 162.803C20.8626 162.684 20.8556 162.553 20.8912 162.43L25.8745 145.44C25.9091 145.322 25.9812 145.218 26.0799 145.144C26.1787 145.07 26.2989 145.03 26.4223 145.03C26.5468 145.03 26.6676 145.071 26.7665 145.147C26.8654 145.222 26.9369 145.328 26.9701 145.448L33.4599 168.995C33.4833 169.08 33.4869 169.169 33.4704 169.255C33.4538 169.341 33.4177 169.422 33.3647 169.492C33.3117 169.562 33.2433 169.619 33.1648 169.658C33.0863 169.697 32.9998 169.718 32.9121 169.718H32.9045ZM22.1085 162.315L31.9991 167.961L26.4147 147.685L22.1085 162.315Z" fill="#292929"/>
<path d="M321.969 63.995C321.818 63.995 321.673 63.9349 321.566 63.8278C321.459 63.7208 321.398 63.5757 321.398 63.4244V56.9878C321.398 56.8365 321.459 56.6914 321.566 56.5844C321.673 56.4774 321.818 56.4172 321.969 56.4172C322.12 56.4172 322.266 56.4774 322.373 56.5844C322.48 56.6914 322.54 56.8365 322.54 56.9878V63.4548C322.532 63.6008 322.468 63.7382 322.362 63.8387C322.256 63.9393 322.115 63.9952 321.969 63.995Z" fill="#292929"/>
<path d="M262.801 31.1429L268.317 27.8866L296.406 43.6812L296.398 77.1039L290.883 80.3678L262.801 31.1429Z" fill="#97DE40"/>
<path d="M290.882 80.9536H290.738C290.664 80.9346 290.596 80.9013 290.536 80.8555C290.476 80.8098 290.425 80.7527 290.388 80.6873L262.306 31.4701C262.236 31.3412 262.218 31.1902 262.256 31.0485C262.294 30.9068 262.386 30.7853 262.511 30.7093L268.027 27.4453C268.114 27.3953 268.212 27.3689 268.312 27.3689C268.413 27.3689 268.511 27.3953 268.598 27.4453L296.687 43.2399C296.775 43.2895 296.847 43.3614 296.898 43.4483C296.949 43.5351 296.976 43.6338 296.976 43.7344V77.1571C296.977 77.257 296.951 77.3552 296.902 77.442C296.852 77.5288 296.781 77.6011 296.695 77.6517L291.179 80.9156C291.085 80.9544 290.983 80.9676 290.882 80.9536ZM263.576 31.3483L291.095 79.5765L295.835 76.7767V44.0083L268.324 28.5409L263.576 31.3483Z" fill="#292929"/>
<path d="M290.883 46.9375L262.801 31.1429V64.5657L290.883 80.3678V46.9375Z" fill="#FAF7F2"/>
<path d="M290.883 80.9536C290.784 80.953 290.687 80.9268 290.601 80.8775L262.52 65.083C262.432 65.0333 262.359 64.9614 262.308 64.8746C262.258 64.7877 262.231 64.689 262.23 64.5884V31.1429C262.231 31.0433 262.257 30.9454 262.307 30.8592C262.357 30.7729 262.428 30.7012 262.515 30.6512C262.601 30.6012 262.699 30.5746 262.798 30.5741C262.898 30.5736 262.996 30.5992 263.083 30.6484L291.172 46.4429C291.259 46.4926 291.332 46.5644 291.383 46.6513C291.434 46.7381 291.461 46.8369 291.461 46.9375V80.3602C291.461 80.5115 291.401 80.6566 291.294 80.7637C291.187 80.8707 291.042 80.9308 290.89 80.9308L290.883 80.9536ZM263.341 64.2156L290.282 79.3711V47.2722L263.341 32.1244V64.2156Z" fill="#292929"/>
<path d="M290.891 47.4777C290.764 47.4787 290.642 47.4379 290.541 47.3617C290.441 47.2855 290.368 47.1782 290.335 47.0566C290.302 46.9349 290.311 46.8057 290.359 46.6892C290.407 46.5727 290.492 46.4754 290.601 46.4125L296.117 43.1486C296.182 43.1051 296.255 43.0753 296.331 43.0609C296.408 43.0466 296.486 43.048 296.562 43.0652C296.638 43.0824 296.71 43.115 296.773 43.1609C296.836 43.2068 296.888 43.265 296.928 43.3321C296.967 43.3992 296.993 43.4736 297.002 43.5509C297.012 43.6281 297.006 43.7066 296.984 43.7813C296.962 43.8561 296.926 43.9256 296.876 43.9855C296.826 44.0455 296.765 44.0947 296.696 44.1301L291.18 47.394C291.093 47.4476 290.993 47.4765 290.891 47.4777Z" fill="#292929"/>
<path d="M276.929 61.0278C276.961 61.1343 276.982 61.244 276.99 61.355C276.99 61.431 276.99 61.4767 276.937 61.4919C276.873 61.5158 276.802 61.5158 276.739 61.4919L276.374 61.3017L276.008 61.0887C275.935 61.0418 275.866 60.9883 275.803 60.9289C275.76 60.8898 275.724 60.8434 275.696 60.792C275.673 60.7401 275.652 60.6868 275.636 60.6322L274.814 57.5889L270.835 55.3673L270.074 57.4824C270.062 57.5175 270.041 57.5489 270.013 57.5737C269.979 57.5873 269.941 57.5873 269.907 57.5737C269.838 57.5652 269.771 57.5446 269.709 57.5128L269.374 57.3379C269.254 57.2704 269.137 57.1967 269.024 57.1172C268.95 57.0689 268.885 57.007 268.834 56.9346C268.796 56.8757 268.778 56.8066 268.781 56.7368C268.786 56.6477 268.806 56.5601 268.841 56.4781L272.052 48.4135C272.066 48.3708 272.092 48.3336 272.128 48.3069C272.172 48.2899 272.221 48.2899 272.265 48.3069C272.347 48.3255 272.426 48.3536 272.501 48.3906L272.866 48.5808L273.262 48.8091C273.35 48.863 273.434 48.9241 273.513 48.9917C273.57 49.0425 273.618 49.1014 273.657 49.1667C273.694 49.2288 273.722 49.2953 273.741 49.3645L276.929 61.0278ZM272.813 50.0264L271.162 54.3935L274.487 56.2499L272.813 50.0264Z" fill="#292929"/>
<path d="M283.403 64.9764C283.403 65.0449 283.403 65.0829 283.342 65.0905C283.29 65.1051 283.235 65.1051 283.183 65.0905C283.077 65.0515 282.975 65.0031 282.878 64.946C282.772 64.8874 282.671 64.8213 282.574 64.7481C282.51 64.7014 282.453 64.645 282.407 64.5808C282.372 64.5291 282.353 64.4681 282.353 64.4058V63.645C282.062 63.8265 281.723 63.9166 281.379 63.9036C280.979 63.8816 280.589 63.7614 280.246 63.5537C279.903 63.3631 279.584 63.1333 279.295 62.8689C279.006 62.6207 278.751 62.337 278.534 62.0244C278.337 61.7247 278.18 61.3997 278.07 61.0582C277.959 60.7218 277.903 60.37 277.903 60.0159C277.882 59.6832 277.962 59.3521 278.131 59.0648C278.206 58.9553 278.304 58.8633 278.419 58.795C278.533 58.7268 278.66 58.6839 278.793 58.6692C279.148 58.6339 279.507 58.678 279.843 58.7986C280.329 58.9613 280.798 59.1729 281.242 59.43L282.163 59.9398V59.3692C282.163 59.1007 282.135 58.8329 282.079 58.5703C282.027 58.3273 281.937 58.0937 281.813 57.878C281.687 57.6576 281.528 57.4575 281.341 57.2845C281.127 57.0863 280.89 56.9151 280.634 56.7748C280.382 56.6258 280.111 56.5131 279.827 56.44C279.62 56.3888 279.409 56.3583 279.196 56.3487C279.046 56.3396 278.897 56.3396 278.747 56.3487C278.658 56.3758 278.562 56.3758 278.473 56.3487C278.432 56.3262 278.395 56.295 278.367 56.2574C278.335 56.213 278.309 56.1644 278.291 56.1129C278.267 56.049 278.252 55.9826 278.245 55.9151C278.24 55.8365 278.24 55.7577 278.245 55.6792C278.233 55.5756 278.233 55.4709 278.245 55.3673C278.253 55.3338 278.27 55.3027 278.292 55.2763C278.314 55.2499 278.343 55.229 278.374 55.2151C278.483 55.1725 278.6 55.1518 278.717 55.1542C278.906 55.1522 279.094 55.1701 279.28 55.2075C279.515 55.2528 279.746 55.3164 279.972 55.3977C280.235 55.4924 280.49 55.6095 280.733 55.7477C281.17 55.9863 281.579 56.2748 281.95 56.6074C282.268 56.893 282.542 57.2237 282.764 57.5889C282.97 57.9366 283.121 58.3138 283.213 58.7073C283.308 59.1291 283.354 59.5606 283.35 59.993L283.403 64.9764ZM282.194 60.9288L281.151 60.343C280.874 60.1811 280.581 60.0485 280.276 59.9474C280.079 59.8778 279.867 59.8569 279.66 59.8865C279.586 59.8984 279.516 59.9264 279.454 59.9684C279.392 60.0105 279.341 60.0657 279.302 60.13C279.218 60.2943 279.178 60.4781 279.188 60.6626C279.19 61.0515 279.304 61.4318 279.515 61.7581C279.745 62.1157 280.062 62.409 280.436 62.6103C280.702 62.7763 281.013 62.856 281.326 62.8385C281.637 62.7949 281.933 62.6747 282.186 62.4885L282.194 60.9288Z" fill="#292929"/>
</svg>
