<svg width="376" height="335" viewBox="0 0 376 335" fill="none" xmlns="http://www.w3.org/2000/svg">
<path d="M35.5068 251.188V255.334C35.5061 255.862 35.6347 256.382 35.8814 256.849C36.1281 257.316 36.4854 257.715 36.922 258.012L107.176 305.502C107.915 306.003 108.768 306.312 109.656 306.401C110.545 306.49 111.442 306.356 112.266 306.012L153.997 288.589C154.584 288.342 155.086 287.926 155.438 287.394C155.79 286.861 155.977 286.237 155.975 285.599V281.795L35.5068 251.188Z" fill="#292929"/>
<path d="M110.197 307.001C109.008 307 107.847 306.642 106.864 305.974L36.6408 258.484C36.127 258.135 35.7065 257.665 35.4161 257.116C35.1256 256.567 34.9741 255.955 34.9746 255.334V251.188C34.9744 251.101 34.9939 251.015 35.0318 250.937C35.0696 250.859 35.1247 250.791 35.1929 250.737C35.2611 250.684 35.3406 250.646 35.4254 250.628C35.5102 250.61 35.598 250.611 35.6822 250.632L156.089 281.255C156.213 281.286 156.323 281.357 156.402 281.458C156.481 281.559 156.523 281.683 156.523 281.81V285.615C156.525 286.365 156.304 287.099 155.89 287.724C155.476 288.349 154.886 288.838 154.195 289.13L112.487 306.575C111.759 306.866 110.981 307.011 110.197 307.001ZM36.0854 251.926V255.334C36.0839 255.769 36.1892 256.198 36.3922 256.582C36.5952 256.967 36.8896 257.296 37.2495 257.54L107.503 305.053C108.165 305.505 108.93 305.784 109.728 305.863C110.525 305.943 111.33 305.822 112.068 305.51L153.807 288.064C154.292 287.861 154.705 287.518 154.995 287.079C155.285 286.64 155.438 286.125 155.435 285.599V282.229L36.0854 251.926Z" fill="#292929"/>
<path d="M351.506 299.263L274.191 332.854C272.717 333.492 271.103 333.741 269.504 333.577C267.906 333.413 266.376 332.842 265.062 331.918L164.839 261.42C164.032 260.852 163.373 260.098 162.919 259.221C162.464 258.344 162.228 257.371 162.229 256.384V251.598L248.057 222.284L355.188 287.714V293.641C355.186 294.834 354.837 296.002 354.183 297C353.529 297.998 352.599 298.785 351.506 299.263Z" fill="#FAF7F2"/>
<path d="M270.463 334.2C268.408 334.203 266.403 333.574 264.719 332.397L164.511 261.892C163.63 261.271 162.91 260.447 162.413 259.49C161.917 258.533 161.658 257.47 161.658 256.391V251.606C161.658 251.487 161.696 251.37 161.765 251.273C161.835 251.177 161.933 251.104 162.046 251.066L247.882 221.744C247.961 221.717 248.044 221.708 248.127 221.717C248.21 221.727 248.29 221.754 248.361 221.797L355.492 287.227C355.575 287.278 355.644 287.35 355.692 287.435C355.74 287.52 355.765 287.616 355.766 287.714V293.641C355.767 294.951 355.386 296.234 354.668 297.33C353.95 298.426 352.927 299.289 351.726 299.811L274.419 333.379C273.171 333.922 271.824 334.202 270.463 334.2ZM162.807 252.032V256.361C162.807 257.256 163.022 258.138 163.433 258.932C163.845 259.726 164.442 260.41 165.173 260.926L265.38 331.431C266.619 332.296 268.059 332.83 269.562 332.983C271.065 333.136 272.582 332.903 273.97 332.306L351.284 298.716C352.279 298.289 353.128 297.582 353.728 296.681C354.328 295.78 354.653 294.724 354.662 293.641V288.011L247.996 222.885L162.807 252.032Z" fill="#292929"/>
<path d="M352.244 292.386L274.016 324.584C272.759 325.102 271.394 325.304 270.041 325.171C268.688 325.038 267.388 324.575 266.256 323.823L164.306 255.889C163.582 255.408 163.003 254.739 162.631 253.953C162.259 253.167 162.107 252.295 162.193 251.43C162.279 250.565 162.6 249.74 163.119 249.043C163.639 248.346 164.339 247.804 165.143 247.475L244.421 214.843C245.36 214.456 246.38 214.306 247.39 214.405C248.401 214.505 249.372 214.851 250.218 215.414L353.073 283.971C353.797 284.452 354.377 285.121 354.75 285.906C355.122 286.691 355.274 287.563 355.189 288.428C355.104 289.293 354.785 290.118 354.266 290.816C353.747 291.513 353.048 292.056 352.244 292.386Z" fill="#FAF7F2"/>
<path d="M270.874 325.778C269.121 325.768 267.411 325.238 265.959 324.256L164.04 256.361C163.22 255.829 162.562 255.082 162.138 254.201C161.715 253.32 161.542 252.339 161.638 251.367C161.735 250.394 162.098 249.466 162.686 248.686C163.275 247.906 164.067 247.302 164.975 246.942L244.207 214.326C245.232 213.902 246.346 213.737 247.45 213.846C248.554 213.955 249.614 214.334 250.537 214.95L353.392 283.507C354.2 284.042 354.846 284.788 355.262 285.663C355.677 286.539 355.846 287.511 355.75 288.476C355.653 289.44 355.296 290.36 354.715 291.136C354.135 291.912 353.354 292.515 352.456 292.88L274.252 325.108C273.18 325.55 272.033 325.778 270.874 325.778ZM246.786 214.95C246.05 214.95 245.321 215.095 244.641 215.376L165.409 247.992C164.701 248.282 164.085 248.758 163.627 249.37C163.168 249.983 162.885 250.708 162.807 251.469C162.729 252.23 162.859 252.998 163.183 253.691C163.508 254.383 164.014 254.975 164.648 255.402L266.598 323.336C267.652 324.039 268.862 324.471 270.122 324.596C271.383 324.721 272.655 324.534 273.826 324.051L352.03 291.861C352.738 291.571 353.354 291.095 353.812 290.482C354.271 289.87 354.554 289.145 354.632 288.384C354.71 287.623 354.58 286.855 354.256 286.162C353.932 285.469 353.425 284.878 352.791 284.45L249.906 215.893C248.982 215.278 247.896 214.949 246.786 214.95Z" fill="#292929"/>
<path d="M349.733 132.188L355.918 136.608L290.145 196.538L283.96 192.118V159.357L349.733 132.188Z" fill="#FAF7F2"/>
<path d="M290.145 197.109C290.025 197.109 289.908 197.072 289.81 197.002L283.625 192.582C283.551 192.529 283.492 192.459 283.451 192.378C283.41 192.298 283.388 192.208 283.389 192.118V159.357C283.389 159.245 283.422 159.135 283.485 159.042C283.547 158.948 283.635 158.875 283.739 158.832L349.519 131.663C349.608 131.627 349.705 131.614 349.801 131.624C349.896 131.635 349.988 131.669 350.067 131.724L356.252 136.144C356.321 136.194 356.378 136.258 356.418 136.332C356.459 136.406 356.483 136.489 356.488 136.573C356.493 136.657 356.48 136.742 356.448 136.821C356.416 136.899 356.368 136.97 356.305 137.027L290.525 196.957C290.422 197.053 290.286 197.107 290.145 197.109ZM284.53 191.821L290.107 195.8L355.02 136.662L349.694 132.858L284.53 159.737V191.821Z" fill="#292929"/>
<path d="M322.884 62.1548L327.875 65.7915L285.695 118.425L280.704 114.788V79.5699L322.884 62.1548Z" fill="#292929"/>
<path d="M285.694 118.996C285.574 118.997 285.457 118.959 285.36 118.889L280.369 115.252C280.295 115.199 280.236 115.129 280.195 115.049C280.154 114.968 280.132 114.879 280.133 114.788V79.57C280.133 79.4578 280.166 79.3481 280.229 79.2547C280.291 79.1614 280.379 79.0884 280.483 79.045L322.663 61.5919C322.753 61.5546 322.852 61.5414 322.949 61.5534C323.046 61.5654 323.139 61.6022 323.218 61.6604L328.209 65.2971C328.27 65.3427 328.322 65.4002 328.361 65.4663C328.4 65.5323 328.425 65.6055 328.435 65.6815C328.445 65.7575 328.439 65.8347 328.419 65.9085C328.398 65.9823 328.363 66.0512 328.315 66.1111L286.136 118.752C286.086 118.824 286.02 118.883 285.943 118.925C285.867 118.967 285.782 118.991 285.694 118.996ZM281.274 114.499L285.588 117.641L327.052 65.9057L322.799 62.8092L281.266 79.9656L281.274 114.499Z" fill="#292929"/>
<path d="M327.874 65.7915V101.002L285.694 118.425V83.2066L327.874 65.7915Z" fill="#FAF7F2"/>
<path d="M285.695 118.996C285.543 118.996 285.398 118.935 285.291 118.828C285.184 118.721 285.124 118.576 285.124 118.425V83.2067C285.124 83.0945 285.158 82.9848 285.22 82.8914C285.282 82.7981 285.371 82.7251 285.474 82.6817L327.654 65.259C327.739 65.2289 327.83 65.2194 327.919 65.2313C328.009 65.2431 328.094 65.276 328.168 65.3273C328.242 65.3785 328.303 65.4466 328.346 65.526C328.389 65.6054 328.412 65.6938 328.415 65.784V101.002C328.414 101.114 328.381 101.224 328.319 101.317C328.256 101.411 328.168 101.484 328.065 101.527L285.885 118.95C285.825 118.976 285.76 118.991 285.695 118.996ZM286.265 83.5871V117.573L327.273 100.622V66.6437L286.265 83.5871Z" fill="#292929"/>
<path d="M191.299 297.316C210.7 301.881 219.237 315.652 209.666 323.572C202.818 329.217 189.344 328.662 179.286 324.234C170.468 320.346 164.26 313.468 164.541 307.336C164.907 299.461 175.771 293.687 191.299 297.316Z" fill="#97DE40"/>
<path d="M195.652 328.243C189.933 328.205 184.28 327.021 179.028 324.759C169.898 320.719 163.659 313.544 163.941 307.313C164.054 305.771 164.509 304.274 165.274 302.93C166.039 301.586 167.093 300.43 168.361 299.545C173.519 295.642 182.132 294.6 191.399 296.768C203.321 299.553 212.131 306.103 213.858 313.453C214.794 317.44 213.424 321.19 209.993 324.021C206.417 326.995 201.19 328.243 195.652 328.243ZM182.162 296.791C176.837 296.791 172.272 298.039 169.053 300.451C166.581 302.322 165.204 304.711 165.082 307.359C164.816 313.133 170.742 319.859 179.484 323.709C188.683 327.764 202.248 328.936 209.27 323.13C212.39 320.551 213.592 317.295 212.747 313.704C211.119 306.773 202.636 300.557 191.14 297.871C188.209 297.17 185.207 296.805 182.193 296.783L182.162 296.791Z" fill="#292929"/>
<path d="M201.86 195.617V200.958L145.864 224.087L143.216 225.183V222.314L113.712 202.655V200.623L172.356 176.414L201.86 195.617Z" fill="#FAF7F2"/>
<path d="M143.216 225.753C143.065 225.753 142.92 225.693 142.813 225.586C142.706 225.479 142.646 225.334 142.646 225.183V222.619L113.4 203.104C113.323 203.052 113.259 202.981 113.216 202.899C113.172 202.817 113.149 202.725 113.149 202.632V200.601C113.145 200.488 113.174 200.376 113.234 200.28C113.294 200.184 113.38 200.107 113.484 200.061L172.127 175.851C172.213 175.815 172.306 175.8 172.399 175.808C172.492 175.816 172.582 175.847 172.66 175.897L202.157 195.108C202.236 195.16 202.302 195.231 202.347 195.314C202.392 195.398 202.416 195.492 202.416 195.587V200.913C202.415 201.025 202.382 201.135 202.32 201.228C202.257 201.321 202.169 201.394 202.066 201.438L143.422 225.655C143.361 225.701 143.291 225.735 143.216 225.753ZM114.305 202.351L143.551 221.843C143.628 221.895 143.691 221.965 143.735 222.047C143.779 222.13 143.802 222.221 143.802 222.315V224.331L201.305 200.586V195.937L172.318 177.061L114.305 201.012V202.351Z" fill="#292929"/>
<path d="M138.491 154.092V195.899C138.491 201.453 145.186 205.348 154.019 205.348C155.161 205.346 156.301 205.282 157.436 205.158C167.897 204.017 176.388 198.037 176.388 191.783V154.092H138.491Z" fill="#FAF7F2"/>
<path d="M154.02 205.911C144.692 205.911 137.921 201.696 137.921 195.891V154.092C137.921 153.941 137.981 153.796 138.088 153.689C138.195 153.582 138.34 153.521 138.492 153.521H176.388C176.539 153.521 176.684 153.582 176.791 153.689C176.898 153.796 176.958 153.941 176.958 154.092V191.783C176.958 198.303 168.232 204.557 157.504 205.721C156.347 205.847 155.184 205.91 154.02 205.911ZM139.062 154.655V195.891C139.062 201.035 145.354 204.77 154.02 204.77C155.141 204.769 156.261 204.708 157.375 204.588C167.54 203.477 175.817 197.74 175.817 191.783V154.663L139.062 154.655Z" fill="#292929"/>
<path d="M241.308 5.28385L235.557 1.05371L52.7627 76.5344V211.298L58.5069 215.521L241.308 5.28385Z" fill="#292929"/>
<path d="M58.5072 216.091C58.3863 216.089 58.2691 216.049 58.1724 215.977L52.4282 211.747C52.356 211.694 52.297 211.626 52.256 211.547C52.2151 211.467 52.1933 211.379 52.1924 211.29V76.5343C52.1926 76.4221 52.226 76.3124 52.2882 76.219C52.3505 76.1257 52.4389 76.0527 52.5424 76.0093L235.344 0.528647C235.435 0.491399 235.533 0.478135 235.631 0.490128C235.728 0.502121 235.82 0.538971 235.899 0.597124L241.644 4.82727C241.707 4.87408 241.761 4.93367 241.8 5.00225C241.84 5.07083 241.865 5.14689 241.873 5.22561C241.882 5.30433 241.874 5.38398 241.85 5.45948C241.826 5.53498 241.787 5.60468 241.735 5.66416L58.9408 215.893C58.8871 215.955 58.8205 216.005 58.7456 216.04C58.6708 216.074 58.5894 216.091 58.5072 216.091ZM53.3336 211.009L58.4235 214.752L240.472 5.37506L235.481 1.70792L53.3336 76.9147V211.009Z" fill="#292929"/>
<path d="M241.308 140.047L58.5068 215.52V80.7568L241.308 5.28369V140.047Z" fill="#FAF7F2"/>
<path d="M58.5071 216.091C58.3558 216.091 58.2107 216.031 58.1036 215.924C57.9966 215.817 57.9365 215.672 57.9365 215.52V80.7568C57.9368 80.6446 57.9701 80.535 58.0324 80.4416C58.0946 80.3482 58.183 80.2753 58.2865 80.2319L241.088 4.75119C241.173 4.7211 241.264 4.7116 241.353 4.72346C241.443 4.73533 241.528 4.76823 241.603 4.81946C241.677 4.87069 241.738 4.93879 241.781 5.01817C241.823 5.09756 241.847 5.18598 241.849 5.27616V140.047C241.849 140.16 241.815 140.269 241.753 140.363C241.691 140.456 241.602 140.529 241.499 140.572L58.7049 216.038C58.6428 216.067 58.5757 216.085 58.5071 216.091ZM59.0777 81.1373V214.668L240.73 139.659V6.13588L59.0777 81.1373Z" fill="#292929"/>
<path d="M235.556 14.2842V135.817L65.042 206.231V84.6902L235.556 14.2842Z" fill="#FAF7F2"/>
<path d="M65.0423 206.801C64.891 206.801 64.7458 206.741 64.6388 206.634C64.5318 206.527 64.4717 206.382 64.4717 206.231V84.6903C64.4719 84.5781 64.5053 84.4684 64.5675 84.375C64.6298 84.2817 64.7182 84.2087 64.8216 84.1653L235.344 13.7517C235.429 13.7216 235.52 13.7121 235.609 13.724C235.698 13.7358 235.784 13.7687 235.858 13.8199C235.932 13.8712 235.993 13.9393 236.036 14.0187C236.079 14.0981 236.102 14.1865 236.104 14.2766V135.817C236.104 135.929 236.071 136.039 236.009 136.132C235.946 136.226 235.858 136.299 235.754 136.342L65.2629 206.763C65.1926 206.791 65.1176 206.803 65.0423 206.801ZM65.6129 85.0707V205.386L234.986 135.444V15.1364L65.6129 85.0707Z" fill="#292929"/>
<path d="M207.452 48.7949V126.505L98.4268 171.522V93.8125L207.452 48.7949Z" fill="#FAF7F2"/>
<path d="M98.4271 172.093C98.2757 172.093 98.1306 172.033 98.0236 171.926C97.9166 171.819 97.8564 171.674 97.8564 171.522V93.8125C97.8567 93.7003 97.89 93.5906 97.9523 93.4973C98.0145 93.4039 98.1029 93.3309 98.2064 93.2876L207.232 48.27C207.317 48.2399 207.408 48.2304 207.497 48.2423C207.586 48.2541 207.672 48.287 207.746 48.3383C207.82 48.3895 207.881 48.4576 207.924 48.537C207.967 48.6164 207.99 48.7048 207.992 48.795V126.505C207.992 126.617 207.959 126.727 207.897 126.82C207.834 126.913 207.746 126.986 207.642 127.03L98.6173 172.047C98.557 172.073 98.4926 172.089 98.4271 172.093ZM99.0281 94.2005V170.67L206.912 126.117V49.6471L99.0281 94.2005Z" fill="#292929"/>
<path d="M207.452 48.7949V56.2662L98.4268 101.284V93.8125L207.452 48.7949Z" fill="#97DE40"/>
<path d="M98.4271 101.854C98.2757 101.854 98.1306 101.794 98.0236 101.687C97.9166 101.58 97.8564 101.435 97.8564 101.284V93.8125C97.8567 93.7003 97.89 93.5906 97.9523 93.4973C98.0145 93.4039 98.1029 93.3309 98.2064 93.2876L207.232 48.27C207.317 48.2399 207.408 48.2304 207.497 48.2423C207.586 48.2541 207.672 48.287 207.746 48.3383C207.82 48.3895 207.881 48.4576 207.924 48.537C207.967 48.6164 207.99 48.7048 207.992 48.795V56.2662C207.992 56.3784 207.959 56.4881 207.897 56.5814C207.834 56.6748 207.746 56.7478 207.642 56.7911L98.6173 101.809C98.557 101.835 98.4926 101.85 98.4271 101.854ZM98.9977 94.1929V100.432L206.882 55.8858V49.6471L98.9977 94.1929Z" fill="#292929"/>
<path d="M207.452 100.295V126.505L98.4268 171.522V141.234L134.216 100.059L161.734 119.924L185.221 94.6875L207.452 100.295Z" fill="#292929"/>
<path d="M98.4271 172.093C98.2757 172.093 98.1306 172.033 98.0236 171.926C97.9166 171.819 97.8564 171.674 97.8564 171.522V141.234C97.856 141.098 97.9046 140.965 97.9934 140.862L133.752 99.6861C133.845 99.5792 133.974 99.5106 134.115 99.4937C134.255 99.4768 134.397 99.5129 134.513 99.5948L161.621 119.163L184.81 94.3071C184.879 94.2321 184.967 94.177 185.065 94.1476C185.163 94.1181 185.267 94.1154 185.366 94.1397L207.589 99.7469C207.713 99.7776 207.823 99.849 207.902 99.9497C207.981 100.05 208.023 100.175 208.023 100.302V126.505C208.023 126.617 207.989 126.727 207.927 126.82C207.865 126.914 207.776 126.986 207.673 127.03L98.6477 172.047C98.5779 172.077 98.5029 172.093 98.4271 172.093ZM99.0281 141.478V170.708L206.912 126.155V100.744L185.442 95.3266L162.176 120.312C162.081 120.416 161.951 120.482 161.81 120.496C161.67 120.51 161.529 120.472 161.415 120.388L134.322 100.827L99.0281 141.478Z" fill="#292929"/>
<path d="M178.244 85.1772C178.244 88.4259 180.877 89.9247 184.133 88.5096C187.389 87.0945 190.022 83.3208 190.022 80.0721C190.022 76.8234 187.389 75.3246 184.133 76.7397C180.877 78.1549 178.244 81.9437 178.244 85.1772Z" fill="#97DE40"/>
<path d="M181.789 89.628C180.982 89.638 180.189 89.4133 179.507 88.9813C178.907 88.5535 178.426 87.9795 178.111 87.3136C177.795 86.6478 177.655 85.9124 177.704 85.1772C177.704 81.7231 180.496 77.706 183.935 76.2148C185.761 75.4539 187.534 75.4539 188.812 76.2908C189.412 76.7186 189.892 77.2927 190.208 77.9585C190.523 78.6243 190.664 79.3597 190.615 80.0949C190.615 83.549 187.823 87.5662 184.384 89.0574C183.567 89.4242 182.684 89.6185 181.789 89.628ZM186.468 76.8082C185.738 76.8227 185.018 76.9858 184.353 77.2875C181.31 78.6113 178.807 82.1644 178.807 85.2C178.766 85.7426 178.864 86.2866 179.09 86.7814C179.316 87.2762 179.664 87.7058 180.1 88.0303C181.051 88.6541 182.436 88.6465 183.904 88.0303C186.948 86.7064 189.451 83.1534 189.451 80.1178C189.491 79.5752 189.394 79.0312 189.168 78.5364C188.942 78.0415 188.594 77.6119 188.157 77.2875C187.654 76.9653 187.066 76.7986 186.468 76.8082Z" fill="#292929"/>
<path d="M0.563477 220.291C0.563477 232.897 9.16071 238.687 19.7589 233.225C30.3571 227.762 38.9543 213.116 38.9543 200.509C38.9543 187.903 30.3571 182.113 19.7589 187.575C9.16071 193.038 0.563477 207.669 0.563477 220.291Z" fill="#97DE40"/>
<path d="M12.1274 235.819C10.0674 235.843 8.04147 235.292 6.27674 234.229C2.22919 231.764 0 226.796 0 220.253C0 207.479 8.7494 192.574 19.5074 187.028C24.62 184.395 29.5045 184.205 33.2553 186.495C37.3029 188.968 39.5321 193.929 39.5321 200.472C39.5321 213.246 30.7827 228.15 20.0247 233.696C17.5983 235.021 14.8911 235.749 12.1274 235.819ZM27.397 186.054C24.8161 186.123 22.2889 186.807 20.0247 188.047C9.60913 193.411 1.13362 207.829 1.13362 220.26C1.13362 226.393 3.17261 231.011 6.86258 233.263C10.2634 235.34 14.7523 235.134 19.4998 232.685C29.9153 227.321 38.3909 212.903 38.3909 200.479C38.3909 194.347 36.3519 189.736 32.6619 187.477C31.068 186.532 29.2422 186.049 27.3894 186.085L27.397 186.054Z" fill="#292929"/>
<path d="M58.5071 81.3274C58.3861 81.3263 58.2687 81.2863 58.1723 81.2132L52.4281 76.9831C52.3677 76.9386 52.3166 76.8827 52.2778 76.8185C52.2389 76.7543 52.2131 76.6831 52.2018 76.6089C52.1905 76.5347 52.1939 76.459 52.2119 76.3862C52.2298 76.3133 52.2619 76.2447 52.3064 76.1842C52.3509 76.1238 52.4068 76.0727 52.471 76.0339C52.5352 75.995 52.6065 75.9692 52.6806 75.9579C52.7548 75.9466 52.8305 75.95 52.9034 75.968C52.9762 75.9859 53.0448 76.0181 53.1053 76.0625L58.8494 80.2927C58.9453 80.3645 59.016 80.4647 59.0517 80.579C59.0874 80.6933 59.0863 80.816 59.0484 80.9296C59.0105 81.0432 58.9379 81.142 58.8407 81.2121C58.7436 81.2821 58.6268 81.3198 58.5071 81.3198V81.3274Z" fill="#FAF7F2"/>
<path d="M143.216 225.183L113.712 205.972V200.631L143.216 219.842V225.183Z" fill="#292929"/>
<path d="M143.216 225.753C143.105 225.753 142.997 225.722 142.904 225.662L113.399 206.452C113.32 206.4 113.254 206.328 113.209 206.245C113.164 206.161 113.14 206.067 113.141 205.972V200.647C113.14 200.544 113.168 200.443 113.22 200.355C113.272 200.266 113.347 200.194 113.437 200.144C113.526 200.092 113.627 200.065 113.73 200.065C113.833 200.065 113.934 200.092 114.023 200.144L143.528 219.355C143.607 219.407 143.673 219.478 143.718 219.562C143.763 219.646 143.787 219.739 143.786 219.834V225.16C143.786 225.311 143.726 225.457 143.619 225.564C143.512 225.671 143.367 225.731 143.216 225.731V225.753ZM114.305 205.668L142.668 224.133V220.146L114.244 201.681L114.305 205.668Z" fill="#292929"/>
<path d="M19.9032 219.02C19.7155 219.021 19.5303 218.976 19.3631 218.891L10.5528 214.326C10.4008 214.263 10.2635 214.169 10.1497 214.051C10.0359 213.932 9.94791 213.791 9.89145 213.636C9.835 213.482 9.81126 213.317 9.82175 213.153C9.83224 212.989 9.87673 212.829 9.95239 212.683C10.028 212.537 10.1332 212.408 10.2613 212.305C10.3893 212.202 10.5374 212.126 10.6961 212.083C10.8549 212.04 11.0208 212.031 11.1834 212.055C11.346 212.08 11.5018 212.138 11.6408 212.226L19.4544 216.274L29.6874 198.775C29.855 198.523 30.1127 198.344 30.4076 198.276C30.7025 198.207 31.0124 198.254 31.2739 198.407C31.5353 198.56 31.7286 198.806 31.8141 199.097C31.8997 199.387 31.871 199.699 31.734 199.969L20.938 218.434C20.8322 218.614 20.6809 218.763 20.4992 218.866C20.3176 218.969 20.112 219.022 19.9032 219.02Z" fill="#292929"/>
<path d="M19.9025 219.591C19.6217 219.59 19.3452 219.522 19.096 219.393L10.2858 214.828C9.89283 214.603 9.60202 214.234 9.474 213.8C9.34599 213.366 9.39066 212.898 9.59869 212.496C9.80673 212.094 10.1621 211.787 10.5906 211.641C11.0191 211.494 11.4877 211.518 11.8987 211.709L19.233 215.513L29.1921 198.493C29.4272 198.09 29.8129 197.796 30.2645 197.677C30.7161 197.558 31.1965 197.623 31.6001 197.858C32.0036 198.093 32.2973 198.479 32.4164 198.93C32.5356 199.382 32.4704 199.862 32.2354 200.266L21.4241 218.723C21.2679 218.988 21.0454 219.207 20.7785 219.359C20.5116 219.511 20.2097 219.591 19.9025 219.591ZM11.0922 212.66C10.979 212.66 10.868 212.691 10.7713 212.75C10.6747 212.809 10.5962 212.894 10.5445 212.994C10.5062 213.066 10.4826 213.144 10.4749 213.224C10.4673 213.305 10.4757 213.386 10.4998 213.463C10.5239 213.541 10.5631 213.612 10.6152 213.674C10.6673 213.736 10.7312 213.787 10.8031 213.824L19.6134 218.389C19.7542 218.457 19.9155 218.471 20.0659 218.428C20.2163 218.384 20.3452 218.286 20.4275 218.153L31.2235 199.688C31.2758 199.618 31.3128 199.538 31.3321 199.454C31.3514 199.369 31.3525 199.281 31.3353 199.195C31.3181 199.11 31.283 199.029 31.2323 198.958C31.1817 198.888 31.1166 198.828 31.0414 198.785C30.9662 198.741 30.8826 198.713 30.796 198.704C30.7095 198.695 30.622 198.704 30.5393 198.731C30.4566 198.759 30.3805 198.803 30.3162 198.861C30.2518 198.92 30.2006 198.992 30.1659 199.071L19.9329 216.57C19.8594 216.698 19.739 216.793 19.5971 216.834C19.4552 216.875 19.3028 216.86 19.1721 216.791L11.3585 212.743C11.2728 212.693 11.1762 212.664 11.077 212.66H11.0922Z" fill="#292929"/>
<path d="M193.323 317.477H181.82C181.636 317.491 181.451 317.467 181.277 317.406C181.103 317.345 180.944 317.249 180.808 317.124C180.673 316.999 180.565 316.847 180.492 316.678C180.418 316.509 180.38 316.327 180.38 316.142C180.38 315.958 180.418 315.775 180.492 315.607C180.565 315.438 180.673 315.286 180.808 315.16C180.944 315.035 181.103 314.939 181.277 314.878C181.451 314.817 181.636 314.793 181.82 314.807H191.908L191.193 303.144C191.203 302.809 191.337 302.49 191.57 302.25C191.803 302.009 192.117 301.865 192.451 301.845C192.785 301.825 193.115 301.931 193.375 302.141C193.635 302.352 193.807 302.653 193.856 302.984L194.662 316.062C194.673 316.244 194.646 316.426 194.584 316.596C194.522 316.767 194.425 316.924 194.301 317.056C194.176 317.188 194.026 317.294 193.859 317.366C193.692 317.439 193.513 317.477 193.331 317.477H193.323Z" fill="#292929"/>
<path d="M193.324 318.048H181.82C181.345 318.005 180.903 317.787 180.581 317.435C180.26 317.083 180.081 316.623 180.081 316.146C180.081 315.669 180.26 315.209 180.581 314.857C180.903 314.505 181.345 314.286 181.82 314.244H191.3L190.623 303.182C190.594 302.677 190.766 302.182 191.101 301.804C191.436 301.427 191.907 301.197 192.411 301.165C192.914 301.136 193.409 301.305 193.788 301.637C193.977 301.803 194.13 302.005 194.24 302.231C194.35 302.457 194.413 302.703 194.427 302.953L195.234 316.032C195.249 316.291 195.212 316.551 195.123 316.796C195.035 317.04 194.897 317.264 194.719 317.454C194.541 317.643 194.326 317.794 194.087 317.898C193.849 318.001 193.592 318.055 193.332 318.056L193.324 318.048ZM181.82 315.378C181.619 315.378 181.425 315.458 181.282 315.6C181.14 315.743 181.06 315.937 181.06 316.138C181.06 316.34 181.14 316.534 181.282 316.676C181.425 316.819 181.619 316.899 181.82 316.899H193.332C193.436 316.899 193.54 316.878 193.636 316.837C193.732 316.795 193.818 316.734 193.889 316.658C193.961 316.581 194.016 316.491 194.051 316.393C194.085 316.294 194.1 316.189 194.092 316.085L193.286 303.007C193.281 302.905 193.255 302.806 193.211 302.714C193.166 302.623 193.104 302.541 193.027 302.474C192.952 302.407 192.864 302.356 192.769 302.323C192.673 302.291 192.572 302.277 192.472 302.284C192.371 302.29 192.273 302.315 192.182 302.36C192.091 302.404 192.011 302.466 191.944 302.541C191.877 302.617 191.827 302.705 191.794 302.801C191.762 302.896 191.749 302.997 191.757 303.098L192.472 314.761C192.477 314.839 192.466 314.918 192.44 314.991C192.413 315.065 192.372 315.133 192.319 315.19C192.265 315.247 192.201 315.292 192.129 315.323C192.057 315.354 191.979 315.37 191.901 315.37L181.82 315.378Z" fill="#292929"/>
<path d="M333.352 75.4614L338.236 79.0144L296.97 130.514L292.093 126.954V92.5037L333.352 75.4614Z" fill="#97DE40"/>
<path d="M296.97 131.077C296.85 131.078 296.732 131.041 296.635 130.971L291.751 127.41C291.677 127.357 291.618 127.287 291.577 127.207C291.536 127.126 291.514 127.037 291.515 126.946V92.5039C291.515 92.3917 291.548 92.282 291.61 92.1886C291.673 92.0953 291.761 92.0223 291.865 91.9789L333.131 74.9366C333.222 74.8994 333.321 74.8861 333.418 74.8981C333.515 74.9101 333.608 74.9469 333.687 75.0051L338.571 78.5657C338.634 78.6114 338.687 78.6693 338.726 78.736C338.766 78.8027 338.791 78.8767 338.801 78.9536C338.811 79.0305 338.805 79.1087 338.784 79.1832C338.763 79.2578 338.727 79.3273 338.678 79.3874L297.411 130.88C297.356 130.943 297.289 130.993 297.212 131.027C297.136 131.062 297.053 131.079 296.97 131.077ZM292.656 126.657L296.863 129.7L337.415 79.0907L333.276 76.0474L292.663 92.7854L292.656 126.657Z" fill="#292929"/>
<path d="M338.236 79.0146V113.464L296.97 130.514V96.057L338.236 79.0146Z" fill="#FAF7F2"/>
<path d="M296.97 131.077C296.819 131.077 296.674 131.017 296.567 130.91C296.46 130.803 296.399 130.658 296.399 130.507V96.0567C296.4 95.9445 296.433 95.8349 296.495 95.7415C296.558 95.6481 296.646 95.5752 296.749 95.5318L338.016 78.4895C338.101 78.4594 338.192 78.4499 338.282 78.4617C338.371 78.4736 338.456 78.5065 338.531 78.5577C338.605 78.609 338.666 78.6771 338.709 78.7565C338.752 78.8358 338.775 78.9243 338.777 79.0144V113.464C338.777 113.576 338.743 113.686 338.681 113.779C338.619 113.873 338.53 113.946 338.427 113.989L297.16 131.032C297.1 131.058 297.036 131.073 296.97 131.077ZM297.541 96.4372V129.654L337.666 113.084V79.8513L297.541 96.4372Z" fill="#292929"/>
<path d="M355.918 136.608V169.369L290.146 196.538V163.777L355.918 136.608Z" fill="#FAF7F2"/>
<path d="M290.145 197.109C289.993 197.109 289.848 197.049 289.741 196.941C289.634 196.834 289.574 196.689 289.574 196.538V163.777C289.574 163.665 289.608 163.555 289.67 163.462C289.732 163.369 289.821 163.296 289.924 163.252L355.704 136.083C355.789 136.053 355.88 136.044 355.97 136.056C356.059 136.068 356.145 136.1 356.219 136.152C356.293 136.203 356.354 136.271 356.397 136.35C356.44 136.43 356.463 136.518 356.465 136.608V169.369C356.465 169.481 356.432 169.591 356.369 169.684C356.307 169.778 356.219 169.851 356.115 169.894L290.335 197.063C290.275 197.089 290.21 197.104 290.145 197.109ZM290.715 164.158V195.686L355.385 168.989V137.461L290.715 164.158Z" fill="#292929"/>
<path d="M319.277 161.708C319.145 161.707 319.018 161.661 318.917 161.578C318.816 161.494 318.746 161.379 318.72 161.25C318.694 161.121 318.714 160.987 318.775 160.871C318.836 160.755 318.935 160.664 319.056 160.612L346.012 149.481C346.152 149.424 346.309 149.425 346.449 149.483C346.589 149.542 346.7 149.653 346.757 149.793C346.815 149.934 346.814 150.091 346.756 150.231C346.697 150.371 346.586 150.481 346.445 150.539L319.49 161.67C319.422 161.696 319.349 161.709 319.277 161.708Z" fill="#292929"/>
<path d="M319.277 168.928C319.145 168.927 319.018 168.881 318.917 168.798C318.816 168.715 318.746 168.599 318.72 168.47C318.694 168.341 318.714 168.208 318.775 168.092C318.836 167.975 318.935 167.884 319.056 167.832L346.012 156.694C346.081 156.666 346.156 156.651 346.231 156.651C346.306 156.652 346.38 156.667 346.449 156.696C346.518 156.725 346.581 156.767 346.634 156.82C346.687 156.873 346.729 156.937 346.757 157.006C346.786 157.075 346.8 157.15 346.8 157.225C346.8 157.3 346.785 157.374 346.756 157.443C346.727 157.513 346.685 157.576 346.631 157.628C346.578 157.681 346.515 157.723 346.445 157.752L319.49 168.867C319.423 168.901 319.351 168.922 319.277 168.928Z" fill="#292929"/>
<path d="M319.277 176.156C319.145 176.155 319.018 176.109 318.917 176.026C318.816 175.942 318.746 175.827 318.72 175.698C318.694 175.569 318.714 175.435 318.775 175.319C318.836 175.203 318.935 175.112 319.056 175.06L346.012 163.929C346.152 163.872 346.309 163.872 346.449 163.931C346.589 163.989 346.7 164.101 346.757 164.241C346.815 164.382 346.814 164.539 346.756 164.679C346.697 164.819 346.586 164.929 346.445 164.987L319.49 176.118C319.422 176.144 319.349 176.157 319.277 176.156Z" fill="#292929"/>
<path d="M294.908 87.6041C294.777 87.6034 294.65 87.5575 294.549 87.4741C294.447 87.3906 294.378 87.2748 294.352 87.1461C294.326 87.0174 294.345 86.8838 294.407 86.7676C294.468 86.6515 294.567 86.5599 294.688 86.5085L319.665 76.207C319.735 76.1786 319.809 76.164 319.884 76.1643C319.959 76.1646 320.034 76.1796 320.103 76.2086C320.172 76.2376 320.235 76.2799 320.288 76.3331C320.341 76.3864 320.383 76.4495 320.411 76.519C320.44 76.5884 320.454 76.6628 320.454 76.7378C320.453 76.8129 320.438 76.8871 320.409 76.9564C320.381 77.0256 320.338 77.0885 320.285 77.1413C320.232 77.1942 320.169 77.2361 320.099 77.2646L295.159 87.566C295.08 87.5974 294.994 87.6104 294.908 87.6041Z" fill="#292929"/>
<path d="M201.861 195.617V200.958L143.217 225.183V219.842L201.861 195.617Z" fill="#FAF7F2"/>
<path d="M143.216 225.753C143.065 225.753 142.92 225.693 142.813 225.586C142.706 225.479 142.646 225.334 142.646 225.183V219.857C142.646 219.745 142.679 219.635 142.741 219.542C142.804 219.448 142.892 219.375 142.996 219.332L201.639 195.115C201.724 195.085 201.815 195.076 201.905 195.087C201.994 195.099 202.079 195.132 202.154 195.183C202.228 195.235 202.289 195.303 202.332 195.382C202.375 195.462 202.398 195.55 202.4 195.64V200.966C202.4 201.078 202.367 201.188 202.304 201.281C202.242 201.375 202.154 201.447 202.05 201.491L143.406 225.708C143.346 225.734 143.282 225.749 143.216 225.753ZM143.787 220.222V224.331L201.289 200.585V196.477L143.787 220.222Z" fill="#292929"/>
<path d="M345.441 284.587L265.008 317.706L168.825 253.592L249.259 220.473L345.441 284.587Z" fill="#FAF7F2"/>
<path d="M265.007 318.277C264.893 318.276 264.782 318.242 264.688 318.178L168.513 254.079C168.426 254.022 168.357 253.942 168.312 253.848C168.268 253.754 168.249 253.65 168.26 253.547C168.27 253.443 168.308 253.345 168.37 253.262C168.432 253.178 168.516 253.114 168.612 253.074L249.045 219.956C249.132 219.92 249.225 219.906 249.318 219.915C249.411 219.925 249.501 219.957 249.578 220.009L345.76 284.116C345.847 284.173 345.916 284.253 345.961 284.347C346.006 284.44 346.024 284.544 346.014 284.648C346.003 284.751 345.965 284.85 345.903 284.933C345.841 285.016 345.758 285.081 345.661 285.12L265.22 318.231C265.153 318.26 265.081 318.275 265.007 318.277ZM170.034 253.714L265.068 317.059L344.239 284.466L249.197 221.12L170.034 253.714Z" fill="#292929"/>
<path d="M155.115 282.548L112.662 300.047C111.8 300.408 110.862 300.549 109.933 300.457C109.003 300.365 108.111 300.044 107.336 299.522L105.305 298.168L100.276 294.813L38.7789 253.828L36.2378 252.139C35.9827 251.962 35.7791 251.72 35.6477 251.439C35.5162 251.158 35.4617 250.847 35.4895 250.537C35.5173 250.228 35.6266 249.932 35.8061 249.678C35.9857 249.425 36.2291 249.224 36.5117 249.095L80.3576 231.056C80.6466 230.935 80.9615 230.887 81.2737 230.917C81.5859 230.948 81.8855 231.056 82.1455 231.231L86.5734 234.176L148.078 275.161L153.107 278.516L155.328 279.946C155.542 280.1 155.713 280.305 155.823 280.544C155.934 280.783 155.981 281.046 155.959 281.308C155.938 281.57 155.849 281.822 155.701 282.039C155.553 282.257 155.351 282.432 155.115 282.548Z" fill="#FAF7F2"/>
<path d="M110.501 301.029C109.271 301.029 108.069 300.663 107.047 299.979L35.9562 252.557C35.6086 252.325 35.33 252.003 35.1497 251.626C34.9693 251.249 34.8938 250.83 34.9312 250.413C34.9685 249.997 35.1174 249.598 35.362 249.259C35.6066 248.92 35.938 248.653 36.3214 248.486L80.1749 230.493C80.5503 230.336 80.9589 230.275 81.3639 230.315C81.7689 230.354 82.1577 230.494 82.4954 230.721L155.633 279.467C155.934 279.675 156.176 279.959 156.333 280.29C156.491 280.621 156.559 280.987 156.532 281.352C156.504 281.718 156.381 282.07 156.175 282.373C155.97 282.676 155.688 282.92 155.359 283.081L112.905 300.58C112.141 300.887 111.324 301.04 110.501 301.029ZM81.1183 231.421C80.9459 231.42 80.7751 231.454 80.6161 231.52L36.7626 249.559C36.5692 249.646 36.4025 249.783 36.2798 249.956C36.1572 250.129 36.0831 250.331 36.0652 250.542C36.0474 250.754 36.0864 250.966 36.1783 251.157C36.2701 251.348 36.4115 251.511 36.5876 251.629L107.678 299.02C108.372 299.485 109.17 299.771 110.001 299.854C110.831 299.936 111.67 299.812 112.441 299.492L154.88 281.993C155.028 281.918 155.154 281.806 155.246 281.668C155.338 281.529 155.392 281.369 155.404 281.204C155.415 281.038 155.383 280.872 155.312 280.722C155.24 280.573 155.13 280.444 154.994 280.35L147.796 275.549L81.8715 231.612C81.6436 231.479 81.3818 231.415 81.1183 231.429V231.421Z" fill="#292929"/>
<path d="M155.115 282.548L112.661 300.047C111.8 300.408 110.862 300.548 109.932 300.457C109.003 300.365 108.111 300.044 107.336 299.522L105.304 298.168L100.275 294.813L148.085 275.13L153.114 278.486L155.328 279.946C155.542 280.099 155.712 280.305 155.823 280.544C155.933 280.782 155.98 281.046 155.959 281.308C155.937 281.57 155.848 281.822 155.7 282.039C155.553 282.257 155.351 282.432 155.115 282.548Z" fill="#FAF7F2"/>
<path d="M110.501 301.029C109.271 301.029 108.069 300.663 107.047 299.979L99.9864 295.269C99.8998 295.212 99.8305 295.132 99.7859 295.038C99.7412 294.945 99.723 294.841 99.7332 294.737C99.7434 294.634 99.7815 294.535 99.8436 294.452C99.9056 294.369 99.9892 294.304 100.085 294.265L147.895 274.621C147.981 274.585 148.075 274.572 148.168 274.581C148.261 274.59 148.35 274.622 148.428 274.674L155.64 279.482C155.942 279.691 156.183 279.975 156.341 280.305C156.498 280.636 156.567 281.002 156.539 281.368C156.512 281.733 156.389 282.085 156.183 282.388C155.977 282.691 155.696 282.935 155.366 283.096L112.913 300.595C112.146 300.898 111.326 301.046 110.501 301.029ZM101.508 294.942L107.678 299.058C108.372 299.523 109.17 299.809 110 299.892C110.831 299.974 111.67 299.85 112.441 299.53L154.879 282.031C155.028 281.956 155.154 281.844 155.246 281.706C155.338 281.567 155.392 281.407 155.404 281.242C155.415 281.076 155.383 280.91 155.311 280.761C155.24 280.611 155.13 280.482 154.994 280.388L148.047 275.754L101.508 294.942Z" fill="#292929"/>
<path d="M204.424 236.108C204.293 236.108 204.166 236.062 204.064 235.978C203.963 235.895 203.894 235.779 203.868 235.65C203.842 235.522 203.861 235.388 203.922 235.272C203.983 235.156 204.083 235.064 204.203 235.013L215.152 230.493C215.292 230.436 215.449 230.436 215.589 230.495C215.729 230.553 215.84 230.665 215.897 230.805C215.955 230.946 215.954 231.103 215.896 231.243C215.837 231.383 215.726 231.493 215.585 231.551L204.637 236.055C204.57 236.087 204.498 236.105 204.424 236.108Z" fill="#292929"/>
<path d="M312.506 306.621C311.738 306.615 310.98 306.455 310.276 306.149C308.953 305.563 308.093 304.513 308.138 303.539C308.158 303.276 308.236 303.02 308.368 302.79C308.499 302.561 308.681 302.365 308.899 302.215C309.376 301.916 309.912 301.724 310.47 301.65C311.028 301.577 311.595 301.624 312.133 301.789C313.776 302.17 314.993 303.121 315.252 304.201C315.331 304.53 315.312 304.875 315.198 305.194C315.085 305.512 314.882 305.791 314.613 305.997C314.004 306.443 313.259 306.664 312.506 306.621ZM310.87 302.771C310.41 302.749 309.955 302.871 309.569 303.121C309.49 303.172 309.423 303.241 309.373 303.321C309.323 303.401 309.291 303.491 309.28 303.585C309.28 303.996 309.767 304.673 310.74 305.107C311.859 305.601 313.259 305.601 313.86 305.107C313.966 305.039 314.048 304.939 314.095 304.821C314.141 304.704 314.15 304.575 314.119 304.452C313.997 303.927 313.236 303.212 311.836 302.893C311.52 302.815 311.195 302.775 310.87 302.771Z" fill="#292929"/>
<path d="M312.103 272.437L251.367 297.437L233.746 285.698L206.402 267.476L200.331 263.437L254.509 241.129L261.082 238.421L267.154 242.468L294.239 260.53H294.246L312.103 272.437Z" fill="#FAF7F2"/>
<path d="M251.366 298.008C251.252 298.008 251.141 297.973 251.047 297.909L200.019 263.901C199.932 263.844 199.863 263.764 199.818 263.67C199.773 263.576 199.755 263.472 199.765 263.369C199.776 263.266 199.814 263.167 199.876 263.084C199.938 263.001 200.021 262.936 200.118 262.897L260.861 237.888C260.947 237.852 261.041 237.838 261.134 237.848C261.227 237.857 261.316 237.889 261.394 237.942L294.497 260.005H294.558L312.414 271.912C312.501 271.969 312.57 272.049 312.615 272.143C312.659 272.237 312.678 272.341 312.667 272.444C312.657 272.547 312.619 272.646 312.557 272.729C312.495 272.813 312.411 272.877 312.315 272.917L251.579 297.917C251.515 297.962 251.443 297.993 251.366 298.008ZM201.54 263.551L251.427 296.791L310.893 272.338L293.987 261.063H293.926L261.021 239.121L201.54 263.551Z" fill="#292929"/>
<path d="M267.154 242.468L206.402 267.476L200.331 263.437L254.509 241.129L261.082 238.421L267.154 242.468Z" fill="#97DE40"/>
<path d="M206.402 268.047C206.288 268.047 206.177 268.012 206.083 267.948L199.996 263.908C199.91 263.851 199.84 263.771 199.796 263.678C199.751 263.584 199.733 263.48 199.743 263.376C199.753 263.273 199.791 263.175 199.853 263.091C199.915 263.008 199.999 262.943 200.095 262.904L260.839 237.896C260.925 237.86 261.019 237.846 261.112 237.855C261.205 237.865 261.294 237.897 261.371 237.949L267.458 241.989C267.544 242.046 267.614 242.126 267.658 242.22C267.703 242.314 267.721 242.418 267.711 242.521C267.701 242.625 267.663 242.723 267.601 242.806C267.539 242.89 267.455 242.954 267.359 242.994L206.615 268.002C206.548 268.031 206.476 268.046 206.402 268.047ZM201.548 263.551L206.471 266.83L265.951 242.339L261.021 239.06L201.548 263.551Z" fill="#292929"/>
<path d="M265.86 250.411C270.486 251.492 272.518 254.779 270.235 256.665C268.607 258.012 265.389 257.875 263 256.825C260.9 255.897 259.416 254.261 259.485 252.8C259.561 250.921 262.163 249.514 265.86 250.411Z" fill="#97DE40"/>
<path d="M266.902 258.225C265.48 258.214 264.075 257.917 262.771 257.35C260.39 256.3 258.838 254.459 258.921 252.785C258.95 252.354 259.075 251.935 259.287 251.559C259.499 251.182 259.793 250.858 260.146 250.609C261.5 249.59 263.631 249.316 265.997 249.849C268.994 250.548 271.224 252.237 271.672 254.147C271.803 254.689 271.772 255.258 271.582 255.783C271.393 256.307 271.054 256.765 270.607 257.099C269.538 257.889 268.23 258.287 266.902 258.225ZM263.684 250.716C262.676 250.659 261.677 250.926 260.831 251.477C260.615 251.627 260.435 251.822 260.304 252.05C260.172 252.277 260.092 252.531 260.07 252.793C260.017 253.972 261.348 255.441 263.243 256.27C265.639 257.327 268.568 257.289 269.885 256.194C270.167 255.996 270.384 255.717 270.506 255.394C270.628 255.071 270.65 254.719 270.569 254.383C270.28 253.158 268.682 251.621 265.746 250.936C265.069 250.784 264.377 250.71 263.684 250.716Z" fill="#292929"/>
<path d="M312.103 272.437L251.367 297.438L233.746 285.698V267.477L266.096 269.652V262.151L294.239 260.53H294.246L312.103 272.437Z" fill="#292929"/>
<path d="M251.366 298.008C251.252 298.008 251.141 297.974 251.046 297.909L233.426 286.162C233.349 286.11 233.285 286.04 233.242 285.958C233.198 285.875 233.175 285.784 233.175 285.691V267.477C233.175 267.398 233.191 267.32 233.222 267.248C233.254 267.176 233.3 267.112 233.357 267.058C233.474 266.953 233.627 266.899 233.783 266.906L265.525 269.036V262.151C265.525 262.005 265.58 261.864 265.681 261.758C265.782 261.652 265.919 261.588 266.065 261.58L294.215 259.96C294.342 259.954 294.467 259.989 294.573 260.059L312.429 271.966C312.516 272.023 312.585 272.103 312.63 272.196C312.674 272.29 312.693 272.394 312.682 272.497C312.672 272.601 312.634 272.699 312.572 272.783C312.51 272.866 312.426 272.931 312.33 272.97L251.594 297.97C251.522 297.999 251.444 298.012 251.366 298.008ZM234.316 285.386L251.434 296.799L310.892 272.338L294.086 261.131L266.696 262.714V269.675C266.697 269.754 266.681 269.831 266.65 269.903C266.619 269.975 266.573 270.039 266.516 270.093C266.459 270.147 266.391 270.188 266.318 270.214C266.244 270.24 266.166 270.251 266.088 270.246L234.346 268.116L234.316 285.386Z" fill="#292929"/>
<path d="M311.189 114.355C311.102 114.354 311.016 114.333 310.938 114.294L304.037 110.878C303.963 110.84 303.898 110.786 303.846 110.721C303.795 110.655 303.758 110.579 303.739 110.498C303.721 110.416 303.72 110.332 303.737 110.251C303.754 110.169 303.789 110.092 303.839 110.025L310.74 100.896C310.832 100.775 310.968 100.695 311.118 100.674C311.269 100.654 311.422 100.694 311.543 100.785C311.664 100.877 311.743 101.013 311.764 101.164C311.785 101.314 311.745 101.467 311.653 101.588L305.171 110.155L311.455 113.267C311.569 113.324 311.661 113.418 311.715 113.534C311.77 113.65 311.784 113.781 311.755 113.906C311.726 114.03 311.656 114.141 311.556 114.222C311.456 114.302 311.332 114.346 311.204 114.347L311.189 114.355Z" fill="#292929"/>
<path d="M324.504 108.854C324.398 108.854 324.294 108.824 324.204 108.769C324.114 108.713 324.041 108.633 323.994 108.538C323.946 108.444 323.926 108.338 323.936 108.232C323.945 108.126 323.984 108.026 324.048 107.941L330.53 99.3741L324.23 96.2548C324.103 96.1829 324.008 96.0647 323.965 95.9246C323.922 95.7846 323.935 95.6334 324 95.5024C324.066 95.3714 324.179 95.2707 324.317 95.2209C324.454 95.1712 324.606 95.1763 324.74 95.2353L331.641 98.6513C331.715 98.689 331.78 98.7426 331.832 98.8082C331.883 98.8739 331.92 98.95 331.938 99.0312C331.957 99.1125 331.958 99.1968 331.941 99.2784C331.924 99.36 331.889 99.4368 331.838 99.5034L324.938 108.633C324.886 108.7 324.821 108.754 324.746 108.792C324.671 108.83 324.588 108.851 324.504 108.854Z" fill="#292929"/>
<path d="M313.427 117.078C313.361 117.09 313.294 117.09 313.229 117.078C313.155 117.052 313.088 117.011 313.031 116.958C312.974 116.905 312.928 116.841 312.897 116.77C312.866 116.699 312.849 116.622 312.849 116.544C312.848 116.466 312.864 116.389 312.894 116.317L321.735 92.7853C321.795 92.6531 321.903 92.5488 322.037 92.4934C322.171 92.438 322.321 92.4358 322.456 92.4872C322.592 92.5385 322.703 92.6396 322.767 92.7699C322.831 92.9002 322.842 93.0498 322.8 93.1885L313.959 116.705C313.919 116.814 313.846 116.908 313.751 116.975C313.656 117.042 313.543 117.078 313.427 117.078Z" fill="#292929"/>
<path d="M313.685 168.684C313.354 167.539 312.619 166.552 311.616 165.907L312.376 163.328L308.945 162.788L307.332 165.223C305.825 165.528 304.398 166.142 303.14 167.026L301.504 165.968L298.096 169.43L298.857 171.385C298.418 172.039 298.031 172.725 297.7 173.44C297.386 174.119 297.131 174.824 296.94 175.547L294.558 177.023L294.505 181.01L296.833 180.576C297.162 181.722 297.898 182.71 298.902 183.353L298.142 185.94L301.573 186.48L303.186 184.038C304.692 183.738 306.119 183.129 307.378 182.25L309.014 183.323L312.422 179.861L311.661 177.906C312.098 177.251 312.485 176.564 312.818 175.851C313.132 175.17 313.387 174.462 313.579 173.736L315.914 172.268L315.975 168.274L313.685 168.684ZM309.014 175.235C307.796 177.845 305.111 179.693 303.011 179.366C300.911 179.039 300.203 176.65 301.421 174.041C302.638 171.431 305.324 169.575 307.424 169.909C309.523 170.244 310.261 172.618 309.014 175.235Z" fill="#292929" stroke="#292929" stroke-width="1.14123" stroke-linecap="round" stroke-linejoin="round"/>
<path d="M86.6113 234.13L38.8092 253.812L36.268 252.123C36.013 251.946 35.8094 251.705 35.6779 251.423C35.5465 251.142 35.4919 250.831 35.5198 250.522C35.5476 250.213 35.6568 249.916 35.8364 249.663C36.0159 249.41 36.2594 249.209 36.5419 249.08L80.3878 231.041C80.6769 230.919 80.9918 230.871 81.304 230.902C81.6161 230.933 81.9158 231.04 82.1758 231.216L86.6113 234.13Z" fill="#FAF7F2"/>
<path d="M38.8092 254.383C38.6952 254.383 38.5839 254.348 38.4897 254.284L35.9562 252.557C35.6086 252.325 35.33 252.003 35.1497 251.626C34.9693 251.249 34.8938 250.83 34.9312 250.413C34.9685 249.997 35.1174 249.598 35.362 249.259C35.6066 248.92 35.938 248.653 36.3214 248.486L80.1749 230.493C80.5503 230.336 80.9589 230.275 81.3639 230.315C81.7689 230.354 82.1577 230.494 82.4954 230.721L86.9233 233.666C87.0099 233.723 87.0793 233.803 87.1239 233.897C87.1685 233.99 87.1867 234.094 87.1765 234.198C87.1664 234.301 87.1282 234.4 87.0662 234.483C87.0041 234.566 86.9205 234.631 86.8244 234.67L39.0223 254.352C38.9539 254.376 38.8815 254.386 38.8092 254.383ZM81.1183 231.429C80.9459 231.428 80.7751 231.461 80.6161 231.528L36.7626 249.567C36.5692 249.654 36.4025 249.79 36.2798 249.963C36.1572 250.136 36.0831 250.339 36.0652 250.55C36.0474 250.761 36.0864 250.973 36.1783 251.164C36.2701 251.355 36.4115 251.518 36.5876 251.636L38.8701 253.158L85.3941 234.001L81.8639 231.65C81.6423 231.505 81.383 231.428 81.1183 231.429Z" fill="#292929"/>
<path d="M56.4905 244.142C56.3592 244.142 56.2322 244.096 56.1308 244.012C56.0295 243.929 55.96 243.813 55.9341 243.684C55.9082 243.556 55.9274 243.422 55.9886 243.306C56.0497 243.19 56.1491 243.098 56.2699 243.047L66.1605 238.991C66.3007 238.934 66.4581 238.935 66.5979 238.993C66.7377 239.052 66.8486 239.163 66.9061 239.303C66.9636 239.444 66.963 239.601 66.9045 239.741C66.846 239.881 66.7344 239.991 66.5941 240.049L56.7035 244.104C56.6357 244.131 56.5633 244.144 56.4905 244.142Z" fill="#292929"/>
<path d="M131.363 267.796L91.9373 284.032L80.4946 276.409L62.7371 264.586L58.8037 261.953L93.9763 247.475L98.2369 245.717L102.17 248.342L119.76 260.066H119.768L131.363 267.796Z" fill="#FAF7F2"/>
<path d="M91.9298 284.603C91.8158 284.602 91.7045 284.568 91.6103 284.504L58.4767 262.44C58.3901 262.383 58.3207 262.303 58.2761 262.209C58.2315 262.116 58.2133 262.012 58.2235 261.908C58.2336 261.805 58.2718 261.706 58.3338 261.623C58.3959 261.54 58.4795 261.475 58.5756 261.436L98.0087 245.192C98.0951 245.157 98.1888 245.143 98.2817 245.153C98.3745 245.162 98.4637 245.194 98.5413 245.246L120.012 259.564H120.072L131.667 267.294C131.754 267.351 131.823 267.431 131.868 267.525C131.912 267.619 131.931 267.723 131.921 267.826C131.91 267.929 131.872 268.028 131.81 268.111C131.748 268.194 131.664 268.259 131.568 268.298L92.1809 284.557C92.1018 284.591 92.0159 284.607 91.9298 284.603ZM59.9755 262.075L91.9298 283.378L130.085 267.667L119.433 260.569H119.372L98.0696 246.387L94.1894 247.992L59.9755 262.075Z" fill="#292929"/>
<path d="M102.178 248.342L62.7371 264.578L58.8037 261.953L93.9687 247.475L98.2369 245.717L102.178 248.342Z" fill="#97DE40"/>
<path d="M62.7374 265.149C62.6234 265.148 62.5121 265.114 62.4179 265.05L58.4845 262.448C58.3979 262.39 58.3285 262.311 58.2839 262.217C58.2393 262.123 58.2211 262.019 58.2313 261.916C58.2414 261.812 58.2796 261.714 58.3416 261.631C58.4037 261.547 58.4873 261.483 58.5834 261.443L98.0166 245.208C98.1029 245.172 98.1966 245.159 98.2895 245.168C98.3823 245.177 98.4715 245.209 98.5491 245.261L102.49 247.886C102.577 247.943 102.646 248.023 102.691 248.116C102.735 248.21 102.754 248.314 102.743 248.418C102.733 248.521 102.695 248.619 102.633 248.703C102.571 248.786 102.487 248.851 102.391 248.89L62.9581 265.111C62.8878 265.138 62.8128 265.151 62.7374 265.149ZM60.0061 262.105L62.7983 263.969L100.969 248.258L98.1687 246.394L60.0061 262.105Z" fill="#292929"/>
<path d="M101.311 253.5C104.308 254.2 105.632 256.338 104.148 257.563C103.091 258.438 101.006 258.324 99.4466 257.662C98.0848 257.061 97.1261 255.996 97.1642 255.045C97.2555 253.835 98.9369 252.937 101.311 253.5Z" fill="#97DE40"/>
<path d="M102.01 258.773C101.059 258.765 100.12 258.566 99.2481 258.187C97.6275 257.472 96.5776 256.201 96.6308 255.022C96.6502 254.712 96.7388 254.41 96.8903 254.139C97.0417 253.868 97.252 253.634 97.5058 253.455C98.0907 253.089 98.7474 252.854 99.4314 252.765C100.115 252.675 100.81 252.734 101.47 252.937C103.493 253.409 104.992 254.565 105.274 255.874C105.364 256.262 105.34 256.669 105.205 257.044C105.071 257.419 104.83 257.747 104.513 257.989C103.792 258.527 102.909 258.804 102.01 258.773ZM99.9176 253.904C99.3064 253.873 98.7013 254.038 98.1905 254.375C98.072 254.455 97.9724 254.559 97.8987 254.682C97.8251 254.804 97.7793 254.941 97.7645 255.083C97.7645 255.76 98.5709 256.65 99.7046 257.145C101.226 257.799 102.999 257.791 103.813 257.145C103.966 257.039 104.084 256.889 104.151 256.716C104.217 256.542 104.229 256.352 104.186 256.171C104.011 255.41 103.022 254.505 101.203 254.079C100.783 253.969 100.352 253.908 99.9176 253.896V253.904Z" fill="#292929"/>
<path d="M131.362 267.796L91.9368 284.032L80.4941 276.409V264.585L101.485 265.993V261.116L119.76 260.066H119.768L131.362 267.796Z" fill="#292929"/>
<path d="M91.9292 284.603C91.8152 284.602 91.7039 284.568 91.6096 284.504L80.1973 276.896C80.1202 276.843 80.0569 276.773 80.0132 276.691C79.9694 276.609 79.9465 276.517 79.9463 276.424V264.586C79.9463 264.507 79.9625 264.429 79.9939 264.357C80.0253 264.285 80.0713 264.221 80.1289 264.167C80.1863 264.115 80.2535 264.074 80.3266 264.048C80.3998 264.022 80.4774 264.011 80.5549 264.015L100.945 265.384V261.124C100.945 260.978 101.001 260.837 101.101 260.731C101.202 260.625 101.339 260.561 101.485 260.553L119.745 259.503C119.871 259.498 119.996 259.532 120.102 259.602L131.697 267.332C131.784 267.389 131.853 267.469 131.898 267.563C131.942 267.657 131.96 267.761 131.95 267.864C131.94 267.967 131.902 268.066 131.84 268.149C131.778 268.232 131.694 268.297 131.598 268.336L92.1802 284.557C92.1011 284.591 92.0152 284.607 91.9292 284.603ZM81.0571 276.104L91.99 283.385L130.145 267.674L119.6 260.644L102.071 261.687V266.016C102.071 266.094 102.055 266.172 102.024 266.243C101.993 266.315 101.948 266.38 101.891 266.433C101.833 266.487 101.766 266.528 101.692 266.554C101.619 266.581 101.54 266.592 101.462 266.586L81.0723 265.217L81.0571 276.104Z" fill="#292929"/>
<path d="M134.185 287.866L129.46 289.837C129.279 289.912 129.082 289.941 128.887 289.921C128.692 289.901 128.505 289.833 128.342 289.723C128.163 289.603 128.02 289.437 127.929 289.242C127.837 289.047 127.801 288.831 127.823 288.617C127.844 288.402 127.924 288.198 128.053 288.026C128.182 287.854 128.356 287.72 128.555 287.638L133.31 285.683C133.492 285.608 133.689 285.579 133.884 285.599C134.079 285.619 134.266 285.687 134.429 285.797C134.603 285.92 134.74 286.088 134.827 286.283C134.913 286.478 134.946 286.692 134.921 286.904C134.896 287.116 134.815 287.317 134.685 287.486C134.556 287.656 134.383 287.787 134.185 287.866Z" fill="#FAF7F2"/>
<path d="M128.973 290.484C128.565 290.486 128.169 290.345 127.853 290.087C127.537 289.828 127.321 289.468 127.241 289.067C127.162 288.667 127.225 288.251 127.419 287.892C127.613 287.532 127.926 287.252 128.304 287.098L133.059 285.143C133.273 285.055 133.502 285.01 133.733 285.011C133.964 285.011 134.193 285.057 134.406 285.146C134.62 285.235 134.813 285.365 134.976 285.529C135.139 285.693 135.269 285.888 135.357 286.101C135.445 286.315 135.489 286.544 135.489 286.775C135.488 287.007 135.442 287.235 135.353 287.449C135.264 287.662 135.134 287.856 134.97 288.019C134.806 288.182 134.612 288.311 134.398 288.399L129.643 290.354C129.43 290.441 129.203 290.485 128.973 290.484ZM133.736 286.147C133.655 286.147 133.575 286.162 133.5 286.193L128.745 288.148C128.642 288.191 128.553 288.261 128.487 288.35C128.421 288.44 128.38 288.546 128.369 288.656C128.358 288.767 128.377 288.879 128.425 288.98C128.472 289.08 128.546 289.166 128.639 289.228C128.723 289.285 128.819 289.321 128.92 289.331C129.021 289.342 129.123 289.327 129.217 289.289L133.98 287.334C134.082 287.291 134.172 287.221 134.238 287.132C134.304 287.042 134.345 286.936 134.356 286.826C134.367 286.715 134.347 286.603 134.3 286.502C134.252 286.402 134.178 286.316 134.086 286.254C133.983 286.183 133.861 286.146 133.736 286.147Z" fill="#292929"/>
<path d="M331.825 323.283C332.9 322.407 333.061 320.825 332.184 319.751C331.308 318.676 329.727 318.515 328.652 319.391C327.577 320.267 327.416 321.849 328.293 322.924C329.169 323.998 330.75 324.159 331.825 323.283Z" fill="#97DE40"/>
<path d="M200.293 173.089C200.471 171.54 199.36 170.141 197.811 169.962C196.263 169.784 194.863 170.895 194.685 172.444C194.507 173.993 195.618 175.393 197.166 175.571C198.715 175.749 200.115 174.638 200.293 173.089Z" fill="#97DE40"/>
<path d="M35.1147 161.723L30.9131 165.925L35.1147 170.126L39.3163 165.925L35.1147 161.723Z" fill="#97DE40"/>
<path d="M370.935 159.201L375.521 156.463L372.784 151.877L368.198 154.614L370.935 159.201Z" fill="#292929"/>
<path d="M268.827 170.306L272.864 166.81L269.368 162.772L265.33 166.268L268.827 170.306Z" fill="#97DE40"/>
<path d="M360.762 273.519L364.8 270.022L361.304 265.985L357.266 269.481L360.762 273.519Z" fill="#292929"/>
<path d="M142.004 255.73L146.042 252.234L142.546 248.197L138.508 251.693L142.004 255.73Z" fill="#97DE40"/>
<path d="M268.597 26.0835L262.405 19.8914L256.213 26.0835L262.405 32.2756L268.597 26.0835Z" fill="#97DE40"/>
<path d="M139.367 313.597L133.691 319.311L141.482 321.365L139.367 313.597Z" fill="#97DE40"/>
<path d="M20.877 250.191L14.334 248.76L16.3654 255.151L20.877 250.191Z" fill="#292929"/>
<path d="M354.298 180.264L348.15 185.461L355.728 188.184L354.298 180.264Z" fill="#97DE40"/>
<path d="M232.278 193.031L233.746 181.946L223.414 186.214L232.278 193.031Z" fill="#292929"/>
</svg>
