<svg width="1088" height="346" viewBox="0 0 1088 346" fill="none" xmlns="http://www.w3.org/2000/svg">
<path d="M568.986 344.915C568.681 344.915 568.389 344.794 568.173 344.579C567.958 344.363 567.837 344.071 567.837 343.766V221.655H570.119L570.119 343.766C570.119 344.069 570 344.358 569.788 344.573C569.576 344.789 569.288 344.911 568.986 344.915Z" fill="#292929"/>
<path d="M568.985 345.486C568.529 345.486 568.092 345.305 567.769 344.982C567.447 344.66 567.266 344.223 567.266 343.767V221.655C567.266 221.504 567.326 221.359 567.433 221.252C567.54 221.145 567.685 221.085 567.836 221.085H570.119C570.27 221.085 570.415 221.145 570.522 221.252C570.629 221.359 570.689 221.504 570.689 221.655V343.774C570.687 344.226 570.507 344.659 570.188 344.98C569.869 345.3 569.437 345.482 568.985 345.486ZM568.407 222.234V343.774C568.407 343.927 568.468 344.075 568.576 344.183C568.685 344.291 568.832 344.352 568.985 344.352C569.138 344.352 569.286 344.291 569.394 344.183C569.502 344.075 569.563 343.927 569.563 343.774V222.226L568.407 222.234Z" fill="#292929"/>
<path d="M568.985 0.797607C569.29 0.797607 569.582 0.918645 569.798 1.13409C570.013 1.34954 570.134 1.64175 570.134 1.94644V124.058H567.852V1.93883C567.854 1.63808 567.973 1.3501 568.185 1.13672C568.397 0.923338 568.684 0.801585 568.985 0.797607Z" fill="#292929"/>
<path d="M570.134 124.628H567.852C567.701 124.628 567.555 124.568 567.448 124.461C567.341 124.354 567.281 124.209 567.281 124.058V1.93893C567.281 1.48291 567.462 1.04556 567.785 0.723099C568.107 0.40064 568.545 0.219482 569.001 0.219482C569.457 0.219482 569.894 0.40064 570.217 0.723099C570.539 1.04556 570.72 1.48291 570.72 1.93893V124.058C570.72 124.134 570.705 124.209 570.675 124.28C570.646 124.35 570.602 124.413 570.548 124.467C570.493 124.52 570.428 124.562 570.357 124.589C570.286 124.617 570.211 124.63 570.134 124.628ZM568.407 123.487H569.564V1.93893C569.564 1.78558 569.503 1.63851 569.394 1.53007C569.286 1.42163 569.139 1.36071 568.985 1.36071C568.832 1.36071 568.685 1.42163 568.577 1.53007C568.468 1.63851 568.407 1.78558 568.407 1.93893V123.487Z" fill="#292929"/>
<path d="M776.993 172.857C776.993 173.161 776.872 173.453 776.657 173.669C776.441 173.884 776.149 174.005 775.844 174.005H604.66V171.723H775.844C776.149 171.723 776.441 171.844 776.657 172.059C776.872 172.275 776.993 172.567 776.993 172.872V172.857Z" fill="#292929"/>
<path d="M1085.84 174.576H604.659C604.508 174.576 604.363 174.516 604.256 174.409C604.149 174.302 604.089 174.157 604.089 174.005V171.723C604.089 171.572 604.149 171.426 604.256 171.319C604.363 171.212 604.508 171.152 604.659 171.152H1085.84C1086.3 171.152 1086.74 171.333 1087.06 171.656C1087.38 171.978 1087.56 172.416 1087.56 172.872C1087.56 173.328 1087.38 173.765 1087.06 174.088C1086.74 174.41 1086.3 174.591 1085.84 174.591V174.576ZM605.2 173.435H1085.84C1086 173.435 1086.14 173.374 1086.25 173.265C1086.36 173.157 1086.42 173.01 1086.42 172.857C1086.42 172.703 1086.36 172.556 1086.25 172.448C1086.14 172.339 1086 172.278 1085.84 172.278H605.2V173.435Z" fill="#292929"/>
<path d="M360.978 172.857C360.978 172.552 361.099 172.26 361.314 172.044C361.529 171.829 361.822 171.708 362.126 171.708H533.31V173.99H362.126C361.822 173.99 361.529 173.869 361.314 173.654C361.099 173.438 360.978 173.146 360.978 172.841V172.857Z" fill="#292929"/>
<path d="M533.341 174.576H2.15694C1.70092 174.576 1.26358 174.395 0.941117 174.072C0.618658 173.75 0.4375 173.313 0.4375 172.857C0.4375 172.401 0.618658 171.963 0.941117 171.641C1.26358 171.318 1.70092 171.137 2.15694 171.137H533.341C533.492 171.137 533.637 171.197 533.744 171.304C533.851 171.411 533.911 171.556 533.911 171.708V173.99C533.913 174.066 533.9 174.142 533.872 174.213C533.845 174.284 533.803 174.349 533.75 174.404C533.697 174.458 533.633 174.502 533.563 174.531C533.492 174.561 533.417 174.576 533.341 174.576ZM2.15694 172.294C2.00359 172.294 1.85652 172.355 1.74809 172.463C1.63965 172.571 1.57873 172.719 1.57873 172.872C1.57873 173.025 1.63965 173.172 1.74809 173.281C1.85652 173.389 2.00359 173.45 2.15694 173.45H532.77V172.294H2.15694Z" fill="#292929"/>
<path d="M626.282 172.857C626.282 184.189 622.921 195.267 616.626 204.689C610.33 214.112 601.381 221.456 590.911 225.792C580.442 230.129 568.921 231.264 557.807 229.053C546.692 226.842 536.483 221.385 528.469 213.372C520.456 205.359 514.999 195.149 512.788 184.035C510.578 172.92 511.712 161.4 516.049 150.93C520.386 140.46 527.73 131.512 537.152 125.216C546.575 118.92 557.652 115.559 568.985 115.559C576.513 115.546 583.969 117.02 590.927 119.894C597.884 122.769 604.206 126.989 609.529 132.312C614.852 137.635 619.072 143.957 621.947 150.914C624.822 157.872 626.295 165.329 626.282 172.857Z" fill="#FAF7F2"/>
<path d="M568.985 230.724C555.262 230.719 541.989 225.833 531.538 216.941C521.087 208.048 514.139 195.729 511.936 182.185C509.733 168.64 512.419 154.754 519.513 143.008C526.608 131.262 537.648 122.422 550.662 118.068C563.675 113.714 577.813 114.13 590.547 119.242C603.282 124.354 613.784 133.828 620.175 145.971C626.567 158.114 628.431 172.134 625.435 185.526C622.439 198.917 614.779 210.806 603.822 219.069C593.791 226.647 581.557 230.74 568.985 230.724ZM568.985 116.138C554.055 116.311 539.795 122.363 529.298 132.982C518.802 143.6 512.915 157.929 512.915 172.86C512.915 187.791 518.802 202.12 529.298 212.739C539.795 223.358 554.055 229.41 568.985 229.583C576.434 229.584 583.811 228.118 590.694 225.267C597.577 222.417 603.831 218.238 609.099 212.971C614.366 207.703 618.545 201.449 621.395 194.566C624.246 187.683 625.712 180.306 625.711 172.857C625.693 157.817 619.711 143.399 609.076 132.765C598.442 122.13 584.024 116.148 568.985 116.13V116.138Z" fill="#292929"/>
<path d="M555.884 161.284C552.08 149.043 556.797 138.148 570.819 136.938C582.178 135.949 591.361 144.022 588.371 152.992L572.204 164.769L555.884 161.284Z" fill="#292929"/>
<path d="M572.203 165.324H572.082L555.762 161.855C555.663 161.834 555.571 161.787 555.496 161.719C555.422 161.651 555.366 161.564 555.336 161.467C553.19 154.62 553.715 148.267 556.804 143.656C559.635 139.434 564.466 136.915 570.765 136.368C577.339 135.797 583.555 138.163 587.001 142.546C588.208 144.007 589.017 145.756 589.35 147.622C589.683 149.488 589.529 151.408 588.903 153.197C588.866 153.31 588.794 153.408 588.698 153.478L572.538 165.248C572.437 165.307 572.32 165.334 572.203 165.324ZM556.333 160.76L572.074 164.107L587.884 152.588C588.404 151.002 588.514 149.31 588.204 147.67C587.894 146.03 587.174 144.494 586.111 143.207C582.9 139.122 577.057 136.916 570.895 137.456C564.945 137.973 560.411 140.324 557.778 144.242C554.902 148.51 554.4 154.384 556.325 160.798L556.333 160.76Z" fill="#292929"/>
<path d="M561.506 149.104C553.137 147.065 546.944 148.274 545.438 155.86C544.008 163.08 546.244 173.602 545.233 179.552C545.177 180.042 545.014 180.514 544.756 180.934C544.497 181.355 544.149 181.713 543.737 181.984C543.325 182.254 542.858 182.431 542.369 182.501C541.881 182.571 541.383 182.533 540.911 182.39C543.658 187.814 558.41 187.053 560.632 179.917L561.506 149.104Z" fill="#292929"/>
<path d="M549.348 186.513C545.673 186.513 541.778 185.38 540.401 182.656C540.351 182.557 540.331 182.446 540.343 182.336C540.356 182.227 540.399 182.123 540.469 182.037C540.539 181.952 540.633 181.889 540.738 181.855C540.843 181.822 540.956 181.82 541.063 181.849C541.451 181.963 541.859 181.994 542.26 181.941C542.661 181.887 543.046 181.749 543.391 181.537C543.741 181.303 544.037 180.996 544.259 180.638C544.48 180.28 544.623 179.878 544.677 179.46C545.133 176.782 544.905 173.108 544.677 169.22C544.395 164.548 544.098 159.717 544.89 155.761C545.491 152.718 546.845 150.542 548.937 149.21C551.805 147.377 555.967 147.164 561.658 148.556C561.785 148.587 561.897 148.661 561.976 148.765C562.054 148.869 562.095 148.996 562.092 149.127L561.217 179.94C561.224 179.99 561.224 180.041 561.217 180.092C559.901 184.269 554.986 186.118 550.824 186.452C550.314 186.49 549.835 186.513 549.348 186.513ZM542.12 183.09C543.726 184.718 547.02 185.615 550.687 185.311C554.354 185.007 558.873 183.401 560.06 179.818L560.92 149.545C555.845 148.373 552.018 148.579 549.508 150.161C547.667 151.333 546.51 153.205 545.97 155.966C545.209 159.77 545.498 164.541 545.78 169.136C546.016 173.092 546.244 176.836 545.78 179.635C545.698 180.21 545.496 180.76 545.187 181.25C544.877 181.741 544.467 182.16 543.984 182.481C543.425 182.839 542.783 183.049 542.12 183.09Z" fill="#292929"/>
<path d="M555.884 161.855C555.761 161.856 555.642 161.817 555.543 161.744C555.445 161.672 555.372 161.569 555.336 161.452C554.187 157.997 553.805 154.334 554.218 150.717C554.227 150.643 554.251 150.571 554.288 150.506C554.326 150.441 554.376 150.385 554.435 150.339C554.495 150.294 554.563 150.261 554.635 150.242C554.707 150.223 554.783 150.219 554.857 150.23C555.006 150.251 555.141 150.33 555.232 150.449C555.323 150.569 555.363 150.72 555.344 150.869C554.956 154.32 555.325 157.815 556.424 161.11C556.455 161.196 556.464 161.289 556.451 161.381C556.438 161.472 556.403 161.559 556.349 161.633C556.295 161.708 556.224 161.769 556.142 161.81C556.06 161.851 555.968 161.872 555.876 161.87L555.884 161.855Z" fill="#FAF7F2"/>
<path d="M139.514 27.79H180.659V66.5917L139.514 67.2308V27.79Z" fill="#FAF7F2"/>
<path d="M139.513 67.8015C139.362 67.8015 139.217 67.7414 139.11 67.6343C139.002 67.5273 138.942 67.3822 138.942 67.2309V27.7901C138.942 27.6388 139.002 27.4936 139.11 27.3866C139.217 27.2796 139.362 27.2195 139.513 27.2195H180.658C180.809 27.2195 180.954 27.2796 181.061 27.3866C181.168 27.4936 181.229 27.6388 181.229 27.7901V66.5918C181.229 66.7418 181.17 66.8858 181.064 66.9926C180.959 67.0994 180.816 67.1604 180.666 67.1624L139.521 67.8015H139.513ZM140.084 28.3683V66.6526L180.087 66.0288V28.3683H140.084Z" fill="#292929"/>
<path d="M171.255 41.3402H150.523C150.371 41.3402 150.226 41.2801 150.119 41.1731C150.012 41.0661 149.952 40.9209 149.952 40.7696C149.952 40.6183 150.012 40.4731 150.119 40.3661C150.226 40.2591 150.371 40.199 150.523 40.199H171.255C171.406 40.199 171.551 40.2591 171.659 40.3661C171.766 40.4731 171.826 40.6183 171.826 40.7696C171.826 40.9209 171.766 41.0661 171.659 41.1731C171.551 41.2801 171.406 41.3402 171.255 41.3402Z" fill="#292929"/>
<path d="M162.003 48.7657H150.523C150.371 48.7657 150.226 48.7056 150.119 48.5986C150.012 48.4916 149.952 48.3465 149.952 48.1951C149.952 48.0438 150.012 47.8987 150.119 47.7916C150.226 47.6846 150.371 47.6245 150.523 47.6245H162.003C162.155 47.6245 162.3 47.6846 162.407 47.7916C162.514 47.8987 162.574 48.0438 162.574 48.1951C162.574 48.3465 162.514 48.4916 162.407 48.5986C162.3 48.7056 162.155 48.7657 162.003 48.7657Z" fill="#292929"/>
<path d="M603.473 218.604C592.81 226.638 579.676 230.694 566.341 230.073C553.005 229.452 540.305 224.193 530.435 215.204C534.573 197.195 535.897 193.475 553.746 188.796C555.427 188.354 557.269 187.905 559.262 187.434C559.262 187.434 558.996 166.542 558.189 165.857C554.111 165.203 553.358 161.665 554.568 159.299C554.729 158.985 554.933 158.695 555.176 158.439C557.17 156.309 561.567 156.156 562.731 160.486C566.756 158.454 568.772 152.619 568.567 144.448C574.357 149.872 582.939 149.012 585.921 145.916C587.208 148.097 588.026 150.522 588.325 153.037C588.782 156.689 588.386 161.216 587.602 168.474C586.598 177.421 578.252 179.552 575.072 179.552V187.738C577.194 188.164 579.15 188.56 580.96 188.955C593.134 191.611 598.604 194.114 600.681 204.126C601.7 209.117 602.727 214.466 603.473 218.604Z" fill="#97DE40"/>
<path d="M568.985 230.724C554.567 230.74 540.667 225.354 530.023 215.63C529.949 215.561 529.895 215.474 529.866 215.378C529.836 215.282 529.833 215.18 529.856 215.082C534.017 196.974 535.524 192.98 553.578 188.248C555.008 187.875 556.621 187.487 558.66 186.985C558.561 179.62 558.242 168.208 557.763 166.367C556.964 166.255 556.203 165.957 555.542 165.495C554.881 165.034 554.338 164.423 553.958 163.711C553.606 162.981 553.428 162.179 553.439 161.369C553.449 160.558 553.648 159.761 554.019 159.04C554.204 158.676 554.44 158.341 554.719 158.043C555.351 157.386 556.142 156.905 557.015 156.644C557.889 156.384 558.815 156.355 559.703 156.56C560.464 156.754 561.165 157.134 561.743 157.665C562.322 158.196 562.761 158.862 563.02 159.603C566.405 157.45 568.155 152.101 567.965 144.387C567.962 144.274 567.992 144.164 568.052 144.068C568.111 143.973 568.198 143.898 568.3 143.851C568.403 143.805 568.516 143.79 568.627 143.808C568.738 143.826 568.841 143.877 568.924 143.953C574.424 149.111 582.618 148.419 585.472 145.475C585.533 145.41 585.609 145.36 585.693 145.33C585.778 145.299 585.868 145.289 585.957 145.3C586.046 145.312 586.131 145.343 586.205 145.394C586.279 145.444 586.341 145.51 586.384 145.589C587.705 147.837 588.546 150.334 588.857 152.923C589.336 156.765 588.857 161.581 588.134 168.489C587.161 177.421 579.103 179.826 575.619 180.061L575.665 187.236C577.589 187.624 579.408 187.997 581.082 188.362C593.582 191.086 599.143 193.855 601.236 203.974C602.095 208.105 603.031 212.982 604.028 218.429C604.046 218.533 604.035 218.64 603.996 218.738C603.957 218.836 603.892 218.922 603.807 218.985C593.802 226.613 581.566 230.738 568.985 230.724ZM531.035 215.006C540.774 223.776 553.25 228.903 566.342 229.514C579.434 230.126 592.334 226.185 602.849 218.361C601.882 213.035 600.962 208.28 600.125 204.248C598.192 194.882 593.392 192.25 580.846 189.518C579.18 189.146 577.361 188.757 575.444 188.4L574.965 188.301C574.836 188.275 574.721 188.205 574.638 188.104C574.555 188.003 574.509 187.877 574.508 187.746V179.559C574.508 179.408 574.568 179.263 574.675 179.156C574.782 179.049 574.927 178.989 575.079 178.989C577.879 178.989 586.088 177.049 587.031 168.413C587.792 161.566 588.218 156.834 587.792 153.106C587.537 150.902 586.86 148.769 585.799 146.821C582.436 149.53 574.79 150.1 569.182 145.695C569.182 153.585 566.991 158.994 563.012 160.995C562.937 161.033 562.854 161.054 562.77 161.056C562.685 161.058 562.602 161.041 562.524 161.007C562.447 160.973 562.379 160.922 562.324 160.858C562.268 160.794 562.228 160.719 562.206 160.638C562.07 159.942 561.745 159.297 561.265 158.775C560.786 158.252 560.171 157.873 559.49 157.678C558.798 157.519 558.077 157.541 557.397 157.744C556.717 157.947 556.101 158.323 555.609 158.835C555.401 159.062 555.227 159.318 555.092 159.595C554.801 160.156 554.644 160.776 554.634 161.407C554.623 162.038 554.759 162.663 555.031 163.232C555.365 163.82 555.836 164.318 556.404 164.684C556.973 165.05 557.622 165.272 558.295 165.332C558.399 165.348 558.496 165.393 558.577 165.461C559.246 166.024 559.672 173.427 559.855 187.464C559.856 187.594 559.814 187.721 559.733 187.823C559.653 187.926 559.54 187.998 559.414 188.027C557.184 188.552 555.434 188.986 553.913 189.389C536.505 193.893 535.09 197.393 531.035 215.006Z" fill="#292929"/>
<path d="M587.58 168.467C586.598 177.421 578.252 179.552 575.072 179.552V187.738C577.195 188.164 579.15 188.56 580.961 188.955L568.141 201.494L553.686 188.788C555.367 188.347 557.208 187.898 559.201 187.426C559.201 187.426 559.042 174.994 558.608 168.999C558.479 167.219 558.327 166.002 558.136 165.849L557.939 165.804L557.512 165.712C557.375 165.681 557.241 165.641 557.109 165.591C556.48 165.407 555.901 165.084 555.414 164.646C554.927 164.208 554.546 163.666 554.297 163.06C554.049 162.454 553.94 161.8 553.979 161.146C554.018 160.492 554.204 159.856 554.522 159.284C556.006 156.385 561.37 155.639 562.694 160.47C566.718 158.439 568.734 152.604 568.529 144.432C574.319 149.857 582.901 148.997 585.883 145.901C589.117 151.607 588.927 156.058 587.58 168.467Z" fill="#FAF7F2"/>
<path d="M568.156 202.072C568.016 202.072 567.881 202.021 567.776 201.927L553.321 189.222C553.243 189.154 553.184 189.066 553.153 188.967C553.121 188.869 553.116 188.763 553.14 188.662C553.163 188.561 553.214 188.469 553.286 188.395C553.358 188.32 553.449 188.267 553.549 188.24C554.979 187.867 556.592 187.479 558.631 186.985C558.631 184.702 558.426 174.424 558.045 169.136C558.043 169.108 558.043 169.08 558.045 169.052C558.007 168.149 557.906 167.249 557.741 166.359L557.391 166.283C557.231 166.248 557.073 166.202 556.919 166.146C556.226 165.946 555.586 165.593 555.046 165.114C554.507 164.635 554.081 164.041 553.8 163.377C553.525 162.68 553.402 161.933 553.439 161.185C553.475 160.438 553.671 159.706 554.013 159.04C554.508 158.165 555.247 157.454 556.141 156.993C557.034 156.532 558.042 156.342 559.042 156.446C559.941 156.541 560.793 156.893 561.497 157.46C562.202 158.026 562.728 158.783 563.013 159.641C566.399 157.488 568.149 152.139 567.959 144.425C567.956 144.312 567.986 144.202 568.045 144.106C568.105 144.011 568.192 143.936 568.294 143.889C568.396 143.843 568.51 143.828 568.621 143.846C568.732 143.864 568.835 143.915 568.917 143.991C574.418 149.149 582.612 148.457 585.465 145.513C585.526 145.448 585.6 145.398 585.684 145.368C585.767 145.337 585.856 145.327 585.944 145.338C586.032 145.348 586.117 145.379 586.191 145.428C586.265 145.477 586.326 145.542 586.37 145.619C589.657 151.417 589.49 155.959 588.128 168.52C587.154 177.452 579.097 179.856 575.612 180.092L575.658 187.266C577.583 187.654 579.401 188.027 581.075 188.392C581.176 188.415 581.268 188.464 581.343 188.534C581.418 188.605 581.472 188.695 581.5 188.794C581.528 188.893 581.529 188.998 581.503 189.097C581.476 189.196 581.423 189.287 581.349 189.359L568.529 201.897C568.431 202 568.298 202.062 568.156 202.072ZM554.903 189.077L568.134 200.725L579.82 189.313C578.443 189.016 576.982 188.727 575.453 188.415L574.973 188.316C574.845 188.29 574.73 188.221 574.647 188.119C574.564 188.018 574.518 187.892 574.517 187.761V179.574C574.517 179.423 574.577 179.278 574.684 179.171C574.791 179.064 574.936 179.004 575.088 179.004C577.887 179.004 586.097 177.064 587.04 168.428C588.303 156.803 588.615 152.231 585.769 146.844C582.407 149.553 574.76 150.123 569.153 145.718C569.153 153.608 566.962 159.017 562.983 161.018C562.908 161.056 562.825 161.077 562.74 161.079C562.656 161.081 562.572 161.064 562.495 161.03C562.418 160.996 562.349 160.945 562.294 160.881C562.239 160.817 562.199 160.742 562.176 160.661C561.522 158.234 559.894 157.709 558.966 157.617C558.195 157.531 557.416 157.672 556.724 158.022C556.033 158.372 555.458 158.916 555.07 159.588C554.803 160.106 554.649 160.675 554.618 161.258C554.588 161.84 554.683 162.423 554.895 162.966C555.121 163.477 555.456 163.932 555.876 164.298C556.297 164.665 556.793 164.935 557.33 165.089C557.444 165.132 557.561 165.168 557.68 165.195L558.098 165.286H558.175H558.296C558.388 165.303 558.474 165.342 558.547 165.4C558.768 165.583 558.996 165.766 559.217 168.87C559.219 168.898 559.219 168.926 559.217 168.953C559.651 174.895 559.81 187.289 559.818 187.411C559.82 187.541 559.777 187.668 559.696 187.77C559.616 187.873 559.503 187.944 559.377 187.974C557.619 188.4 556.174 188.75 554.903 189.077Z" fill="#292929"/>
<path d="M966.009 37.7905H997.393L1007.67 44.6911L1008.35 76.3411C1008.35 76.3411 965.743 77.6954 966.009 77.2846C966.275 76.8737 966.009 37.7905 966.009 37.7905Z" fill="#FAF7F2"/>
<path d="M968.74 77.9313C965.697 77.9313 965.629 77.7943 965.507 77.5737C965.434 77.4383 965.418 77.2798 965.461 77.1324C965.636 75.801 965.545 52.9308 965.461 37.7982C965.461 37.6468 965.521 37.5017 965.628 37.3947C965.735 37.2877 965.88 37.2275 966.032 37.2275H997.416C997.53 37.2278 997.641 37.2623 997.735 37.3264L1008.01 44.2271C1008.09 44.2785 1008.15 44.3475 1008.2 44.4283C1008.24 44.5091 1008.26 44.5993 1008.26 44.6912L1008.94 76.3412C1008.94 76.4161 1008.93 76.4907 1008.9 76.5607C1008.88 76.6307 1008.84 76.6948 1008.79 76.7492C1008.73 76.8036 1008.67 76.8473 1008.6 76.8778C1008.54 76.9083 1008.46 76.925 1008.39 76.927C1008.39 76.927 997.857 77.2617 987.297 77.5509C976.934 77.8171 971.563 77.9313 968.74 77.9313ZM966.587 76.7748C970.117 76.889 992.455 76.2651 1007.76 75.7782L1007.11 44.9879L997.218 38.3536H966.58C966.777 67.1429 966.701 74.713 966.595 76.7596L966.587 76.7748Z" fill="#292929"/>
<path d="M997.742 46.6693C997.595 46.6694 997.453 46.6124 997.347 46.5103C997.24 46.4082 997.178 46.2688 997.172 46.1215L996.791 37.8134C996.788 37.7384 996.8 37.6637 996.826 37.5933C996.852 37.5229 996.892 37.4583 996.942 37.4032C996.993 37.3481 997.055 37.3036 997.123 37.2721C997.191 37.2407 997.264 37.2229 997.339 37.2199C997.414 37.2169 997.489 37.2287 997.559 37.2546C997.63 37.2805 997.694 37.3201 997.749 37.3709C997.805 37.4218 997.849 37.483 997.881 37.5511C997.912 37.6192 997.93 37.6928 997.933 37.7677L998.26 45.4444L1007.56 44.1282C1007.64 44.1164 1007.72 44.1197 1007.79 44.138C1007.86 44.1562 1007.93 44.1891 1007.99 44.2345C1008.05 44.2799 1008.1 44.337 1008.14 44.4024C1008.18 44.4678 1008.2 44.5401 1008.21 44.6151C1008.22 44.6896 1008.22 44.7654 1008.2 44.8383C1008.18 44.9112 1008.15 44.9796 1008.1 45.0397C1008.06 45.0998 1008 45.1504 1007.94 45.1885C1007.87 45.2266 1007.8 45.2515 1007.72 45.2618L997.796 46.6693H997.742Z" fill="#292929"/>
<path d="M990.758 52.0104H978.532C978.38 52.0104 978.235 51.9503 978.128 51.8432C978.021 51.7362 977.961 51.5911 977.961 51.4398C977.961 51.2884 978.021 51.1433 978.128 51.0363C978.235 50.9293 978.38 50.8691 978.532 50.8691H990.773C990.924 50.8691 991.07 50.9293 991.177 51.0363C991.284 51.1433 991.344 51.2884 991.344 51.4398C991.344 51.5911 991.284 51.7362 991.177 51.8432C991.07 51.9503 990.924 52.0104 990.773 52.0104H990.758Z" fill="#292929"/>
<path d="M999.203 59.5956H978.532C978.38 59.5956 978.235 59.5355 978.128 59.4284C978.021 59.3214 977.961 59.1763 977.961 59.025C977.961 58.8736 978.021 58.7285 978.128 58.6215C978.235 58.5145 978.38 58.4543 978.532 58.4543H999.218C999.37 58.4543 999.515 58.5145 999.622 58.6215C999.729 58.7285 999.789 58.8736 999.789 59.025C999.789 59.1763 999.729 59.3214 999.622 59.4284C999.515 59.5355 999.37 59.5956 999.218 59.5956H999.203Z" fill="#292929"/>
<path d="M734.556 63.79L781.042 64.5509C781.042 64.5509 779.33 98.9246 781.902 106.875L736.405 107.925C736.405 107.925 732.601 90.5404 734.556 63.79Z" fill="#FAF7F2"/>
<path d="M736.404 108.496C736.274 108.495 736.149 108.451 736.048 108.369C735.947 108.287 735.877 108.174 735.849 108.047C735.811 107.872 732.045 90.2741 734 63.7521C734.01 63.6074 734.074 63.4719 734.18 63.3729C734.286 63.274 734.426 63.2192 734.571 63.2195L781.057 63.9803C781.134 63.9812 781.21 63.9977 781.28 64.0287C781.35 64.0597 781.414 64.1046 781.466 64.1608C781.519 64.2169 781.56 64.2831 781.586 64.3554C781.612 64.4277 781.624 64.5045 781.62 64.5813C781.62 64.9237 779.938 98.9399 782.449 106.708C782.479 106.793 782.489 106.885 782.476 106.975C782.464 107.065 782.431 107.151 782.378 107.225C782.326 107.3 782.257 107.361 782.177 107.403C782.097 107.445 782.007 107.468 781.916 107.469L736.404 108.496ZM735.103 64.3683C733.43 88.0526 736.313 104.433 736.876 107.339L781.171 106.343C779.033 97.8367 780.25 69.7169 780.463 65.1291L735.103 64.3683Z" fill="#292929"/>
<path d="M767.096 75.0502H747.885C747.734 75.0502 747.589 74.99 747.482 74.883C747.375 74.776 747.314 74.6309 747.314 74.4795C747.314 74.3282 747.375 74.1831 747.482 74.0761C747.589 73.9691 747.734 73.9089 747.885 73.9089H767.088C767.239 73.9089 767.385 73.9691 767.492 74.0761C767.599 74.1831 767.659 74.3282 767.659 74.4795C767.659 74.6309 767.599 74.776 767.492 74.883C767.385 74.99 767.239 75.0502 767.088 75.0502H767.096Z" fill="#292929"/>
<path d="M763.36 83.6551H747.885C747.734 83.6551 747.589 83.595 747.482 83.488C747.375 83.381 747.314 83.2359 747.314 83.0845C747.314 82.9332 747.375 82.7881 747.482 82.681C747.589 82.574 747.734 82.5139 747.885 82.5139H763.36C763.511 82.5139 763.657 82.574 763.764 82.681C763.871 82.7881 763.931 82.9332 763.931 83.0845C763.931 83.2359 763.871 83.381 763.764 83.488C763.657 83.595 763.511 83.6551 763.36 83.6551Z" fill="#292929"/>
<path d="M767.712 91.9784H761.573C761.421 91.9784 761.276 91.9183 761.169 91.8112C761.062 91.7042 761.002 91.5591 761.002 91.4078C761.002 91.2564 761.062 91.1113 761.169 91.0043C761.276 90.8973 761.421 90.8372 761.573 90.8372H767.712C767.864 90.8372 768.009 90.8973 768.116 91.0043C768.223 91.1113 768.283 91.2564 768.283 91.4078C768.283 91.5591 768.223 91.7042 768.116 91.8112C768.009 91.9183 767.864 91.9784 767.712 91.9784Z" fill="#292929"/>
<path d="M754.018 91.9784H746.41C746.258 91.9784 746.113 91.9183 746.006 91.8112C745.899 91.7042 745.839 91.5591 745.839 91.4078C745.839 91.2564 745.899 91.1113 746.006 91.0043C746.113 90.8973 746.258 90.8372 746.41 90.8372H754.018C754.169 90.8372 754.314 90.8973 754.421 91.0043C754.528 91.1113 754.588 91.2564 754.588 91.4078C754.588 91.5591 754.528 91.7042 754.421 91.8112C754.314 91.9183 754.169 91.9784 754.018 91.9784Z" fill="#292929"/>
<path d="M759.32 98.5292H747.39C747.239 98.5292 747.093 98.469 746.986 98.362C746.879 98.255 746.819 98.1099 746.819 97.9586C746.819 97.8072 746.879 97.6621 746.986 97.5551C747.093 97.4481 747.239 97.3879 747.39 97.3879H759.32C759.471 97.3879 759.616 97.4481 759.723 97.5551C759.83 97.6621 759.89 97.8072 759.89 97.9586C759.89 98.1099 759.83 98.255 759.723 98.362C759.616 98.469 759.471 98.5292 759.32 98.5292Z" fill="#292929"/>
<path d="M603.701 49.8857L643.499 39.5767C643.499 39.5767 639.558 54.2376 651.282 77.8914C651.282 77.8914 633.921 79.2609 612.184 87.4473C604.678 76.4632 601.644 63.0296 603.701 49.8857Z" fill="#FAF7F2"/>
<path d="M612.192 88.0255C612.104 88.0264 612.017 88.0069 611.938 87.9686C611.859 87.9304 611.79 87.8743 611.736 87.8049C611.614 87.6451 599.563 71.6375 603.138 49.764C603.157 49.6557 603.206 49.555 603.28 49.474C603.355 49.3931 603.451 49.3352 603.557 49.3075L643.355 38.9984C643.452 38.9729 643.553 38.9735 643.65 39.0003C643.746 39.027 643.833 39.0789 643.903 39.1506C643.973 39.2214 644.023 39.3092 644.048 39.4053C644.073 39.5014 644.073 39.6024 644.048 39.6984C644.01 39.8429 640.312 54.4582 651.793 77.6175C651.834 77.7009 651.854 77.7931 651.852 77.8861C651.849 77.9792 651.824 78.0701 651.778 78.1512C651.732 78.2322 651.667 78.3008 651.589 78.351C651.511 78.4012 651.421 78.4315 651.329 78.4392C651.154 78.4392 633.792 79.9 612.39 87.9646C612.328 87.9966 612.261 88.0173 612.192 88.0255ZM604.204 50.365C601.16 69.8039 610.716 84.404 612.39 86.7854C624.651 82.1591 637.423 79.0174 650.431 77.4273C640.662 57.3265 642.115 43.9513 642.769 40.3831L604.204 50.365Z" fill="#292929"/>
<path d="M616.156 61.7771C616.016 61.7768 615.881 61.7251 615.777 61.6319C615.673 61.5387 615.607 61.4105 615.591 61.2716C615.575 61.1328 615.61 60.9929 615.691 60.8785C615.771 60.7641 615.891 60.6832 616.027 60.6511L632.004 56.847C632.077 56.8296 632.152 56.8266 632.226 56.8384C632.301 56.8501 632.372 56.8763 632.436 56.9156C632.499 56.9548 632.555 57.0062 632.599 57.0669C632.643 57.1276 632.675 57.1964 632.692 57.2693C632.71 57.3422 632.713 57.4179 632.701 57.492C632.689 57.566 632.663 57.6371 632.624 57.701C632.585 57.7649 632.533 57.8205 632.473 57.8646C632.412 57.9087 632.343 57.9403 632.27 57.9578L616.293 61.7619L616.156 61.7771Z" fill="#292929"/>
<path d="M619.238 66.4943C619.098 66.4921 618.965 66.4391 618.862 66.3454C618.759 66.2516 618.694 66.1234 618.679 65.985C618.664 65.8467 618.7 65.7076 618.781 65.594C618.861 65.4804 618.98 65.4001 619.116 65.3683L632.05 62.5304C632.125 62.5071 632.205 62.4996 632.283 62.5086C632.362 62.5175 632.437 62.5427 632.506 62.5824C632.574 62.6222 632.633 62.6757 632.68 62.7395C632.726 62.8034 632.759 62.8762 632.776 62.9533C632.793 63.0305 632.793 63.1103 632.778 63.1878C632.762 63.2652 632.731 63.3386 632.686 63.4032C632.64 63.4679 632.582 63.5224 632.514 63.5634C632.447 63.6044 632.371 63.6309 632.293 63.6412L619.359 66.479L619.238 66.4943Z" fill="#292929"/>
<path d="M619.238 74.384C619.098 74.3818 618.965 74.3289 618.862 74.2351C618.759 74.1413 618.694 74.0131 618.679 73.8748C618.664 73.7364 618.7 73.5973 618.781 73.4837C618.861 73.3701 618.98 73.2898 619.116 73.258L625.59 71.8352C625.732 71.8165 625.876 71.8517 625.993 71.9338C626.11 72.016 626.192 72.1391 626.222 72.2788C626.253 72.4185 626.23 72.5646 626.158 72.6881C626.086 72.8117 625.97 72.9037 625.834 72.946L619.359 74.3688L619.238 74.384Z" fill="#292929"/>
<path d="M491.808 63.512H529.529V98.2965H493.527C493.527 98.2965 489.495 77.9979 491.808 63.512Z" fill="#292929"/>
<path d="M529.529 98.8748H493.527C493.395 98.8757 493.266 98.8307 493.164 98.7474C493.061 98.6642 492.99 98.5479 492.964 98.4183C492.926 98.2129 488.939 77.8763 491.244 63.4207C491.266 63.287 491.335 63.1654 491.438 63.0775C491.541 62.9897 491.672 62.9415 491.807 62.9414H529.529C529.68 62.9414 529.825 63.0015 529.932 63.1085C530.039 63.2155 530.099 63.3607 530.099 63.512V98.2966C530.1 98.3722 530.086 98.4472 530.058 98.5173C530.03 98.5874 529.988 98.6512 529.935 98.705C529.882 98.7588 529.819 98.8015 529.749 98.8307C529.679 98.8598 529.604 98.8748 529.529 98.8748ZM493.999 97.7336H528.996V64.0598H492.302C490.37 77.0698 493.436 94.6751 493.999 97.7336Z" fill="#292929"/>
<path d="M519.882 76.3317H501.067C500.915 76.3317 500.77 76.2715 500.663 76.1645C500.556 76.0575 500.496 75.9124 500.496 75.761C500.496 75.6097 500.556 75.4646 500.663 75.3576C500.77 75.2505 500.915 75.1904 501.067 75.1904H519.874C520.025 75.1904 520.171 75.2505 520.278 75.3576C520.385 75.4646 520.445 75.6097 520.445 75.761C520.445 75.9124 520.385 76.0575 520.278 76.1645C520.171 76.2715 520.025 76.3317 519.874 76.3317H519.882Z" fill="#292929"/>
<path d="M517.851 82.3192H499.043C498.892 82.3192 498.747 82.2591 498.64 82.1521C498.533 82.0451 498.473 81.8999 498.473 81.7486C498.473 81.5973 498.533 81.4521 498.64 81.3451C498.747 81.2381 498.892 81.178 499.043 81.178H517.851C518.002 81.178 518.147 81.2381 518.254 81.3451C518.361 81.4521 518.421 81.5973 518.421 81.7486C518.421 81.8999 518.361 82.0451 518.254 82.1521C518.147 82.2591 518.002 82.3192 517.851 82.3192Z" fill="#292929"/>
<path d="M514.001 89.3722H504.4C504.248 89.3722 504.103 89.3121 503.996 89.205C503.889 89.098 503.829 88.9529 503.829 88.8016C503.829 88.6502 503.889 88.5051 503.996 88.3981C504.103 88.2911 504.248 88.231 504.4 88.231H514.001C514.153 88.231 514.298 88.2911 514.405 88.3981C514.512 88.5051 514.572 88.6502 514.572 88.8016C514.572 88.9529 514.512 89.098 514.405 89.205C514.298 89.3121 514.153 89.3722 514.001 89.3722Z" fill="#292929"/>
<path d="M310.997 81.3616C311.939 91.5937 312.249 101.874 311.925 112.144L321.649 121.122H352.72C353.424 107.67 353.284 94.1873 352.302 80.7529C331.813 82.343 325.917 81.5518 310.997 81.3616Z" fill="#FAF7F2"/>
<path d="M352.743 121.7H321.672C321.528 121.7 321.389 121.646 321.284 121.548L311.56 112.57C311.501 112.515 311.454 112.448 311.422 112.373C311.391 112.298 311.376 112.218 311.378 112.137C311.683 101.886 311.358 91.6258 310.404 81.4149C310.396 81.3356 310.406 81.2556 310.431 81.1801C310.456 81.1046 310.497 81.0352 310.551 80.9765C310.605 80.9177 310.67 80.8708 310.743 80.8389C310.816 80.807 310.895 80.7906 310.974 80.791C314.459 80.8366 317.403 80.9127 320.249 80.9812C330.924 81.3848 341.613 81.1308 352.256 80.2204C352.408 80.2122 352.557 80.261 352.675 80.3573C352.79 80.4554 352.861 80.5949 352.873 80.7453C353.859 94.2024 353.999 107.708 353.291 121.183C353.278 121.321 353.216 121.45 353.115 121.545C353.014 121.64 352.882 121.695 352.743 121.7ZM321.892 120.559H352.203C352.87 107.502 352.738 94.4172 351.808 81.3768C341.316 82.2682 330.779 82.5223 320.256 82.1376C317.586 82.0692 314.832 82.0007 311.629 81.955C312.526 91.9177 312.828 101.925 312.534 111.924L321.892 120.559Z" fill="#292929"/>
<path d="M321.671 121.7C321.596 121.698 321.523 121.681 321.454 121.651C321.386 121.62 321.324 121.577 321.272 121.522C321.221 121.468 321.18 121.404 321.154 121.334C321.127 121.264 321.114 121.189 321.116 121.114L321.321 112.137L312.001 112.715C311.926 112.719 311.851 112.709 311.78 112.685C311.709 112.66 311.644 112.622 311.588 112.572C311.532 112.522 311.486 112.462 311.453 112.394C311.42 112.327 311.401 112.253 311.397 112.178C311.392 112.104 311.402 112.028 311.427 111.957C311.451 111.887 311.49 111.821 311.539 111.765C311.589 111.709 311.65 111.663 311.717 111.63C311.785 111.597 311.858 111.578 311.933 111.574L321.877 110.957C321.956 110.952 322.036 110.963 322.111 110.991C322.185 111.018 322.253 111.06 322.311 111.116C322.368 111.171 322.413 111.237 322.443 111.311C322.473 111.385 322.488 111.464 322.485 111.543L322.265 121.137C322.264 121.213 322.248 121.289 322.217 121.359C322.187 121.428 322.142 121.491 322.087 121.544C322.032 121.596 321.966 121.637 321.895 121.664C321.824 121.691 321.748 121.703 321.671 121.7Z" fill="#292929"/>
<path d="M343.476 93.3749H323.535C323.384 93.3749 323.239 93.3148 323.132 93.2077C323.025 93.1007 322.965 92.9556 322.965 92.8043C322.965 92.6529 323.025 92.5078 323.132 92.4008C323.239 92.2938 323.384 92.2336 323.535 92.2336H343.476C343.628 92.2336 343.773 92.2938 343.88 92.4008C343.987 92.5078 344.047 92.6529 344.047 92.8043C344.047 92.9556 343.987 93.1007 343.88 93.2077C343.773 93.3148 343.628 93.3749 343.476 93.3749Z" fill="#292929"/>
<path d="M493.885 123.715H488.338C488.187 123.715 488.042 123.655 487.935 123.548C487.828 123.441 487.768 123.296 487.768 123.145C487.768 122.993 487.828 122.848 487.935 122.741C488.042 122.634 488.187 122.574 488.338 122.574H493.9C494.051 122.574 494.196 122.634 494.303 122.741C494.41 122.848 494.47 122.993 494.47 123.145C494.47 123.296 494.41 123.441 494.303 123.548C494.196 123.655 494.051 123.715 493.9 123.715H493.885Z" fill="#292929"/>
<path d="M330.695 100.397H324.007C323.856 100.397 323.711 100.337 323.604 100.23C323.497 100.123 323.437 99.9778 323.437 99.8265C323.437 99.6751 323.497 99.53 323.604 99.423C323.711 99.316 323.856 99.2559 324.007 99.2559H330.695C330.846 99.2559 330.991 99.316 331.098 99.423C331.205 99.53 331.265 99.6751 331.265 99.8265C331.265 99.9778 331.205 100.123 331.098 100.23C330.991 100.337 330.846 100.397 330.695 100.397Z" fill="#292929"/>
<path d="M335.663 107.016H323.208C323.057 107.016 322.912 106.956 322.805 106.849C322.698 106.742 322.638 106.597 322.638 106.446C322.638 106.295 322.698 106.149 322.805 106.042C322.912 105.935 323.057 105.875 323.208 105.875H335.663C335.814 105.875 335.959 105.935 336.066 106.042C336.173 106.149 336.234 106.295 336.234 106.446C336.234 106.597 336.173 106.742 336.066 106.849C335.959 106.956 335.814 107.016 335.663 107.016Z" fill="#292929"/>
<path d="M153.794 64.2637H193.607C193.607 64.2637 189.636 75.7901 196.917 103.682H159.158C159.158 103.682 148.24 92.1781 153.794 64.2637Z" fill="#97DE40"/>
<path d="M196.917 104.252H159.158C159.081 104.252 159.005 104.236 158.935 104.206C158.864 104.176 158.8 104.132 158.747 104.077C158.291 103.598 147.692 92.0409 153.239 64.1569C153.265 64.0274 153.336 63.9111 153.439 63.8278C153.541 63.7446 153.67 63.6995 153.802 63.7005H193.615C193.707 63.7001 193.797 63.7217 193.878 63.7636C193.96 63.8054 194.03 63.8661 194.083 63.9407C194.136 64.0153 194.17 64.1015 194.183 64.1921C194.195 64.2827 194.186 64.375 194.156 64.4613C194.118 64.5754 190.352 76.2159 197.48 103.552C197.503 103.637 197.505 103.725 197.487 103.811C197.47 103.897 197.433 103.977 197.379 104.047C197.325 104.116 197.256 104.172 197.178 104.21C197.099 104.248 197.013 104.268 196.925 104.267L196.917 104.252ZM159.417 103.111H196.179C190.093 79.457 192.109 67.7937 192.847 64.8341H154.258C149.389 90.0323 158.131 101.574 159.417 103.111Z" fill="#292929"/>
<path d="M183.618 77.8595H163.075C162.924 77.8595 162.779 77.7994 162.672 77.6924C162.565 77.5854 162.505 77.4402 162.505 77.2889C162.505 77.1375 162.565 76.9924 162.672 76.8854C162.779 76.7784 162.924 76.7183 163.075 76.7183H183.618C183.769 76.7183 183.914 76.7784 184.021 76.8854C184.128 76.9924 184.188 77.1375 184.188 77.2889C184.188 77.4402 184.128 77.5854 184.021 77.6924C183.914 77.7994 183.769 77.8595 183.618 77.8595Z" fill="#292929"/>
<path d="M182.667 85.0568H163.053C162.902 85.0568 162.757 84.9966 162.65 84.8896C162.543 84.7826 162.482 84.6375 162.482 84.4861C162.482 84.3348 162.543 84.1897 162.65 84.0827C162.757 83.9756 162.902 83.9155 163.053 83.9155H182.667C182.818 83.9155 182.963 83.9756 183.07 84.0827C183.177 84.1897 183.238 84.3348 183.238 84.4861C183.238 84.6375 183.177 84.7826 183.07 84.8896C182.963 84.9966 182.818 85.0568 182.667 85.0568Z" fill="#292929"/>
<path d="M184.371 91.09H164.765C164.614 91.09 164.468 91.0298 164.361 90.9228C164.254 90.8158 164.194 90.6707 164.194 90.5193C164.194 90.368 164.254 90.2229 164.361 90.1159C164.468 90.0088 164.614 89.9487 164.765 89.9487H184.371C184.523 89.9487 184.668 90.0088 184.775 90.1159C184.882 90.2229 184.942 90.368 184.942 90.5193C184.942 90.6707 184.882 90.8158 184.775 90.9228C184.668 91.0298 184.523 91.09 184.371 91.09Z" fill="#292929"/>
<path d="M462.296 216.01L509.642 223.664C509.642 223.664 503.814 251.358 505.997 261.203L498.709 269.952C498.709 269.952 464.297 265.813 458.157 260.556L462.296 216.01Z" fill="#FAF7F2"/>
<path d="M498.739 270.515H498.67C497.255 270.348 464.015 266.3 457.815 260.982C457.745 260.923 457.691 260.847 457.656 260.763C457.622 260.678 457.608 260.586 457.617 260.495L461.725 215.957C461.732 215.879 461.756 215.803 461.794 215.734C461.831 215.666 461.883 215.606 461.945 215.558C462.007 215.51 462.079 215.475 462.155 215.456C462.231 215.437 462.31 215.434 462.387 215.447L509.763 223.07C509.839 223.082 509.912 223.109 509.978 223.15C510.043 223.191 510.1 223.245 510.144 223.308C510.188 223.371 510.219 223.443 510.234 223.518C510.25 223.594 510.25 223.672 510.235 223.747C510.174 224.021 504.453 251.434 506.591 261.028C506.609 261.113 506.607 261.201 506.586 261.285C506.565 261.369 506.525 261.448 506.469 261.514L499.18 270.264C499.131 270.337 499.066 270.398 498.989 270.441C498.912 270.485 498.827 270.51 498.739 270.515ZM458.788 260.297C464.974 265.045 495.117 268.917 498.503 269.343L505.419 261.05C503.532 251.685 508.158 228.252 509.002 224.135L462.821 216.672L458.788 260.297Z" fill="#292929"/>
<path d="M494.509 238.583H494.38L471.471 233.357C471.394 233.344 471.321 233.316 471.255 233.275C471.189 233.233 471.132 233.178 471.088 233.113C471.045 233.049 471.015 232.976 471 232.899C470.986 232.822 470.987 232.743 471.004 232.667C471.021 232.591 471.054 232.519 471.1 232.456C471.146 232.393 471.205 232.34 471.272 232.301C471.339 232.261 471.414 232.236 471.492 232.227C471.569 232.217 471.648 232.224 471.723 232.246L494.631 237.473C494.767 237.505 494.886 237.586 494.967 237.7C495.047 237.814 495.083 237.954 495.067 238.093C495.051 238.232 494.984 238.36 494.88 238.453C494.776 238.547 494.641 238.598 494.501 238.599L494.509 238.583Z" fill="#292929"/>
<path d="M489.351 253.747H489.222L470.536 249.486C470.459 249.474 470.385 249.446 470.319 249.404C470.253 249.362 470.197 249.307 470.153 249.243C470.109 249.178 470.079 249.105 470.065 249.028C470.05 248.952 470.052 248.873 470.069 248.797C470.086 248.72 470.119 248.649 470.165 248.586C470.211 248.523 470.269 248.47 470.337 248.43C470.404 248.391 470.479 248.365 470.556 248.356C470.634 248.347 470.712 248.353 470.787 248.375L489.473 252.636C489.609 252.668 489.728 252.749 489.809 252.863C489.889 252.977 489.925 253.117 489.909 253.256C489.893 253.395 489.826 253.523 489.722 253.617C489.618 253.71 489.483 253.761 489.343 253.762L489.351 253.747Z" fill="#292929"/>
<path d="M481.08 242.562H480.951L471.464 240.402C471.387 240.39 471.313 240.362 471.247 240.32C471.181 240.278 471.124 240.223 471.081 240.158C471.037 240.094 471.007 240.021 470.992 239.944C470.978 239.867 470.979 239.789 470.996 239.712C471.014 239.636 471.046 239.564 471.092 239.501C471.138 239.438 471.197 239.386 471.264 239.346C471.332 239.307 471.406 239.281 471.484 239.272C471.561 239.262 471.64 239.269 471.715 239.291L481.202 241.452C481.338 241.484 481.458 241.565 481.538 241.679C481.618 241.793 481.654 241.933 481.638 242.072C481.622 242.211 481.556 242.339 481.452 242.432C481.347 242.526 481.213 242.577 481.073 242.578L481.08 242.562Z" fill="#292929"/>
<path d="M537.784 260.176H495.741V300.811H537.784V260.176Z" fill="#FAF7F2"/>
<path d="M537.792 301.381H495.742C495.59 301.381 495.445 301.321 495.338 301.214C495.231 301.107 495.171 300.962 495.171 300.811V260.176C495.171 260.024 495.231 259.879 495.338 259.772C495.445 259.665 495.59 259.605 495.742 259.605H537.792C537.943 259.605 538.088 259.665 538.195 259.772C538.302 259.879 538.362 260.024 538.362 260.176V300.811C538.362 300.886 538.348 300.96 538.319 301.029C538.29 301.098 538.248 301.161 538.195 301.214C538.142 301.267 538.079 301.309 538.01 301.338C537.941 301.367 537.867 301.381 537.792 301.381ZM496.32 300.24H537.221V260.746H496.312L496.32 300.24Z" fill="#292929"/>
<path d="M519.577 274.403H508.743C508.592 274.403 508.447 274.343 508.34 274.236C508.233 274.129 508.173 273.983 508.173 273.832C508.173 273.681 508.233 273.536 508.34 273.429C508.447 273.322 508.592 273.261 508.743 273.261H519.577C519.729 273.261 519.874 273.322 519.981 273.429C520.088 273.536 520.148 273.681 520.148 273.832C520.148 273.983 520.088 274.129 519.981 274.236C519.874 274.343 519.729 274.403 519.577 274.403Z" fill="#292929"/>
<path d="M528.03 282.414H508.743C508.592 282.414 508.447 282.354 508.34 282.247C508.233 282.14 508.173 281.995 508.173 281.844C508.173 281.692 508.233 281.547 508.34 281.44C508.447 281.333 508.592 281.273 508.743 281.273H528.03C528.182 281.273 528.327 281.333 528.434 281.44C528.541 281.547 528.601 281.692 528.601 281.844C528.601 281.995 528.541 282.14 528.434 282.247C528.327 282.354 528.182 282.414 528.03 282.414Z" fill="#292929"/>
<path d="M127.015 250.093L170.952 253.631L170.244 295.103L127.015 289.831V250.093Z" fill="#97DE40"/>
<path d="M170.244 295.674H170.175L126.946 290.401C126.808 290.384 126.681 290.318 126.588 290.214C126.496 290.111 126.444 289.977 126.443 289.838V250.093C126.443 250.014 126.459 249.936 126.491 249.864C126.522 249.791 126.568 249.726 126.626 249.672C126.684 249.619 126.753 249.578 126.827 249.552C126.902 249.526 126.981 249.516 127.06 249.522L170.997 253.06C171.141 253.072 171.276 253.138 171.374 253.245C171.471 253.353 171.524 253.493 171.522 253.638L170.807 295.103C170.805 295.253 170.744 295.396 170.637 295.501C170.53 295.607 170.386 295.666 170.236 295.666L170.244 295.674ZM127.585 289.328L169.681 294.464L170.373 254.141L127.585 250.694V289.328Z" fill="#292929"/>
<path d="M158.322 267.386H158.261L138.868 265.249C138.722 265.226 138.591 265.149 138.501 265.033C138.412 264.916 138.37 264.77 138.386 264.623C138.402 264.477 138.473 264.343 138.586 264.248C138.698 264.153 138.843 264.106 138.989 264.115L158.383 266.253C158.534 266.261 158.676 266.329 158.777 266.441C158.879 266.554 158.931 266.703 158.923 266.854C158.915 267.005 158.847 267.147 158.734 267.248C158.622 267.35 158.473 267.402 158.322 267.394V267.386Z" fill="#292929"/>
<path d="M158.322 272.659H158.261L138.868 270.521C138.722 270.499 138.591 270.422 138.501 270.305C138.412 270.189 138.37 270.042 138.386 269.896C138.402 269.75 138.473 269.615 138.586 269.521C138.698 269.426 138.843 269.378 138.989 269.387L158.383 271.525C158.458 271.529 158.531 271.548 158.599 271.58C158.666 271.613 158.727 271.658 158.777 271.714C158.827 271.77 158.866 271.835 158.891 271.906C158.916 271.976 158.927 272.051 158.923 272.126C158.919 272.201 158.9 272.275 158.868 272.342C158.835 272.41 158.79 272.471 158.734 272.521C158.678 272.571 158.613 272.61 158.543 272.635C158.472 272.66 158.397 272.67 158.322 272.666V272.659Z" fill="#292929"/>
<path d="M158.322 277.931H158.261L138.868 275.793C138.722 275.771 138.591 275.694 138.501 275.578C138.412 275.461 138.37 275.315 138.386 275.168C138.402 275.022 138.473 274.888 138.586 274.793C138.698 274.698 138.843 274.651 138.989 274.66L158.39 276.79C158.542 276.798 158.684 276.866 158.785 276.979C158.886 277.091 158.939 277.24 158.931 277.391C158.922 277.543 158.855 277.684 158.742 277.786C158.629 277.887 158.481 277.939 158.329 277.931H158.322Z" fill="#292929"/>
<path d="M101.838 212.79L145.076 213.483C145.076 213.483 138.989 244.836 147.564 254.506C147.564 254.506 125.736 259.337 103.779 256.164C103.794 256.164 94.3977 239.594 101.838 212.79Z" fill="#FAF7F2"/>
<path d="M119.642 257.808C114.312 257.827 108.988 257.466 103.71 256.727C103.625 256.714 103.544 256.682 103.473 256.634C103.401 256.585 103.342 256.521 103.3 256.446C103.208 256.278 93.873 239.358 101.314 212.638C101.347 212.518 101.418 212.412 101.517 212.337C101.616 212.261 101.737 212.22 101.862 212.219L145.099 212.912C145.182 212.914 145.263 212.934 145.338 212.97C145.412 213.007 145.478 213.059 145.53 213.123C145.582 213.188 145.619 213.263 145.64 213.343C145.66 213.424 145.662 213.508 145.647 213.589C145.586 213.901 139.72 244.782 147.998 254.125C148.064 254.2 148.109 254.29 148.129 254.387C148.149 254.485 148.144 254.586 148.113 254.68C148.082 254.775 148.028 254.86 147.954 254.927C147.88 254.993 147.79 255.04 147.693 255.061C138.453 256.879 129.059 257.799 119.642 257.808ZM104.159 255.639C123.18 258.325 142.2 254.985 146.544 254.118C139.324 244.379 143.577 218.633 144.407 214.023L102.288 213.353C95.6762 237.638 103.079 253.517 104.167 255.647L104.159 255.639Z" fill="#292929"/>
<path d="M133.907 232.701H112.909C112.757 232.701 112.612 232.641 112.505 232.534C112.398 232.427 112.338 232.282 112.338 232.13C112.338 231.979 112.398 231.834 112.505 231.727C112.612 231.62 112.757 231.56 112.909 231.56H133.907C134.058 231.56 134.204 231.62 134.311 231.727C134.418 231.834 134.478 231.979 134.478 232.13C134.478 232.282 134.418 232.427 134.311 232.534C134.204 232.641 134.058 232.701 133.907 232.701Z" fill="#292929"/>
<path d="M125.013 240.164H112.916C112.765 240.164 112.62 240.104 112.513 239.997C112.406 239.89 112.346 239.745 112.346 239.594C112.346 239.442 112.406 239.297 112.513 239.19C112.62 239.083 112.765 239.023 112.916 239.023H125.013C125.165 239.023 125.31 239.083 125.417 239.19C125.524 239.297 125.584 239.442 125.584 239.594C125.584 239.745 125.524 239.89 125.417 239.997C125.31 240.104 125.165 240.164 125.013 240.164Z" fill="#292929"/>
<path d="M860.014 281.496L909.018 273.797C909.018 273.797 918.49 309.182 910.205 324.277L865.202 332.273C865.202 332.273 868.565 313.177 860.014 281.496Z" fill="#FAF7F2"/>
<path d="M865.194 332.844C865.111 332.844 865.029 332.826 864.953 332.791C864.877 332.756 864.81 332.704 864.757 332.64C864.703 332.577 864.664 332.502 864.642 332.421C864.621 332.341 864.617 332.256 864.631 332.174C864.631 331.984 867.911 312.812 859.458 281.641C859.437 281.563 859.432 281.482 859.444 281.402C859.457 281.323 859.486 281.247 859.529 281.179C859.573 281.112 859.631 281.054 859.699 281.01C859.766 280.967 859.842 280.938 859.922 280.926L908.926 273.226C909.066 273.205 909.208 273.235 909.326 273.313C909.444 273.39 909.529 273.508 909.565 273.645C909.953 275.098 919.007 309.403 910.699 324.551C910.658 324.626 910.6 324.692 910.53 324.742C910.461 324.792 910.38 324.825 910.296 324.84L865.293 332.836L865.194 332.844ZM860.728 281.96C868.093 309.487 866.381 327.609 865.872 331.573L909.832 323.767C917.173 309.875 909.687 278.75 908.599 274.444L860.728 281.96Z" fill="#292929"/>
<path d="M880.738 295.974C880.592 295.981 880.45 295.931 880.34 295.836C880.23 295.74 880.16 295.606 880.145 295.461C880.131 295.317 880.172 295.171 880.261 295.056C880.35 294.941 880.48 294.864 880.624 294.841L892.568 292.437C892.642 292.422 892.718 292.421 892.791 292.435C892.865 292.45 892.935 292.478 892.997 292.52C893.06 292.561 893.114 292.614 893.155 292.676C893.197 292.738 893.227 292.808 893.242 292.882C893.257 292.955 893.257 293.031 893.243 293.104C893.229 293.178 893.2 293.248 893.159 293.31C893.117 293.373 893.064 293.427 893.002 293.469C892.94 293.511 892.87 293.54 892.797 293.555L880.852 295.959L880.738 295.974Z" fill="#292929"/>
<path d="M881.743 314.546C881.597 314.552 881.455 314.503 881.345 314.407C881.234 314.312 881.165 314.178 881.15 314.033C881.136 313.888 881.177 313.743 881.266 313.628C881.355 313.512 881.485 313.435 881.628 313.412L902.551 309.198C902.699 309.167 902.853 309.197 902.98 309.281C903.106 309.364 903.194 309.494 903.224 309.643C903.255 309.791 903.225 309.945 903.141 310.071C903.058 310.198 902.927 310.286 902.779 310.316L881.857 314.531L881.743 314.546Z" fill="#292929"/>
<path d="M890.225 302.997C890.079 303.003 889.937 302.953 889.827 302.858C889.717 302.763 889.647 302.629 889.633 302.484C889.618 302.339 889.66 302.194 889.748 302.079C889.837 301.963 889.967 301.886 890.111 301.863L899.758 299.931C899.906 299.9 900.061 299.93 900.187 300.014C900.313 300.097 900.401 300.227 900.431 300.376C900.462 300.524 900.432 300.678 900.348 300.805C900.265 300.931 900.135 301.019 899.986 301.049L890.354 302.989L890.225 302.997Z" fill="#292929"/>
<path d="M878.737 305.317C878.591 305.324 878.449 305.274 878.339 305.179C878.229 305.083 878.159 304.949 878.144 304.804C878.13 304.659 878.171 304.514 878.26 304.399C878.349 304.284 878.479 304.207 878.623 304.184L885.584 302.784C885.732 302.753 885.887 302.783 886.013 302.867C886.139 302.95 886.227 303.081 886.257 303.229C886.288 303.377 886.258 303.531 886.174 303.658C886.091 303.784 885.961 303.872 885.812 303.902L878.851 305.302L878.737 305.317Z" fill="#292929"/>
<path d="M655.171 207.443H700.279C700.279 207.443 698.286 228.541 700.416 243.765C701.573 252.05 705.917 256.585 705.917 256.585H655.954C655.954 256.585 652.812 222.705 655.171 207.443Z" fill="#FAF7F2"/>
<path d="M705.933 257.163H655.955C655.812 257.163 655.675 257.111 655.569 257.015C655.463 256.919 655.397 256.787 655.384 256.645C655.384 256.303 652.257 222.515 654.623 207.36C654.643 207.225 654.711 207.101 654.815 207.012C654.918 206.922 655.05 206.873 655.186 206.873H700.295C700.375 206.872 700.454 206.889 700.527 206.921C700.6 206.953 700.665 207 700.719 207.058C700.773 207.117 700.813 207.186 700.839 207.262C700.864 207.337 700.873 207.417 700.866 207.497C700.866 207.71 698.903 228.708 701.003 243.689C702.121 251.677 706.329 256.151 706.329 256.197C706.406 256.277 706.458 256.379 706.479 256.489C706.499 256.599 706.486 256.713 706.442 256.816C706.399 256.918 706.326 257.006 706.232 257.068C706.139 257.13 706.03 257.163 705.918 257.163H705.933ZM656.48 256.022H704.708C702.091 252.438 700.423 248.25 699.862 243.849C697.952 230.199 699.359 211.636 699.664 208.022H655.658C653.627 222.203 656.099 251.746 656.48 256.022Z" fill="#292929"/>
<path d="M682.933 221.45H667.991C667.839 221.45 667.694 221.39 667.587 221.283C667.48 221.176 667.42 221.031 667.42 220.879C667.42 220.728 667.48 220.583 667.587 220.476C667.694 220.369 667.839 220.309 667.991 220.309H682.933C683.084 220.309 683.229 220.369 683.336 220.476C683.443 220.583 683.504 220.728 683.504 220.879C683.504 221.031 683.443 221.176 683.336 221.283C683.229 221.39 683.084 221.45 682.933 221.45Z" fill="#292929"/>
<path d="M690.974 232.588H669.063C668.911 232.588 668.766 232.528 668.659 232.421C668.552 232.314 668.492 232.169 668.492 232.018C668.492 231.866 668.552 231.721 668.659 231.614C668.766 231.507 668.911 231.447 669.063 231.447H690.974C691.126 231.447 691.271 231.507 691.378 231.614C691.485 231.721 691.545 231.866 691.545 232.018C691.545 232.169 691.485 232.314 691.378 232.421C691.271 232.528 691.126 232.588 690.974 232.588Z" fill="#292929"/>
<path d="M680.019 241.14H669.063C668.911 241.14 668.766 241.08 668.659 240.973C668.552 240.866 668.492 240.721 668.492 240.569C668.492 240.418 668.552 240.273 668.659 240.166C668.766 240.059 668.911 239.999 669.063 239.999H680.019C680.17 239.999 680.315 240.059 680.422 240.166C680.529 240.273 680.589 240.418 680.589 240.569C680.589 240.721 680.529 240.866 680.422 240.973C680.315 241.08 680.17 241.14 680.019 241.14Z" fill="#292929"/>
<path d="M617.107 222.211C617.107 222.211 634.735 222.074 664.811 228.084C664.811 228.084 661.258 254.606 655.11 275.787L607.939 266.658C607.939 266.658 615.061 230.001 617.107 222.211Z" fill="#FAF7F2"/>
<path d="M655.11 276.328H655.003L607.833 267.198C607.684 267.168 607.554 267.081 607.47 266.956C607.386 266.83 607.355 266.677 607.384 266.528C607.452 266.163 614.52 229.788 616.514 222.074C616.545 221.952 616.616 221.845 616.715 221.768C616.814 221.691 616.936 221.649 617.061 221.648C617.244 221.648 635.085 221.579 664.879 227.536C665.021 227.564 665.147 227.645 665.231 227.762C665.316 227.879 665.353 228.024 665.335 228.168C665.335 228.434 661.706 254.979 655.612 275.955C655.574 276.059 655.506 276.15 655.416 276.216C655.327 276.282 655.221 276.321 655.11 276.328ZM608.624 266.148L654.707 275.103C660.215 255.93 663.639 232.33 664.179 228.51C637.383 223.185 620.439 222.781 617.556 222.751C615.547 230.679 609.506 261.621 608.624 266.178V266.148Z" fill="#292929"/>
<path d="M651.693 243.689H651.61L637.458 241.558C637.38 241.552 637.304 241.53 637.235 241.494C637.166 241.457 637.105 241.407 637.056 241.345C637.007 241.284 636.972 241.213 636.951 241.138C636.931 241.062 636.926 240.983 636.938 240.906C636.949 240.828 636.977 240.754 637.018 240.687C637.06 240.621 637.114 240.564 637.179 240.519C637.243 240.475 637.316 240.444 637.393 240.429C637.47 240.414 637.549 240.416 637.626 240.432L651.785 242.563C651.925 242.586 652.052 242.661 652.14 242.773C652.229 242.885 652.272 243.026 652.261 243.168C652.251 243.31 652.187 243.443 652.084 243.541C651.98 243.639 651.843 243.694 651.701 243.696L651.693 243.689Z" fill="#292929"/>
<path d="M632.795 240.851H632.712L625.103 239.702C624.962 239.671 624.839 239.587 624.757 239.468C624.675 239.349 624.641 239.204 624.662 239.061C624.684 238.918 624.758 238.789 624.871 238.699C624.984 238.609 625.127 238.565 625.271 238.576L632.879 239.725C633.02 239.748 633.147 239.823 633.235 239.935C633.323 240.047 633.366 240.188 633.356 240.33C633.345 240.472 633.282 240.605 633.178 240.703C633.074 240.801 632.938 240.856 632.795 240.858V240.851Z" fill="#292929"/>
<path d="M649.632 253.564H649.549L623.004 249.562C622.863 249.531 622.739 249.448 622.657 249.329C622.575 249.21 622.542 249.064 622.563 248.921C622.584 248.778 622.659 248.649 622.772 248.559C622.884 248.469 623.027 248.425 623.171 248.436L649.686 252.431C649.826 252.454 649.953 252.529 650.041 252.641C650.13 252.753 650.173 252.893 650.162 253.036C650.152 253.178 650.088 253.311 649.985 253.409C649.881 253.507 649.744 253.562 649.602 253.564H649.632Z" fill="#292929"/>
<path d="M630.086 256.904H630.003L622.63 255.786C622.552 255.78 622.476 255.757 622.407 255.721C622.338 255.684 622.277 255.634 622.228 255.572C622.179 255.511 622.143 255.44 622.123 255.365C622.103 255.289 622.098 255.21 622.11 255.133C622.121 255.055 622.149 254.981 622.19 254.915C622.232 254.848 622.286 254.791 622.351 254.746C622.415 254.702 622.488 254.671 622.565 254.657C622.642 254.642 622.721 254.643 622.798 254.66L630.17 255.77C630.311 255.793 630.438 255.868 630.526 255.98C630.614 256.092 630.657 256.233 630.647 256.375C630.636 256.518 630.573 256.651 630.469 256.748C630.365 256.846 630.229 256.902 630.086 256.904Z" fill="#292929"/>
<path d="M757.103 247.214L799.351 238.792C799.351 238.792 808.862 255.789 809.173 281.2C809.173 281.2 776.276 288.215 764.118 288.048C764.095 288.055 756.167 256.413 757.103 247.214Z" fill="#292929"/>
<path d="M764.513 288.634H764.095C763.968 288.632 763.846 288.589 763.747 288.51C763.647 288.432 763.577 288.323 763.547 288.2C763.22 286.906 755.581 256.344 756.517 247.154C756.529 247.032 756.58 246.918 756.662 246.827C756.745 246.737 756.854 246.675 756.973 246.652L799.222 238.229C799.34 238.207 799.462 238.222 799.571 238.273C799.68 238.323 799.771 238.407 799.83 238.511C799.929 238.678 809.416 255.926 809.721 281.193C809.722 281.324 809.678 281.451 809.596 281.554C809.515 281.657 809.4 281.728 809.272 281.756C808.983 281.824 776.914 288.634 764.513 288.634ZM757.666 247.686C757.065 256.573 763.669 283.741 764.597 287.492C776.085 287.492 804.661 281.573 808.633 280.736C808.252 258.033 800.424 242.011 799.085 239.431L757.666 247.686Z" fill="#292929"/>
<path d="M770.943 260.255C770.803 260.253 770.67 260.2 770.567 260.106C770.464 260.012 770.399 259.884 770.384 259.746C770.369 259.607 770.405 259.468 770.486 259.355C770.566 259.241 770.685 259.161 770.821 259.129L786.73 255.698C786.878 255.665 787.033 255.693 787.161 255.775C787.288 255.857 787.378 255.987 787.411 256.135C787.443 256.283 787.415 256.439 787.333 256.566C787.251 256.694 787.121 256.784 786.973 256.816L771.064 260.247L770.943 260.255Z" fill="#292929"/>
<path d="M770.943 267.125C770.803 267.123 770.67 267.07 770.567 266.976C770.464 266.883 770.399 266.754 770.384 266.616C770.369 266.478 770.405 266.339 770.486 266.225C770.566 266.111 770.685 266.031 770.821 265.999L784.272 263.101C784.42 263.068 784.576 263.096 784.703 263.178C784.831 263.26 784.921 263.39 784.953 263.538C784.985 263.686 784.957 263.841 784.875 263.969C784.793 264.097 784.664 264.187 784.516 264.219L771.064 267.118L770.943 267.125Z" fill="#292929"/>
<path d="M775.15 274.033C775.01 274.031 774.877 273.978 774.774 273.885C774.671 273.791 774.606 273.663 774.591 273.524C774.576 273.386 774.612 273.247 774.693 273.133C774.773 273.02 774.892 272.939 775.028 272.907L796.498 268.282C796.646 268.249 796.802 268.277 796.929 268.359C797.057 268.441 797.147 268.571 797.179 268.719C797.211 268.867 797.183 269.022 797.101 269.15C797.019 269.278 796.89 269.368 796.742 269.4L775.271 274.026L775.15 274.033Z" fill="#292929"/>
<path d="M299.001 277.79H341.143V316.47H299.594L299.001 277.79Z" fill="#FAF7F2"/>
<path d="M341.142 317.041H299.594C299.444 317.041 299.3 316.982 299.193 316.876C299.086 316.771 299.025 316.628 299.023 316.478L298.438 277.798C298.437 277.722 298.451 277.647 298.479 277.577C298.507 277.507 298.549 277.443 298.602 277.389C298.655 277.335 298.718 277.293 298.788 277.264C298.858 277.234 298.933 277.219 299.008 277.219H341.15C341.301 277.219 341.446 277.28 341.553 277.387C341.66 277.494 341.72 277.639 341.72 277.79V316.485C341.716 316.635 341.654 316.778 341.545 316.882C341.437 316.986 341.292 317.043 341.142 317.041ZM300.149 315.899H340.572V278.361H299.586L300.149 315.899Z" fill="#292929"/>
<path d="M333.763 291.021H319.619C319.468 291.021 319.323 290.961 319.216 290.853C319.109 290.746 319.049 290.601 319.049 290.45C319.049 290.299 319.109 290.154 319.216 290.047C319.323 289.94 319.468 289.879 319.619 289.879H333.763C333.914 289.879 334.06 289.94 334.167 290.047C334.274 290.154 334.334 290.299 334.334 290.45C334.334 290.601 334.274 290.746 334.167 290.853C334.06 290.961 333.914 291.021 333.763 291.021Z" fill="#292929"/>
<path d="M316.279 291.021H308.823C308.671 291.021 308.526 290.961 308.419 290.853C308.312 290.746 308.252 290.601 308.252 290.45C308.252 290.299 308.312 290.154 308.419 290.047C308.526 289.94 308.671 289.879 308.823 289.879H316.279C316.43 289.879 316.575 289.94 316.682 290.047C316.789 290.154 316.849 290.299 316.849 290.45C316.849 290.601 316.789 290.746 316.682 290.853C316.575 290.961 316.43 291.021 316.279 291.021Z" fill="#292929"/>
<path d="M326.694 298.553H311.432C311.281 298.553 311.135 298.492 311.028 298.385C310.921 298.278 310.861 298.133 310.861 297.982C310.861 297.831 310.921 297.686 311.028 297.579C311.135 297.471 311.281 297.411 311.432 297.411H326.694C326.845 297.411 326.99 297.471 327.097 297.579C327.204 297.686 327.265 297.831 327.265 297.982C327.265 298.133 327.204 298.278 327.097 298.385C326.99 298.492 326.845 298.553 326.694 298.553Z" fill="#292929"/>
<path d="M319.619 305.834H310.413C310.262 305.834 310.117 305.773 310.01 305.666C309.903 305.559 309.843 305.414 309.843 305.263C309.843 305.112 309.903 304.967 310.01 304.86C310.117 304.752 310.262 304.692 310.413 304.692H319.627C319.778 304.692 319.923 304.752 320.03 304.86C320.137 304.967 320.197 305.112 320.197 305.263C320.197 305.414 320.137 305.559 320.03 305.666C319.923 305.773 319.778 305.834 319.627 305.834H319.619Z" fill="#292929"/>
<path d="M468.998 48.8433L508.028 49.1704C508.028 49.1704 507.145 63.6259 507.48 69.5679C507.815 75.5099 508.515 79.9303 511.695 84.6701L473.883 85.994C473.883 85.994 469.911 83.9017 469.584 70.0168C469.257 56.1319 468.998 48.8433 468.998 48.8433Z" fill="#FAF7F2"/>
<path d="M473.883 86.5647C473.79 86.5642 473.699 86.5407 473.617 86.4962C473.442 86.4049 469.349 84.0844 469.014 70.0169C468.687 56.3222 468.458 48.927 468.458 48.8586C468.455 48.7817 468.468 48.7049 468.496 48.633C468.523 48.5611 468.565 48.4955 468.618 48.4401C468.732 48.338 468.877 48.2765 469.029 48.2651L508.059 48.5923C508.137 48.5931 508.213 48.6098 508.284 48.6413C508.355 48.6728 508.419 48.7184 508.472 48.7754C508.524 48.8324 508.565 48.8995 508.591 48.9727C508.616 49.0458 508.627 49.1235 508.622 49.2009C508.622 49.3455 507.747 63.6565 508.074 69.53C508.417 75.6622 509.17 79.8391 512.19 84.3507C512.248 84.4354 512.281 84.5339 512.287 84.636C512.293 84.738 512.272 84.8399 512.225 84.9309C512.179 85.0218 512.108 85.0986 512.022 85.1531C511.935 85.2077 511.836 85.238 511.734 85.2409L473.883 86.5647ZM469.615 49.4216C469.676 51.4225 469.874 58.4601 470.155 69.9636C470.437 81.8933 473.449 84.8985 474.058 85.3854L510.707 84.1072C507.998 79.7021 507.275 75.5176 506.948 69.568C506.659 64.3412 507.306 52.5029 507.466 49.7031L469.615 49.4216Z" fill="#292929"/>
<path d="M494.189 60.5218H479.246C479.095 60.5218 478.95 60.4617 478.843 60.3547C478.736 60.2477 478.676 60.1026 478.676 59.9512C478.676 59.7999 478.736 59.6548 478.843 59.5477C478.95 59.4407 479.095 59.3806 479.246 59.3806H494.189C494.34 59.3806 494.485 59.4407 494.592 59.5477C494.699 59.6548 494.759 59.7999 494.759 59.9512C494.759 60.1026 494.699 60.2477 494.592 60.3547C494.485 60.4617 494.34 60.5218 494.189 60.5218Z" fill="#292929"/>
<path d="M497.834 66.6007H480.791C480.64 66.6007 480.495 66.5406 480.388 66.4336C480.281 66.3266 480.221 66.1814 480.221 66.0301C480.221 65.8787 480.281 65.7336 480.388 65.6266C480.495 65.5196 480.64 65.4595 480.791 65.4595H497.841C497.993 65.4595 498.138 65.5196 498.245 65.6266C498.352 65.7336 498.412 65.8787 498.412 66.0301C498.412 66.1814 498.352 66.3266 498.245 66.4336C498.138 66.5406 497.993 66.6007 497.841 66.6007H497.834Z" fill="#292929"/>
<path d="M487.296 74.848H482.252C482.101 74.848 481.956 74.7879 481.849 74.6809C481.742 74.5739 481.682 74.4287 481.682 74.2774C481.682 74.1261 481.742 73.9809 481.849 73.8739C481.956 73.7669 482.101 73.7068 482.252 73.7068H487.289C487.44 73.7068 487.585 73.7669 487.692 73.8739C487.799 73.9809 487.859 74.1261 487.859 74.2774C487.859 74.4287 487.799 74.5739 487.692 74.6809C487.585 74.7879 487.44 74.848 487.289 74.848H487.296Z" fill="#292929"/>
<path d="M882.084 107.623H924.758V132.273C924.744 137.437 923.122 142.468 920.117 146.668C908.37 149.422 887.181 148.874 880.007 146.668C880.007 146.668 883.111 141.798 882.807 129.991C882.502 118.183 882.084 107.623 882.084 107.623Z" fill="#97DE40"/>
<path d="M899.506 149.11C891.411 149.11 883.742 148.417 879.839 147.215C879.755 147.189 879.678 147.144 879.615 147.084C879.551 147.023 879.502 146.949 879.472 146.866C879.442 146.784 879.431 146.696 879.441 146.608C879.45 146.521 879.48 146.437 879.527 146.363C879.527 146.318 882.57 141.456 882.236 130.006C881.931 118.335 881.513 107.744 881.475 107.638C881.472 107.561 881.484 107.484 881.512 107.412C881.539 107.34 881.58 107.275 881.634 107.219C881.687 107.164 881.751 107.12 881.822 107.09C881.892 107.06 881.969 107.044 882.045 107.044H924.72C924.871 107.044 925.016 107.104 925.123 107.211C925.23 107.318 925.29 107.463 925.29 107.615V132.265C925.292 137.561 923.625 142.723 920.528 147.018C920.446 147.117 920.334 147.187 920.208 147.215C914.707 148.532 906.932 149.11 899.506 149.11ZM880.851 146.325C888.695 148.41 908.651 148.729 919.79 146.173C922.62 142.093 924.152 137.254 924.187 132.288V108.193H882.677C882.768 110.59 883.111 119.879 883.377 129.983C883.628 139.546 881.65 144.613 880.851 146.325Z" fill="#292929"/>
<path d="M913.254 120.397H896.402C896.25 120.397 896.105 120.336 895.998 120.229C895.891 120.122 895.831 119.977 895.831 119.826C895.831 119.675 895.891 119.53 895.998 119.422C896.105 119.315 896.25 119.255 896.402 119.255H913.254C913.405 119.255 913.55 119.315 913.657 119.422C913.764 119.53 913.824 119.675 913.824 119.826C913.824 119.977 913.764 120.122 913.657 120.229C913.55 120.336 913.405 120.397 913.254 120.397Z" fill="#292929"/>
<path d="M911.23 126.597H909.206C909.055 126.597 908.91 126.537 908.803 126.43C908.696 126.323 908.636 126.178 908.636 126.027C908.636 125.875 908.696 125.73 908.803 125.623C908.91 125.516 909.055 125.456 909.206 125.456H911.23C911.381 125.456 911.527 125.516 911.634 125.623C911.741 125.73 911.801 125.875 911.801 126.027C911.801 126.178 911.741 126.323 911.634 126.43C911.527 126.537 911.381 126.597 911.23 126.597Z" fill="#292929"/>
<path d="M904.824 126.597H896.402C896.25 126.597 896.105 126.537 895.998 126.43C895.891 126.323 895.831 126.178 895.831 126.027C895.831 125.875 895.891 125.73 895.998 125.623C896.105 125.516 896.25 125.456 896.402 125.456H904.824C904.975 125.456 905.12 125.516 905.227 125.623C905.334 125.73 905.395 125.875 905.395 126.027C905.395 126.178 905.334 126.323 905.227 126.43C905.12 126.537 904.975 126.597 904.824 126.597Z" fill="#292929"/>
<path d="M910.218 133.939H896.402C896.25 133.939 896.105 133.879 895.998 133.772C895.891 133.665 895.831 133.52 895.831 133.368C895.831 133.217 895.891 133.072 895.998 132.965C896.105 132.858 896.25 132.798 896.402 132.798H910.218C910.369 132.798 910.515 132.858 910.622 132.965C910.729 133.072 910.789 133.217 910.789 133.368C910.789 133.52 910.729 133.665 910.622 133.772C910.515 133.879 910.369 133.939 910.218 133.939Z" fill="#292929"/>
<path d="M561.872 165.56L558.76 169.098L558.63 169.007C558.501 167.226 558.349 166.009 558.159 165.857L557.961 165.811C559.267 166.014 560.602 165.929 561.872 165.56Z" fill="#292929"/>
<path d="M558.759 169.661C558.661 169.662 558.565 169.638 558.478 169.593C558.419 169.559 558.364 169.521 558.311 169.479C558.238 169.43 558.178 169.366 558.135 169.291C558.091 169.216 558.066 169.131 558.059 169.045C558.023 168.138 557.921 167.236 557.755 166.344C557.627 166.293 557.521 166.197 557.458 166.074C557.395 165.95 557.379 165.809 557.413 165.674C557.45 165.536 557.538 165.416 557.659 165.339C557.78 165.262 557.926 165.232 558.067 165.256C559.281 165.448 560.523 165.37 561.704 165.028C561.823 164.987 561.953 164.988 562.072 165.028C562.191 165.069 562.293 165.148 562.363 165.253C562.432 165.359 562.465 165.484 562.456 165.609C562.447 165.735 562.396 165.854 562.312 165.948L559.201 169.486C559.144 169.545 559.075 169.591 558.999 169.622C558.923 169.652 558.841 169.665 558.759 169.661ZM558.942 166.489C558.995 166.816 559.049 167.249 559.109 167.843L560.342 166.443C559.877 166.493 559.409 166.508 558.942 166.489Z" fill="#292929"/>
<path d="M579.188 164.975C578.496 164.966 577.807 164.882 577.134 164.724C576.991 164.685 576.869 164.592 576.793 164.466C576.717 164.339 576.693 164.187 576.727 164.043C576.76 163.899 576.848 163.774 576.973 163.694C577.097 163.613 577.247 163.584 577.392 163.613C578.8 163.94 580.139 163.902 580.633 163.506C580.687 163.47 580.73 163.421 580.759 163.364C580.788 163.307 580.803 163.243 580.801 163.179C580.801 162.943 580.801 162.563 580.801 162.099C580.755 160.836 580.679 158.934 580.801 157.245C580.831 156.302 580.99 155.368 581.272 154.468C581.446 153.975 581.723 153.525 582.083 153.147C582.444 152.77 582.881 152.473 583.365 152.277C583.926 152.073 584.524 151.988 585.12 152.029C585.717 152.07 586.298 152.234 586.826 152.512H586.91C587.379 152.752 587.818 153.046 588.219 153.387C588.276 153.437 588.323 153.498 588.357 153.566C588.391 153.634 588.411 153.709 588.417 153.784C588.422 153.86 588.412 153.937 588.388 154.009C588.364 154.081 588.326 154.148 588.276 154.205C588.226 154.263 588.165 154.31 588.097 154.344C588.029 154.378 587.955 154.398 587.879 154.403C587.803 154.408 587.726 154.399 587.654 154.375C587.582 154.35 587.515 154.312 587.458 154.262C587.14 153.992 586.793 153.757 586.423 153.562H586.355C585.962 153.344 585.529 153.211 585.082 153.172C584.635 153.133 584.185 153.188 583.76 153.334C583.426 153.471 583.124 153.678 582.875 153.94C582.626 154.202 582.435 154.514 582.315 154.856C582.073 155.648 581.937 156.47 581.912 157.298C581.813 158.934 581.912 160.805 581.912 162.045C581.912 162.532 581.912 162.92 581.912 163.171C581.913 163.406 581.861 163.639 581.758 163.85C581.655 164.061 581.504 164.245 581.318 164.389C580.69 164.808 579.942 165.014 579.188 164.975Z" fill="#292929"/>
<path d="M586.583 153.075C584.514 152.923 581.76 155.358 581.318 157.29C581.349 156.408 581.494 155.533 581.752 154.688C582.452 152.779 584.476 152.003 586.583 153.075Z" fill="#292929"/>
<path d="M581.318 157.838H581.234C581.092 157.817 580.964 157.744 580.873 157.633C580.783 157.521 580.738 157.38 580.747 157.237C580.779 156.299 580.938 155.37 581.219 154.475C581.392 153.981 581.668 153.53 582.029 153.151C582.389 152.772 582.826 152.474 583.311 152.277C583.884 152.07 584.494 151.987 585.101 152.033C585.708 152.078 586.299 152.252 586.834 152.543C586.952 152.602 587.047 152.7 587.101 152.821C587.155 152.941 587.165 153.077 587.131 153.205C587.093 153.331 587.014 153.441 586.906 153.517C586.799 153.593 586.669 153.63 586.537 153.623C584.711 153.494 582.246 155.723 581.873 157.427C581.838 157.547 581.765 157.652 581.665 157.726C581.565 157.8 581.443 157.84 581.318 157.838ZM583.829 153.273H583.73C583.279 153.453 582.893 153.763 582.619 154.163C582.993 153.836 583.399 153.546 583.829 153.296V153.273Z" fill="#292929"/>
<path d="M583.927 159.192C584.423 159.192 584.825 158.702 584.825 158.097C584.825 157.491 584.423 157.001 583.927 157.001C583.431 157.001 583.029 157.491 583.029 158.097C583.029 158.702 583.431 159.192 583.927 159.192Z" fill="#292929"/>
<path d="M575.361 159.192C575.856 159.192 576.258 158.702 576.258 158.097C576.258 157.491 575.856 157.001 575.361 157.001C574.865 157.001 574.463 157.491 574.463 158.097C574.463 158.702 574.865 159.192 575.361 159.192Z" fill="#292929"/>
<path d="M578.047 170.323C576.886 170.357 575.737 170.096 574.705 169.563C573.674 169.031 572.795 168.245 572.15 167.28C572.109 167.217 572.081 167.146 572.067 167.073C572.054 166.999 572.054 166.923 572.07 166.85C572.086 166.776 572.115 166.706 572.158 166.644C572.2 166.582 572.255 166.53 572.318 166.489C572.381 166.448 572.451 166.419 572.525 166.406C572.599 166.392 572.674 166.393 572.748 166.408C572.821 166.424 572.891 166.454 572.953 166.496C573.015 166.539 573.068 166.593 573.109 166.656C573.692 167.51 574.494 168.192 575.431 168.629C576.368 169.067 577.405 169.245 578.435 169.144C578.509 169.14 578.584 169.152 578.655 169.177C578.726 169.203 578.79 169.242 578.846 169.292C578.901 169.343 578.946 169.404 578.978 169.471C579.01 169.539 579.028 169.613 579.032 169.688C579.035 169.763 579.024 169.838 578.999 169.908C578.973 169.979 578.934 170.044 578.883 170.099C578.833 170.155 578.772 170.2 578.704 170.231C578.636 170.263 578.563 170.282 578.488 170.285L578.047 170.323Z" fill="#292929"/>
<path d="M570.887 154.704C570.77 154.704 570.656 154.668 570.56 154.602C570.464 154.535 570.391 154.441 570.35 154.331C570.309 154.222 570.303 154.103 570.333 153.99C570.362 153.876 570.425 153.775 570.514 153.699C572.994 151.546 576.198 151.295 578.48 153.075C578.587 153.172 578.654 153.306 578.667 153.449C578.679 153.593 578.637 153.736 578.548 153.85C578.459 153.964 578.331 154.04 578.188 154.063C578.046 154.086 577.9 154.054 577.78 153.973C575.939 152.543 573.322 152.771 571.26 154.559C571.157 154.651 571.025 154.702 570.887 154.704Z" fill="#292929"/>
<path d="M556.812 162.783C556.667 162.784 556.528 162.729 556.422 162.63C556.316 162.531 556.251 162.396 556.242 162.251C556.203 161.808 556.298 161.364 556.514 160.975C556.729 160.586 557.056 160.27 557.451 160.067C557.915 159.842 558.434 159.756 558.946 159.82C559.458 159.883 559.94 160.093 560.335 160.425C560.453 160.52 560.528 160.658 560.545 160.808C560.561 160.959 560.517 161.11 560.422 161.228C560.328 161.346 560.19 161.421 560.039 161.438C559.889 161.454 559.738 161.41 559.62 161.315C559.398 161.121 559.125 160.995 558.833 160.953C558.541 160.911 558.244 160.955 557.976 161.079C557.777 161.181 557.614 161.341 557.508 161.538C557.402 161.735 557.358 161.96 557.383 162.182C557.391 162.333 557.34 162.48 557.24 162.592C557.141 162.705 557 162.774 556.85 162.783H556.812Z" fill="#292929"/>
<path d="M575.072 180.122C569.99 180.122 566.779 178.403 564.671 174.546C564.599 174.412 564.582 174.256 564.625 174.11C564.668 173.965 564.766 173.842 564.9 173.77C565.033 173.697 565.189 173.68 565.335 173.723C565.48 173.766 565.603 173.865 565.676 173.998C567.555 177.444 570.454 178.981 575.072 178.981C575.223 178.981 575.368 179.041 575.475 179.148C575.582 179.255 575.642 179.4 575.642 179.552C575.642 179.703 575.582 179.848 575.475 179.955C575.368 180.062 575.223 180.122 575.072 180.122Z" fill="#292929"/>
<path d="M579.111 197.294C578.998 197.294 578.886 197.26 578.792 197.196C578.698 197.133 578.625 197.042 578.582 196.937C578.54 196.831 578.53 196.715 578.554 196.604C578.577 196.493 578.634 196.391 578.716 196.313L581.485 193.604C581.597 193.538 581.728 193.512 581.856 193.53C581.985 193.549 582.104 193.611 582.192 193.706C582.281 193.801 582.335 193.923 582.344 194.052C582.354 194.182 582.319 194.311 582.246 194.418L579.476 197.127C579.379 197.225 579.249 197.284 579.111 197.294Z" fill="#292929"/>
<path d="M568.148 208.014C568.008 208.014 567.872 207.963 567.768 207.869L557.436 198.739C557.322 198.639 557.253 198.497 557.243 198.345C557.234 198.193 557.285 198.043 557.386 197.929C557.487 197.815 557.629 197.746 557.781 197.737C557.933 197.727 558.083 197.779 558.197 197.88L568.133 206.622L576.198 198.732C576.309 198.666 576.44 198.64 576.569 198.658C576.698 198.677 576.816 198.739 576.905 198.833C576.993 198.928 577.047 199.051 577.057 199.18C577.067 199.31 577.032 199.439 576.958 199.546L568.551 207.854C568.443 207.958 568.298 208.016 568.148 208.014Z" fill="#292929"/>
<path d="M555.891 197.203C555.751 197.203 555.615 197.152 555.511 197.058L553.502 195.293C553.388 195.192 553.319 195.05 553.31 194.898C553.3 194.746 553.352 194.597 553.453 194.483C553.554 194.369 553.696 194.3 553.848 194.29C554 194.281 554.149 194.333 554.263 194.433L556.272 196.199C556.358 196.276 556.419 196.377 556.446 196.489C556.474 196.602 556.466 196.72 556.425 196.828C556.384 196.936 556.311 197.029 556.215 197.095C556.12 197.16 556.007 197.195 555.891 197.195V197.203Z" fill="#292929"/>
<path d="M619.318 110.848C620.25 109.121 619.606 106.966 617.879 106.034C616.152 105.102 613.997 105.746 613.065 107.473C612.133 109.199 612.777 111.355 614.504 112.287C616.23 113.219 618.386 112.575 619.318 110.848Z" fill="#97DE40"/>
<path d="M520.041 50.6503C521.095 48.9954 520.608 46.799 518.953 45.7447C517.298 44.6904 515.102 45.1773 514.048 46.8323C512.993 48.4872 513.48 50.6836 515.135 51.7379C516.79 52.7922 518.987 52.3053 520.041 50.6503Z" fill="#97DE40"/>
<path d="M498.276 318.096C498.966 316.698 498.391 315.006 496.993 314.317C495.594 313.627 493.902 314.202 493.213 315.6C492.524 316.999 493.098 318.691 494.497 319.38C495.895 320.069 497.587 319.495 498.276 318.096Z" fill="#97DE40"/>
<path d="M663.717 60.254C665.272 60.1425 666.442 58.7917 666.331 57.2367C666.219 55.6818 664.868 54.5117 663.313 54.6231C661.759 54.7346 660.588 56.0855 660.7 57.6404C660.811 59.1953 662.162 60.3654 663.717 60.254Z" fill="#97DE40"/>
<path d="M720.831 247.209C721.545 245.824 721 244.121 719.614 243.407C718.229 242.693 716.526 243.238 715.812 244.624C715.098 246.009 715.643 247.712 717.029 248.426C718.414 249.14 720.117 248.595 720.831 247.209Z" fill="#292929"/>
<path d="M638.851 208.127L634.649 212.328L638.851 216.53L643.053 212.328L638.851 208.127Z" fill="#97DE40"/>
<path d="M936.525 104.219L936.466 110.161L942.408 110.22L942.467 104.279L936.525 104.219Z" fill="#97DE40"/>
<path d="M126.776 68.7239L129.891 64.385L125.552 61.2706L122.437 65.6095L126.776 68.7239Z" fill="#292929"/>
<path d="M749.079 331.768L753.116 328.272L749.62 324.235L745.582 327.731L749.079 331.768Z" fill="#97DE40"/>
<path d="M297.012 118.565L300.911 117.99L300.336 114.091L296.437 114.666L297.012 118.565Z" fill="#292929"/>
<path d="M494.513 198.359L488.321 192.167L482.129 198.359L488.321 204.551L494.513 198.359Z" fill="#97DE40"/>
<path d="M519.517 250.894L527.3 248.832L521.624 243.126L519.517 250.894Z" fill="#292929"/>
<path d="M795.109 78.0327L802.816 75.697L796.935 70.1963L795.109 78.0327Z" fill="#292929"/>
<path d="M513.872 38.9984L509.117 34.2661L507.397 40.7483L513.872 38.9984Z" fill="#97DE40"/>
<path d="M133.571 94.468L130.003 101.688L138.037 101.163L133.571 94.468Z" fill="#97DE40"/>
<path d="M690.974 268.362L685.831 274.555L693.766 275.909L690.974 268.362Z" fill="#97DE40"/>
<path d="M142.748 313.598L131.595 317.829L140.831 325.376L142.748 313.598Z" fill="#97DE40"/>
<path d="M447.772 232.771L439.73 232.33L443.367 239.512L447.772 232.771Z" fill="#292929"/>
</svg>
