<svg width="156" height="32" viewBox="0 0 156 32" fill="none" xmlns="http://www.w3.org/2000/svg">
<path d="M16.1404 0.036377L20.0548 10.4669L31.1844 10.9665L22.4739 17.9124L25.4381 28.6517L16.1404 22.514L6.84275 28.6517L9.80692 17.9124L1.09646 10.9665L12.2261 10.4669L16.1404 0.036377Z" fill="#D8AA72"/>
<path d="M57.3807 0.036377L61.295 10.4669L72.4246 10.9665L63.7142 17.9124L66.6784 28.6517L57.3807 22.514L48.083 28.6517L51.0472 17.9124L42.3367 10.9665L53.4663 10.4669L57.3807 0.036377Z" fill="#D8AA72"/>
<path d="M98.6209 0.036377L102.535 10.4669L113.665 10.9665L104.954 17.9124L107.919 28.6517L98.6209 22.514L89.3232 28.6517L92.2874 17.9124L83.5769 10.9665L94.7066 10.4669L98.6209 0.036377Z" fill="#D8AA72"/>
<path d="M139.861 0.036377L143.775 10.4669L154.905 10.9665L146.195 17.9124L149.159 28.6517L139.861 22.514L130.563 28.6517L133.528 17.9124L124.817 10.9665L135.947 10.4669L139.861 0.036377Z" fill="#D8AA72"/>
</svg>
