<svg xmlns="http://www.w3.org/2000/svg" width="120" height="120" viewBox="0 0 120 120" fill="none">
              <path
                d="M108.75 23.4375H75C72.0102 23.4397 69.0691 24.1944 66.4477 25.6321C63.8263 27.0698 61.609 29.1442 60 31.6641C58.391 29.1442 56.1737 27.0698 53.5523 25.6321C50.9309 24.1944 47.9898 23.4397 45 23.4375H11.25C10.5041 23.4375 9.78871 23.7338 9.26126 24.2613C8.73382 24.7887 8.4375 25.5041 8.4375 26.25V93.75C8.4375 94.4959 8.73382 95.2113 9.26126 95.7387C9.78871 96.2662 10.5041 96.5625 11.25 96.5625H45C48.2323 96.5625 51.3323 97.8465 53.6179 100.132C55.9035 102.418 57.1875 105.518 57.1875 108.75C57.1875 109.496 57.4838 110.211 58.0113 110.739C58.5387 111.266 59.2541 111.562 60 111.562C60.7459 111.562 61.4613 111.266 61.9887 110.739C62.5162 110.211 62.8125 109.496 62.8125 108.75C62.8125 105.518 64.0965 102.418 66.3821 100.132C68.6677 97.8465 71.7677 96.5625 75 96.5625H108.75C109.496 96.5625 110.211 96.2662 110.739 95.7387C111.266 95.2113 111.562 94.4959 111.562 93.75V26.25C111.562 25.5041 111.266 24.7887 110.739 24.2613C110.211 23.7338 109.496 23.4375 108.75 23.4375ZM45 90.9375H14.0625V29.0625H45C48.2323 29.0625 51.3323 30.3465 53.6179 32.6321C55.9035 34.9177 57.1875 38.0177 57.1875 41.25V95.7703C53.8908 92.6628 49.5304 90.9338 45 90.9375ZM105.938 90.9375H75C70.469 90.9355 66.1087 92.6662 62.8125 95.775V41.25C62.8125 38.0177 64.0965 34.9177 66.3821 32.6321C68.6677 30.3465 71.7677 29.0625 75 29.0625H105.938V90.9375ZM75 42.1875H93.75C94.4959 42.1875 95.2113 42.4838 95.7387 43.0113C96.2662 43.5387 96.5625 44.2541 96.5625 45C96.5625 45.7459 96.2662 46.4613 95.7387 46.9887C95.2113 47.5162 94.4959 47.8125 93.75 47.8125H75C74.2541 47.8125 73.5387 47.5162 73.0113 46.9887C72.4838 46.4613 72.1875 45.7459 72.1875 45C72.1875 44.2541 72.4838 43.5387 73.0113 43.0113C73.5387 42.4838 74.2541 42.1875 75 42.1875ZM96.5625 60C96.5625 60.7459 96.2662 61.4613 95.7387 61.9887C95.2113 62.5162 94.4959 62.8125 93.75 62.8125H75C74.2541 62.8125 73.5387 62.5162 73.0113 61.9887C72.4838 61.4613 72.1875 60.7459 72.1875 60C72.1875 59.2541 72.4838 58.5387 73.0113 58.0113C73.5387 57.4838 74.2541 57.1875 75 57.1875H93.75C94.4959 57.1875 95.2113 57.4838 95.7387 58.0113C96.2662 58.5387 96.5625 59.2541 96.5625 60ZM96.5625 75C96.5625 75.7459 96.2662 76.4613 95.7387 76.9887C95.2113 77.5162 94.4959 77.8125 93.75 77.8125H75C74.2541 77.8125 73.5387 77.5162 73.0113 76.9887C72.4838 76.4613 72.1875 75.7459 72.1875 75C72.1875 74.2541 72.4838 73.5387 73.0113 73.0113C73.5387 72.4838 74.2541 72.1875 75 72.1875H93.75C94.4959 72.1875 95.2113 72.4838 95.7387 73.0113C96.2662 73.5387 96.5625 74.2541 96.5625 75Z"
                fill="#07D673" />
            </svg>