<svg xmlns="http://www.w3.org/2000/svg" width="120" height="120" viewBox="0 0 120 120" fill="none">
  <path d="M48.75 15.9374H26.25C24.5095 15.9374 22.8403 16.6288 21.6096 17.8595C20.3789 19.0902 19.6875 20.7594 19.6875 22.4999V97.4999C19.6875 99.2404 20.3789 100.91 21.6096 102.14C22.8403 103.371 24.5095 104.062 26.25 104.062H48.75C49.6118 104.062 50.4652 103.893 51.2614 103.563C52.0576 103.233 52.781 102.75 53.3904 102.14C53.9998 101.531 54.4832 100.807 54.813 100.011C55.1428 99.2151 55.3125 98.3617 55.3125 97.4999V22.4999C55.3125 21.6381 55.1428 20.7847 54.813 19.9885C54.4832 19.1923 53.9998 18.4689 53.3904 17.8595C52.781 17.2501 52.0576 16.7667 51.2614 16.4369C50.4652 16.1071 49.6118 15.9374 48.75 15.9374ZM25.3125 36.5624H49.6875V83.4374H25.3125V36.5624ZM26.25 21.5624H48.75C48.9986 21.5624 49.2371 21.6612 49.4129 21.837C49.5887 22.0128 49.6875 22.2513 49.6875 22.4999V30.9374H25.3125V22.4999C25.3125 22.2513 25.4113 22.0128 25.5871 21.837C25.7629 21.6612 26.0014 21.5624 26.25 21.5624ZM48.75 98.4374H26.25C26.0014 98.4374 25.7629 98.3386 25.5871 98.1628C25.4113 97.987 25.3125 97.7485 25.3125 97.4999V89.0624H49.6875V97.4999C49.6875 97.7485 49.5887 97.987 49.4129 98.1628C49.2371 98.3386 48.9986 98.4374 48.75 98.4374ZM107.672 91.4061L92.1141 17.4186C91.9385 16.5716 91.5972 15.7677 91.1098 15.0531C90.6224 14.3385 89.9985 13.7272 89.2741 13.2546C88.5496 12.7819 87.7389 12.4571 86.8884 12.2989C86.038 12.1407 85.1647 12.1522 84.3188 12.3327L62.3766 17.0483C60.6784 17.4216 59.1959 18.4494 58.2508 19.9088C57.3057 21.3682 56.9742 23.1414 57.3281 24.8436L72.8859 98.8171C73.0629 99.667 73.4068 100.473 73.8976 101.19C74.3884 101.906 75.0164 102.517 75.7453 102.989C76.8002 103.679 78.0332 104.047 79.2938 104.048C79.7666 104.051 80.2383 104.001 80.7 103.898L102.642 99.1874C104.334 98.8098 105.809 97.7824 106.75 96.3267C107.691 94.871 108.022 93.1037 107.672 91.4061ZM68.8547 52.3499L92.6344 47.2405L99.2531 78.7218L75.4688 83.8171L68.8547 52.3499ZM65.7469 37.5561L89.5312 32.4327L91.4766 41.7186L67.6969 46.828L65.7469 37.5561ZM63.5625 22.5561L85.5 17.8452C85.5655 17.8389 85.6314 17.8389 85.6969 17.8452C85.8722 17.8454 86.0434 17.8976 86.1891 17.9952C86.2967 18.0638 86.3893 18.1536 86.461 18.2592C86.5328 18.3648 86.5822 18.4839 86.6062 18.6093L88.3641 26.9624L64.5891 32.0343L62.8359 23.6999C62.7812 23.4508 62.8267 23.1901 62.9627 22.9743C63.0987 22.7585 63.3141 22.6049 63.5625 22.5468V22.5561ZM101.442 93.7124L79.5 98.4374C79.3825 98.4634 79.261 98.4657 79.1426 98.4439C79.0243 98.4222 78.9115 98.3769 78.8109 98.3108C78.7033 98.2423 78.6107 98.1525 78.539 98.0469C78.4672 97.9413 78.4178 97.8221 78.3938 97.6968L76.6359 89.3437L100.411 84.2343L102.188 92.5452C102.215 92.6702 102.218 92.7994 102.195 92.9254C102.172 93.0514 102.125 93.1716 102.056 93.2792C101.987 93.3868 101.897 93.4797 101.791 93.5524C101.686 93.6252 101.567 93.6763 101.442 93.703V93.7124Z" fill="#07D673"/>
</svg>