<svg xmlns="http://www.w3.org/2000/svg" width="120" height="120" viewBox="0 0 120 120" fill="none">
  <path d="M115.312 58.1251C115.306 53.2353 113.887 48.4514 111.226 44.3491C108.565 40.2468 104.775 37.0008 100.312 35.0017V33.7501C100.307 28.9922 98.7292 24.3694 95.8232 20.6019C92.9172 16.8345 88.8467 14.134 84.2459 12.9212C79.6451 11.7085 74.7724 12.0514 70.3868 13.8968C66.0013 15.7421 62.3492 18.9862 59.9997 23.1236C57.6501 18.9862 53.9981 15.7421 49.6125 13.8968C45.227 12.0514 40.3542 11.7085 35.7534 12.9212C31.1526 14.134 27.0822 16.8345 24.1762 20.6019C21.2702 24.3694 19.6919 28.9922 19.6872 33.7501V35.0017C15.2212 36.9941 11.4279 40.2375 8.76599 44.3399C6.10408 48.4422 4.6875 53.2278 4.6875 58.1181C4.6875 63.0084 6.10408 67.794 8.76599 71.8963C11.4279 75.9987 15.2212 79.2421 19.6872 81.2345V82.5001C19.6919 87.2581 21.2702 91.8809 24.1762 95.6483C27.0822 99.4157 31.1526 102.116 35.7534 103.329C40.3542 104.542 45.227 104.199 49.6125 102.353C53.9981 100.508 57.6501 97.264 59.9997 93.1267C62.3492 97.264 66.0013 100.508 70.3868 102.353C74.7724 104.199 79.6451 104.542 84.2459 103.329C88.8467 102.116 92.9172 99.4157 95.8232 95.6483C98.7292 91.8809 100.307 87.2581 100.312 82.5001V81.2345C104.775 79.2393 108.565 75.9961 111.226 71.8959C113.888 67.7957 115.307 63.0133 115.312 58.1251ZM41.2497 98.4376C37.1075 98.4396 33.1272 96.8289 30.1523 93.9467C27.1773 91.0644 25.4413 87.1372 25.3122 82.997C26.8575 83.2901 28.4268 83.4376 29.9997 83.4376H33.7497C34.4956 83.4376 35.211 83.1413 35.7384 82.6139C36.2659 82.0864 36.5622 81.371 36.5622 80.6251C36.5622 79.8792 36.2659 79.1638 35.7384 78.6364C35.211 78.1089 34.4956 77.8126 33.7497 77.8126H29.9997C25.3526 77.8164 20.8541 76.1762 17.3 73.1824C13.7459 70.1885 11.3654 66.034 10.5796 61.4538C9.79393 56.8737 10.6537 52.1633 13.0068 48.1561C15.3599 44.1489 19.0546 41.1032 23.4372 39.5579C23.9858 39.364 24.4607 39.0047 24.7965 38.5295C25.1323 38.0543 25.3125 37.4867 25.3122 36.9048V33.7501C25.3122 29.5232 26.9913 25.4695 29.9802 22.4806C32.969 19.4917 37.0228 17.8126 41.2497 17.8126C45.4766 17.8126 49.5303 19.4917 52.5192 22.4806C55.508 25.4695 57.1872 29.5232 57.1872 33.7501V67.9923C55.1699 65.7695 52.7097 63.9935 49.9649 62.7785C47.2201 61.5635 44.2514 60.9365 41.2497 60.9376C40.5037 60.9376 39.7884 61.2339 39.2609 61.7614C38.7335 62.2888 38.4372 63.0042 38.4372 63.7501C38.4372 64.496 38.7335 65.2114 39.2609 65.7389C39.7884 66.2663 40.5037 66.5626 41.2497 66.5626C45.4766 66.5626 49.5303 68.2417 52.5192 71.2306C55.508 74.2195 57.1872 78.2732 57.1872 82.5001C57.1872 86.727 55.508 90.7808 52.5192 93.7696C49.5303 96.7585 45.4766 98.4376 41.2497 98.4376ZM89.9997 77.8126H86.2497C85.5037 77.8126 84.7884 78.1089 84.2609 78.6364C83.7335 79.1638 83.4372 79.8792 83.4372 80.6251C83.4372 81.371 83.7335 82.0864 84.2609 82.6139C84.7884 83.1413 85.5037 83.4376 86.2497 83.4376H89.9997C91.5725 83.4376 93.1419 83.2901 94.6872 82.997C94.5896 86.1261 93.5725 89.1572 91.763 91.7119C89.9535 94.2667 87.4317 96.2319 84.5123 97.3623C81.5928 98.4928 78.4051 98.7384 75.347 98.0685C72.2888 97.3985 69.4958 95.8428 67.3163 93.5954C65.1368 91.3479 63.6675 88.5084 63.0918 85.4311C62.516 82.3539 62.8593 79.1752 64.0788 76.2919C65.2983 73.4085 67.34 70.9482 69.9491 69.2179C72.5582 67.4877 75.619 66.5641 78.7497 66.5626C79.4956 66.5626 80.211 66.2663 80.7384 65.7389C81.2659 65.2114 81.5622 64.496 81.5622 63.7501C81.5622 63.0042 81.2659 62.2888 80.7384 61.7614C80.211 61.2339 79.4956 60.9376 78.7497 60.9376C75.748 60.9365 72.7792 61.5635 70.0344 62.7785C67.2896 63.9935 64.8294 65.7695 62.8122 67.9923V33.7501C62.8122 29.5232 64.4913 25.4695 67.4802 22.4806C70.469 19.4917 74.5228 17.8126 78.7497 17.8126C82.9766 17.8126 87.0303 19.4917 90.0192 22.4806C93.008 25.4695 94.6872 29.5232 94.6872 33.7501V36.9048C94.6869 37.4867 94.867 38.0543 95.2029 38.5295C95.5387 39.0047 96.0136 39.364 96.5622 39.5579C100.945 41.1032 104.639 44.1489 106.993 48.1561C109.346 52.1633 110.205 56.8737 109.42 61.4538C108.634 66.034 106.253 70.1885 102.699 73.1824C99.1453 76.1762 94.6467 77.8164 89.9997 77.8126ZM96.5622 52.5001C96.5622 53.246 96.2659 53.9614 95.7384 54.4889C95.211 55.0163 94.4956 55.3126 93.7497 55.3126H91.8747C87.6478 55.3126 83.594 53.6335 80.6052 50.6446C77.6163 47.6558 75.9372 43.602 75.9372 39.3751V37.5001C75.9372 36.7542 76.2335 36.0388 76.7609 35.5114C77.2884 34.9839 78.0037 34.6876 78.7497 34.6876C79.4956 34.6876 80.211 34.9839 80.7384 35.5114C81.2659 36.0388 81.5622 36.7542 81.5622 37.5001V39.3751C81.5622 42.1102 82.6487 44.7332 84.5826 46.6672C86.5166 48.6011 89.1396 49.6876 91.8747 49.6876H93.7497C94.4956 49.6876 95.211 49.9839 95.7384 50.5114C96.2659 51.0388 96.5622 51.7542 96.5622 52.5001ZM28.1247 55.3126H26.2497C25.5038 55.3126 24.7884 55.0163 24.2609 54.4889C23.7335 53.9614 23.4372 53.246 23.4372 52.5001C23.4372 51.7542 23.7335 51.0388 24.2609 50.5114C24.7884 49.9839 25.5038 49.6876 26.2497 49.6876H28.1247C30.8597 49.6876 33.4827 48.6011 35.4167 46.6672C37.3507 44.7332 38.4372 42.1102 38.4372 39.3751V37.5001C38.4372 36.7542 38.7335 36.0388 39.2609 35.5114C39.7884 34.9839 40.5037 34.6876 41.2497 34.6876C41.9956 34.6876 42.711 34.9839 43.2384 35.5114C43.7659 36.0388 44.0622 36.7542 44.0622 37.5001V39.3751C44.0622 43.602 42.383 47.6558 39.3942 50.6446C36.4053 53.6335 32.3516 55.3126 28.1247 55.3126Z" fill="#07D673"/>
</svg>