<svg xmlns="http://www.w3.org/2000/svg" width="232" height="64" viewBox="0 0 232 64" fill="none">
  <path d="M60.7249 8.45984V12.2526H55.8762V28.3968H51.948V12.2526H45.7031L47.2889 8.45984H60.7249Z" fill="white"/>
  <path d="M81.2826 28.3967H77.3553V20.2977H68.4427V28.3967H64.5156V8.45984H68.4427V16.5049H77.3553V8.45984H81.2826V28.3967Z" fill="white"/>
  <path d="M100.028 8.45984V12.2526H90.3568V16.5049H98.9167V20.2977H90.3568V24.604H100.407V28.3968H86.4297V8.45984H100.028Z" fill="white"/>
  <path d="M119.779 8.45984V24.604H129.152V28.3968H115.852V8.45984H119.779Z" fill="white"/>
  <path d="M146.817 8.45984V12.2526H137.146V16.5049H145.706V20.2977H137.146V24.604H147.196V28.3968H133.219V8.45984H146.817Z" fill="white"/>
  <path d="M161.116 24.4959H154.507L152.881 28.3966H149.008L158.001 7.67371H158.218L167.211 28.3966H162.66L161.116 24.4959ZM159.816 21.1914L157.893 16.3427L155.888 21.1914H159.816Z" fill="white"/>
  <path d="M188.069 8.46011V29.2094H187.96L174.01 16.6133L174.091 28.3971H170.109V7.67419H170.271L184.195 20.4601L184.114 8.46011H188.069Z" fill="white"/>
  <path d="M58.7157 51.7027H51.9928L50.3392 55.6703H46.3984L55.5478 34.5907H55.7679L64.916 55.6703H60.2869L58.7157 51.7027ZM57.3936 48.3401L55.4365 43.4086L53.3983 48.3401H57.3936Z" fill="white"/>
  <path d="M79.2447 55.2566C78.1238 55.679 76.9019 55.8904 75.5797 55.8904C73.4669 55.8904 71.6299 55.4312 70.0687 54.5126C68.5064 53.5942 67.3134 52.3588 66.486 50.8064C65.6598 49.2542 65.2461 47.5506 65.2461 45.6949C65.2461 43.6564 65.6598 41.8372 66.486 40.2395C67.3134 38.6404 68.4697 37.3961 69.9586 36.5054C71.4465 35.6147 73.1634 35.1688 75.1115 35.1688C76.3413 35.1688 77.4811 35.3346 78.5275 35.6647C79.575 35.9962 80.4934 36.4087 81.2829 36.9046L79.7129 40.6797C78.2617 39.5778 76.7739 39.0262 75.2483 39.0262C74.2197 39.0262 73.2556 39.3121 72.355 39.8813C71.4553 40.4507 70.7392 41.2268 70.2066 42.2099C69.6729 43.1927 69.4072 44.2803 69.4072 45.4745C69.4072 46.7789 69.6551 47.9232 70.151 48.9049C70.6469 49.888 71.3541 50.6552 72.2725 51.2068C73.1912 51.7572 74.2653 52.033 75.4963 52.033C76.4893 52.033 77.38 51.8728 78.1695 51.5504C78.959 51.229 79.5838 50.8476 80.043 50.4073L81.6966 53.9889C81.1817 54.4125 80.3645 54.834 79.2447 55.2566Z" fill="white"/>
  <path d="M95.7236 51.7027H89.0006L87.347 55.6703H83.4062L92.5556 34.5907H92.7758L101.924 55.6703H97.2947L95.7236 51.7027ZM94.4015 48.3401L92.4444 43.4086L90.4062 48.3401H94.4015Z" fill="white"/>
  <path d="M104.871 35.389H110.934C113.523 35.389 115.655 35.8904 117.326 36.8913C118.998 37.8932 120.215 39.1874 120.978 40.7764C121.74 42.3655 122.121 44.0691 122.121 45.8881C122.121 47.8352 121.662 49.5533 120.743 51.041C119.825 52.5288 118.589 53.672 117.037 54.4715C115.485 55.2709 113.781 55.6701 111.925 55.6701H104.871V35.389ZM111.237 51.8127C113.312 51.8127 114.957 51.2801 116.169 50.2137C117.382 49.1484 117.988 47.6151 117.988 45.6125C117.988 43.9956 117.652 42.7102 116.982 41.7549C116.311 40.7998 115.531 40.1382 114.64 39.7701C113.748 39.4032 112.909 39.2197 112.119 39.2197H108.866V51.8127H111.237Z" fill="white"/>
  <path d="M139.95 35.389V39.2475H130.113V43.5732H138.82V47.4317H130.113V51.8127H140.336V55.6701H126.117V35.389H139.95Z" fill="white"/>
  <path d="M165.356 34.5629V55.6702H161.361V45.9983L154.747 55.3944H154.692L148.326 46.6044V55.6702H144.469V34.5629H144.496L154.774 49.1396L165.3 34.5629H165.356Z" fill="white"/>
  <path d="M187.455 35.389L179.85 49.3597V55.6701H175.853V49.3597L168.387 35.389H173.318L177.975 44.7585L182.522 35.389H187.455Z" fill="white"/>
  <path d="M0 60.6737L30.1852 0.301703L36.8379 3.62796L6.65269 64L0 60.6737Z" fill="#07D673"/>
  <path d="M194.836 60.6737L225.021 0.301727L231.674 3.62799L201.489 64L194.836 60.6737Z" fill="#07D673"/>
</svg>