<svg xmlns="http://www.w3.org/2000/svg" width="143" height="44" viewBox="0 0 143 44" fill="none">
  <path d="M36.475 7.46704V9.73407H33.5768V19.3839H31.2288V9.73407H27.4961L28.444 7.46704H36.475Z" fill="#223F4B"/>
  <path d="M48.7642 19.3839H46.4168V14.5428H41.0895V19.3839H38.7422V7.46704H41.0895V12.2758H46.4168V7.46704H48.7642V19.3839Z" fill="#223F4B"/>
  <path d="M59.9678 7.46704V9.73407H54.1872V12.2758H59.3037V14.5429H54.1872V17.1168H60.1944V19.3839H51.8398V7.46704H59.9678Z" fill="#223F4B"/>
  <path d="M71.7732 7.46704V17.1168H77.3758V19.3839H69.4258V7.46704H71.7732Z" fill="#223F4B"/>
  <path d="M87.9326 7.46704V9.73407H82.152V12.2758H87.2685V14.5429H82.152V17.1168H88.1593V19.3839H79.8047V7.46704H87.9326Z" fill="#223F4B"/>
  <path d="M96.4794 17.0524H92.5291L91.5573 19.3839H89.2422L94.6175 6.99731H94.7473L100.123 19.3839H97.4023L96.4794 17.0524ZM95.7026 15.0772L94.553 12.179L93.3545 15.0772H95.7026Z" fill="#223F4B"/>
  <path d="M112.59 7.46708V19.8695H112.525L104.187 12.3405L104.235 19.3839H101.855V6.99731H101.952L110.275 14.6398L110.227 7.46708H112.59Z" fill="#223F4B"/>
  <path d="M35.2725 33.3145H31.254L30.2657 35.686H27.9102L33.379 23.0862H33.5106L38.9786 35.686H36.2116L35.2725 33.3145ZM34.4822 31.3046L33.3125 28.3569L32.0942 31.3046H34.4822Z" fill="#223F4B"/>
  <path d="M47.5431 35.4386C46.8731 35.6911 46.1427 35.8175 45.3525 35.8175C44.0896 35.8175 42.9916 35.543 42.0584 34.9939C41.1246 34.445 40.4114 33.7065 39.9169 32.7786C39.423 31.8508 39.1758 30.8325 39.1758 29.7233C39.1758 28.5049 39.423 27.4175 39.9169 26.4625C40.4114 25.5067 41.1026 24.7629 41.9926 24.2305C42.8819 23.6982 43.9082 23.4316 45.0726 23.4316C45.8077 23.4316 46.489 23.5307 47.1144 23.7281C47.7406 23.9262 48.2895 24.1728 48.7614 24.4692L47.823 26.7257C46.9555 26.067 46.0663 25.7373 45.1544 25.7373C44.5396 25.7373 43.9633 25.9082 43.425 26.2484C42.8872 26.5887 42.4592 27.0527 42.1408 27.6403C41.8218 28.2278 41.663 28.8778 41.663 29.5916C41.663 30.3713 41.8111 31.0553 42.1076 31.6421C42.404 32.2297 42.8267 32.6883 43.3757 33.0179C43.9248 33.347 44.5668 33.5118 45.3026 33.5118C45.8961 33.5118 46.4285 33.4161 46.9004 33.2233C47.3723 33.0313 47.7458 32.8033 48.0203 32.5401L49.0087 34.6809C48.7009 34.9341 48.2125 35.1861 47.5431 35.4386Z" fill="#223F4B"/>
  <path d="M57.3936 33.3145H53.3751L52.3868 35.686H50.0312L55.5001 23.0862H55.6317L61.0997 35.686H58.3328L57.3936 33.3145ZM56.6034 31.3046L55.4336 28.3569L54.2153 31.3046H56.6034Z" fill="#223F4B"/>
  <path d="M62.8594 23.5635H66.4831C68.0311 23.5635 69.3051 23.8632 70.3042 24.4614C71.3032 25.0603 72.031 25.8339 72.4868 26.7836C72.9422 27.7335 73.1701 28.7518 73.1701 29.839C73.1701 31.0029 72.8956 32.0298 72.3466 32.9191C71.7976 33.8084 71.0591 34.4917 70.1314 34.9696C69.2034 35.4474 68.1853 35.686 67.0759 35.686H62.8594V23.5635ZM66.6645 33.3804C67.9047 33.3804 68.8878 33.062 69.6122 32.4246C70.3374 31.7878 70.6996 30.8713 70.6996 29.6743C70.6996 28.7078 70.4989 27.9396 70.0981 27.3685C69.6973 26.7976 69.2308 26.4022 68.6984 26.1822C68.1654 25.9629 67.6636 25.8531 67.1916 25.8531H65.2475V33.3804H66.6645Z" fill="#223F4B"/>
  <path d="M83.8268 23.5632V25.8696H77.9467V28.4551H83.1515V30.7615H77.9467V33.3801H84.0576V35.6858H75.5586V23.5632H83.8268Z" fill="#223F4B"/>
  <path d="M99.0161 23.0696V35.686H96.628V29.9049L92.6746 35.5211H92.642L88.8369 30.2671V35.686H86.5312V23.0696H86.5478L92.6912 31.7825L98.9828 23.0696H99.0161Z" fill="#223F4B"/>
  <path d="M112.222 23.5632L107.676 31.9139V35.6858H105.287V31.9139L100.824 23.5632H103.772L106.556 29.1636L109.273 23.5632H112.222Z" fill="#223F4B"/>
  <rect y="36.0859" width="40.3451" height="4.44583" transform="rotate(-63.4356 0 36.0859)" fill="#07D673"/>
  <rect x="120.145" y="41.4656" width="40.3451" height="4.44583" transform="rotate(-63.4355 120.145 41.4656)" fill="#07D673"/>
</svg>