<svg width="275" height="164" viewBox="0 0 275 164" fill="none" xmlns="http://www.w3.org/2000/svg">
<g clip-path="url(#clip0_2_11620)">
<rect width="275" height="164" rx="25.07" fill="#FF015D"/>
<path d="M55.9749 115.253C64.7291 115.253 73.0721 117.917 80.0827 122.861C82.0462 124.244 83.9029 125.806 85.6363 127.54C85.8525 127.756 86.07 127.968 86.29 128.176C96.8316 138.197 112.087 140.46 124.758 134.964C126.87 134.049 128.91 132.916 130.845 131.57C131.328 131.233 131.805 130.883 132.274 130.52C133.45 129.611 134.58 128.617 135.657 127.54C149.448 113.749 149.448 91.3103 135.657 77.5191C127.735 69.5972 123.371 59.063 123.371 47.8576C123.372 36.6535 127.734 26.1194 135.656 18.1975C149.447 4.40634 149.447 -18.0321 135.656 -31.8231C121.865 -45.6143 99.4262 -45.6143 85.6351 -31.8232C77.7131 -23.9012 67.1803 -19.538 55.9749 -19.538C44.7695 -19.538 34.2366 -23.9012 26.3134 -31.8244C24.3738 -33.764 22.2645 -35.4309 20.0307 -36.825C6.38293 -45.3415 -11.8557 -43.6759 -23.7072 -31.8244L-23.9396 -31.592C-37.7082 -17.8233 -37.501 4.41795 -23.7246 18.1788C-22.7276 19.1747 -21.7865 20.2113 -20.904 21.2861C-14.762 28.763 -11.4208 38.0527 -11.4208 47.8577C-11.4208 48.2071 -11.4245 48.5578 -11.4333 48.906C-11.6294 56.9285 -14.0656 64.5715 -18.4452 71.1182C-19.9675 73.3947 -21.7261 75.538 -23.7072 77.5191C-37.4983 91.3103 -37.4983 113.749 -23.7072 127.54C-9.91606 141.331 12.5223 141.331 26.3135 127.54C26.5611 127.292 26.8125 127.048 27.064 126.807C33.3806 120.792 41.2523 116.965 49.7563 115.71C51.7965 115.407 53.8744 115.255 55.9749 115.253Z" fill="#D197BF"/>
</g>
<defs>
<clipPath id="clip0_2_11620">
<rect width="275" height="164" rx="25.07" fill="white"/>
</clipPath>
</defs>
</svg>
