<svg width="160" height="164" viewBox="0 0 160 164" fill="none" xmlns="http://www.w3.org/2000/svg">
<g id="Frame 48354">
<rect width="160" height="164" rx="25.07" fill="#8F55EA"/>
<g id="Group">
<g id="Group_2">
<path id="Vector" d="M47.1429 35.841C47.9501 27.6889 41.996 20.426 33.8439 19.6188C25.6919 18.8115 18.429 24.7658 17.6217 32.9178C16.8145 41.0699 22.7687 48.3328 30.9207 49.14C39.0728 49.9473 46.3357 43.993 47.1429 35.841Z" fill="white"/>
</g>
<g id="Group_3">
<path id="Vector_2" d="M94.7942 36.7554C96.1064 28.6692 90.615 21.0503 82.5289 19.7381C74.4428 18.4259 66.8239 23.9173 65.5117 32.0035C64.1995 40.0896 69.6908 47.7085 77.777 49.0207C85.8631 50.3329 93.482 44.8415 94.7942 36.7554Z" fill="white"/>
</g>
<g id="Group_4">
<path id="Vector_3" d="M141.627 40.0562C144.762 32.4879 141.168 23.8111 133.599 20.6762C126.031 17.5413 117.354 21.1354 114.219 28.7037C111.084 36.2721 114.678 44.9488 122.247 48.0837C129.815 51.2186 138.492 47.6246 141.627 40.0562Z" fill="white"/>
</g>
<g id="Group_5">
<path id="Vector_4" d="M46.0836 87.5697C49.2185 80.0014 45.6246 71.3246 38.0562 68.1897C30.4879 65.0548 21.8112 68.6489 18.6763 76.2172C15.5413 83.7856 19.1354 92.4622 26.7037 95.5971C34.272 98.7321 42.9487 95.1381 46.0836 87.5697Z" fill="white"/>
</g>
<g id="Group_6">
<path id="Vector_5" d="M46.0836 135.339C49.2185 127.771 45.6246 119.094 38.0562 115.959C30.4879 112.825 21.8112 116.419 18.6763 123.987C15.5413 131.555 19.1354 140.232 26.7037 143.367C34.272 146.502 42.9487 142.908 46.0836 135.339Z" fill="white"/>
</g>
<g id="Group_7">
<path id="Vector_6" d="M80.1483 96.7263C88.3402 96.7263 94.9811 90.0855 94.9811 81.8936C94.9811 73.7016 88.3402 67.0608 80.1483 67.0608C71.9563 67.0608 65.3154 73.7016 65.3154 81.8936C65.3154 90.0855 71.9563 96.7263 80.1483 96.7263Z" fill="white"/>
</g>
<g id="Group_8">
<path id="Vector_7" d="M80.1483 144.496C88.3402 144.496 94.9811 137.855 94.9811 129.663C94.9811 121.471 88.3402 114.83 80.1483 114.83C71.9563 114.83 65.3154 121.471 65.3154 129.663C65.3154 137.855 71.9563 144.496 80.1483 144.496Z" fill="white"/>
</g>
<g id="Group_9">
<path id="Vector_8" d="M141.627 87.5697C144.762 80.0013 141.168 71.3246 133.599 68.1897C126.031 65.0547 117.354 68.6488 114.219 76.2171C111.084 83.7855 114.678 92.4622 122.247 95.5972C129.815 98.7321 138.492 95.138 141.627 87.5697Z" fill="white"/>
</g>
<g id="Group_10">
<path id="Vector_9" d="M141.627 135.339C144.762 127.771 141.168 119.094 133.599 115.959C126.031 112.825 117.354 116.419 114.219 123.987C111.084 131.555 114.678 140.232 122.247 143.367C129.815 146.502 138.492 142.908 141.627 135.339Z" fill="white"/>
</g>
</g>
</g>
</svg>
