<svg width="160" height="163" viewBox="0 0 160 163" fill="none" xmlns="http://www.w3.org/2000/svg">
<rect width="160" height="163" rx="25.07" fill="#F15631"/>
<g clip-path="url(#clip0_2_11679)">
<path d="M110.401 45.2036H49.5995C37.6704 45.2036 28 54.874 28 66.8031V97.1972C28 109.126 37.6704 118.797 49.5995 118.797H110.401C122.33 118.797 132 109.126 132 97.1972V66.8031C132 54.874 122.33 45.2036 110.401 45.2036ZM95.793 83.4789L67.3543 97.0424C66.5965 97.4038 65.7212 96.8513 65.7212 96.0119V68.0371C65.7212 67.1857 66.6196 66.6339 67.3789 67.0187L95.8176 81.43C96.6631 81.8585 96.6484 83.071 95.793 83.4789Z" fill="#F5F5F3"/>
</g>
<defs>
<clipPath id="clip0_2_11679">
<rect width="104" height="104" fill="white" transform="translate(28 30)"/>
</clipPath>
</defs>
</svg>
