<svg width="160" height="164" viewBox="0 0 160 164" fill="none" xmlns="http://www.w3.org/2000/svg">
<rect width="160" height="164" rx="25.07" fill="#2C2523"/>
<path d="M82.8125 79.1875V112.938C82.8125 113.683 82.5162 114.399 81.9887 114.926C81.4613 115.454 80.7459 115.75 80 115.75C79.2541 115.75 78.5387 115.454 78.0113 114.926C77.4838 114.399 77.1875 113.683 77.1875 112.938V79.1875C77.1875 78.4416 77.4838 77.7262 78.0113 77.1988C78.5387 76.6713 79.2541 76.375 80 76.375C80.7459 76.375 81.4613 76.6713 81.9887 77.1988C82.5162 77.7262 82.8125 78.4416 82.8125 79.1875ZM105.312 104.5C104.567 104.5 103.851 104.796 103.324 105.324C102.796 105.851 102.5 106.567 102.5 107.312V112.938C102.5 113.683 102.796 114.399 103.324 114.926C103.851 115.454 104.567 115.75 105.312 115.75C106.058 115.75 106.774 115.454 107.301 114.926C107.829 114.399 108.125 113.683 108.125 112.938V107.312C108.125 106.567 107.829 105.851 107.301 105.324C106.774 104.796 106.058 104.5 105.312 104.5ZM113.75 87.625H108.125V51.0625C108.125 50.3166 107.829 49.6012 107.301 49.0738C106.774 48.5463 106.058 48.25 105.312 48.25C104.567 48.25 103.851 48.5463 103.324 49.0738C102.796 49.6012 102.5 50.3166 102.5 51.0625V87.625H96.875C96.1291 87.625 95.4137 87.9213 94.8863 88.4488C94.3588 88.9762 94.0625 89.6916 94.0625 90.4375V96.0625C94.0625 96.8084 94.3588 97.5238 94.8863 98.0512C95.4137 98.5787 96.1291 98.875 96.875 98.875H113.75C114.496 98.875 115.211 98.5787 115.739 98.0512C116.266 97.5238 116.562 96.8084 116.562 96.0625V90.4375C116.562 89.6916 116.266 88.9762 115.739 88.4488C115.211 87.9213 114.496 87.625 113.75 87.625ZM54.6875 93.25C53.9416 93.25 53.2262 93.5463 52.6988 94.0738C52.1713 94.6012 51.875 95.3166 51.875 96.0625V112.938C51.875 113.683 52.1713 114.399 52.6988 114.926C53.2262 115.454 53.9416 115.75 54.6875 115.75C55.4334 115.75 56.1488 115.454 56.6762 114.926C57.2037 114.399 57.5 113.683 57.5 112.938V96.0625C57.5 95.3166 57.2037 94.6012 56.6762 94.0738C56.1488 93.5463 55.4334 93.25 54.6875 93.25ZM63.125 76.375H57.5V51.0625C57.5 50.3166 57.2037 49.6012 56.6762 49.0738C56.1488 48.5463 55.4334 48.25 54.6875 48.25C53.9416 48.25 53.2262 48.5463 52.6988 49.0738C52.1713 49.6012 51.875 50.3166 51.875 51.0625V76.375H46.25C45.5041 76.375 44.7887 76.6713 44.2613 77.1988C43.7338 77.7262 43.4375 78.4416 43.4375 79.1875V84.8125C43.4375 85.5584 43.7338 86.2738 44.2613 86.8012C44.7887 87.3287 45.5041 87.625 46.25 87.625H63.125C63.8709 87.625 64.5863 87.3287 65.1137 86.8012C65.6412 86.2738 65.9375 85.5584 65.9375 84.8125V79.1875C65.9375 78.4416 65.6412 77.7262 65.1137 77.1988C64.5863 76.6713 63.8709 76.375 63.125 76.375ZM88.4375 59.5H82.8125V51.0625C82.8125 50.3166 82.5162 49.6012 81.9887 49.0738C81.4613 48.5463 80.7459 48.25 80 48.25C79.2541 48.25 78.5387 48.5463 78.0113 49.0738C77.4838 49.6012 77.1875 50.3166 77.1875 51.0625V59.5H71.5625C70.8166 59.5 70.1012 59.7963 69.5738 60.3238C69.0463 60.8512 68.75 61.5666 68.75 62.3125V67.9375C68.75 68.6834 69.0463 69.3988 69.5738 69.9262C70.1012 70.4537 70.8166 70.75 71.5625 70.75H88.4375C89.1834 70.75 89.8988 70.4537 90.4262 69.9262C90.9537 69.3988 91.25 68.6834 91.25 67.9375V62.3125C91.25 61.5666 90.9537 60.8512 90.4262 60.3238C89.8988 59.7963 89.1834 59.5 88.4375 59.5Z" fill="#F5F5F3"/>
</svg>
