<svg width="160" height="163" viewBox="0 0 160 163" fill="none" xmlns="http://www.w3.org/2000/svg">
<g id="Frame 48354">
<rect width="160" height="163" rx="25.07" fill="white"/>
<g id="Group">
<path id="Vector" d="M37.6104 143.955C48.4239 143.955 57.2207 135.158 57.2207 124.345C57.2207 118.133 59.6404 112.293 64.0324 107.9C68.4254 103.507 74.2654 101.088 80.4779 101.088C91.2914 101.088 100.088 92.2914 100.088 81.4779C100.088 70.6644 91.2914 61.8676 80.4779 61.8676C79.1187 61.8676 77.7782 61.7522 76.4663 61.5246C72.9042 60.9095 69.557 59.4754 66.6493 57.3159C66.3428 57.0882 66.0422 56.8526 65.7455 56.6092C65.1531 56.1232 64.5814 55.6048 64.0324 55.0558C63.3464 54.3698 62.7078 53.6473 62.1203 52.8943C62.002 52.7445 61.8867 52.5927 61.7734 52.4389C60.2959 50.4499 59.1575 48.2539 58.3887 45.9258C57.6198 43.5967 57.2207 41.1336 57.2207 38.6104C57.2207 27.7969 48.4239 19 37.6104 19C26.7979 19 18 27.7969 18 38.6104C18 49.4238 26.7979 58.2207 37.6104 58.2207C37.9987 58.2207 38.3861 58.2305 38.7705 58.2493C44.5473 58.5312 49.9378 60.9144 54.0558 65.0324C57.3508 68.3275 59.535 72.4356 60.4211 76.9055C60.7168 78.3948 60.8676 79.9245 60.8676 81.4779C60.8676 83.0312 60.7168 84.561 60.4211 86.0503C59.535 90.5202 57.3508 94.6283 54.0558 97.9233C49.9378 102.041 44.5473 104.425 38.7705 104.706C38.3861 104.725 37.9987 104.735 37.6104 104.735C26.7979 104.735 18 113.532 18 124.345C18 135.158 26.7979 143.955 37.6104 143.955Z" fill="#FF015D"/>
<path id="Vector_2" d="M123.4 58.2206C134.152 58.1917 142.932 49.4083 142.957 38.6567C142.982 27.822 134.176 19 123.347 19C112.534 19 103.736 27.7969 103.736 38.6103C103.736 49.4417 112.563 58.2499 123.4 58.2206Z" fill="#FF015D"/>
<path id="Vector_3" d="M37.6104 101.088C37.7799 101.088 37.9484 101.086 38.116 101.081C39.2919 101.052 40.4421 100.918 41.5579 100.689C41.8762 100.624 42.1926 100.55 42.506 100.47C42.8185 100.389 43.129 100.301 43.4355 100.205C43.5892 100.157 43.742 100.107 43.8938 100.056C46.626 99.1296 49.0892 97.6167 51.1334 95.6671C51.2477 95.5586 51.3601 95.4493 51.4704 95.3379C52.0254 94.7829 52.5478 94.1955 53.0327 93.5775C53.1303 93.4543 53.2259 93.3291 53.3195 93.204C53.5088 92.9516 53.6911 92.6953 53.8675 92.4341C54.044 92.174 54.2135 91.9078 54.3781 91.6388C54.5417 91.3696 54.6994 91.0957 54.8502 90.8177C56.3622 88.0392 57.2207 84.8565 57.2207 81.4778C57.2207 78.099 56.3622 74.9164 54.8502 72.1378C54.6994 71.8598 54.5417 71.5859 54.3781 71.3168C54.2135 71.0467 54.044 70.7816 53.8675 70.5214C53.6911 70.2602 53.5088 70.0039 53.3195 69.7516C53.2259 69.6264 53.1303 69.5012 53.0327 69.378C52.5478 68.76 52.0254 68.1726 51.4704 67.6177C51.3601 67.5063 51.2477 67.3969 51.1334 67.2884C49.0892 65.3389 46.626 63.8259 43.8938 62.8994C43.742 62.8481 43.5892 62.7979 43.4355 62.7506C43.129 62.655 42.8185 62.5662 42.506 62.4854C42.1926 62.4056 41.8762 62.3316 41.5579 62.2666C40.4421 62.0379 39.2919 61.9039 38.116 61.8743C37.9484 61.8694 37.7799 61.8674 37.6104 61.8674C26.7979 61.8674 18 70.6642 18 81.4778C18 92.2913 26.7979 101.088 37.6104 101.088Z" fill="#FF015D"/>
<path id="Vector_4" d="M123.346 61.8676C117.134 61.8676 111.294 59.4488 106.901 55.0558C102.509 50.6628 100.089 44.8228 100.089 38.6103C100.089 27.7969 91.292 19 80.4785 19C69.666 19 60.8682 27.7969 60.8682 38.6103C60.8682 49.4238 69.666 58.2207 80.4785 58.2207C83.3911 58.2207 86.2208 58.7519 88.8584 59.7691C91.8479 60.9223 94.5899 62.6984 96.9239 65.0324C101.18 69.2885 103.583 74.9017 103.729 80.8963C103.734 81.0895 103.736 81.2837 103.736 81.4779C103.736 92.2914 112.533 101.088 123.346 101.088C134.159 101.088 142.956 92.2914 142.956 81.4779C142.956 70.6644 134.159 61.8676 123.346 61.8676Z" fill="#FF015D"/>
<path id="Vector_5" d="M123.346 104.734H80.4785C69.666 104.734 60.8682 113.531 60.8682 124.345C60.8682 135.158 69.666 143.955 80.4785 143.955H123.346C134.16 143.955 142.956 135.158 142.956 124.345C142.956 113.531 134.16 104.734 123.346 104.734Z" fill="#FF015D"/>
</g>
</g>
</svg>
