<svg width="249" height="333" viewBox="0 0 249 333" fill="none" xmlns="http://www.w3.org/2000/svg">
<rect y="0.725098" width="249" height="332" rx="25.07" fill="#2C2523"/>
<path d="M195.184 262.733L166.938 247.516L166.938 292.125L184.136 292.125L184.136 277.846L213.632 294.001L213.632 268.883L213.632 268.361L213.632 266.485L195.184 256.48L195.184 262.733Z" fill="#FF015D"/>
<path d="M166.834 160.07L179.966 160.07C177.361 161.32 175.068 162.988 172.983 165.073C168.501 169.763 166 176.225 166 183.104C166 192.589 170.794 200.822 177.986 205.2C176.214 206.242 174.547 207.597 173.087 209.161C168.606 213.851 166.104 220.313 166.104 227.192C166.104 241.471 176.735 252.623 190.389 252.623L190.493 252.623C192.161 252.623 193.724 252.415 195.288 252.102L195.288 254.291L213.736 264.297L213.736 245.848L207.065 245.848C207.274 245.64 207.482 245.432 207.691 245.223C212.173 240.533 214.674 234.071 214.674 227.192C214.674 217.707 209.88 209.578 202.688 205.2C204.46 204.158 206.127 202.803 207.587 201.239C212.068 196.549 214.57 190.087 214.57 183.208C214.57 172.785 208.837 164.03 200.499 159.965L213.632 159.965L213.632 143.393L195.496 143.393L201.124 133.805L195.496 124.424L213.736 124.424L213.736 107.748L166.834 107.748L180.175 133.909L166.834 160.07ZM190.493 218.854C194.871 218.854 199.561 221.772 199.561 227.192C199.561 232.716 194.871 235.634 190.389 235.634L190.285 235.634C185.907 235.634 181.217 232.716 181.217 227.296C181.217 221.772 185.907 218.854 190.389 218.854L190.493 218.854ZM190.493 174.87C194.871 174.87 199.561 177.788 199.561 183.208C199.561 188.732 194.871 191.65 190.389 191.65L190.285 191.65C185.907 191.65 181.217 188.732 181.217 183.312C181.217 177.788 185.907 174.87 190.389 174.87L190.493 174.87Z" fill="#FF015D"/>
<path d="M166.938 88.0491L166.938 104.934L213.632 104.934L213.632 88.0491L166.938 88.0491Z" fill="#FF015D"/>
<path d="M182.261 58.4485L166.835 85.1306L213.633 85.1306L213.633 68.0374L197.79 68.0374L213.946 40.0004L166.939 40.0004L166.939 58.4485L182.261 58.4485Z" fill="#FF015D"/>
<path d="M65.6445 266.866L65.6445 276.359L48.2413 277.937L65.6445 283.478L65.6445 291.389L48.2413 296.926L65.6445 298.51L65.6445 308L32.4209 304.837L32.4209 295.344L52.1967 287.434L32.4209 279.523L32.4209 270.031L65.6445 266.866Z" fill="#F15631"/>
<path d="M65.6445 231.715L65.6445 241.357L60.1074 243.483L60.1074 256.336L65.6445 258.462L65.6445 268.103L32.4209 254.359L32.4209 245.459L65.6445 231.715ZM52.9886 246.251L43.4951 249.909L52.9886 253.568L52.9886 246.251Z" fill="#F15631"/>
<path d="M54.8153 204.083C61.2428 204.083 66.4293 208.433 66.4293 219.113C66.4293 227.961 61.485 233.351 61.485 233.351L53.9305 229.842C57.7376 224.897 57.7376 219.113 57.7376 219.113C57.8361 216.492 57.5396 213.576 55.7102 213.576C54.2722 213.576 53.9791 215.305 53.2878 219.659C51.8499 228.707 48.1456 232.563 42.4105 232.563C36.577 232.563 31.6328 228.063 31.6328 218.226C31.6328 218.226 31.6328 210.167 35.5882 205.667L42.707 209.428C42.707 209.428 40.3256 212.488 40.3256 219.113C40.3256 222.227 41.018 223.068 41.9073 223.068C42.9946 223.068 43.489 222.227 43.9347 218.717C44.7798 212.191 46.4091 204.083 54.8153 204.083Z" fill="#F15631"/>
<path d="M32.4209 178.07L41.1225 178.07L41.1225 186.772L65.6445 186.772L65.6445 196.264L41.1225 196.264L41.1225 204.966L32.4209 204.966L32.4209 178.07Z" fill="#F15631"/>
<path d="M41.1225 167.043L45.0834 167.043L45.0834 156.757L52.9942 156.757L52.9942 167.043L56.9484 167.043L56.9484 154.385L65.65 154.385L65.65 176.536L32.4209 176.536L32.4209 154.385L41.1225 154.385L41.1225 167.043Z" fill="#F15631"/>
<path d="M65.6445 122.792L65.6445 133.866L55.3579 140.738L55.3579 142.567L65.6445 142.567L65.6445 152.06L32.4209 152.06L32.4209 137.03C32.4209 128.377 37.0665 124.373 43.4951 124.373C48.3906 124.373 52.6911 126.746 54.4708 130.949L65.6445 122.792ZM43.891 133.866C41.4687 133.866 40.3316 135.695 40.3316 137.92L40.3316 142.565L47.4504 142.565L47.4504 137.92C47.4504 135.69 46.3632 133.866 43.891 133.866Z" fill="#F15631"/>
<path d="M32.4209 101.73L35.5854 101.73L35.5854 110.431L65.6445 110.431L65.6445 113.595L35.5854 113.595L35.5854 122.296L32.4209 122.296L32.4209 101.73Z" fill="#F15631"/>
<path d="M32.4209 74.4432L51.8018 74.4432C60.948 74.4432 66.0405 78.7945 66.0405 86.3093C66.0405 94.0221 60.9525 98.1743 51.8018 98.1743L32.4209 98.1743L32.4209 95.0109L52.1967 95.0109C59.3166 95.0109 62.876 91.6926 62.876 86.3093C62.876 80.9702 59.3166 77.6077 52.1967 77.6077L32.4209 77.6077L32.4209 74.4432Z" fill="#F15631"/>
<path d="M55.6576 47.154C61.3927 47.154 65.6445 51.1592 65.6445 57.8333L65.6445 69.3035L32.4209 69.3035L32.4209 60.5521C32.4209 53.3835 35.3874 48.7369 41.1225 48.7369C44.0393 48.7369 46.956 50.5165 47.7966 52.6911C48.4891 49.2799 52.3449 47.154 55.6576 47.154ZM46.6596 66.1401L46.6596 59.4161C46.6596 54.6201 44.9297 51.9003 41.1225 51.9003C37.3153 51.9003 35.5854 54.6201 35.5854 59.4161L35.5854 66.1401L46.6596 66.1401ZM56.2018 50.323C51.8505 50.323 49.8241 53.5859 49.8241 58.6286L49.8241 66.1445L62.4811 66.1445L62.4811 58.6286C62.4811 53.5815 60.5034 50.3186 56.2018 50.3186L56.2018 50.323Z" fill="#F15631"/>
<path d="M35.5854 40.0298L47.4504 40.0298L47.4504 27.3739L50.6139 27.3739L50.6139 40.0298L62.4811 40.0298L62.4811 25.0003L65.6445 25.0003L65.6445 43.1943L32.4209 43.1943L32.4209 25.0003L35.5854 25.0003L35.5854 40.0298Z" fill="#F15631"/>
</svg>
