<svg xmlns="http://www.w3.org/2000/svg" width="43" height="44" viewBox="0 0 43 44" fill="none">
  <path d="M21.25 4.64355C17.8352 4.64355 14.4971 5.65617 11.6577 7.55334C8.81842 9.45051 6.60544 12.147 5.29865 15.3019C3.99186 18.4568 3.64994 21.9283 4.31614 25.2775C4.98233 28.6267 6.62673 31.7032 9.04137 34.1178C11.456 36.5325 14.5324 38.1769 17.8817 38.843C21.2309 39.5092 24.7024 39.1673 27.8573 37.8605C31.0122 36.5537 33.7087 34.3408 35.6059 31.5014C37.503 28.6621 38.5156 25.324 38.5156 21.9092C38.5108 17.3315 36.6902 12.9428 33.4533 9.70588C30.2164 6.46899 25.8277 4.64839 21.25 4.64355ZM27.8906 24.5654C27.8906 24.9177 27.7507 25.2555 27.5016 25.5046C27.2526 25.7536 26.9147 25.8936 26.5625 25.8936C26.2103 25.8936 25.8725 25.7536 25.6234 25.5046C25.3743 25.2555 25.2344 24.9177 25.2344 24.5654V19.8024L16.8772 28.1613C16.7538 28.2847 16.6073 28.3826 16.446 28.4494C16.2848 28.5162 16.112 28.5505 15.9375 28.5505C15.763 28.5505 15.5902 28.5162 15.429 28.4494C15.2677 28.3826 15.1213 28.2847 14.9979 28.1613C14.8745 28.0379 14.7766 27.8914 14.7098 27.7302C14.643 27.569 14.6086 27.3962 14.6086 27.2217C14.6086 27.0472 14.643 26.8744 14.7098 26.7131C14.7766 26.5519 14.8745 26.4054 14.9979 26.282L23.3567 17.9248H18.5938C18.2415 17.9248 17.9037 17.7849 17.6546 17.5358C17.4056 17.2867 17.2656 16.9489 17.2656 16.5967C17.2656 16.2444 17.4056 15.9066 17.6546 15.6576C17.9037 15.4085 18.2415 15.2686 18.5938 15.2686H26.5625C26.9147 15.2686 27.2526 15.4085 27.5016 15.6576C27.7507 15.9066 27.8906 16.2444 27.8906 16.5967V24.5654Z" fill="url(#paint0_linear_4_26555)"/>
  <defs>
    <linearGradient id="paint0_linear_4_26555" x1="4.31732" y1="58.3832" x2="40.0454" y2="57.7428" gradientUnits="userSpaceOnUse">
      <stop stop-color="#30BBBE"/>
      <stop offset="1" stop-color="#3E82DD"/>
    </linearGradient>
  </defs>
</svg>