<svg xmlns="http://www.w3.org/2000/svg" width="18" height="13" viewBox="0 0 18 13" fill="none">
  <g clip-path="url(#clip0_4_25990)">
    <mask id="mask0_4_25990" style="mask-type:luminance" maskUnits="userSpaceOnUse" x="0" y="0" width="18" height="13">
      <path d="M0 0.919922H18V12.9179H0V0.919922Z" fill="white"/>
    </mask>
    <g mask="url(#mask0_4_25990)">
      <path d="M18 0.919922H0V12.9179H18V0.919922Z" fill="#0052B4"/>
      <path fill-rule="evenodd" clip-rule="evenodd" d="M18 0.919922V2.16992L13.474 5.18642L12.434 5.87942L10.8745 6.91892L12.4345 7.95892L18 11.6679V12.9174H16.125L10.733 9.32342L10.04 8.86092L9 8.16842L7.96 8.86142L7.267 9.32392L1.8745 12.9179H0V11.6679L4.526 8.65142L5.566 7.95842L7.1255 6.91892L5.5655 5.87892L4.526 5.18642L0 2.16942V0.919922H1.875L7.267 4.51392L7.96 4.97642L9 5.66942L10.04 4.97642L10.733 4.51392L16.1255 0.919922H18Z" fill="#F0F0F0"/>
      <path fill-rule="evenodd" clip-rule="evenodd" d="M11.809 5.87942L10.249 6.91892L11.809 7.95892L12.849 8.65142L18 12.0854V12.9179H16.751L10.733 8.90642L10.04 8.44442L9 7.75142L7.96 8.44442L7.267 8.90642L1.249 12.9179H0V12.0854L5.1515 8.65142L6.1915 7.95842L7.751 6.91892L6.191 5.87892L5.1515 5.18642L0 1.75242V0.919922H1.249L7.267 4.93142L7.96 5.39342L9 6.08642L10.04 5.39342L10.733 4.93142L16.751 0.919922H18V1.75242L12.8485 5.18642L11.809 5.87942Z" fill="#FF4B55"/>
      <path fill-rule="evenodd" clip-rule="evenodd" d="M10.733 8.65192V12.9179H7.267V8.65192H0V5.18642H7.267V0.919922H10.733V5.18642H18V8.65142L10.733 8.65192Z" fill="#F0F0F0"/>
      <path fill-rule="evenodd" clip-rule="evenodd" d="M10.04 7.95842V12.9179H7.96V7.95842H0V5.87992H7.96V0.919922H10.04V5.87992H18V7.95892H10.04V7.95842Z" fill="#FF4B55"/>
    </g>
  </g>
  <defs>
    <clipPath id="clip0_4_25990">
      <rect width="18" height="12" fill="white" transform="translate(0 0.919922)"/>
    </clipPath>
  </defs>
</svg>