<svg xmlns="http://www.w3.org/2000/svg" width="18" height="19" viewBox="0 0 18 19" fill="none">
  <path d="M16.875 9.7271C16.8755 9.91808 16.8265 10.1059 16.7329 10.2724C16.6392 10.4389 16.5041 10.5782 16.3406 10.677L6.21 16.8744C6.0392 16.9789 5.84358 17.036 5.64334 17.0398C5.44309 17.0435 5.24549 16.9936 5.07094 16.8955C4.89805 16.7988 4.75402 16.6578 4.65368 16.487C4.55333 16.3162 4.50029 16.1218 4.5 15.9237V3.53046C4.50029 3.33238 4.55333 3.13795 4.65368 2.96716C4.75402 2.79638 4.89805 2.6554 5.07094 2.55874C5.24549 2.46054 5.44309 2.41073 5.64334 2.41444C5.84358 2.41815 6.0392 2.47524 6.21 2.57983L16.3406 8.77717C16.5041 8.87594 16.6392 9.01534 16.7329 9.18179C16.8265 9.34825 16.8755 9.53611 16.875 9.7271Z" fill="url(#paint0_linear_4_26378)"/>
  <defs>
    <linearGradient id="paint0_linear_4_26378" x1="4.61932" y1="25.1757" x2="17.4244" y2="24.9815" gradientUnits="userSpaceOnUse">
      <stop stop-color="#30BBBE"/>
      <stop offset="1" stop-color="#3E82DD"/>
    </linearGradient>
  </defs>
</svg>